<svg width="414" height="896" viewBox="0 0 414 896" fill="none" xmlns="http://www.w3.org/2000/svg">
<rect x="-1" width="415" height="896" fill="#8AE1E8"/>
<circle cx="206" cy="522" r="227" fill="#E9EFFF" fill-opacity="0.1"/>
<circle cx="206" cy="522" r="193" fill="#E9EFFF" fill-opacity="0.1"/>
<circle cx="206.5" cy="522.5" r="145.5" fill="#E9EFFF" fill-opacity="0.1"/>
<path d="M186.304 28.296C188.629 28.296 190.571 28.5733 192.128 29.128C193.685 29.6827 194.923 30.44 195.84 31.4C196.779 32.3387 197.44 33.4267 197.824 34.664C198.229 35.9013 198.432 37.2027 198.432 38.568C198.432 39.9333 198.208 41.2453 197.76 42.504C197.333 43.7627 196.64 44.8827 195.68 45.864C194.741 46.824 193.493 47.592 191.936 48.168C190.4 48.7227 188.523 49 186.304 49H174.464V28.296H186.304ZM178.72 45.352H186.208C187.744 45.352 189.013 45.1707 190.016 44.808C191.04 44.424 191.851 43.912 192.448 43.272C193.045 42.632 193.472 41.9067 193.728 41.096C193.984 40.2853 194.112 39.4427 194.112 38.568C194.112 37.6933 193.984 36.8613 193.728 36.072C193.472 35.2827 193.045 34.5787 192.448 33.96C191.851 33.3413 191.04 32.8507 190.016 32.488C189.013 32.1253 187.744 31.944 186.208 31.944H178.72V45.352ZM200.605 33.096H205.021L211.901 48.36L208.317 49L200.605 33.096ZM220.061 33.096L209.053 55.4H204.733L209.437 46.632L215.613 33.096H220.061ZM229.7 46.568C227.972 46.568 226.446 46.312 225.124 45.8C223.822 45.2667 222.809 44.488 222.084 43.464C221.358 42.44 220.996 41.2027 220.996 39.752C220.996 38.3227 221.348 37.0853 222.052 36.04C222.756 34.9947 223.758 34.184 225.06 33.608C226.382 33.032 227.929 32.744 229.7 32.744C230.19 32.744 230.66 32.776 231.108 32.84C231.577 32.904 232.036 32.9893 232.484 33.096L240.516 33.128V36.264C239.428 36.2853 238.318 36.1573 237.188 35.88C236.078 35.5813 235.097 35.2613 234.244 34.92L234.148 34.696C234.873 35.0373 235.556 35.464 236.196 35.976C236.836 36.4667 237.348 37.0427 237.732 37.704C238.137 38.344 238.34 39.0907 238.34 39.944C238.34 41.3307 237.988 42.5253 237.284 43.528C236.58 44.5093 235.577 45.2667 234.276 45.8C232.996 46.312 231.47 46.568 229.7 46.568ZM235.044 55.56V54.792C235.044 53.8107 234.724 53.128 234.084 52.744C233.465 52.36 232.612 52.168 231.524 52.168H226.564C225.604 52.168 224.793 52.0933 224.132 51.944C223.492 51.7947 222.98 51.5813 222.596 51.304C222.212 51.0267 221.934 50.696 221.764 50.312C221.593 49.9493 221.508 49.5547 221.508 49.128C221.508 48.2747 221.785 47.6347 222.34 47.208C222.894 46.76 223.641 46.4613 224.58 46.312C225.518 46.1627 226.553 46.1307 227.684 46.216L229.7 46.568C228.356 46.6107 227.353 46.728 226.692 46.92C226.052 47.0907 225.732 47.4427 225.732 47.976C225.732 48.296 225.86 48.552 226.116 48.744C226.372 48.9147 226.734 49 227.204 49H232.42C233.849 49 235.065 49.1493 236.068 49.448C237.092 49.768 237.87 50.2907 238.404 51.016C238.937 51.7627 239.204 52.776 239.204 54.056V55.56H235.044ZM229.7 43.56C230.617 43.56 231.417 43.4107 232.1 43.112C232.804 42.8133 233.348 42.3867 233.732 41.832C234.116 41.256 234.308 40.5733 234.308 39.784C234.308 38.9733 234.116 38.28 233.732 37.704C233.348 37.128 232.814 36.6907 232.132 36.392C231.449 36.072 230.638 35.912 229.7 35.912C228.782 35.912 227.972 36.072 227.268 36.392C226.564 36.6907 226.02 37.128 225.636 37.704C225.252 38.28 225.06 38.9733 225.06 39.784C225.06 40.5733 225.252 41.256 225.636 41.832C226.02 42.3867 226.553 42.8133 227.236 43.112C227.94 43.4107 228.761 43.56 229.7 43.56Z" fill="#E9EFFF"/>
<path d="M100.208 210.84H116.624V214.392H100.208V210.84ZM115.92 202.296H120.176V223H115.92V202.296ZM96.464 202.296H100.72V223H96.464V202.296ZM129.313 200.12V203.768H124.481V200.12H129.313ZM124.801 207.096H128.961V223H124.801V207.096ZM133.332 227.768L132.756 226.68C133.076 226.211 133.385 225.688 133.684 225.112C134.004 224.536 134.174 223.949 134.196 223.352L132.436 223V219.32H137.332V221.944C137.332 223.459 136.969 224.675 136.244 225.592C135.54 226.531 134.569 227.256 133.332 227.768ZM155.689 223L146.953 202.296H151.657L159.049 220.632L157.673 220.664L164.713 202.296H169.609L176.649 220.664L175.273 220.632L182.665 202.296H187.273L178.632 223H173.417L166.505 205.048H167.849L160.905 223H155.689ZM202.229 217.72H206.261C206.09 218.808 205.631 219.779 204.885 220.632C204.159 221.485 203.167 222.157 201.909 222.648C200.65 223.139 199.114 223.384 197.301 223.384C195.274 223.384 193.482 223.064 191.925 222.424C190.367 221.763 189.151 220.813 188.277 219.576C187.402 218.339 186.965 216.845 186.965 215.096C186.965 213.347 187.391 211.853 188.245 210.616C189.098 209.357 190.282 208.397 191.797 207.736C193.333 207.075 195.125 206.744 197.173 206.744C199.263 206.744 201.002 207.075 202.389 207.736C203.775 208.397 204.799 209.4 205.461 210.744C206.143 212.067 206.431 213.763 206.325 215.832H191.157C191.263 216.643 191.562 217.379 192.053 218.04C192.565 218.701 193.247 219.224 194.101 219.608C194.975 219.992 196.01 220.184 197.205 220.184C198.527 220.184 199.626 219.96 200.501 219.512C201.397 219.043 201.973 218.445 202.229 217.72ZM196.981 209.912C195.445 209.912 194.197 210.253 193.237 210.936C192.277 211.597 191.658 212.419 191.381 213.4H202.197C202.09 212.333 201.578 211.491 200.661 210.872C199.765 210.232 198.538 209.912 196.981 209.912ZM209.74 200.696H213.9V223H209.74V200.696ZM236.988 216.728C236.881 218.115 236.433 219.309 235.644 220.312C234.876 221.315 233.809 222.083 232.444 222.616C231.078 223.128 229.457 223.384 227.58 223.384C225.617 223.384 223.857 223.075 222.3 222.456C220.764 221.816 219.548 220.888 218.652 219.672C217.777 218.435 217.34 216.909 217.34 215.096C217.34 213.283 217.777 211.757 218.652 210.52C219.548 209.283 220.764 208.344 222.3 207.704C223.857 207.064 225.617 206.744 227.58 206.744C229.457 206.744 231.068 207.011 232.412 207.544C233.756 208.056 234.812 208.803 235.58 209.784C236.369 210.765 236.828 211.949 236.956 213.336H233.148C232.785 212.269 232.113 211.437 231.132 210.84C230.15 210.243 228.966 209.944 227.58 209.944C226.47 209.944 225.457 210.136 224.54 210.52C223.644 210.904 222.918 211.48 222.364 212.248C221.83 212.995 221.564 213.944 221.564 215.096C221.564 216.227 221.83 217.176 222.364 217.944C222.897 218.691 223.622 219.256 224.54 219.64C225.457 220.003 226.47 220.184 227.58 220.184C229.073 220.184 230.289 219.885 231.228 219.288C232.188 218.691 232.838 217.837 233.18 216.728H236.988ZM249.421 223.384C247.416 223.384 245.645 223.064 244.109 222.424C242.594 221.784 241.41 220.856 240.557 219.64C239.704 218.403 239.277 216.888 239.277 215.096C239.277 213.304 239.704 211.789 240.557 210.552C241.41 209.293 242.594 208.344 244.109 207.704C245.645 207.064 247.416 206.744 249.421 206.744C251.426 206.744 253.176 207.064 254.669 207.704C256.184 208.344 257.368 209.293 258.221 210.552C259.074 211.789 259.501 213.304 259.501 215.096C259.501 216.888 259.074 218.403 258.221 219.64C257.368 220.856 256.184 221.784 254.669 222.424C253.176 223.064 251.426 223.384 249.421 223.384ZM249.421 220.184C250.53 220.184 251.522 219.992 252.397 219.608C253.293 219.203 253.997 218.627 254.509 217.88C255.021 217.112 255.277 216.184 255.277 215.096C255.277 214.008 255.021 213.08 254.509 212.312C253.997 211.523 253.304 210.925 252.429 210.52C251.554 210.115 250.552 209.912 249.421 209.912C248.312 209.912 247.309 210.115 246.413 210.52C245.517 210.925 244.802 211.512 244.269 212.28C243.757 213.048 243.501 213.987 243.501 215.096C243.501 216.184 243.757 217.112 244.269 217.88C244.781 218.627 245.485 219.203 246.381 219.608C247.277 219.992 248.29 220.184 249.421 220.184ZM262.576 207.096H266.736V223H262.576V207.096ZM274.128 206.744C275.11 206.744 276.016 206.872 276.848 207.128C277.68 207.384 278.406 207.779 279.024 208.312C279.643 208.845 280.123 209.528 280.464 210.36C280.806 211.171 280.976 212.141 280.976 213.272V223H276.816V214.008C276.816 212.664 276.486 211.683 275.824 211.064C275.184 210.424 274.128 210.104 272.656 210.104C271.547 210.104 270.544 210.317 269.648 210.744C268.752 211.171 268.027 211.715 267.472 212.376C266.918 213.016 266.598 213.688 266.512 214.392L266.48 212.76C266.587 212.013 266.832 211.288 267.216 210.584C267.6 209.88 268.112 209.24 268.752 208.664C269.414 208.067 270.192 207.597 271.088 207.256C271.984 206.915 272.998 206.744 274.128 206.744ZM287.984 206.744C288.966 206.744 289.872 206.872 290.704 207.128C291.536 207.384 292.262 207.779 292.88 208.312C293.499 208.845 293.979 209.528 294.32 210.36C294.683 211.171 294.864 212.141 294.864 213.272V223H290.704V214.008C290.704 212.664 290.374 211.683 289.712 211.064C289.051 210.424 287.984 210.104 286.512 210.104C285.403 210.104 284.4 210.317 283.504 210.744C282.608 211.171 281.883 211.715 281.328 212.376C280.774 213.016 280.464 213.688 280.4 214.392L280.336 212.664C280.443 211.96 280.699 211.256 281.104 210.552C281.51 209.848 282.043 209.208 282.704 208.632C283.366 208.056 284.134 207.597 285.008 207.256C285.904 206.915 286.896 206.744 287.984 206.744ZM313.135 217.72H317.167C316.996 218.808 316.537 219.779 315.791 220.632C315.065 221.485 314.073 222.157 312.815 222.648C311.556 223.139 310.02 223.384 308.207 223.384C306.18 223.384 304.388 223.064 302.831 222.424C301.273 221.763 300.057 220.813 299.183 219.576C298.308 218.339 297.871 216.845 297.871 215.096C297.871 213.347 298.297 211.853 299.151 210.616C300.004 209.357 301.188 208.397 302.703 207.736C304.239 207.075 306.031 206.744 308.079 206.744C310.169 206.744 311.908 207.075 313.295 207.736C314.681 208.397 315.705 209.4 316.367 210.744C317.049 212.067 317.337 213.763 317.231 215.832H302.063C302.169 216.643 302.468 217.379 302.959 218.04C303.471 218.701 304.153 219.224 305.007 219.608C305.881 219.992 306.916 220.184 308.111 220.184C309.433 220.184 310.532 219.96 311.407 219.512C312.303 219.043 312.879 218.445 313.135 217.72ZM307.887 209.912C306.351 209.912 305.103 210.253 304.143 210.936C303.183 211.597 302.564 212.419 302.287 213.4H313.103C312.996 212.333 312.484 211.491 311.567 210.872C310.671 210.232 309.444 209.912 307.887 209.912Z" fill="#EEDD3F"/>
<path d="M184.42 238.8H198.98V240.9H184.42V238.8ZM190.58 240.676H192.82V257H190.58V240.676ZM208.835 257.28C207.64 257.28 206.52 256.991 205.475 256.412C204.43 255.833 203.58 255.003 202.927 253.92C202.292 252.819 201.975 251.521 201.975 250.028C201.975 248.535 202.292 247.247 202.927 246.164C203.58 245.063 204.43 244.213 205.475 243.616C206.52 243.019 207.64 242.72 208.835 242.72C210.03 242.72 211.14 243.019 212.167 243.616C213.212 244.213 214.052 245.063 214.687 246.164C215.322 247.247 215.639 248.535 215.639 250.028C215.639 251.521 215.322 252.819 214.687 253.92C214.052 255.003 213.212 255.833 212.167 256.412C211.14 256.991 210.03 257.28 208.835 257.28ZM208.835 255.18C209.619 255.18 210.356 254.984 211.047 254.592C211.738 254.2 212.298 253.621 212.727 252.856C213.175 252.072 213.399 251.129 213.399 250.028C213.399 248.927 213.175 247.993 212.727 247.228C212.298 246.444 211.738 245.847 211.047 245.436C210.356 245.025 209.619 244.82 208.835 244.82C208.051 244.82 207.304 245.025 206.595 245.436C205.904 245.828 205.335 246.416 204.887 247.2C204.439 247.965 204.215 248.908 204.215 250.028C204.215 251.129 204.43 252.072 204.859 252.856C205.307 253.621 205.886 254.2 206.595 254.592C207.304 254.984 208.051 255.18 208.835 255.18ZM238.808 238.8C240.638 238.8 242.168 239.043 243.4 239.528C244.651 239.995 245.65 240.648 246.396 241.488C247.143 242.328 247.684 243.289 248.02 244.372C248.356 245.455 248.524 246.603 248.524 247.816C248.524 249.029 248.347 250.187 247.992 251.288C247.638 252.389 247.068 253.369 246.284 254.228C245.519 255.087 244.52 255.768 243.288 256.272C242.056 256.757 240.563 257 238.808 257H232.9V238.8H238.808ZM235.14 254.9H238.808C240.283 254.9 241.496 254.695 242.448 254.284C243.419 253.873 244.184 253.332 244.744 252.66C245.304 251.969 245.696 251.204 245.92 250.364C246.163 249.524 246.284 248.675 246.284 247.816C246.284 246.957 246.163 246.117 245.92 245.296C245.696 244.475 245.304 243.737 244.744 243.084C244.184 242.412 243.419 241.88 242.448 241.488C241.496 241.096 240.283 240.9 238.808 240.9H235.14V254.9ZM254.558 243H256.966L261.978 256.44L260.018 257L254.558 243ZM267.578 243L259.766 262.6H257.33L260.718 255.04L265.198 243H267.578ZM278.616 254.788C277.627 254.788 276.684 254.555 275.788 254.088C274.911 253.603 274.192 252.912 273.632 252.016C273.091 251.12 272.82 250.047 272.82 248.796C272.82 247.545 273.091 246.472 273.632 245.576C274.174 244.661 274.883 243.961 275.76 243.476C276.638 242.972 277.59 242.72 278.616 242.72C278.934 242.72 279.232 242.748 279.512 242.804C279.811 242.841 280.091 242.907 280.352 243H286.036V245.408C285.234 245.408 284.431 245.259 283.628 244.96C282.844 244.661 282.172 244.353 281.612 244.036L281.5 243.924C282.154 244.279 282.686 244.699 283.096 245.184C283.526 245.669 283.843 246.22 284.048 246.836C284.272 247.433 284.384 248.087 284.384 248.796C284.384 250.047 284.114 251.12 283.572 252.016C283.05 252.912 282.35 253.603 281.472 254.088C280.595 254.555 279.643 254.788 278.616 254.788ZM282.732 262.6V261.984C282.732 260.995 282.471 260.276 281.948 259.828C281.444 259.38 280.679 259.156 279.652 259.156H276.852C276.236 259.156 275.695 259.1 275.228 258.988C274.78 258.895 274.407 258.745 274.108 258.54C273.81 258.335 273.586 258.083 273.436 257.784C273.287 257.485 273.212 257.149 273.212 256.776C273.212 256.067 273.427 255.535 273.856 255.18C274.286 254.807 274.818 254.573 275.452 254.48C276.087 254.387 276.694 254.387 277.272 254.48L278.616 254.788C277.608 254.844 276.824 254.947 276.264 255.096C275.723 255.245 275.452 255.563 275.452 256.048C275.452 256.328 275.555 256.561 275.76 256.748C275.984 256.916 276.311 257 276.74 257H279.652C280.623 257 281.51 257.131 282.312 257.392C283.115 257.672 283.759 258.129 284.244 258.764C284.73 259.417 284.972 260.304 284.972 261.424V262.6H282.732ZM278.616 252.688C279.232 252.688 279.802 252.539 280.324 252.24C280.866 251.941 281.304 251.503 281.64 250.924C281.976 250.345 282.144 249.636 282.144 248.796C282.144 247.956 281.976 247.247 281.64 246.668C281.323 246.071 280.894 245.623 280.352 245.324C279.811 245.007 279.232 244.848 278.616 244.848C278 244.848 277.422 245.007 276.88 245.324C276.339 245.623 275.9 246.061 275.564 246.64C275.228 247.219 275.06 247.937 275.06 248.796C275.06 249.636 275.228 250.345 275.564 250.924C275.9 251.503 276.339 251.941 276.88 252.24C277.422 252.539 278 252.688 278.616 252.688Z" fill="#FFCD93"/>
<g filter="url(#filter0_b_61_25)">
<path d="M164.617 556.954C187.335 546.22 213.665 546.22 236.383 556.954L615.454 736.05C696.52 774.35 669.229 896 579.571 896H-178.571C-268.229 896 -295.52 774.35 -214.454 736.05L164.617 556.954Z" fill="#EEDD3F" fill-opacity="0.82"/>
</g>
<path d="M113.408 297.18C112.556 297.18 111.788 297.036 111.104 296.748C110.432 296.46 109.856 296.058 109.376 295.542C108.896 295.014 108.53 294.384 108.278 293.652C108.026 292.92 107.9 292.116 107.9 291.24C107.9 290.352 108.038 289.536 108.314 288.792C108.59 288.036 108.98 287.388 109.484 286.848C109.988 286.296 110.582 285.87 111.266 285.57C111.962 285.27 112.724 285.12 113.552 285.12C114.452 285.12 115.25 285.294 115.946 285.642C116.642 285.978 117.206 286.458 117.638 287.082C118.07 287.694 118.328 288.414 118.412 289.242H117.188C117.032 288.666 116.78 288.174 116.432 287.766C116.084 287.346 115.664 287.028 115.172 286.812C114.692 286.584 114.152 286.47 113.552 286.47C112.724 286.47 111.992 286.68 111.356 287.1C110.732 287.508 110.24 288.072 109.88 288.792C109.52 289.512 109.34 290.328 109.34 291.24C109.34 292.152 109.502 292.956 109.826 293.652C110.15 294.336 110.618 294.87 111.23 295.254C111.842 295.638 112.568 295.83 113.408 295.83C114.056 295.83 114.62 295.704 115.1 295.452C115.592 295.2 115.988 294.834 116.288 294.354C116.588 293.862 116.792 293.262 116.9 292.554H117.782C117.59 294.102 117.104 295.26 116.324 296.028C115.544 296.796 114.572 297.18 113.408 297.18ZM117.494 297C117.494 296.604 117.5 296.16 117.512 295.668C117.536 295.164 117.566 294.654 117.602 294.138C117.638 293.622 117.668 293.16 117.692 292.752H113.732V291.402H118.898V297H117.494ZM127.515 294.102H128.865C128.769 294.69 128.553 295.218 128.217 295.686C127.893 296.142 127.461 296.508 126.921 296.784C126.393 297.048 125.781 297.18 125.085 297.18C124.245 297.18 123.489 296.982 122.817 296.586C122.145 296.178 121.611 295.626 121.215 294.93C120.831 294.222 120.639 293.418 120.639 292.518C120.639 291.618 120.825 290.814 121.197 290.106C121.581 289.398 122.103 288.84 122.763 288.432C123.423 288.024 124.167 287.82 124.995 287.82C125.871 287.82 126.609 288.018 127.209 288.414C127.821 288.798 128.271 289.368 128.559 290.124C128.859 290.868 128.979 291.786 128.919 292.878H122.079C122.139 293.466 122.301 293.982 122.565 294.426C122.829 294.87 123.177 295.218 123.609 295.47C124.041 295.71 124.533 295.83 125.085 295.83C125.697 295.83 126.213 295.674 126.633 295.362C127.065 295.038 127.359 294.618 127.515 294.102ZM125.049 289.17C124.305 289.17 123.681 289.386 123.177 289.818C122.673 290.25 122.337 290.838 122.169 291.582H127.443C127.395 290.79 127.137 290.19 126.669 289.782C126.213 289.374 125.673 289.17 125.049 289.17ZM129.97 288H135.262V289.35H129.97V288ZM131.896 285.66H133.336V297H131.896V285.66ZM140.31 294.102H141.642C141.678 294.618 141.87 295.038 142.218 295.362C142.578 295.686 143.094 295.848 143.766 295.848C144.174 295.848 144.492 295.794 144.72 295.686C144.96 295.578 145.134 295.434 145.242 295.254C145.35 295.062 145.404 294.852 145.404 294.624C145.404 294.348 145.332 294.132 145.188 293.976C145.056 293.808 144.87 293.67 144.63 293.562C144.402 293.454 144.138 293.352 143.838 293.256C143.49 293.124 143.13 292.986 142.758 292.842C142.398 292.686 142.056 292.506 141.732 292.302C141.42 292.086 141.168 291.828 140.976 291.528C140.784 291.216 140.688 290.844 140.688 290.412C140.688 290.052 140.76 289.716 140.904 289.404C141.048 289.08 141.252 288.804 141.516 288.576C141.792 288.336 142.11 288.15 142.47 288.018C142.842 287.886 143.25 287.82 143.694 287.82C144.294 287.82 144.798 287.94 145.206 288.18C145.626 288.42 145.944 288.762 146.16 289.206C146.388 289.638 146.508 290.142 146.52 290.718H145.278C145.194 290.178 145.02 289.788 144.756 289.548C144.504 289.296 144.138 289.17 143.658 289.17C143.166 289.17 142.788 289.278 142.524 289.494C142.26 289.71 142.128 289.998 142.128 290.358C142.128 290.622 142.224 290.844 142.416 291.024C142.608 291.192 142.854 291.348 143.154 291.492C143.466 291.624 143.796 291.762 144.144 291.906C144.492 292.05 144.828 292.194 145.152 292.338C145.476 292.482 145.764 292.65 146.016 292.842C146.268 293.034 146.466 293.274 146.61 293.562C146.766 293.838 146.844 294.186 146.844 294.606C146.844 295.11 146.724 295.56 146.484 295.956C146.256 296.34 145.914 296.64 145.458 296.856C145.014 297.072 144.468 297.18 143.82 297.18C143.232 297.18 142.728 297.108 142.308 296.964C141.9 296.808 141.558 296.61 141.282 296.37C141.006 296.118 140.79 295.854 140.634 295.578C140.49 295.302 140.394 295.032 140.346 294.768C140.298 294.504 140.286 294.282 140.31 294.102ZM148.058 288H153.35V289.35H148.058V288ZM149.984 285.66H151.424V297H149.984V285.66ZM158.277 297.18C157.569 297.18 156.915 296.982 156.315 296.586C155.727 296.178 155.253 295.626 154.893 294.93C154.545 294.222 154.371 293.418 154.371 292.518C154.371 291.618 154.551 290.814 154.911 290.106C155.271 289.398 155.757 288.84 156.369 288.432C156.993 288.024 157.689 287.82 158.457 287.82C159.297 287.82 159.933 288.036 160.365 288.468C160.809 288.888 161.109 289.452 161.265 290.16C161.433 290.868 161.517 291.654 161.517 292.518C161.517 292.974 161.469 293.472 161.373 294.012C161.277 294.54 161.109 295.05 160.869 295.542C160.641 296.022 160.317 296.418 159.897 296.73C159.477 297.03 158.937 297.18 158.277 297.18ZM158.637 295.812C159.249 295.812 159.753 295.662 160.149 295.362C160.557 295.062 160.857 294.666 161.049 294.174C161.241 293.67 161.337 293.118 161.337 292.518C161.337 291.858 161.235 291.282 161.031 290.79C160.839 290.286 160.539 289.896 160.131 289.62C159.735 289.332 159.237 289.188 158.637 289.188C157.737 289.188 157.041 289.506 156.549 290.142C156.057 290.766 155.811 291.558 155.811 292.518C155.811 293.154 155.931 293.724 156.171 294.228C156.423 294.72 156.759 295.11 157.179 295.398C157.611 295.674 158.097 295.812 158.637 295.812ZM161.337 288H162.777V297H161.463C161.463 297 161.451 296.892 161.427 296.676C161.415 296.46 161.397 296.208 161.373 295.92C161.349 295.632 161.337 295.392 161.337 295.2V288ZM165.123 288H166.563V297H165.123V288ZM169.443 289.35C168.831 289.35 168.315 289.506 167.895 289.818C167.487 290.118 167.163 290.49 166.923 290.934C166.695 291.366 166.545 291.786 166.473 292.194L166.455 291.15C166.455 291.042 166.479 290.862 166.527 290.61C166.575 290.358 166.665 290.076 166.797 289.764C166.929 289.44 167.103 289.134 167.319 288.846C167.547 288.546 167.835 288.3 168.183 288.108C168.531 287.916 168.951 287.82 169.443 287.82V289.35ZM170.435 288H175.727V289.35H170.435V288ZM172.361 285.66H173.801V297H172.361V285.66ZM183.624 294.102H184.974C184.878 294.69 184.662 295.218 184.326 295.686C184.002 296.142 183.57 296.508 183.03 296.784C182.502 297.048 181.89 297.18 181.194 297.18C180.354 297.18 179.598 296.982 178.926 296.586C178.254 296.178 177.72 295.626 177.324 294.93C176.94 294.222 176.748 293.418 176.748 292.518C176.748 291.618 176.934 290.814 177.306 290.106C177.69 289.398 178.212 288.84 178.872 288.432C179.532 288.024 180.276 287.82 181.104 287.82C181.98 287.82 182.718 288.018 183.318 288.414C183.93 288.798 184.38 289.368 184.668 290.124C184.968 290.868 185.088 291.786 185.028 292.878H178.188C178.248 293.466 178.41 293.982 178.674 294.426C178.938 294.87 179.286 295.218 179.718 295.47C180.15 295.71 180.642 295.83 181.194 295.83C181.806 295.83 182.322 295.674 182.742 295.362C183.174 295.038 183.468 294.618 183.624 294.102ZM181.158 289.17C180.414 289.17 179.79 289.386 179.286 289.818C178.782 290.25 178.446 290.838 178.278 291.582H183.552C183.504 290.79 183.246 290.19 182.778 289.782C182.322 289.374 181.782 289.17 181.158 289.17ZM190.287 297.18C189.567 297.18 188.907 296.982 188.307 296.586C187.719 296.178 187.251 295.626 186.903 294.93C186.555 294.222 186.381 293.418 186.381 292.518C186.381 291.618 186.549 290.814 186.885 290.106C187.221 289.398 187.683 288.84 188.271 288.432C188.859 288.024 189.531 287.82 190.287 287.82C190.959 287.82 191.505 287.946 191.925 288.198C192.357 288.438 192.687 288.774 192.915 289.206C193.143 289.638 193.299 290.136 193.383 290.7C193.479 291.264 193.527 291.87 193.527 292.518C193.527 292.974 193.479 293.472 193.383 294.012C193.287 294.54 193.119 295.05 192.879 295.542C192.651 296.022 192.327 296.418 191.907 296.73C191.487 297.03 190.947 297.18 190.287 297.18ZM190.647 295.812C191.259 295.812 191.763 295.662 192.159 295.362C192.567 295.062 192.867 294.666 193.059 294.174C193.251 293.67 193.347 293.118 193.347 292.518C193.347 291.858 193.245 291.282 193.041 290.79C192.849 290.286 192.549 289.896 192.141 289.62C191.745 289.332 191.247 289.188 190.647 289.188C189.747 289.188 189.051 289.506 188.559 290.142C188.067 290.766 187.821 291.558 187.821 292.518C187.821 293.154 187.941 293.724 188.181 294.228C188.433 294.72 188.769 295.11 189.189 295.398C189.621 295.674 190.107 295.812 190.647 295.812ZM193.347 284.4H194.787V297H193.473C193.449 296.736 193.419 296.424 193.383 296.064C193.359 295.704 193.347 295.416 193.347 295.2V284.4ZM210.212 295.686L209.852 295.668L211.958 288H213.524L210.77 297H209.42L206.756 289.116H207.116L204.452 297H203.102L200.366 288H201.932L204.002 295.668L203.642 295.686L206.072 288H207.818L210.212 295.686ZM216.845 284.4V286.146H214.973V284.4H216.845ZM215.189 288H216.629V297H215.189V288ZM218.458 288H223.75V289.35H218.458V288ZM220.384 285.66H221.824V297H220.384V285.66ZM231.859 297V291.348C231.859 290.88 231.787 290.496 231.643 290.196C231.499 289.884 231.283 289.65 230.995 289.494C230.707 289.338 230.347 289.26 229.915 289.26C229.423 289.26 228.967 289.386 228.547 289.638C228.127 289.89 227.779 290.238 227.503 290.682C227.239 291.114 227.077 291.618 227.017 292.194L226.999 291.15C227.059 290.646 227.179 290.19 227.359 289.782C227.551 289.374 227.785 289.026 228.061 288.738C228.349 288.438 228.673 288.21 229.033 288.054C229.405 287.898 229.795 287.82 230.203 287.82C230.683 287.82 231.115 287.892 231.499 288.036C231.883 288.18 232.207 288.39 232.471 288.666C232.735 288.942 232.939 289.278 233.083 289.674C233.227 290.058 233.299 290.496 233.299 290.988V297H231.859ZM225.667 297V284.4H227.107V297H225.667ZM242.828 297.18C242.12 297.18 241.466 296.982 240.866 296.586C240.278 296.178 239.804 295.626 239.444 294.93C239.096 294.222 238.922 293.418 238.922 292.518C238.922 291.618 239.102 290.814 239.462 290.106C239.822 289.398 240.308 288.84 240.92 288.432C241.544 288.024 242.24 287.82 243.008 287.82C243.848 287.82 244.484 288.036 244.916 288.468C245.36 288.888 245.66 289.452 245.816 290.16C245.984 290.868 246.068 291.654 246.068 292.518C246.068 292.974 246.02 293.472 245.924 294.012C245.828 294.54 245.66 295.05 245.42 295.542C245.192 296.022 244.868 296.418 244.448 296.73C244.028 297.03 243.488 297.18 242.828 297.18ZM243.188 295.812C243.8 295.812 244.304 295.662 244.7 295.362C245.108 295.062 245.408 294.666 245.6 294.174C245.792 293.67 245.888 293.118 245.888 292.518C245.888 291.858 245.786 291.282 245.582 290.79C245.39 290.286 245.09 289.896 244.682 289.62C244.286 289.332 243.788 289.188 243.188 289.188C242.288 289.188 241.592 289.506 241.1 290.142C240.608 290.766 240.362 291.558 240.362 292.518C240.362 293.154 240.482 293.724 240.722 294.228C240.974 294.72 241.31 295.11 241.73 295.398C242.162 295.674 242.648 295.812 243.188 295.812ZM245.888 288H247.328V297H246.014C246.014 297 246.002 296.892 245.978 296.676C245.966 296.46 245.948 296.208 245.924 295.92C245.9 295.632 245.888 295.392 245.888 295.2V288ZM254.174 297.18C253.514 297.18 252.974 297.03 252.554 296.73C252.134 296.418 251.804 296.022 251.564 295.542C251.336 295.05 251.174 294.54 251.078 294.012C250.982 293.472 250.934 292.974 250.934 292.518C250.934 291.87 250.976 291.264 251.06 290.7C251.156 290.136 251.318 289.638 251.546 289.206C251.774 288.774 252.098 288.438 252.518 288.198C252.95 287.946 253.502 287.82 254.174 287.82C254.894 287.82 255.548 288.024 256.136 288.432C256.724 288.84 257.192 289.398 257.54 290.106C257.9 290.814 258.08 291.618 258.08 292.518C258.08 293.418 257.9 294.222 257.54 294.93C257.18 295.626 256.7 296.178 256.1 296.586C255.512 296.982 254.87 297.18 254.174 297.18ZM253.814 295.812C254.366 295.812 254.852 295.674 255.272 295.398C255.704 295.11 256.04 294.72 256.28 294.228C256.52 293.724 256.64 293.154 256.64 292.518C256.64 291.558 256.394 290.766 255.902 290.142C255.41 289.506 254.714 289.188 253.814 289.188C253.286 289.188 252.818 289.332 252.41 289.62C252.002 289.896 251.684 290.286 251.456 290.79C251.228 291.282 251.114 291.858 251.114 292.518C251.114 293.118 251.21 293.67 251.402 294.174C251.606 294.666 251.906 295.062 252.302 295.362C252.698 295.662 253.202 295.812 253.814 295.812ZM249.674 288H251.06L251.114 289.89V300.6H249.674V288ZM264.422 297.18C263.762 297.18 263.222 297.03 262.802 296.73C262.382 296.418 262.052 296.022 261.812 295.542C261.584 295.05 261.422 294.54 261.326 294.012C261.23 293.472 261.182 292.974 261.182 292.518C261.182 291.87 261.224 291.264 261.308 290.7C261.404 290.136 261.566 289.638 261.794 289.206C262.022 288.774 262.346 288.438 262.766 288.198C263.198 287.946 263.75 287.82 264.422 287.82C265.142 287.82 265.796 288.024 266.384 288.432C266.972 288.84 267.44 289.398 267.788 290.106C268.148 290.814 268.328 291.618 268.328 292.518C268.328 293.418 268.148 294.222 267.788 294.93C267.428 295.626 266.948 296.178 266.348 296.586C265.76 296.982 265.118 297.18 264.422 297.18ZM264.062 295.812C264.614 295.812 265.1 295.674 265.52 295.398C265.952 295.11 266.288 294.72 266.528 294.228C266.768 293.724 266.888 293.154 266.888 292.518C266.888 291.558 266.642 290.766 266.15 290.142C265.658 289.506 264.962 289.188 264.062 289.188C263.534 289.188 263.066 289.332 262.658 289.62C262.25 289.896 261.932 290.286 261.704 290.79C261.476 291.282 261.362 291.858 261.362 292.518C261.362 293.118 261.458 293.67 261.65 294.174C261.854 294.666 262.154 295.062 262.55 295.362C262.946 295.662 263.45 295.812 264.062 295.812ZM259.922 288H261.308L261.362 289.89V300.6H259.922V288ZM282.985 295.686L282.625 295.668L284.731 288H286.297L283.543 297H282.193L279.529 289.116H279.889L277.225 297H275.875L273.139 288H274.705L276.775 295.668L276.415 295.686L278.845 288H280.591L282.985 295.686ZM294.244 297V291.348C294.244 290.88 294.172 290.496 294.028 290.196C293.884 289.884 293.668 289.65 293.38 289.494C293.092 289.338 292.732 289.26 292.3 289.26C291.808 289.26 291.352 289.386 290.932 289.638C290.512 289.89 290.164 290.238 289.888 290.682C289.624 291.114 289.462 291.618 289.402 292.194L289.384 291.15C289.444 290.646 289.564 290.19 289.744 289.782C289.936 289.374 290.17 289.026 290.446 288.738C290.734 288.438 291.058 288.21 291.418 288.054C291.79 287.898 292.18 287.82 292.588 287.82C293.068 287.82 293.5 287.892 293.884 288.036C294.268 288.18 294.592 288.39 294.856 288.666C295.12 288.942 295.324 289.278 295.468 289.674C295.612 290.058 295.684 290.496 295.684 290.988V297H294.244ZM288.052 297V284.4H289.492V297H288.052ZM304.403 294.102H305.753C305.657 294.69 305.441 295.218 305.105 295.686C304.781 296.142 304.349 296.508 303.809 296.784C303.281 297.048 302.669 297.18 301.973 297.18C301.133 297.18 300.377 296.982 299.705 296.586C299.033 296.178 298.499 295.626 298.103 294.93C297.719 294.222 297.527 293.418 297.527 292.518C297.527 291.618 297.713 290.814 298.085 290.106C298.469 289.398 298.991 288.84 299.651 288.432C300.311 288.024 301.055 287.82 301.883 287.82C302.759 287.82 303.497 288.018 304.097 288.414C304.709 288.798 305.159 289.368 305.447 290.124C305.747 290.868 305.867 291.786 305.807 292.878H298.967C299.027 293.466 299.189 293.982 299.453 294.426C299.717 294.87 300.065 295.218 300.497 295.47C300.929 295.71 301.421 295.83 301.973 295.83C302.585 295.83 303.101 295.674 303.521 295.362C303.953 295.038 304.247 294.618 304.403 294.102ZM301.937 289.17C301.193 289.17 300.569 289.386 300.065 289.818C299.561 290.25 299.225 290.838 299.057 291.582H304.331C304.283 290.79 304.025 290.19 303.557 289.782C303.101 289.374 302.561 289.17 301.937 289.17ZM307.664 288H309.104V297H307.664V288ZM311.984 289.35C311.372 289.35 310.856 289.506 310.436 289.818C310.028 290.118 309.704 290.49 309.464 290.934C309.236 291.366 309.086 291.786 309.014 292.194L308.996 291.15C308.996 291.042 309.02 290.862 309.068 290.61C309.116 290.358 309.206 290.076 309.338 289.764C309.47 289.44 309.644 289.134 309.86 288.846C310.088 288.546 310.376 288.3 310.724 288.108C311.072 287.916 311.492 287.82 311.984 287.82V289.35ZM319.978 294.102H321.328C321.232 294.69 321.016 295.218 320.68 295.686C320.356 296.142 319.924 296.508 319.384 296.784C318.856 297.048 318.244 297.18 317.548 297.18C316.708 297.18 315.952 296.982 315.28 296.586C314.608 296.178 314.074 295.626 313.678 294.93C313.294 294.222 313.102 293.418 313.102 292.518C313.102 291.618 313.288 290.814 313.66 290.106C314.044 289.398 314.566 288.84 315.226 288.432C315.886 288.024 316.63 287.82 317.458 287.82C318.334 287.82 319.072 288.018 319.672 288.414C320.284 288.798 320.734 289.368 321.022 290.124C321.322 290.868 321.442 291.786 321.382 292.878H314.542C314.602 293.466 314.764 293.982 315.028 294.426C315.292 294.87 315.64 295.218 316.072 295.47C316.504 295.71 316.996 295.83 317.548 295.83C318.16 295.83 318.676 295.674 319.096 295.362C319.528 295.038 319.822 294.618 319.978 294.102ZM317.512 289.17C316.768 289.17 316.144 289.386 315.64 289.818C315.136 290.25 314.8 290.838 314.632 291.582H319.906C319.858 290.79 319.6 290.19 319.132 289.782C318.676 289.374 318.136 289.17 317.512 289.17ZM107.36 311H108.908L112.13 319.64L110.87 320L107.36 311ZM115.73 311L110.708 323.6H109.142L111.32 318.74L114.2 311H115.73ZM120.9 320.18C120.132 320.18 119.412 319.994 118.74 319.622C118.068 319.25 117.522 318.716 117.102 318.02C116.694 317.312 116.49 316.478 116.49 315.518C116.49 314.558 116.694 313.73 117.102 313.034C117.522 312.326 118.068 311.78 118.74 311.396C119.412 311.012 120.132 310.82 120.9 310.82C121.668 310.82 122.382 311.012 123.042 311.396C123.714 311.78 124.254 312.326 124.662 313.034C125.07 313.73 125.274 314.558 125.274 315.518C125.274 316.478 125.07 317.312 124.662 318.02C124.254 318.716 123.714 319.25 123.042 319.622C122.382 319.994 121.668 320.18 120.9 320.18ZM120.9 318.83C121.404 318.83 121.878 318.704 122.322 318.452C122.766 318.2 123.126 317.828 123.402 317.336C123.69 316.832 123.834 316.226 123.834 315.518C123.834 314.81 123.69 314.21 123.402 313.718C123.126 313.214 122.766 312.83 122.322 312.566C121.878 312.302 121.404 312.17 120.9 312.17C120.396 312.17 119.916 312.302 119.46 312.566C119.016 312.818 118.65 313.196 118.362 313.7C118.074 314.192 117.93 314.798 117.93 315.518C117.93 316.226 118.068 316.832 118.344 317.336C118.632 317.828 119.004 318.2 119.46 318.452C119.916 318.704 120.396 318.83 120.9 318.83ZM134.734 320H133.294V311H134.734V320ZM133.384 315.806L133.402 316.31C133.39 316.454 133.354 316.676 133.294 316.976C133.246 317.276 133.156 317.612 133.024 317.984C132.904 318.344 132.724 318.692 132.484 319.028C132.256 319.364 131.956 319.64 131.584 319.856C131.224 320.072 130.774 320.18 130.234 320.18C129.886 320.18 129.526 320.126 129.154 320.018C128.794 319.922 128.458 319.76 128.146 319.532C127.834 319.292 127.582 318.962 127.39 318.542C127.198 318.122 127.102 317.6 127.102 316.976V311H128.542V316.616C128.542 317.156 128.626 317.582 128.794 317.894C128.974 318.194 129.214 318.41 129.514 318.542C129.814 318.674 130.15 318.74 130.522 318.74C131.134 318.74 131.644 318.584 132.052 318.272C132.46 317.96 132.772 317.576 132.988 317.12C133.204 316.664 133.336 316.226 133.384 315.806ZM148.84 316.616C148.756 317.36 148.516 318.002 148.12 318.542C147.736 319.07 147.25 319.478 146.662 319.766C146.074 320.042 145.438 320.18 144.754 320.18C143.986 320.18 143.266 319.994 142.594 319.622C141.922 319.25 141.376 318.716 140.956 318.02C140.548 317.312 140.344 316.478 140.344 315.518C140.344 314.558 140.548 313.73 140.956 313.034C141.376 312.326 141.922 311.78 142.594 311.396C143.266 311.012 143.986 310.82 144.754 310.82C145.438 310.82 146.068 310.964 146.644 311.252C147.232 311.54 147.718 311.948 148.102 312.476C148.498 313.004 148.744 313.634 148.84 314.366H147.526C147.322 313.682 146.968 313.148 146.464 312.764C145.96 312.368 145.39 312.17 144.754 312.17C144.238 312.17 143.752 312.302 143.296 312.566C142.84 312.83 142.474 313.214 142.198 313.718C141.922 314.21 141.784 314.81 141.784 315.518C141.784 316.214 141.922 316.814 142.198 317.318C142.474 317.81 142.834 318.188 143.278 318.452C143.734 318.704 144.226 318.83 144.754 318.83C145.486 318.83 146.08 318.638 146.536 318.254C147.004 317.858 147.34 317.312 147.544 316.616H148.84ZM154.076 320.18C153.368 320.18 152.714 319.982 152.114 319.586C151.526 319.178 151.052 318.626 150.692 317.93C150.344 317.222 150.17 316.418 150.17 315.518C150.17 314.618 150.35 313.814 150.71 313.106C151.07 312.398 151.556 311.84 152.168 311.432C152.792 311.024 153.488 310.82 154.256 310.82C155.096 310.82 155.732 311.036 156.164 311.468C156.608 311.888 156.908 312.452 157.064 313.16C157.232 313.868 157.316 314.654 157.316 315.518C157.316 315.974 157.268 316.472 157.172 317.012C157.076 317.54 156.908 318.05 156.668 318.542C156.44 319.022 156.116 319.418 155.696 319.73C155.276 320.03 154.736 320.18 154.076 320.18ZM154.436 318.812C155.048 318.812 155.552 318.662 155.948 318.362C156.356 318.062 156.656 317.666 156.848 317.174C157.04 316.67 157.136 316.118 157.136 315.518C157.136 314.858 157.034 314.282 156.83 313.79C156.638 313.286 156.338 312.896 155.93 312.62C155.534 312.332 155.036 312.188 154.436 312.188C153.536 312.188 152.84 312.506 152.348 313.142C151.856 313.766 151.61 314.558 151.61 315.518C151.61 316.154 151.73 316.724 151.97 317.228C152.222 317.72 152.558 318.11 152.978 318.398C153.41 318.674 153.896 318.812 154.436 318.812ZM157.136 311H158.576V320H157.262C157.262 320 157.25 319.892 157.226 319.676C157.214 319.46 157.196 319.208 157.172 318.92C157.148 318.632 157.136 318.392 157.136 318.2V311ZM160.922 311H162.362V320H160.922V311ZM165.458 310.82C165.938 310.82 166.37 310.892 166.754 311.036C167.138 311.18 167.462 311.39 167.726 311.666C167.99 311.942 168.194 312.278 168.338 312.674C168.482 313.058 168.554 313.496 168.554 313.988V320H167.114V314.348C167.114 313.652 166.952 313.13 166.628 312.782C166.304 312.434 165.818 312.26 165.17 312.26C164.678 312.26 164.222 312.386 163.802 312.638C163.382 312.89 163.034 313.238 162.758 313.682C162.494 314.114 162.332 314.618 162.272 315.194L162.254 314.15C162.314 313.646 162.434 313.19 162.614 312.782C162.806 312.374 163.04 312.026 163.316 311.738C163.604 311.438 163.928 311.21 164.288 311.054C164.66 310.898 165.05 310.82 165.458 310.82ZM178.07 320.18C177.35 320.18 176.69 319.982 176.09 319.586C175.502 319.178 175.034 318.626 174.686 317.93C174.338 317.222 174.164 316.418 174.164 315.518C174.164 314.618 174.332 313.814 174.668 313.106C175.004 312.398 175.466 311.84 176.054 311.432C176.642 311.024 177.314 310.82 178.07 310.82C178.742 310.82 179.288 310.946 179.708 311.198C180.14 311.438 180.47 311.774 180.698 312.206C180.926 312.638 181.082 313.136 181.166 313.7C181.262 314.264 181.31 314.87 181.31 315.518C181.31 315.974 181.262 316.472 181.166 317.012C181.07 317.54 180.902 318.05 180.662 318.542C180.434 319.022 180.11 319.418 179.69 319.73C179.27 320.03 178.73 320.18 178.07 320.18ZM178.43 318.812C179.042 318.812 179.546 318.662 179.942 318.362C180.35 318.062 180.65 317.666 180.842 317.174C181.034 316.67 181.13 316.118 181.13 315.518C181.13 314.858 181.028 314.282 180.824 313.79C180.632 313.286 180.332 312.896 179.924 312.62C179.528 312.332 179.03 312.188 178.43 312.188C177.53 312.188 176.834 312.506 176.342 313.142C175.85 313.766 175.604 314.558 175.604 315.518C175.604 316.154 175.724 316.724 175.964 317.228C176.216 317.72 176.552 318.11 176.972 318.398C177.404 318.674 177.89 318.812 178.43 318.812ZM181.13 307.4H182.57V320H181.256C181.232 319.736 181.202 319.424 181.166 319.064C181.142 318.704 181.13 318.416 181.13 318.2V307.4ZM186.962 307.4V309.146H185.09V307.4H186.962ZM185.306 311H186.746V320H185.306V311ZM188.773 317.102H190.105C190.141 317.618 190.333 318.038 190.681 318.362C191.041 318.686 191.557 318.848 192.229 318.848C192.637 318.848 192.955 318.794 193.183 318.686C193.423 318.578 193.597 318.434 193.705 318.254C193.813 318.062 193.867 317.852 193.867 317.624C193.867 317.348 193.795 317.132 193.651 316.976C193.519 316.808 193.333 316.67 193.093 316.562C192.865 316.454 192.601 316.352 192.301 316.256C191.953 316.124 191.593 315.986 191.221 315.842C190.861 315.686 190.519 315.506 190.195 315.302C189.883 315.086 189.631 314.828 189.439 314.528C189.247 314.216 189.151 313.844 189.151 313.412C189.151 313.052 189.223 312.716 189.367 312.404C189.511 312.08 189.715 311.804 189.979 311.576C190.255 311.336 190.573 311.15 190.933 311.018C191.305 310.886 191.713 310.82 192.157 310.82C192.757 310.82 193.261 310.94 193.669 311.18C194.089 311.42 194.407 311.762 194.623 312.206C194.851 312.638 194.971 313.142 194.983 313.718H193.741C193.657 313.178 193.483 312.788 193.219 312.548C192.967 312.296 192.601 312.17 192.121 312.17C191.629 312.17 191.251 312.278 190.987 312.494C190.723 312.71 190.591 312.998 190.591 313.358C190.591 313.622 190.687 313.844 190.879 314.024C191.071 314.192 191.317 314.348 191.617 314.492C191.929 314.624 192.259 314.762 192.607 314.906C192.955 315.05 193.291 315.194 193.615 315.338C193.939 315.482 194.227 315.65 194.479 315.842C194.731 316.034 194.929 316.274 195.073 316.562C195.229 316.838 195.307 317.186 195.307 317.606C195.307 318.11 195.187 318.56 194.947 318.956C194.719 319.34 194.377 319.64 193.921 319.856C193.477 320.072 192.931 320.18 192.283 320.18C191.695 320.18 191.191 320.108 190.771 319.964C190.363 319.808 190.021 319.61 189.745 319.37C189.469 319.118 189.253 318.854 189.097 318.578C188.953 318.302 188.857 318.032 188.809 317.768C188.761 317.504 188.749 317.282 188.773 317.102ZM205.142 316.616C205.058 317.36 204.818 318.002 204.422 318.542C204.038 319.07 203.552 319.478 202.964 319.766C202.376 320.042 201.74 320.18 201.056 320.18C200.288 320.18 199.568 319.994 198.896 319.622C198.224 319.25 197.678 318.716 197.258 318.02C196.85 317.312 196.646 316.478 196.646 315.518C196.646 314.558 196.85 313.73 197.258 313.034C197.678 312.326 198.224 311.78 198.896 311.396C199.568 311.012 200.288 310.82 201.056 310.82C201.74 310.82 202.37 310.964 202.946 311.252C203.534 311.54 204.02 311.948 204.404 312.476C204.8 313.004 205.046 313.634 205.142 314.366H203.828C203.624 313.682 203.27 313.148 202.766 312.764C202.262 312.368 201.692 312.17 201.056 312.17C200.54 312.17 200.054 312.302 199.598 312.566C199.142 312.83 198.776 313.214 198.5 313.718C198.224 314.21 198.086 314.81 198.086 315.518C198.086 316.214 198.224 316.814 198.5 317.318C198.776 317.81 199.136 318.188 199.58 318.452C200.036 318.704 200.528 318.83 201.056 318.83C201.788 318.83 202.382 318.638 202.838 318.254C203.306 317.858 203.642 317.312 203.846 316.616H205.142ZM210.883 320.18C210.115 320.18 209.395 319.994 208.723 319.622C208.051 319.25 207.505 318.716 207.085 318.02C206.677 317.312 206.473 316.478 206.473 315.518C206.473 314.558 206.677 313.73 207.085 313.034C207.505 312.326 208.051 311.78 208.723 311.396C209.395 311.012 210.115 310.82 210.883 310.82C211.651 310.82 212.365 311.012 213.025 311.396C213.697 311.78 214.237 312.326 214.645 313.034C215.053 313.73 215.257 314.558 215.257 315.518C215.257 316.478 215.053 317.312 214.645 318.02C214.237 318.716 213.697 319.25 213.025 319.622C212.365 319.994 211.651 320.18 210.883 320.18ZM210.883 318.83C211.387 318.83 211.861 318.704 212.305 318.452C212.749 318.2 213.109 317.828 213.385 317.336C213.673 316.832 213.817 316.226 213.817 315.518C213.817 314.81 213.673 314.21 213.385 313.718C213.109 313.214 212.749 312.83 212.305 312.566C211.861 312.302 211.387 312.17 210.883 312.17C210.379 312.17 209.899 312.302 209.443 312.566C208.999 312.818 208.633 313.196 208.345 313.7C208.057 314.192 207.913 314.798 207.913 315.518C207.913 316.226 208.051 316.832 208.327 317.336C208.615 317.828 208.987 318.2 209.443 318.452C209.899 318.704 210.379 318.83 210.883 318.83ZM220.294 318.758H219.862L222.616 311H224.182L220.762 320H219.412L216.01 311H217.576L220.294 318.758ZM231.823 317.102H233.173C233.077 317.69 232.861 318.218 232.525 318.686C232.201 319.142 231.769 319.508 231.229 319.784C230.701 320.048 230.089 320.18 229.393 320.18C228.553 320.18 227.797 319.982 227.125 319.586C226.453 319.178 225.919 318.626 225.523 317.93C225.139 317.222 224.947 316.418 224.947 315.518C224.947 314.618 225.133 313.814 225.505 313.106C225.889 312.398 226.411 311.84 227.071 311.432C227.731 311.024 228.475 310.82 229.303 310.82C230.179 310.82 230.917 311.018 231.517 311.414C232.129 311.798 232.579 312.368 232.867 313.124C233.167 313.868 233.287 314.786 233.227 315.878H226.387C226.447 316.466 226.609 316.982 226.873 317.426C227.137 317.87 227.485 318.218 227.917 318.47C228.349 318.71 228.841 318.83 229.393 318.83C230.005 318.83 230.521 318.674 230.941 318.362C231.373 318.038 231.667 317.618 231.823 317.102ZM229.357 312.17C228.613 312.17 227.989 312.386 227.485 312.818C226.981 313.25 226.645 313.838 226.477 314.582H231.751C231.703 313.79 231.445 313.19 230.977 312.782C230.521 312.374 229.981 312.17 229.357 312.17ZM235.084 311H236.524V320H235.084V311ZM239.404 312.35C238.792 312.35 238.276 312.506 237.856 312.818C237.448 313.118 237.124 313.49 236.884 313.934C236.656 314.366 236.506 314.786 236.434 315.194L236.416 314.15C236.416 314.042 236.44 313.862 236.488 313.61C236.536 313.358 236.626 313.076 236.758 312.764C236.89 312.44 237.064 312.134 237.28 311.846C237.508 311.546 237.796 311.3 238.144 311.108C238.492 310.916 238.912 310.82 239.404 310.82V312.35ZM243.995 311H245.543L248.765 319.64L247.505 320L243.995 311ZM252.365 311L247.343 323.6H245.777L247.955 318.74L250.835 311H252.365ZM257.535 320.18C256.767 320.18 256.047 319.994 255.375 319.622C254.703 319.25 254.157 318.716 253.737 318.02C253.329 317.312 253.125 316.478 253.125 315.518C253.125 314.558 253.329 313.73 253.737 313.034C254.157 312.326 254.703 311.78 255.375 311.396C256.047 311.012 256.767 310.82 257.535 310.82C258.303 310.82 259.017 311.012 259.677 311.396C260.349 311.78 260.889 312.326 261.297 313.034C261.705 313.73 261.909 314.558 261.909 315.518C261.909 316.478 261.705 317.312 261.297 318.02C260.889 318.716 260.349 319.25 259.677 319.622C259.017 319.994 258.303 320.18 257.535 320.18ZM257.535 318.83C258.039 318.83 258.513 318.704 258.957 318.452C259.401 318.2 259.761 317.828 260.037 317.336C260.325 316.832 260.469 316.226 260.469 315.518C260.469 314.81 260.325 314.21 260.037 313.718C259.761 313.214 259.401 312.83 258.957 312.566C258.513 312.302 258.039 312.17 257.535 312.17C257.031 312.17 256.551 312.302 256.095 312.566C255.651 312.818 255.285 313.196 254.997 313.7C254.709 314.192 254.565 314.798 254.565 315.518C254.565 316.226 254.703 316.832 254.979 317.336C255.267 317.828 255.639 318.2 256.095 318.452C256.551 318.704 257.031 318.83 257.535 318.83ZM271.368 320H269.928V311H271.368V320ZM270.018 315.806L270.036 316.31C270.024 316.454 269.988 316.676 269.928 316.976C269.88 317.276 269.79 317.612 269.658 317.984C269.538 318.344 269.358 318.692 269.118 319.028C268.89 319.364 268.59 319.64 268.218 319.856C267.858 320.072 267.408 320.18 266.868 320.18C266.52 320.18 266.16 320.126 265.788 320.018C265.428 319.922 265.092 319.76 264.78 319.532C264.468 319.292 264.216 318.962 264.024 318.542C263.832 318.122 263.736 317.6 263.736 316.976V311H265.176V316.616C265.176 317.156 265.26 317.582 265.428 317.894C265.608 318.194 265.848 318.41 266.148 318.542C266.448 318.674 266.784 318.74 267.156 318.74C267.768 318.74 268.278 318.584 268.686 318.272C269.094 317.96 269.406 317.576 269.622 317.12C269.838 316.664 269.97 316.226 270.018 315.806ZM273.703 311H275.143V320H273.703V311ZM278.023 312.35C277.411 312.35 276.895 312.506 276.475 312.818C276.067 313.118 275.743 313.49 275.503 313.934C275.275 314.366 275.125 314.786 275.053 315.194L275.035 314.15C275.035 314.042 275.059 313.862 275.107 313.61C275.155 313.358 275.245 313.076 275.377 312.764C275.509 312.44 275.683 312.134 275.899 311.846C276.127 311.546 276.415 311.3 276.763 311.108C277.111 310.916 277.531 310.82 278.023 310.82V312.35ZM108.17 334H109.61V343H108.17V334ZM112.706 333.82C113.186 333.82 113.618 333.892 114.002 334.036C114.386 334.18 114.71 334.39 114.974 334.666C115.238 334.942 115.442 335.278 115.586 335.674C115.73 336.058 115.802 336.496 115.802 336.988V343H114.362V337.348C114.362 336.652 114.2 336.13 113.876 335.782C113.552 335.434 113.066 335.26 112.418 335.26C111.926 335.26 111.47 335.386 111.05 335.638C110.63 335.89 110.282 336.238 110.006 336.682C109.742 337.114 109.58 337.618 109.52 338.194L109.502 337.15C109.562 336.646 109.682 336.19 109.862 335.782C110.054 335.374 110.288 335.026 110.564 334.738C110.852 334.438 111.176 334.21 111.536 334.054C111.908 333.898 112.298 333.82 112.706 333.82ZM118.754 333.82C119.234 333.82 119.666 333.892 120.05 334.036C120.434 334.18 120.758 334.39 121.022 334.666C121.286 334.942 121.49 335.278 121.634 335.674C121.778 336.058 121.85 336.496 121.85 336.988V343H120.41V337.348C120.41 336.652 120.248 336.13 119.924 335.782C119.6 335.434 119.114 335.26 118.466 335.26C117.974 335.26 117.518 335.386 117.098 335.638C116.678 335.89 116.33 336.238 116.054 336.682C115.79 337.114 115.628 337.618 115.568 338.194L115.55 337.15C115.61 336.646 115.73 336.19 115.91 335.782C116.102 335.374 116.336 335.026 116.612 334.738C116.9 334.438 117.224 334.21 117.584 334.054C117.956 333.898 118.346 333.82 118.754 333.82ZM131.816 343H130.376V334H131.816V343ZM130.466 338.806L130.484 339.31C130.472 339.454 130.436 339.676 130.376 339.976C130.328 340.276 130.238 340.612 130.106 340.984C129.986 341.344 129.806 341.692 129.566 342.028C129.338 342.364 129.038 342.64 128.666 342.856C128.306 343.072 127.856 343.18 127.316 343.18C126.968 343.18 126.608 343.126 126.236 343.018C125.876 342.922 125.54 342.76 125.228 342.532C124.916 342.292 124.664 341.962 124.472 341.542C124.28 341.122 124.184 340.6 124.184 339.976V334H125.624V339.616C125.624 340.156 125.708 340.582 125.876 340.894C126.056 341.194 126.296 341.41 126.596 341.542C126.896 341.674 127.232 341.74 127.604 341.74C128.216 341.74 128.726 341.584 129.134 341.272C129.542 340.96 129.854 340.576 130.07 340.12C130.286 339.664 130.418 339.226 130.466 338.806ZM133.718 340.102H135.05C135.086 340.618 135.278 341.038 135.626 341.362C135.986 341.686 136.502 341.848 137.174 341.848C137.582 341.848 137.9 341.794 138.128 341.686C138.368 341.578 138.542 341.434 138.65 341.254C138.758 341.062 138.812 340.852 138.812 340.624C138.812 340.348 138.74 340.132 138.596 339.976C138.464 339.808 138.278 339.67 138.038 339.562C137.81 339.454 137.546 339.352 137.246 339.256C136.898 339.124 136.538 338.986 136.166 338.842C135.806 338.686 135.464 338.506 135.14 338.302C134.828 338.086 134.576 337.828 134.384 337.528C134.192 337.216 134.096 336.844 134.096 336.412C134.096 336.052 134.168 335.716 134.312 335.404C134.456 335.08 134.66 334.804 134.924 334.576C135.2 334.336 135.518 334.15 135.878 334.018C136.25 333.886 136.658 333.82 137.102 333.82C137.702 333.82 138.206 333.94 138.614 334.18C139.034 334.42 139.352 334.762 139.568 335.206C139.796 335.638 139.916 336.142 139.928 336.718H138.686C138.602 336.178 138.428 335.788 138.164 335.548C137.912 335.296 137.546 335.17 137.066 335.17C136.574 335.17 136.196 335.278 135.932 335.494C135.668 335.71 135.536 335.998 135.536 336.358C135.536 336.622 135.632 336.844 135.824 337.024C136.016 337.192 136.262 337.348 136.562 337.492C136.874 337.624 137.204 337.762 137.552 337.906C137.9 338.05 138.236 338.194 138.56 338.338C138.884 338.482 139.172 338.65 139.424 338.842C139.676 339.034 139.874 339.274 140.018 339.562C140.174 339.838 140.252 340.186 140.252 340.606C140.252 341.11 140.132 341.56 139.892 341.956C139.664 342.34 139.322 342.64 138.866 342.856C138.422 343.072 137.876 343.18 137.228 343.18C136.64 343.18 136.136 343.108 135.716 342.964C135.308 342.808 134.966 342.61 134.69 342.37C134.414 342.118 134.198 341.854 134.042 341.578C133.898 341.302 133.802 341.032 133.754 340.768C133.706 340.504 133.694 340.282 133.718 340.102ZM143.878 330.4V332.146H142.006V330.4H143.878ZM142.222 334H143.662V343H142.222V334ZM154.113 339.616C154.029 340.36 153.789 341.002 153.393 341.542C153.009 342.07 152.523 342.478 151.935 342.766C151.347 343.042 150.711 343.18 150.027 343.18C149.259 343.18 148.539 342.994 147.867 342.622C147.195 342.25 146.649 341.716 146.229 341.02C145.821 340.312 145.617 339.478 145.617 338.518C145.617 337.558 145.821 336.73 146.229 336.034C146.649 335.326 147.195 334.78 147.867 334.396C148.539 334.012 149.259 333.82 150.027 333.82C150.711 333.82 151.341 333.964 151.917 334.252C152.505 334.54 152.991 334.948 153.375 335.476C153.771 336.004 154.017 336.634 154.113 337.366H152.799C152.595 336.682 152.241 336.148 151.737 335.764C151.233 335.368 150.663 335.17 150.027 335.17C149.511 335.17 149.025 335.302 148.569 335.566C148.113 335.83 147.747 336.214 147.471 336.718C147.195 337.21 147.057 337.81 147.057 338.518C147.057 339.214 147.195 339.814 147.471 340.318C147.747 340.81 148.107 341.188 148.551 341.452C149.007 341.704 149.499 341.83 150.027 341.83C150.759 341.83 151.353 341.638 151.809 341.254C152.277 340.858 152.613 340.312 152.817 339.616H154.113ZM159.097 334H164.389V335.35H159.097V334ZM161.023 331.66H162.463V343H161.023V331.66ZM169.316 343.18C168.608 343.18 167.954 342.982 167.354 342.586C166.766 342.178 166.292 341.626 165.932 340.93C165.584 340.222 165.41 339.418 165.41 338.518C165.41 337.618 165.59 336.814 165.95 336.106C166.31 335.398 166.796 334.84 167.408 334.432C168.032 334.024 168.728 333.82 169.496 333.82C170.336 333.82 170.972 334.036 171.404 334.468C171.848 334.888 172.148 335.452 172.304 336.16C172.472 336.868 172.556 337.654 172.556 338.518C172.556 338.974 172.508 339.472 172.412 340.012C172.316 340.54 172.148 341.05 171.908 341.542C171.68 342.022 171.356 342.418 170.936 342.73C170.516 343.03 169.976 343.18 169.316 343.18ZM169.676 341.812C170.288 341.812 170.792 341.662 171.188 341.362C171.596 341.062 171.896 340.666 172.088 340.174C172.28 339.67 172.376 339.118 172.376 338.518C172.376 337.858 172.274 337.282 172.07 336.79C171.878 336.286 171.578 335.896 171.17 335.62C170.774 335.332 170.276 335.188 169.676 335.188C168.776 335.188 168.08 335.506 167.588 336.142C167.096 336.766 166.85 337.558 166.85 338.518C166.85 339.154 166.97 339.724 167.21 340.228C167.462 340.72 167.798 341.11 168.218 341.398C168.65 341.674 169.136 341.812 169.676 341.812ZM172.376 334H173.816V343H172.502C172.502 343 172.49 342.892 172.466 342.676C172.454 342.46 172.436 342.208 172.412 341.92C172.388 341.632 172.376 341.392 172.376 341.2V334ZM175.73 340.102H177.062C177.098 340.618 177.29 341.038 177.638 341.362C177.998 341.686 178.514 341.848 179.186 341.848C179.594 341.848 179.912 341.794 180.14 341.686C180.38 341.578 180.554 341.434 180.662 341.254C180.77 341.062 180.824 340.852 180.824 340.624C180.824 340.348 180.752 340.132 180.608 339.976C180.476 339.808 180.29 339.67 180.05 339.562C179.822 339.454 179.558 339.352 179.258 339.256C178.91 339.124 178.55 338.986 178.178 338.842C177.818 338.686 177.476 338.506 177.152 338.302C176.84 338.086 176.588 337.828 176.396 337.528C176.204 337.216 176.108 336.844 176.108 336.412C176.108 336.052 176.18 335.716 176.324 335.404C176.468 335.08 176.672 334.804 176.936 334.576C177.212 334.336 177.53 334.15 177.89 334.018C178.262 333.886 178.67 333.82 179.114 333.82C179.714 333.82 180.218 333.94 180.626 334.18C181.046 334.42 181.364 334.762 181.58 335.206C181.808 335.638 181.928 336.142 181.94 336.718H180.698C180.614 336.178 180.44 335.788 180.176 335.548C179.924 335.296 179.558 335.17 179.078 335.17C178.586 335.17 178.208 335.278 177.944 335.494C177.68 335.71 177.548 335.998 177.548 336.358C177.548 336.622 177.644 336.844 177.836 337.024C178.028 337.192 178.274 337.348 178.574 337.492C178.886 337.624 179.216 337.762 179.564 337.906C179.912 338.05 180.248 338.194 180.572 338.338C180.896 338.482 181.184 338.65 181.436 338.842C181.688 339.034 181.886 339.274 182.03 339.562C182.186 339.838 182.264 340.186 182.264 340.606C182.264 341.11 182.144 341.56 181.904 341.956C181.676 342.34 181.334 342.64 180.878 342.856C180.434 343.072 179.888 343.18 179.24 343.18C178.652 343.18 178.148 343.108 177.728 342.964C177.32 342.808 176.978 342.61 176.702 342.37C176.426 342.118 176.21 341.854 176.054 341.578C175.91 341.302 175.814 341.032 175.766 340.768C175.718 340.504 175.706 340.282 175.73 340.102ZM183.478 334H188.77V335.35H183.478V334ZM185.404 331.66H186.844V343H185.404V331.66ZM196.667 340.102H198.017C197.921 340.69 197.705 341.218 197.369 341.686C197.045 342.142 196.613 342.508 196.073 342.784C195.545 343.048 194.933 343.18 194.237 343.18C193.397 343.18 192.641 342.982 191.969 342.586C191.297 342.178 190.763 341.626 190.367 340.93C189.983 340.222 189.791 339.418 189.791 338.518C189.791 337.618 189.977 336.814 190.349 336.106C190.733 335.398 191.255 334.84 191.915 334.432C192.575 334.024 193.319 333.82 194.147 333.82C195.023 333.82 195.761 334.018 196.361 334.414C196.973 334.798 197.423 335.368 197.711 336.124C198.011 336.868 198.131 337.786 198.071 338.878H191.231C191.291 339.466 191.453 339.982 191.717 340.426C191.981 340.87 192.329 341.218 192.761 341.47C193.193 341.71 193.685 341.83 194.237 341.83C194.849 341.83 195.365 341.674 195.785 341.362C196.217 341.038 196.511 340.618 196.667 340.102ZM194.201 335.17C193.457 335.17 192.833 335.386 192.329 335.818C191.825 336.25 191.489 336.838 191.321 337.582H196.595C196.547 336.79 196.289 336.19 195.821 335.782C195.365 335.374 194.825 335.17 194.201 335.17Z" fill="white"/>
<g filter="url(#filter1_b_61_25)">
<circle cx="352.151" cy="325.349" r="12.1512" fill="#E9EFFF" fill-opacity="0.2"/>
</g>
<g filter="url(#filter2_b_61_25)">
<circle cx="370" cy="319" r="18" fill="#E9EFFF" fill-opacity="0.2"/>
</g>
<g filter="url(#filter3_b_61_25)">
<circle cx="383" cy="571" r="21" fill="#E9EFFF" fill-opacity="0.2"/>
</g>
<g filter="url(#filter4_b_61_25)">
<circle cx="375" cy="565" r="18" fill="#E9EFFF" fill-opacity="0.2"/>
</g>
<g filter="url(#filter5_b_61_25)">
<circle cx="367.151" cy="559.151" r="12.1512" fill="#E9EFFF" fill-opacity="0.2"/>
</g>
<g filter="url(#filter6_b_61_25)">
<circle cx="52" cy="438" r="18" fill="#E9EFFF" fill-opacity="0.2"/>
</g>
<g filter="url(#filter7_b_61_25)">
<circle cx="31" cy="438" r="18" fill="#E9EFFF" fill-opacity="0.2"/>
</g>
<g clip-path="url(#clip0_61_25)">
<path d="M234.531 86.115C234.531 95.5825 234.531 105.05 234.531 114.524C220.714 114.524 206.898 114.524 193.081 114.524C193.081 113.283 193.081 112.042 193.101 110.737C193.298 110.879 193.45 111.116 193.658 111.288C194.633 112.094 195.759 112.13 196.887 111.759C197.731 111.48 198.307 110.869 198.277 109.836C198.224 108.002 198.264 106.166 198.26 104.331C198.26 104.118 198.282 103.993 198.54 103.895C199.706 103.454 200.852 102.963 202.008 102.497C202.467 102.311 202.932 102.142 203.416 101.956C203.416 103.206 203.416 104.41 203.416 105.629C203.336 105.618 203.283 105.614 203.233 105.602C202.133 105.336 201.091 105.35 200.144 106.101C199.358 106.724 199.336 108.07 200.12 108.699C201.104 109.489 202.221 109.535 203.353 109.17C204.061 108.942 204.709 108.493 204.724 107.661C204.766 105.382 204.74 103.101 204.737 100.821C204.736 100.464 204.532 100.283 204.185 100.287C203.989 100.29 203.779 100.302 203.601 100.372C201.54 101.192 199.486 102.028 197.425 102.847C197.094 102.979 196.959 103.181 196.962 103.538C196.974 104.954 196.967 106.371 196.967 107.788C196.967 107.927 196.967 108.067 196.967 108.157C196.38 108.12 195.852 108.056 195.325 108.062C194.555 108.071 193.901 108.366 193.406 108.979C193.316 109.091 193.19 109.173 193.081 109.269C193.081 97.2113 193.081 85.1538 193.081 73.0887C206.898 73.0887 220.714 73.0887 234.531 73.0885C234.531 74.8417 234.531 76.5951 234.508 78.4141C233.996 78.0569 233.519 78.3114 233.039 78.5041C231.091 79.2863 229.145 80.0727 227.192 80.8422C226.864 80.9714 226.754 81.1743 226.756 81.5071C226.764 82.9236 226.759 84.3402 226.759 85.7567C226.759 85.8988 226.759 86.0409 226.759 86.2101C226.642 86.1838 226.579 86.1689 226.516 86.1556C225.431 85.9264 224.399 85.9222 223.462 86.6688C222.673 87.298 222.655 88.6419 223.432 89.268C224.413 90.0585 225.532 90.1094 226.664 89.7415C227.513 89.4656 228.103 88.8525 228.07 87.7903C228.014 85.9708 228.057 84.1483 228.051 82.327C228.05 82.0921 228.086 81.9663 228.354 81.8647C229.519 81.4229 230.665 80.9307 231.821 80.4645C232.275 80.2816 232.737 80.119 233.217 79.9391C233.217 81.1961 233.217 82.3927 233.217 83.592C231.742 83.3754 231.444 83.3629 230.772 83.6093C230.05 83.8744 229.45 84.2873 229.354 85.1311C229.245 86.09 229.662 86.645 230.565 87.0908C231.118 87.3638 231.7 87.3451 232.284 87.3265C233.056 87.3019 233.71 87.0188 234.206 86.4042C234.296 86.2929 234.422 86.2107 234.531 86.115ZM223.889 103.921C223.904 103.897 223.919 103.874 223.983 103.826C225.252 102.415 225.93 100.731 226.096 98.8701C226.261 97.0201 226.016 95.224 224.992 93.6011C224.452 92.7447 223.828 91.9755 223.007 91.3699C221.666 90.3808 220.18 89.8543 218.478 89.856C218.35 89.5377 218.222 89.2196 218.096 88.9009C217.713 87.9336 217.33 86.966 216.986 85.9626C217.188 85.7893 217.392 85.6188 217.591 85.442C218.109 84.9798 218.616 84.5042 219.145 84.0534C220.077 83.2578 220.978 82.4353 221.645 81.392C222.502 80.0513 222.993 78.6334 222.72 77.0015C222.353 74.8024 220.251 72.9501 217.663 73.3389C216.022 73.5854 214.703 74.4726 213.738 75.8102C212.609 77.3761 212.08 79.1554 212.108 81.0902C212.119 81.7724 212.138 82.4559 212.193 83.1356C212.236 83.6723 212.34 84.2042 212.367 84.7578C211.387 85.8187 210.383 86.8588 209.433 87.9461C208.296 89.2467 207.404 90.7061 206.74 92.3081C206.339 93.2781 206.029 94.2834 205.976 95.3158C205.92 96.4306 205.959 97.5716 206.138 98.6718C206.399 100.284 207.111 101.737 208.201 102.969C209.315 104.229 210.656 105.176 212.227 105.812C213.692 106.406 215.21 106.695 216.778 106.756C217.134 106.77 217.493 106.714 217.853 106.764C217.827 107.474 217.88 108.199 217.754 108.891C217.581 109.842 217.077 110.438 215.813 110.323C215.091 110.257 214.266 109.503 214.284 108.639C214.29 108.364 214.235 108.082 214.166 107.813C213.978 107.076 213.222 106.338 212.092 106.422C211.158 106.491 210.341 107.261 210.321 108.196C210.305 108.935 210.335 109.667 210.573 110.372C210.926 111.414 211.497 112.307 212.372 113.003C213.576 113.959 214.937 114.345 216.466 114.298C217.796 114.258 218.933 113.781 219.901 112.916C221.125 111.823 221.685 110.376 221.804 108.779C221.884 107.706 221.812 106.622 221.837 105.493C222.465 105.02 223.092 104.547 223.741 104.067C223.741 104.067 223.749 104.046 223.783 104.023C223.806 103.992 223.829 103.961 223.847 103.928C223.847 103.928 223.847 103.934 223.889 103.921ZM205.965 85.868C206.106 85.7944 206.249 85.725 206.386 85.6466C206.888 85.3603 207.312 84.9724 207.319 84.3699C207.345 82.0773 207.332 79.7843 207.327 77.4914C207.326 77.16 207.133 76.9711 206.802 76.9724C206.594 76.9732 206.37 76.986 206.179 77.0613C204.13 77.8723 202.088 78.7002 200.04 79.5147C199.682 79.6569 199.545 79.8846 199.55 80.2731C199.568 81.6756 199.558 83.0784 199.557 84.4811C199.557 84.6197 199.545 84.7582 199.539 84.9019C198.5 84.6715 197.543 84.6095 196.598 85.1257C195.431 85.7626 195.36 87.3564 196.342 88.0498C197.398 88.7961 198.519 88.8197 199.658 88.3641C200.472 88.0387 200.892 87.4272 200.867 86.4787C200.819 84.6592 200.854 82.8375 200.851 81.0167C200.851 80.8042 200.87 80.6772 201.129 80.5802C202.161 80.1949 203.172 79.7547 204.194 79.3427C204.787 79.1038 205.386 78.8798 206.009 78.6385C206.009 79.8897 206.009 81.093 206.009 82.2915C205.971 82.2987 205.957 82.3053 205.944 82.303C205.893 82.2934 205.842 82.2807 205.791 82.2699C204.707 82.0398 203.674 82.0347 202.739 82.7825C201.964 83.4018 201.903 84.7127 202.675 85.3585C203.629 86.1565 204.744 86.2097 205.965 85.868Z" fill="#8AE1E8"/>
<path d="M193.081 109.307C193.19 109.173 193.316 109.091 193.406 108.979C193.901 108.366 194.555 108.071 195.325 108.062C195.852 108.056 196.38 108.12 196.967 108.157C196.967 108.067 196.967 107.927 196.967 107.788C196.967 106.371 196.974 104.954 196.962 103.538C196.959 103.181 197.094 102.979 197.425 102.847C199.486 102.028 201.54 101.192 203.601 100.372C203.779 100.302 203.989 100.29 204.185 100.287C204.532 100.283 204.736 100.464 204.737 100.821C204.74 103.101 204.766 105.382 204.724 107.661C204.709 108.493 204.061 108.942 203.353 109.17C202.221 109.535 201.104 109.489 200.12 108.699C199.336 108.07 199.358 106.724 200.144 106.101C201.091 105.35 202.133 105.336 203.233 105.602C203.283 105.614 203.336 105.617 203.416 105.629C203.416 104.41 203.416 103.206 203.416 101.956C202.932 102.142 202.467 102.311 202.008 102.497C200.852 102.963 199.706 103.454 198.54 103.895C198.282 103.993 198.26 104.118 198.26 104.331C198.264 106.166 198.224 108.002 198.277 109.835C198.307 110.869 197.731 111.48 196.887 111.759C195.759 112.13 194.633 112.094 193.658 111.288C193.45 111.116 193.298 110.879 193.101 110.699C193.081 110.265 193.081 109.805 193.081 109.307Z" fill="#F79235"/>
<path d="M234.531 86.0771C234.422 86.2107 234.296 86.2929 234.206 86.4042C233.71 87.0188 233.056 87.3019 232.284 87.3265C231.7 87.3451 231.118 87.3638 230.565 87.0908C229.662 86.645 229.245 86.09 229.354 85.1311C229.45 84.2873 230.05 83.8744 230.772 83.6093C231.444 83.3629 231.742 83.3754 233.217 83.592C233.217 82.3927 233.217 81.1961 233.217 79.9391C232.737 80.119 232.275 80.2816 231.821 80.4645C230.665 80.9307 229.519 81.4229 228.354 81.8647C228.086 81.9663 228.05 82.0921 228.051 82.327C228.057 84.1483 228.014 85.9708 228.07 87.7903C228.103 88.8525 227.513 89.4656 226.664 89.7415C225.532 90.1094 224.413 90.0585 223.432 89.268C222.655 88.6419 222.673 87.298 223.462 86.6688C224.399 85.9222 225.431 85.9264 226.516 86.1556C226.579 86.1689 226.642 86.1838 226.759 86.2101C226.759 86.0409 226.759 85.8988 226.759 85.7567C226.759 84.3402 226.764 82.9236 226.756 81.5071C226.754 81.1743 226.864 80.9714 227.192 80.8422C229.145 80.0727 231.091 79.2863 233.039 78.5041C233.519 78.3114 233.996 78.0569 234.508 78.452C234.531 80.9625 234.531 83.5008 234.531 86.0771Z" fill="#F79235"/>
<path d="M218.503 89.9078C220.18 89.8542 221.666 90.3808 223.007 91.3699C223.828 91.9755 224.452 92.7447 224.992 93.6011C226.016 95.224 226.261 97.0201 226.096 98.8701C225.93 100.731 225.252 102.415 223.941 103.848C223.881 103.891 223.864 103.912 223.847 103.934C223.847 103.934 223.847 103.928 223.828 103.935C223.789 103.977 223.769 104.012 223.749 104.046C223.749 104.046 223.741 104.067 223.701 104.06C223.55 104.09 223.428 104.109 223.327 104.167C221.83 105.03 220.196 105.399 218.491 105.456C216.368 105.528 214.372 105.004 212.507 104.002C208.471 101.834 206.845 97.7758 207.457 93.6295C207.732 91.7667 208.459 90.0655 209.537 88.542C210.384 87.3465 211.36 86.2432 212.271 85.0933C212.347 84.997 212.369 84.8576 212.416 84.7382C212.34 84.2042 212.236 83.6723 212.193 83.1356C212.138 82.4559 212.119 81.7724 212.108 81.0902C212.08 79.1554 212.609 77.3761 213.738 75.8102C214.703 74.4726 216.022 73.5854 217.663 73.3389C220.251 72.95 222.353 74.8024 222.72 77.0014C222.993 78.6334 222.502 80.0513 221.645 81.392C220.978 82.4353 220.077 83.2578 219.145 84.0534C218.616 84.5042 218.109 84.9798 217.591 85.442C217.392 85.6188 217.188 85.7893 216.941 85.9912C216.372 86.4803 215.832 86.9232 215.331 87.406C214.822 87.896 214.35 88.4253 213.842 88.9527C212.752 90.0823 211.777 91.2733 211.007 92.6129C210.111 94.1699 209.689 95.831 209.994 97.6442C210.322 99.5922 211.426 100.947 213.137 101.841C214.537 102.573 216.026 102.893 217.643 102.706C218.462 102.69 219.191 102.459 219.869 102.086C220.509 101.735 221.105 101.317 221.417 100.578C221.52 100.407 221.636 100.274 221.697 100.118C222.305 98.5738 222.433 97.0435 221.515 95.5602C221.14 94.9544 220.672 94.4473 219.956 94.1862C219.439 93.8089 218.86 93.7685 218.286 93.8187C217.424 93.8938 216.583 94.0598 215.955 94.7886C215.521 95.3212 215.209 95.8747 215.167 96.5659C215.143 96.9732 215.022 97.3747 214.92 97.7647C214.817 97.7534 214.737 97.7536 214.658 97.7597C213.631 97.8384 212.643 96.9969 212.597 95.974C212.527 94.4377 212.92 93.022 213.756 91.7287C213.83 91.6153 213.854 91.4699 213.908 91.3263C213.915 91.3133 213.943 91.3041 213.948 91.3103C213.953 91.3166 213.967 91.3117 213.967 91.3117C213.967 91.3117 213.954 91.2971 213.968 91.272C214.193 91.124 214.403 91.0011 214.642 90.8729C215.869 90.2362 217.153 89.9391 218.503 89.9078ZM212.804 84.5193C212.783 84.5357 212.767 84.5554 212.744 84.5819C212.744 84.5819 212.752 84.5759 212.783 84.5533C212.803 84.5363 212.819 84.5168 212.842 84.4903C212.842 84.4903 212.836 84.4979 212.804 84.5193ZM217.53 80.1646C218.095 79.5965 218.564 78.9655 218.788 78.1826C218.872 77.8883 218.895 77.5421 218.608 77.392C218.415 77.2911 218.101 77.3402 217.872 77.4145C217.658 77.4836 217.459 77.6509 217.295 77.8162C216.32 78.8009 216.027 80.0227 216.08 81.4631C216.589 81.0087 217.039 80.6069 217.53 80.1646Z" fill="#67D1B1"/>
<path d="M221.807 105.543C221.812 106.622 221.884 107.706 221.804 108.779C221.685 110.376 221.125 111.823 219.901 112.916C218.933 113.781 217.796 114.258 216.466 114.298C214.937 114.345 213.576 113.959 212.372 113.003C211.497 112.307 210.926 111.414 210.573 110.372C210.335 109.667 210.305 108.935 210.321 108.196C210.341 107.261 211.158 106.491 212.092 106.422C213.222 106.338 213.978 107.076 214.166 107.813C214.235 108.082 214.29 108.364 214.284 108.639C214.266 109.503 215.091 110.257 215.813 110.323C217.077 110.438 217.581 109.842 217.754 108.891C217.88 108.199 217.827 107.474 217.884 106.718C219.274 106.508 220.572 106.133 221.807 105.543Z" fill="#02B27D"/>
<path d="M205.933 85.8704C204.744 86.2097 203.629 86.1565 202.675 85.3585C201.903 84.7127 201.964 83.4018 202.739 82.7825C203.674 82.0347 204.707 82.0398 205.791 82.2699C205.842 82.2807 205.893 82.2934 205.944 82.303C205.957 82.3053 205.971 82.2987 206.009 82.2915C206.009 81.093 206.009 79.8897 206.009 78.6385C205.386 78.8798 204.787 79.1038 204.194 79.3427C203.172 79.7547 202.161 80.1949 201.129 80.5802C200.87 80.6772 200.851 80.8042 200.851 81.0167C200.854 82.8375 200.819 84.6592 200.867 86.4787C200.892 87.4272 200.472 88.0387 199.658 88.3641C198.519 88.8197 197.398 88.7961 196.342 88.0498C195.36 87.3564 195.431 85.7626 196.598 85.1257C197.543 84.6095 198.5 84.6714 199.539 84.9019C199.545 84.7582 199.557 84.6196 199.557 84.4811C199.558 83.0784 199.568 81.6756 199.55 80.2731C199.545 79.8846 199.682 79.6569 200.04 79.5147C202.088 78.7002 204.13 77.8723 206.179 77.0613C206.37 76.986 206.594 76.9732 206.802 76.9724C207.133 76.9711 207.326 77.16 207.327 77.4914C207.332 79.7843 207.345 82.0773 207.319 84.3699C207.312 84.9724 206.888 85.3603 206.386 85.6466C206.249 85.725 206.106 85.7944 205.933 85.8704Z" fill="#F79235"/>
<path d="M221.822 105.518C220.572 106.133 219.274 106.508 217.882 106.681C217.493 106.714 217.134 106.77 216.778 106.756C215.21 106.695 213.692 106.406 212.227 105.812C210.656 105.176 209.315 104.229 208.201 102.969C207.111 101.737 206.399 100.284 206.138 98.6718C205.959 97.5716 205.92 96.4306 205.976 95.3158C206.029 94.2834 206.339 93.2781 206.74 92.3081C207.404 90.7061 208.296 89.2467 209.433 87.9461C210.383 86.8588 211.387 85.8187 212.392 84.748C212.369 84.8576 212.347 84.997 212.271 85.0933C211.36 86.2432 210.384 87.3466 209.537 88.542C208.459 90.0655 207.732 91.7667 207.457 93.6295C206.845 97.7758 208.471 101.834 212.507 104.002C214.372 105.004 216.368 105.528 218.491 105.456C220.196 105.399 221.83 105.03 223.327 104.167C223.428 104.109 223.55 104.09 223.691 104.063C223.092 104.547 222.465 105.02 221.822 105.518Z" fill="#35C298"/>
<path d="M218.49 89.8819C217.153 89.9391 215.869 90.2362 214.63 90.8471C214.347 90.1969 214.105 89.5671 213.862 88.9374C214.35 88.4253 214.822 87.896 215.331 87.406C215.832 86.9232 216.372 86.4803 216.921 86.0092C217.33 86.966 217.713 87.9336 218.096 88.9009C218.222 89.2196 218.35 89.5376 218.49 89.8819Z" fill="#03B27D"/>
<path d="M223.766 104.035C223.769 104.012 223.789 103.977 223.831 103.936C223.829 103.961 223.806 103.992 223.766 104.035Z" fill="#35C298"/>
<path d="M223.868 103.927C223.864 103.912 223.881 103.891 223.916 103.86C223.919 103.874 223.904 103.897 223.868 103.927Z" fill="#35C298"/>
<path d="M213.842 88.9527C214.105 89.5671 214.347 90.1969 214.602 90.8525C214.403 91.0011 214.193 91.124 213.964 91.2713C213.946 91.2958 213.943 91.3041 213.943 91.3041C213.943 91.3041 213.915 91.3133 213.885 91.3394C213.372 91.8483 212.827 92.2841 212.421 92.8243C211.706 93.7759 211.312 94.8765 211.223 96.1106C211.2 96.2613 211.186 96.378 211.163 96.4927C211.002 97.28 211.356 98.4128 212.201 98.7847C212.67 98.8701 213.126 98.9889 213.577 98.9734C214.143 98.954 214.912 98.2725 214.944 97.7788C215.022 97.3747 215.143 96.9732 215.167 96.5659C215.209 95.8747 215.521 95.3212 215.961 94.8194C216.044 94.9755 216.111 95.1074 216.144 95.2472C216.527 96.8636 216.936 98.475 217.273 100.101C217.45 100.954 217.501 101.833 217.608 102.7C216.026 102.893 214.537 102.573 213.137 101.841C211.426 100.947 210.322 99.5922 209.994 97.6442C209.689 95.831 210.111 94.1699 211.007 92.6129C211.777 91.2733 212.752 90.0823 213.842 88.9527Z" fill="#8AE1E8"/>
<path d="M217.643 102.706C217.501 101.833 217.45 100.954 217.273 100.101C216.936 98.4751 216.527 96.8637 216.144 95.2472C216.111 95.1074 216.044 94.9755 215.987 94.8091C216.583 94.0598 217.424 93.8939 218.286 93.8187C218.86 93.7686 219.439 93.8089 219.962 94.2159C220.326 95.6432 220.685 97.0119 221.005 98.3897C221.174 99.1195 221.273 99.8653 221.404 100.604C221.105 101.317 220.509 101.735 219.869 102.086C219.191 102.459 218.462 102.69 217.643 102.706Z" fill="#02B27D"/>
<path d="M214.92 97.7647C214.912 98.2725 214.143 98.954 213.577 98.9734C213.126 98.9889 212.67 98.8701 212.196 98.7557C211.681 97.8903 211.408 96.9998 211.228 96.0757C211.312 94.8765 211.706 93.7759 212.421 92.8243C212.827 92.2841 213.372 91.8483 213.877 91.3524C213.854 91.4699 213.83 91.6153 213.756 91.7287C212.92 93.022 212.527 94.4377 212.597 95.974C212.643 96.9969 213.631 97.8384 214.658 97.7597C214.737 97.7536 214.817 97.7534 214.92 97.7647Z" fill="#36C398"/>
<path d="M221.417 100.578C221.273 99.8653 221.174 99.1195 221.005 98.3897C220.685 97.0118 220.326 95.6432 219.977 94.2411C220.672 94.4473 221.14 94.9543 221.515 95.5602C222.433 97.0435 222.305 98.5738 221.697 100.118C221.636 100.274 221.52 100.407 221.417 100.578Z" fill="#8AE1E8"/>
<path d="M217.51 80.185C217.039 80.607 216.589 81.0087 216.08 81.4631C216.027 80.0227 216.32 78.8009 217.295 77.8162C217.459 77.6509 217.658 77.4836 217.872 77.4145C218.101 77.3402 218.415 77.2911 218.608 77.392C218.895 77.5421 218.872 77.8883 218.788 78.1826C218.564 78.9655 218.095 79.5965 217.51 80.185Z" fill="#8AE1E8"/>
<path d="M212.752 84.576C212.752 84.576 212.744 84.5831 212.749 84.5802C212.754 84.5772 212.752 84.576 212.752 84.576Z" fill="#35C298"/>
<path d="M213.948 91.3103C213.943 91.3041 213.946 91.2958 213.95 91.2965C213.954 91.2971 213.967 91.3117 213.967 91.3117C213.967 91.3117 213.953 91.3166 213.948 91.3103Z" fill="#36C398"/>
<path d="M212.754 84.5778C212.767 84.5555 212.783 84.5357 212.819 84.5077C212.834 84.4961 212.833 84.4947 212.833 84.4947C212.819 84.5168 212.803 84.5364 212.768 84.5646C212.752 84.576 212.754 84.577 212.754 84.5778Z" fill="#35C298"/>
<path d="M212.835 84.497C212.836 84.4979 212.842 84.4902 212.837 84.4925C212.833 84.4947 212.834 84.4961 212.835 84.497Z" fill="#35C298"/>
<path d="M211.223 96.1106C211.408 96.9999 211.681 97.8903 212.181 98.7296C211.356 98.4128 211.002 97.28 211.163 96.4927C211.186 96.378 211.2 96.2613 211.223 96.1106Z" fill="#65D0B0"/>
</g>
<defs>
<filter id="filter0_b_61_25" x="-322.69" y="488.903" width="1046.38" height="467.097" filterUnits="userSpaceOnUse" color-interpolation-filters="sRGB">
<feFlood flood-opacity="0" result="BackgroundImageFix"/>
<feGaussianBlur in="BackgroundImage" stdDeviation="30"/>
<feComposite in2="SourceAlpha" operator="in" result="effect1_backgroundBlur_61_25"/>
<feBlend mode="normal" in="SourceGraphic" in2="effect1_backgroundBlur_61_25" result="shape"/>
</filter>
<filter id="filter1_b_61_25" x="329" y="302.198" width="46.3023" height="46.3023" filterUnits="userSpaceOnUse" color-interpolation-filters="sRGB">
<feFlood flood-opacity="0" result="BackgroundImageFix"/>
<feGaussianBlur in="BackgroundImage" stdDeviation="5.5"/>
<feComposite in2="SourceAlpha" operator="in" result="effect1_backgroundBlur_61_25"/>
<feBlend mode="normal" in="SourceGraphic" in2="effect1_backgroundBlur_61_25" result="shape"/>
</filter>
<filter id="filter2_b_61_25" x="341" y="290" width="58" height="58" filterUnits="userSpaceOnUse" color-interpolation-filters="sRGB">
<feFlood flood-opacity="0" result="BackgroundImageFix"/>
<feGaussianBlur in="BackgroundImage" stdDeviation="5.5"/>
<feComposite in2="SourceAlpha" operator="in" result="effect1_backgroundBlur_61_25"/>
<feBlend mode="normal" in="SourceGraphic" in2="effect1_backgroundBlur_61_25" result="shape"/>
</filter>
<filter id="filter3_b_61_25" x="351" y="539" width="64" height="64" filterUnits="userSpaceOnUse" color-interpolation-filters="sRGB">
<feFlood flood-opacity="0" result="BackgroundImageFix"/>
<feGaussianBlur in="BackgroundImage" stdDeviation="5.5"/>
<feComposite in2="SourceAlpha" operator="in" result="effect1_backgroundBlur_61_25"/>
<feBlend mode="normal" in="SourceGraphic" in2="effect1_backgroundBlur_61_25" result="shape"/>
</filter>
<filter id="filter4_b_61_25" x="346" y="536" width="58" height="58" filterUnits="userSpaceOnUse" color-interpolation-filters="sRGB">
<feFlood flood-opacity="0" result="BackgroundImageFix"/>
<feGaussianBlur in="BackgroundImage" stdDeviation="5.5"/>
<feComposite in2="SourceAlpha" operator="in" result="effect1_backgroundBlur_61_25"/>
<feBlend mode="normal" in="SourceGraphic" in2="effect1_backgroundBlur_61_25" result="shape"/>
</filter>
<filter id="filter5_b_61_25" x="344" y="536" width="46.3023" height="46.3023" filterUnits="userSpaceOnUse" color-interpolation-filters="sRGB">
<feFlood flood-opacity="0" result="BackgroundImageFix"/>
<feGaussianBlur in="BackgroundImage" stdDeviation="5.5"/>
<feComposite in2="SourceAlpha" operator="in" result="effect1_backgroundBlur_61_25"/>
<feBlend mode="normal" in="SourceGraphic" in2="effect1_backgroundBlur_61_25" result="shape"/>
</filter>
<filter id="filter6_b_61_25" x="23" y="409" width="58" height="58" filterUnits="userSpaceOnUse" color-interpolation-filters="sRGB">
<feFlood flood-opacity="0" result="BackgroundImageFix"/>
<feGaussianBlur in="BackgroundImage" stdDeviation="5.5"/>
<feComposite in2="SourceAlpha" operator="in" result="effect1_backgroundBlur_61_25"/>
<feBlend mode="normal" in="SourceGraphic" in2="effect1_backgroundBlur_61_25" result="shape"/>
</filter>
<filter id="filter7_b_61_25" x="2" y="409" width="58" height="58" filterUnits="userSpaceOnUse" color-interpolation-filters="sRGB">
<feFlood flood-opacity="0" result="BackgroundImageFix"/>
<feGaussianBlur in="BackgroundImage" stdDeviation="5.5"/>
<feComposite in2="SourceAlpha" operator="in" result="effect1_backgroundBlur_61_25"/>
<feBlend mode="normal" in="SourceGraphic" in2="effect1_backgroundBlur_61_25" result="shape"/>
</filter>
<clipPath id="clip0_61_25">
<rect width="41.45" height="41.45" fill="white" transform="translate(193 73)"/>
</clipPath>
</defs>
</svg>
