<svg width="198" height="49" viewBox="0 0 198 49" fill="none" xmlns="http://www.w3.org/2000/svg">
<rect x="2.5" y="2.5" width="193" height="44" stroke="#404756" stroke-width="5"/>
<path d="M58.286 29.182C57.446 29.182 56.6853 29.084 56.004 28.888C55.332 28.692 54.7487 28.398 54.254 28.006C53.7687 27.614 53.3953 27.1287 53.134 26.55C52.8727 25.9713 52.742 25.304 52.742 24.548C52.742 23.7827 52.8773 23.106 53.148 22.518C53.428 21.9207 53.82 21.4167 54.324 21.006C54.8373 20.5953 55.444 20.2873 56.144 20.082C56.8533 19.8673 57.6373 19.76 58.496 19.76C59.5133 19.76 60.3907 19.9047 61.128 20.194C61.8653 20.474 62.444 20.8707 62.864 21.384C63.2933 21.8973 63.536 22.5087 63.592 23.218H61.8C61.6787 22.8447 61.478 22.5227 61.198 22.252C60.9273 21.972 60.568 21.7573 60.12 21.608C59.672 21.4493 59.1307 21.37 58.496 21.37C57.684 21.37 56.9887 21.5007 56.41 21.762C55.8407 22.0233 55.4067 22.392 55.108 22.868C54.8093 23.344 54.66 23.904 54.66 24.548C54.66 25.1733 54.7907 25.7147 55.052 26.172C55.3133 26.62 55.7147 26.9653 56.256 27.208C56.8067 27.4507 57.5067 27.572 58.356 27.572C59.0093 27.572 59.5833 27.488 60.078 27.32C60.582 27.1427 61.002 26.9093 61.338 26.62C61.674 26.3213 61.912 25.99 62.052 25.626L62.78 25.36C62.6587 26.564 62.2013 27.502 61.408 28.174C60.624 28.846 59.5833 29.182 58.286 29.182ZM62.304 29C62.304 28.7107 62.3227 28.3793 62.36 28.006C62.3973 27.6233 62.444 27.2407 62.5 26.858C62.556 26.466 62.6073 26.1067 62.654 25.78H58.51V24.59H63.914V29H62.304ZM71.9789 26.69H73.7429C73.6682 27.166 73.4675 27.5907 73.1409 27.964C72.8235 28.3373 72.3895 28.6313 71.8389 28.846C71.2882 29.0607 70.6162 29.168 69.8229 29.168C68.9362 29.168 68.1522 29.028 67.4709 28.748C66.7895 28.4587 66.2575 28.0433 65.8749 27.502C65.4922 26.9607 65.3009 26.3073 65.3009 25.542C65.3009 24.7767 65.4875 24.1233 65.8609 23.582C66.2342 23.0313 66.7522 22.6113 67.4149 22.322C68.0869 22.0327 68.8709 21.888 69.7669 21.888C70.6815 21.888 71.4422 22.0327 72.0489 22.322C72.6555 22.6113 73.1035 23.05 73.3929 23.638C73.6915 24.2167 73.8175 24.9587 73.7709 25.864H67.1349C67.1815 26.2187 67.3122 26.5407 67.5269 26.83C67.7509 27.1193 68.0495 27.348 68.4229 27.516C68.8055 27.684 69.2582 27.768 69.7809 27.768C70.3595 27.768 70.8402 27.67 71.2229 27.474C71.6149 27.2687 71.8669 27.0073 71.9789 26.69ZM69.6829 23.274C69.0109 23.274 68.4649 23.4233 68.0449 23.722C67.6249 24.0113 67.3542 24.3707 67.2329 24.8H71.9649C71.9182 24.3333 71.6942 23.9647 71.2929 23.694C70.9009 23.414 70.3642 23.274 69.6829 23.274ZM74.5395 22.042H79.9435V23.456H74.5395V22.042ZM76.3315 20.138H78.1515V29H76.3315V20.138ZM84.1127 25.948H86.0027C86.0401 26.2653 86.1847 26.5547 86.4367 26.816C86.6981 27.068 87.0387 27.2687 87.4587 27.418C87.8787 27.558 88.3501 27.628 88.8727 27.628C89.3487 27.628 89.7407 27.5767 90.0487 27.474C90.3567 27.3713 90.5854 27.2267 90.7347 27.04C90.8841 26.8533 90.9587 26.6293 90.9587 26.368C90.9587 26.116 90.8654 25.9247 90.6787 25.794C90.4921 25.654 90.1981 25.542 89.7967 25.458C89.3954 25.3647 88.8681 25.2713 88.2147 25.178C87.7014 25.1033 87.2161 25.0007 86.7587 24.87C86.3014 24.73 85.8954 24.5527 85.5407 24.338C85.1954 24.1233 84.9201 23.862 84.7147 23.554C84.5187 23.2367 84.4207 22.8633 84.4207 22.434C84.4207 21.902 84.5701 21.4353 84.8687 21.034C85.1767 20.6327 85.6294 20.32 86.2267 20.096C86.8241 19.872 87.5567 19.76 88.4247 19.76C89.7314 19.76 90.7347 20.04 91.4347 20.6C92.1441 21.1507 92.4894 21.9113 92.4707 22.882H90.6507C90.6134 22.3313 90.3801 21.9347 89.9507 21.692C89.5307 21.4493 88.9987 21.328 88.3547 21.328C87.7574 21.328 87.2627 21.4167 86.8707 21.594C86.4881 21.7713 86.2967 22.0747 86.2967 22.504C86.2967 22.672 86.3434 22.8213 86.4367 22.952C86.5301 23.0733 86.6887 23.1807 86.9127 23.274C87.1367 23.3673 87.4401 23.456 87.8227 23.54C88.2054 23.624 88.6814 23.708 89.2507 23.792C89.7827 23.8667 90.2634 23.9693 90.6927 24.1C91.1314 24.2213 91.5047 24.3847 91.8127 24.59C92.1301 24.786 92.3727 25.038 92.5407 25.346C92.7087 25.654 92.7927 26.032 92.7927 26.48C92.7927 27.0307 92.6481 27.5113 92.3587 27.922C92.0787 28.3233 91.6401 28.636 91.0427 28.86C90.4547 29.084 89.6894 29.196 88.7467 29.196C88.0747 29.196 87.4821 29.126 86.9687 28.986C86.4554 28.8367 86.0121 28.6407 85.6387 28.398C85.2654 28.1553 84.9621 27.8893 84.7287 27.6C84.4954 27.3107 84.3274 27.0213 84.2247 26.732C84.1314 26.4427 84.0941 26.1813 84.1127 25.948ZM93.7074 22.042H99.1114V23.456H93.7074V22.042ZM95.4994 20.138H97.3194V29H95.4994V20.138ZM103.56 29.154C102.869 29.154 102.239 29.0047 101.67 28.706C101.11 28.398 100.662 27.9733 100.326 27.432C99.9994 26.8813 99.836 26.2467 99.836 25.528C99.836 24.7907 100.004 24.1513 100.34 23.61C100.676 23.0687 101.129 22.6487 101.698 22.35C102.277 22.042 102.93 21.888 103.658 21.888C104.461 21.888 105.105 22.0513 105.59 22.378C106.085 22.6953 106.444 23.1293 106.668 23.68C106.892 24.2307 107.004 24.8467 107.004 25.528C107.004 25.9387 106.939 26.3587 106.808 26.788C106.677 27.208 106.477 27.6 106.206 27.964C105.935 28.3187 105.581 28.608 105.142 28.832C104.703 29.0467 104.176 29.154 103.56 29.154ZM104.148 27.754C104.699 27.754 105.175 27.6607 105.576 27.474C105.977 27.2873 106.285 27.026 106.5 26.69C106.715 26.354 106.822 25.9667 106.822 25.528C106.822 25.052 106.71 24.6507 106.486 24.324C106.271 23.988 105.963 23.736 105.562 23.568C105.17 23.3907 104.699 23.302 104.148 23.302C103.373 23.302 102.771 23.5073 102.342 23.918C101.913 24.3193 101.698 24.856 101.698 25.528C101.698 25.976 101.801 26.368 102.006 26.704C102.211 27.0307 102.496 27.2873 102.86 27.474C103.233 27.6607 103.663 27.754 104.148 27.754ZM106.822 22.042H108.642V29H106.948C106.948 29 106.934 28.9113 106.906 28.734C106.887 28.5473 106.869 28.314 106.85 28.034C106.831 27.754 106.822 27.4787 106.822 27.208V22.042ZM110.289 22.042H112.109V29H110.289V22.042ZM114.783 23.54C114.261 23.54 113.808 23.6427 113.425 23.848C113.043 24.044 112.735 24.2867 112.501 24.576C112.268 24.8653 112.105 25.1453 112.011 25.416L111.997 24.646C112.007 24.534 112.044 24.3707 112.109 24.156C112.175 23.932 112.273 23.694 112.403 23.442C112.534 23.1807 112.707 22.9333 112.921 22.7C113.136 22.4573 113.397 22.2613 113.705 22.112C114.013 21.9627 114.373 21.888 114.783 21.888V23.54ZM115.459 22.042H120.863V23.456H115.459V22.042ZM117.251 20.138H119.071V29H117.251V20.138ZM128.266 26.69H130.03C129.955 27.166 129.755 27.5907 129.428 27.964C129.111 28.3373 128.677 28.6313 128.126 28.846C127.575 29.0607 126.903 29.168 126.11 29.168C125.223 29.168 124.439 29.028 123.758 28.748C123.077 28.4587 122.545 28.0433 122.162 27.502C121.779 26.9607 121.588 26.3073 121.588 25.542C121.588 24.7767 121.775 24.1233 122.148 23.582C122.521 23.0313 123.039 22.6113 123.702 22.322C124.374 22.0327 125.158 21.888 126.054 21.888C126.969 21.888 127.729 22.0327 128.336 22.322C128.943 22.6113 129.391 23.05 129.68 23.638C129.979 24.2167 130.105 24.9587 130.058 25.864H123.422C123.469 26.2187 123.599 26.5407 123.814 26.83C124.038 27.1193 124.337 27.348 124.71 27.516C125.093 27.684 125.545 27.768 126.068 27.768C126.647 27.768 127.127 27.67 127.51 27.474C127.902 27.2687 128.154 27.0073 128.266 26.69ZM125.97 23.274C125.298 23.274 124.752 23.4233 124.332 23.722C123.912 24.0113 123.641 24.3707 123.52 24.8H128.252C128.205 24.3333 127.981 23.9647 127.58 23.694C127.188 23.414 126.651 23.274 125.97 23.274ZM134.8 29.154C134.1 29.154 133.466 29.0047 132.896 28.706C132.336 28.398 131.893 27.9733 131.566 27.432C131.24 26.8813 131.076 26.2467 131.076 25.528C131.076 24.7907 131.235 24.1513 131.552 23.61C131.879 23.0687 132.322 22.6487 132.882 22.35C133.442 22.042 134.082 21.888 134.8 21.888C135.426 21.888 135.958 21.9813 136.396 22.168C136.835 22.3547 137.19 22.616 137.46 22.952C137.731 23.2787 137.927 23.6613 138.048 24.1C138.179 24.5387 138.244 25.0147 138.244 25.528C138.244 25.9387 138.179 26.3587 138.048 26.788C137.918 27.208 137.717 27.6 137.446 27.964C137.176 28.3187 136.821 28.608 136.382 28.832C135.944 29.0467 135.416 29.154 134.8 29.154ZM135.388 27.754C135.939 27.754 136.415 27.6607 136.816 27.474C137.218 27.2873 137.526 27.026 137.74 26.69C137.955 26.354 138.062 25.9667 138.062 25.528C138.062 25.052 137.95 24.6507 137.726 24.324C137.512 23.988 137.204 23.7313 136.802 23.554C136.41 23.3767 135.939 23.288 135.388 23.288C134.614 23.288 134.012 23.4933 133.582 23.904C133.153 24.3147 132.938 24.856 132.938 25.528C132.938 25.976 133.041 26.368 133.246 26.704C133.452 27.0307 133.736 27.2873 134.1 27.474C134.474 27.6607 134.903 27.754 135.388 27.754ZM138.062 19.242H139.882V29H138.188C138.16 28.7853 138.132 28.51 138.104 28.174C138.076 27.8287 138.062 27.5067 138.062 27.208V19.242Z" fill="#404756"/>
<path d="M167.808 25.2083V25.2333H167.833H176.273L172.42 29.0865L172.402 29.1042L172.42 29.1218L173.426 30.1277L173.443 30.1454L173.461 30.1277L179.071 24.5177L179.089 24.5L179.071 24.4823L173.461 18.8723L173.443 18.8546L173.426 18.8723L172.42 19.8782L172.402 19.8958L172.42 19.9135L176.273 23.7667H167.833H167.808V23.7917V25.2083Z" fill="#404756" stroke="#404756" stroke-width="0.05"/>
</svg>
