<svg width="413" height="896" viewBox="0 0 413 896" fill="none" xmlns="http://www.w3.org/2000/svg">
<rect x="-1" width="414" height="896" fill="#F2C4C2"/>
<path d="M-1 897V294.094C-1 294.094 110.5 345.114 206 150.056C301.5 -45.0015 413 6.01839 413 6.01839V896.378L-1 897Z" fill="#F2BDBB"/>
<path d="M185.304 28.296C187.629 28.296 189.571 28.5733 191.128 29.128C192.685 29.6827 193.923 30.44 194.84 31.4C195.779 32.3387 196.44 33.4267 196.824 34.664C197.229 35.9013 197.432 37.2027 197.432 38.568C197.432 39.9333 197.208 41.2453 196.76 42.504C196.333 43.7627 195.64 44.8827 194.68 45.864C193.741 46.824 192.493 47.592 190.936 48.168C189.4 48.7227 187.523 49 185.304 49H173.464V28.296H185.304ZM177.72 45.352H185.208C186.744 45.352 188.013 45.1707 189.016 44.808C190.04 44.424 190.851 43.912 191.448 43.272C192.045 42.632 192.472 41.9067 192.728 41.096C192.984 40.2853 193.112 39.4427 193.112 38.568C193.112 37.6933 192.984 36.8613 192.728 36.072C192.472 35.2827 192.045 34.5787 191.448 33.96C190.851 33.3413 190.04 32.8507 189.016 32.488C188.013 32.1253 186.744 31.944 185.208 31.944H177.72V45.352ZM201.605 33.096H206.021L212.901 48.36L209.317 49L201.605 33.096ZM221.061 33.096L210.053 55.4H205.733L210.437 46.632L216.613 33.096H221.061ZM232.7 46.568C230.972 46.568 229.446 46.312 228.124 45.8C226.822 45.2667 225.809 44.488 225.084 43.464C224.358 42.44 223.996 41.2027 223.996 39.752C223.996 38.3227 224.348 37.0853 225.052 36.04C225.756 34.9947 226.758 34.184 228.06 33.608C229.382 33.032 230.929 32.744 232.7 32.744C233.19 32.744 233.66 32.776 234.108 32.84C234.577 32.904 235.036 32.9893 235.484 33.096L243.516 33.128V36.264C242.428 36.2853 241.318 36.1573 240.188 35.88C239.078 35.5813 238.097 35.2613 237.244 34.92L237.148 34.696C237.873 35.0373 238.556 35.464 239.196 35.976C239.836 36.4667 240.348 37.0427 240.732 37.704C241.137 38.344 241.34 39.0907 241.34 39.944C241.34 41.3307 240.988 42.5253 240.284 43.528C239.58 44.5093 238.577 45.2667 237.276 45.8C235.996 46.312 234.47 46.568 232.7 46.568ZM238.044 55.56V54.792C238.044 53.8107 237.724 53.128 237.084 52.744C236.465 52.36 235.612 52.168 234.524 52.168H229.564C228.604 52.168 227.793 52.0933 227.132 51.944C226.492 51.7947 225.98 51.5813 225.596 51.304C225.212 51.0267 224.934 50.696 224.764 50.312C224.593 49.9493 224.508 49.5547 224.508 49.128C224.508 48.2747 224.785 47.6347 225.34 47.208C225.894 46.76 226.641 46.4613 227.58 46.312C228.518 46.1627 229.553 46.1307 230.684 46.216L232.7 46.568C231.356 46.6107 230.353 46.728 229.692 46.92C229.052 47.0907 228.732 47.4427 228.732 47.976C228.732 48.296 228.86 48.552 229.116 48.744C229.372 48.9147 229.734 49 230.204 49H235.42C236.849 49 238.065 49.1493 239.068 49.448C240.092 49.768 240.87 50.2907 241.404 51.016C241.937 51.7627 242.204 52.776 242.204 54.056V55.56H238.044ZM232.7 43.56C233.617 43.56 234.417 43.4107 235.1 43.112C235.804 42.8133 236.348 42.3867 236.732 41.832C237.116 41.256 237.308 40.5733 237.308 39.784C237.308 38.9733 237.116 38.28 236.732 37.704C236.348 37.128 235.814 36.6907 235.132 36.392C234.449 36.072 233.638 35.912 232.7 35.912C231.782 35.912 230.972 36.072 230.268 36.392C229.564 36.6907 229.02 37.128 228.636 37.704C228.252 38.28 228.06 38.9733 228.06 39.784C228.06 40.5733 228.252 41.256 228.636 41.832C229.02 42.3867 229.553 42.8133 230.236 43.112C230.94 43.4107 231.761 43.56 232.7 43.56Z" fill="black"/>
<g clip-path="url(#clip0_104_2)">
<path d="M233.531 86.115C233.531 95.5825 233.531 105.05 233.531 114.524C219.714 114.524 205.898 114.524 192.081 114.524C192.081 113.283 192.081 112.042 192.101 110.737C192.298 110.879 192.45 111.116 192.658 111.288C193.633 112.094 194.759 112.13 195.886 111.759C196.731 111.48 197.307 110.869 197.277 109.836C197.224 108.002 197.264 106.166 197.26 104.331C197.26 104.118 197.282 103.993 197.54 103.895C198.706 103.454 199.852 102.963 201.008 102.497C201.467 102.311 201.932 102.142 202.416 101.956C202.416 103.206 202.416 104.41 202.416 105.629C202.336 105.618 202.283 105.614 202.233 105.602C201.133 105.336 200.091 105.35 199.144 106.101C198.358 106.724 198.336 108.07 199.12 108.699C200.104 109.489 201.221 109.535 202.353 109.17C203.061 108.942 203.709 108.493 203.724 107.661C203.766 105.382 203.74 103.101 203.737 100.821C203.736 100.464 203.532 100.283 203.185 100.287C202.989 100.29 202.779 100.302 202.601 100.372C200.54 101.192 198.486 102.028 196.425 102.847C196.094 102.979 195.959 103.181 195.962 103.538C195.974 104.954 195.967 106.371 195.967 107.788C195.967 107.927 195.967 108.067 195.967 108.157C195.38 108.12 194.852 108.056 194.325 108.062C193.555 108.071 192.901 108.366 192.406 108.979C192.316 109.091 192.19 109.173 192.081 109.269C192.081 97.2113 192.081 85.1538 192.081 73.0887C205.898 73.0887 219.714 73.0887 233.531 73.0885C233.531 74.8417 233.531 76.5951 233.508 78.4141C232.996 78.0569 232.519 78.3114 232.039 78.5041C230.091 79.2863 228.145 80.0727 226.192 80.8422C225.864 80.9714 225.754 81.1743 225.756 81.5071C225.764 82.9236 225.759 84.3402 225.759 85.7567C225.759 85.8988 225.759 86.0409 225.759 86.2101C225.642 86.1838 225.579 86.1689 225.516 86.1556C224.431 85.9264 223.399 85.9222 222.462 86.6688C221.673 87.298 221.655 88.6419 222.432 89.268C223.413 90.0585 224.532 90.1094 225.664 89.7415C226.513 89.4656 227.103 88.8525 227.07 87.7903C227.013 85.9708 227.057 84.1483 227.051 82.327C227.05 82.0921 227.086 81.9663 227.354 81.8647C228.519 81.4229 229.665 80.9307 230.821 80.4645C231.275 80.2816 231.737 80.119 232.217 79.9391C232.217 81.1961 232.217 82.3927 232.217 83.592C230.742 83.3754 230.444 83.3629 229.772 83.6093C229.05 83.8744 228.45 84.2873 228.354 85.1311C228.245 86.09 228.662 86.645 229.565 87.0908C230.118 87.3638 230.7 87.3451 231.284 87.3265C232.056 87.3019 232.71 87.0188 233.206 86.4042C233.296 86.2929 233.422 86.2107 233.531 86.115ZM222.889 103.921C222.904 103.897 222.919 103.874 222.983 103.826C224.252 102.415 224.93 100.731 225.096 98.8701C225.261 97.0201 225.016 95.224 223.992 93.6011C223.452 92.7447 222.828 91.9755 222.007 91.3699C220.666 90.3808 219.18 89.8543 217.478 89.856C217.35 89.5377 217.222 89.2196 217.096 88.9009C216.713 87.9336 216.33 86.966 215.986 85.9626C216.188 85.7893 216.392 85.6188 216.591 85.442C217.109 84.9798 217.616 84.5042 218.145 84.0534C219.077 83.2578 219.978 82.4353 220.645 81.392C221.502 80.0513 221.993 78.6334 221.72 77.0015C221.353 74.8024 219.251 72.9501 216.663 73.3389C215.022 73.5854 213.703 74.4726 212.738 75.8102C211.609 77.3761 211.08 79.1554 211.108 81.0902C211.119 81.7724 211.138 82.4559 211.193 83.1356C211.236 83.6723 211.34 84.2042 211.367 84.7578C210.387 85.8187 209.383 86.8588 208.433 87.9461C207.296 89.2467 206.404 90.7061 205.74 92.3081C205.338 93.2781 205.029 94.2834 204.976 95.3158C204.92 96.4306 204.959 97.5716 205.138 98.6718C205.399 100.284 206.111 101.737 207.201 102.969C208.315 104.229 209.656 105.176 211.227 105.812C212.692 106.406 214.21 106.695 215.778 106.756C216.134 106.77 216.493 106.714 216.853 106.764C216.827 107.474 216.88 108.199 216.754 108.891C216.581 109.842 216.077 110.438 214.813 110.323C214.091 110.257 213.266 109.503 213.284 108.639C213.29 108.364 213.235 108.082 213.166 107.813C212.978 107.076 212.222 106.338 211.092 106.422C210.158 106.491 209.341 107.261 209.321 108.196C209.305 108.935 209.335 109.667 209.573 110.372C209.926 111.414 210.497 112.307 211.372 113.003C212.576 113.959 213.937 114.345 215.466 114.298C216.796 114.258 217.933 113.781 218.901 112.916C220.125 111.823 220.685 110.376 220.804 108.779C220.884 107.706 220.812 106.622 220.837 105.493C221.465 105.02 222.092 104.547 222.74 104.067C222.74 104.067 222.749 104.046 222.783 104.023C222.806 103.992 222.829 103.961 222.847 103.928C222.847 103.928 222.847 103.934 222.889 103.921ZM204.965 85.868C205.106 85.7944 205.248 85.725 205.386 85.6466C205.888 85.3603 206.312 84.9724 206.319 84.3699C206.345 82.0773 206.332 79.7843 206.327 77.4914C206.326 77.16 206.133 76.9711 205.802 76.9724C205.594 76.9732 205.37 76.986 205.179 77.0613C203.13 77.8723 201.088 78.7002 199.04 79.5147C198.682 79.6569 198.545 79.8846 198.55 80.2731C198.568 81.6756 198.558 83.0784 198.557 84.4811C198.557 84.6197 198.545 84.7582 198.539 84.9019C197.5 84.6715 196.543 84.6095 195.598 85.1257C194.431 85.7626 194.36 87.3564 195.342 88.0498C196.398 88.7961 197.519 88.8197 198.658 88.3641C199.472 88.0387 199.892 87.4272 199.867 86.4787C199.819 84.6592 199.854 82.8375 199.851 81.0167C199.851 80.8042 199.87 80.6772 200.129 80.5802C201.161 80.1949 202.172 79.7547 203.194 79.3427C203.787 79.1038 204.386 78.8798 205.009 78.6385C205.009 79.8897 205.009 81.093 205.009 82.2915C204.971 82.2987 204.957 82.3053 204.944 82.303C204.893 82.2934 204.842 82.2807 204.791 82.2699C203.707 82.0398 202.674 82.0347 201.739 82.7825C200.964 83.4018 200.903 84.7127 201.675 85.3585C202.629 86.1565 203.744 86.2097 204.965 85.868Z" fill="#F2C4C2"/>
<path d="M192.081 109.307C192.19 109.173 192.316 109.091 192.406 108.979C192.901 108.366 193.555 108.071 194.325 108.062C194.852 108.056 195.38 108.12 195.967 108.157C195.967 108.067 195.967 107.927 195.967 107.788C195.967 106.371 195.974 104.954 195.962 103.538C195.959 103.181 196.094 102.979 196.425 102.847C198.486 102.028 200.54 101.192 202.601 100.372C202.779 100.302 202.989 100.29 203.185 100.287C203.532 100.283 203.736 100.464 203.737 100.821C203.74 103.101 203.766 105.382 203.724 107.661C203.709 108.493 203.061 108.942 202.353 109.17C201.221 109.535 200.104 109.489 199.12 108.699C198.336 108.07 198.358 106.724 199.144 106.101C200.091 105.35 201.133 105.336 202.233 105.602C202.283 105.614 202.336 105.617 202.416 105.629C202.416 104.41 202.416 103.206 202.416 101.956C201.932 102.142 201.467 102.311 201.008 102.497C199.852 102.963 198.706 103.454 197.54 103.895C197.282 103.993 197.26 104.118 197.26 104.331C197.264 106.166 197.224 108.002 197.277 109.835C197.307 110.869 196.731 111.48 195.886 111.759C194.759 112.13 193.633 112.094 192.658 111.288C192.45 111.116 192.298 110.879 192.101 110.699C192.081 110.265 192.081 109.805 192.081 109.307Z" fill="#F79235"/>
<path d="M233.531 86.0771C233.422 86.2107 233.296 86.2929 233.206 86.4042C232.71 87.0188 232.056 87.3019 231.284 87.3265C230.7 87.3451 230.118 87.3638 229.565 87.0908C228.662 86.645 228.245 86.09 228.354 85.1311C228.45 84.2873 229.05 83.8744 229.772 83.6093C230.444 83.3629 230.742 83.3754 232.217 83.592C232.217 82.3927 232.217 81.1961 232.217 79.9391C231.737 80.119 231.275 80.2816 230.821 80.4645C229.665 80.9307 228.519 81.4229 227.354 81.8647C227.086 81.9663 227.05 82.0921 227.051 82.327C227.057 84.1483 227.014 85.9708 227.07 87.7903C227.103 88.8525 226.513 89.4656 225.664 89.7415C224.532 90.1094 223.413 90.0585 222.432 89.268C221.655 88.6419 221.673 87.298 222.462 86.6688C223.399 85.9222 224.431 85.9264 225.516 86.1556C225.579 86.1689 225.642 86.1838 225.759 86.2101C225.759 86.0409 225.759 85.8988 225.759 85.7567C225.759 84.3402 225.764 82.9236 225.756 81.5071C225.754 81.1743 225.864 80.9714 226.192 80.8422C228.145 80.0727 230.091 79.2863 232.039 78.5041C232.519 78.3114 232.996 78.0569 233.508 78.452C233.531 80.9625 233.531 83.5008 233.531 86.0771Z" fill="#F79235"/>
<path d="M217.503 89.9078C219.18 89.8542 220.666 90.3808 222.007 91.3699C222.828 91.9755 223.452 92.7447 223.992 93.6011C225.016 95.224 225.261 97.0201 225.096 98.8701C224.93 100.731 224.252 102.415 222.941 103.848C222.881 103.891 222.864 103.912 222.847 103.934C222.847 103.934 222.847 103.928 222.828 103.935C222.789 103.977 222.769 104.012 222.749 104.046C222.749 104.046 222.74 104.067 222.701 104.06C222.55 104.09 222.428 104.109 222.327 104.167C220.83 105.03 219.196 105.399 217.491 105.456C215.368 105.528 213.372 105.004 211.507 104.002C207.471 101.834 205.845 97.7758 206.457 93.6295C206.732 91.7667 207.459 90.0655 208.537 88.542C209.384 87.3465 210.36 86.2432 211.271 85.0933C211.347 84.997 211.369 84.8576 211.416 84.7382C211.34 84.2042 211.236 83.6723 211.193 83.1356C211.138 82.4559 211.119 81.7724 211.108 81.0902C211.08 79.1554 211.609 77.3761 212.738 75.8102C213.703 74.4726 215.022 73.5854 216.663 73.3389C219.251 72.95 221.353 74.8024 221.72 77.0014C221.993 78.6334 221.502 80.0513 220.645 81.392C219.978 82.4353 219.077 83.2578 218.145 84.0534C217.616 84.5042 217.109 84.9798 216.591 85.442C216.392 85.6188 216.188 85.7893 215.941 85.9912C215.372 86.4803 214.832 86.9232 214.331 87.406C213.822 87.896 213.35 88.4253 212.841 88.9527C211.752 90.0823 210.777 91.2733 210.007 92.6129C209.111 94.1699 208.689 95.831 208.994 97.6442C209.322 99.5922 210.426 100.947 212.137 101.841C213.537 102.573 215.026 102.893 216.643 102.706C217.462 102.69 218.191 102.459 218.869 102.086C219.509 101.735 220.105 101.317 220.417 100.578C220.52 100.407 220.636 100.274 220.697 100.118C221.305 98.5738 221.433 97.0435 220.515 95.5602C220.14 94.9543 219.672 94.4473 218.956 94.1862C218.439 93.8089 217.86 93.7685 217.286 93.8187C216.424 93.8938 215.583 94.0598 214.955 94.7886C214.521 95.3212 214.209 95.8747 214.167 96.5659C214.143 96.9732 214.022 97.3747 213.92 97.7647C213.817 97.7534 213.737 97.7536 213.658 97.7597C212.631 97.8384 211.643 96.9969 211.597 95.974C211.527 94.4377 211.92 93.022 212.756 91.7287C212.83 91.6153 212.854 91.4699 212.908 91.3263C212.915 91.3133 212.943 91.3041 212.948 91.3103C212.952 91.3166 212.967 91.3117 212.967 91.3117C212.967 91.3117 212.954 91.2971 212.968 91.272C213.193 91.124 213.403 91.0011 213.642 90.8729C214.869 90.2362 216.153 89.9391 217.503 89.9078ZM211.804 84.5193C211.783 84.5357 211.767 84.5554 211.744 84.5819C211.744 84.5819 211.752 84.5759 211.783 84.5533C211.803 84.5363 211.819 84.5168 211.842 84.4903C211.842 84.4903 211.836 84.4979 211.804 84.5193ZM216.53 80.1646C217.095 79.5965 217.564 78.9655 217.788 78.1826C217.872 77.8883 217.895 77.5421 217.608 77.392C217.415 77.2911 217.101 77.3402 216.872 77.4145C216.658 77.4836 216.459 77.6509 216.295 77.8162C215.32 78.8009 215.027 80.0227 215.08 81.4631C215.589 81.0087 216.039 80.6069 216.53 80.1646Z" fill="#67D1B1"/>
<path d="M220.807 105.543C220.812 106.622 220.884 107.706 220.804 108.779C220.685 110.376 220.125 111.823 218.901 112.916C217.933 113.781 216.796 114.258 215.466 114.298C213.937 114.345 212.576 113.959 211.372 113.003C210.497 112.307 209.926 111.414 209.573 110.372C209.335 109.667 209.305 108.935 209.321 108.196C209.341 107.261 210.158 106.491 211.092 106.422C212.222 106.338 212.978 107.076 213.166 107.813C213.235 108.082 213.29 108.364 213.284 108.639C213.266 109.503 214.091 110.257 214.813 110.323C216.077 110.438 216.581 109.842 216.754 108.891C216.88 108.199 216.827 107.474 216.884 106.718C218.274 106.508 219.572 106.133 220.807 105.543Z" fill="#02B27D"/>
<path d="M204.933 85.8704C203.744 86.2097 202.629 86.1565 201.675 85.3585C200.903 84.7127 200.964 83.4018 201.739 82.7825C202.674 82.0347 203.707 82.0398 204.791 82.2699C204.842 82.2807 204.893 82.2934 204.944 82.303C204.957 82.3053 204.971 82.2987 205.009 82.2915C205.009 81.093 205.009 79.8897 205.009 78.6385C204.386 78.8798 203.787 79.1038 203.194 79.3427C202.172 79.7547 201.161 80.1949 200.129 80.5802C199.87 80.6772 199.851 80.8042 199.851 81.0167C199.854 82.8375 199.819 84.6592 199.867 86.4787C199.892 87.4272 199.472 88.0387 198.658 88.3641C197.519 88.8197 196.398 88.7961 195.342 88.0498C194.36 87.3564 194.431 85.7626 195.598 85.1257C196.543 84.6095 197.5 84.6714 198.539 84.9019C198.545 84.7582 198.557 84.6196 198.557 84.4811C198.558 83.0784 198.568 81.6756 198.55 80.2731C198.545 79.8846 198.682 79.6569 199.04 79.5147C201.088 78.7002 203.13 77.8723 205.179 77.0613C205.37 76.986 205.594 76.9732 205.802 76.9724C206.133 76.9711 206.326 77.16 206.327 77.4914C206.332 79.7843 206.345 82.0773 206.319 84.3699C206.312 84.9724 205.888 85.3603 205.386 85.6466C205.248 85.725 205.106 85.7944 204.933 85.8704Z" fill="#F79235"/>
<path d="M220.822 105.518C219.572 106.133 218.274 106.508 216.882 106.681C216.493 106.714 216.134 106.77 215.778 106.756C214.21 106.695 212.692 106.406 211.227 105.812C209.656 105.176 208.315 104.229 207.201 102.969C206.111 101.737 205.399 100.284 205.138 98.6718C204.959 97.5716 204.92 96.4306 204.976 95.3158C205.029 94.2834 205.339 93.2781 205.74 92.3081C206.404 90.7061 207.296 89.2467 208.433 87.9461C209.383 86.8588 210.387 85.8187 211.392 84.748C211.369 84.8576 211.347 84.997 211.271 85.0933C210.36 86.2432 209.384 87.3466 208.537 88.542C207.459 90.0655 206.732 91.7667 206.457 93.6295C205.845 97.7758 207.471 101.834 211.507 104.002C213.372 105.004 215.368 105.528 217.491 105.456C219.196 105.399 220.83 105.03 222.327 104.167C222.428 104.109 222.55 104.09 222.691 104.063C222.092 104.547 221.465 105.02 220.822 105.518Z" fill="#35C298"/>
<path d="M217.49 89.8819C216.153 89.9391 214.869 90.2362 213.63 90.8471C213.347 90.1969 213.105 89.5671 212.862 88.9374C213.35 88.4253 213.822 87.896 214.331 87.406C214.832 86.9232 215.372 86.4803 215.921 86.0092C216.33 86.966 216.713 87.9336 217.096 88.9009C217.222 89.2196 217.35 89.5376 217.49 89.8819Z" fill="#03B27D"/>
<path d="M222.766 104.035C222.769 104.012 222.789 103.977 222.831 103.936C222.829 103.961 222.806 103.992 222.766 104.035Z" fill="#35C298"/>
<path d="M222.868 103.927C222.864 103.912 222.881 103.891 222.916 103.86C222.919 103.874 222.904 103.897 222.868 103.927Z" fill="#35C298"/>
<path d="M212.842 88.9527C213.105 89.5671 213.347 90.1969 213.602 90.8525C213.404 91.0011 213.193 91.124 212.964 91.2713C212.946 91.2958 212.943 91.3041 212.943 91.3041C212.943 91.3041 212.915 91.3133 212.885 91.3394C212.372 91.8483 211.827 92.2841 211.421 92.8243C210.706 93.7759 210.312 94.8765 210.223 96.1106C210.2 96.2613 210.186 96.378 210.163 96.4927C210.002 97.28 210.356 98.4128 211.201 98.7847C211.67 98.8701 212.126 98.9889 212.577 98.9734C213.143 98.954 213.912 98.2725 213.944 97.7788C214.022 97.3747 214.143 96.9732 214.167 96.5659C214.209 95.8747 214.521 95.3212 214.961 94.8194C215.044 94.9755 215.111 95.1074 215.144 95.2472C215.527 96.8636 215.936 98.475 216.273 100.101C216.45 100.954 216.501 101.833 216.608 102.7C215.026 102.893 213.537 102.573 212.137 101.841C210.426 100.947 209.322 99.5922 208.994 97.6442C208.689 95.831 209.111 94.1699 210.007 92.6129C210.777 91.2733 211.752 90.0823 212.842 88.9527Z" fill="#F2C4C2"/>
<path d="M216.643 102.706C216.501 101.833 216.45 100.954 216.273 100.101C215.936 98.4751 215.527 96.8637 215.144 95.2472C215.111 95.1074 215.044 94.9755 214.987 94.8091C215.583 94.0598 216.424 93.8939 217.286 93.8187C217.86 93.7686 218.439 93.8089 218.962 94.2159C219.326 95.6432 219.685 97.0119 220.005 98.3897C220.174 99.1195 220.273 99.8653 220.404 100.604C220.105 101.317 219.509 101.735 218.869 102.086C218.191 102.459 217.462 102.69 216.643 102.706Z" fill="#02B27D"/>
<path d="M213.92 97.7647C213.912 98.2725 213.143 98.954 212.577 98.9734C212.126 98.9889 211.67 98.8701 211.196 98.7557C210.681 97.8903 210.408 96.9998 210.229 96.0757C210.312 94.8765 210.706 93.7759 211.421 92.8243C211.827 92.2841 212.372 91.8483 212.878 91.3524C212.854 91.4699 212.83 91.6153 212.756 91.7287C211.92 93.022 211.527 94.4377 211.597 95.974C211.643 96.9969 212.632 97.8384 213.658 97.7597C213.737 97.7536 213.817 97.7534 213.92 97.7647Z" fill="#36C398"/>
<path d="M220.417 100.578C220.273 99.8653 220.174 99.1195 220.005 98.3897C219.685 97.0118 219.326 95.6432 218.977 94.2411C219.672 94.4473 220.14 94.9543 220.515 95.5602C221.433 97.0435 221.305 98.5738 220.697 100.118C220.636 100.274 220.52 100.407 220.417 100.578Z" fill="#F2C4C2"/>
<path d="M216.51 80.185C216.039 80.607 215.589 81.0087 215.08 81.4631C215.027 80.0227 215.32 78.8009 216.295 77.8162C216.459 77.6509 216.658 77.4836 216.872 77.4145C217.101 77.3402 217.415 77.2911 217.608 77.392C217.895 77.5421 217.872 77.8883 217.788 78.1826C217.564 78.9655 217.095 79.5965 216.51 80.185Z" fill="#F2C4C2"/>
<path d="M211.752 84.576C211.752 84.576 211.744 84.5819 211.749 84.5795C211.754 84.577 211.752 84.576 211.752 84.576Z" fill="#35C298"/>
<path d="M212.948 91.3103C212.943 91.3041 212.946 91.2958 212.95 91.2965C212.954 91.2971 212.967 91.3117 212.967 91.3117C212.967 91.3117 212.953 91.3166 212.948 91.3103Z" fill="#36C398"/>
<path d="M211.754 84.5778C211.767 84.5555 211.783 84.5357 211.819 84.5077C211.834 84.4961 211.833 84.4947 211.833 84.4947C211.819 84.5168 211.803 84.5364 211.768 84.5646C211.752 84.576 211.753 84.577 211.754 84.5778Z" fill="#35C298"/>
<path d="M211.835 84.497C211.836 84.4979 211.842 84.4902 211.837 84.4925C211.833 84.4947 211.834 84.4961 211.835 84.497Z" fill="#35C298"/>
<path d="M210.223 96.1106C210.408 96.9999 210.681 97.8903 211.181 98.7296C210.356 98.4128 210.002 97.28 210.163 96.4927C210.186 96.378 210.2 96.2613 210.223 96.1106Z" fill="#65D0B0"/>
</g>
<defs>
<clipPath id="clip0_104_2">
<rect width="41.45" height="41.45" fill="white" transform="translate(192 73)"/>
</clipPath>
</defs>
</svg>
