<svg width="414" height="896" viewBox="0 0 414 896" fill="none" xmlns="http://www.w3.org/2000/svg">
<rect width="414" height="896" fill="#E9EFFF"/>
<path d="M86.62 253.766V265.558H96.08V268H83.694V253.766H86.62ZM107.96 264.37H110.732C110.614 265.118 110.299 265.785 109.786 266.372C109.287 266.959 108.605 267.421 107.74 267.758C106.874 268.095 105.818 268.264 104.572 268.264C103.178 268.264 101.946 268.044 100.876 267.604C99.8052 267.149 98.9692 266.497 98.3678 265.646C97.7665 264.795 97.4658 263.769 97.4658 262.566C97.4658 261.363 97.7592 260.337 98.3458 259.486C98.9325 258.621 99.7465 257.961 100.788 257.506C101.844 257.051 103.076 256.824 104.484 256.824C105.921 256.824 107.116 257.051 108.07 257.506C109.023 257.961 109.727 258.65 110.182 259.574C110.651 260.483 110.849 261.649 110.776 263.072H100.348C100.421 263.629 100.626 264.135 100.964 264.59C101.316 265.045 101.785 265.404 102.372 265.668C102.973 265.932 103.684 266.064 104.506 266.064C105.415 266.064 106.17 265.91 106.772 265.602C107.388 265.279 107.784 264.869 107.96 264.37ZM104.352 259.002C103.296 259.002 102.438 259.237 101.778 259.706C101.118 260.161 100.692 260.725 100.502 261.4H107.938C107.864 260.667 107.512 260.087 106.882 259.662C106.266 259.222 105.422 259.002 104.352 259.002ZM111.984 257.066H120.476V259.288H111.984V257.066ZM114.8 254.074H117.66V268H114.8V254.074ZM126.829 257.066H135.321V259.288H126.829V257.066ZM129.645 254.074H132.505V268H129.645V254.074ZM147.126 268V261.994C147.126 261.393 147.024 260.894 146.818 260.498C146.613 260.102 146.283 259.801 145.828 259.596C145.388 259.391 144.794 259.288 144.046 259.288C143.328 259.288 142.675 259.427 142.088 259.706C141.502 259.97 141.025 260.322 140.658 260.762C140.292 261.187 140.086 261.642 140.042 262.126L140.02 260.916C140.094 260.432 140.262 259.948 140.526 259.464C140.79 258.98 141.142 258.54 141.582 258.144C142.022 257.748 142.55 257.433 143.166 257.198C143.797 256.949 144.501 256.824 145.278 256.824C145.953 256.824 146.576 256.912 147.148 257.088C147.72 257.249 148.219 257.506 148.644 257.858C149.07 258.21 149.4 258.65 149.634 259.178C149.869 259.691 149.986 260.3 149.986 261.004V268H147.126ZM137.336 268V252.666H140.196V268H137.336ZM162.552 264.37H165.324C165.206 265.118 164.891 265.785 164.378 266.372C163.879 266.959 163.197 267.421 162.332 267.758C161.466 268.095 160.41 268.264 159.164 268.264C157.77 268.264 156.538 268.044 155.468 267.604C154.397 267.149 153.561 266.497 152.96 265.646C152.358 264.795 152.058 263.769 152.058 262.566C152.058 261.363 152.351 260.337 152.938 259.486C153.524 258.621 154.338 257.961 155.38 257.506C156.436 257.051 157.668 256.824 159.076 256.824C160.513 256.824 161.708 257.051 162.662 257.506C163.615 257.961 164.319 258.65 164.774 259.574C165.243 260.483 165.441 261.649 165.368 263.072H154.94C155.013 263.629 155.218 264.135 155.556 264.59C155.908 265.045 156.377 265.404 156.964 265.668C157.565 265.932 158.276 266.064 159.098 266.064C160.007 266.064 160.762 265.91 161.364 265.602C161.98 265.279 162.376 264.869 162.552 264.37ZM158.944 259.002C157.888 259.002 157.03 259.237 156.37 259.706C155.71 260.161 155.284 260.725 155.094 261.4H162.53C162.456 260.667 162.104 260.087 161.474 259.662C160.858 259.222 160.014 259.002 158.944 259.002ZM172.802 257.066H175.662V268H172.802V257.066ZM180.744 256.824C181.419 256.824 182.042 256.912 182.614 257.088C183.186 257.264 183.685 257.535 184.11 257.902C184.536 258.269 184.866 258.738 185.1 259.31C185.335 259.867 185.452 260.535 185.452 261.312V268H182.592V261.818C182.592 260.894 182.365 260.219 181.91 259.794C181.47 259.354 180.744 259.134 179.732 259.134C178.97 259.134 178.28 259.281 177.664 259.574C177.048 259.867 176.55 260.241 176.168 260.696C175.787 261.136 175.567 261.598 175.508 262.082L175.486 260.96C175.56 260.447 175.728 259.948 175.992 259.464C176.256 258.98 176.608 258.54 177.048 258.144C177.503 257.733 178.038 257.411 178.654 257.176C179.27 256.941 179.967 256.824 180.744 256.824ZM190.27 256.824C190.945 256.824 191.568 256.912 192.14 257.088C192.712 257.264 193.211 257.535 193.636 257.902C194.062 258.269 194.392 258.738 194.626 259.31C194.876 259.867 195 260.535 195 261.312V268H192.14V261.818C192.14 260.894 191.913 260.219 191.458 259.794C191.004 259.354 190.27 259.134 189.258 259.134C188.496 259.134 187.806 259.281 187.19 259.574C186.574 259.867 186.076 260.241 185.694 260.696C185.313 261.136 185.1 261.598 185.056 262.082L185.012 260.894C185.086 260.41 185.262 259.926 185.54 259.442C185.819 258.958 186.186 258.518 186.64 258.122C187.095 257.726 187.623 257.411 188.224 257.176C188.84 256.941 189.522 256.824 190.27 256.824ZM210.245 268H207.385V257.066H210.245V268ZM207.539 262.742L207.561 263.49C207.532 263.695 207.459 263.996 207.341 264.392C207.224 264.773 207.041 265.184 206.791 265.624C206.557 266.064 206.249 266.489 205.867 266.9C205.486 267.296 205.017 267.626 204.459 267.89C203.902 268.139 203.242 268.264 202.479 268.264C201.878 268.264 201.284 268.191 200.697 268.044C200.125 267.897 199.605 267.655 199.135 267.318C198.666 266.966 198.292 266.497 198.013 265.91C197.735 265.323 197.595 264.583 197.595 263.688V257.066H200.455V263.204C200.455 263.908 200.565 264.465 200.785 264.876C201.02 265.272 201.357 265.551 201.797 265.712C202.237 265.873 202.758 265.954 203.359 265.954C204.151 265.954 204.833 265.785 205.405 265.448C205.977 265.096 206.439 264.671 206.791 264.172C207.158 263.673 207.407 263.197 207.539 262.742ZM212.409 264.37H215.049C215.211 264.869 215.541 265.279 216.039 265.602C216.553 265.91 217.22 266.064 218.041 266.064C218.599 266.064 219.031 266.013 219.339 265.91C219.647 265.807 219.86 265.661 219.977 265.47C220.095 265.265 220.153 265.037 220.153 264.788C220.153 264.48 220.058 264.245 219.867 264.084C219.677 263.908 219.383 263.769 218.987 263.666C218.591 263.563 218.085 263.468 217.469 263.38C216.853 263.277 216.259 263.153 215.687 263.006C215.115 262.859 214.609 262.669 214.169 262.434C213.729 262.185 213.377 261.877 213.113 261.51C212.864 261.129 212.739 260.667 212.739 260.124C212.739 259.596 212.864 259.127 213.113 258.716C213.377 258.305 213.737 257.961 214.191 257.682C214.661 257.403 215.203 257.191 215.819 257.044C216.45 256.897 217.125 256.824 217.843 256.824C218.929 256.824 219.831 256.985 220.549 257.308C221.268 257.616 221.803 258.056 222.155 258.628C222.522 259.185 222.705 259.831 222.705 260.564H220.175C220.058 260.021 219.823 259.633 219.471 259.398C219.119 259.149 218.577 259.024 217.843 259.024C217.125 259.024 216.582 259.134 216.215 259.354C215.849 259.574 215.665 259.875 215.665 260.256C215.665 260.564 215.775 260.806 215.995 260.982C216.23 261.143 216.567 261.275 217.007 261.378C217.462 261.481 218.027 261.591 218.701 261.708C219.273 261.825 219.816 261.957 220.329 262.104C220.857 262.251 221.327 262.441 221.737 262.676C222.148 262.896 222.471 263.197 222.705 263.578C222.955 263.945 223.079 264.414 223.079 264.986C223.079 265.69 222.874 266.284 222.463 266.768C222.067 267.252 221.495 267.626 220.747 267.89C219.999 268.139 219.105 268.264 218.063 268.264C217.139 268.264 216.34 268.169 215.665 267.978C215.005 267.773 214.455 267.516 214.015 267.208C213.575 266.885 213.231 266.548 212.981 266.196C212.747 265.829 212.585 265.485 212.497 265.162C212.409 264.839 212.38 264.575 212.409 264.37ZM228.545 252.27V254.778H225.223V252.27H228.545ZM225.443 257.066H228.303V268H225.443V257.066ZM244.134 263.688C244.061 264.641 243.753 265.463 243.21 266.152C242.682 266.841 241.949 267.369 241.01 267.736C240.071 268.088 238.957 268.264 237.666 268.264C236.317 268.264 235.107 268.051 234.036 267.626C232.98 267.186 232.144 266.548 231.528 265.712C230.927 264.861 230.626 263.813 230.626 262.566C230.626 261.319 230.927 260.271 231.528 259.42C232.144 258.569 232.98 257.924 234.036 257.484C235.107 257.044 236.317 256.824 237.666 256.824C238.957 256.824 240.064 257.007 240.988 257.374C241.912 257.726 242.638 258.239 243.166 258.914C243.709 259.589 244.024 260.403 244.112 261.356H241.494C241.245 260.623 240.783 260.051 240.108 259.64C239.433 259.229 238.619 259.024 237.666 259.024C236.903 259.024 236.207 259.156 235.576 259.42C234.96 259.684 234.461 260.08 234.08 260.608C233.713 261.121 233.53 261.774 233.53 262.566C233.53 263.343 233.713 263.996 234.08 264.524C234.447 265.037 234.945 265.426 235.576 265.69C236.207 265.939 236.903 266.064 237.666 266.064C238.693 266.064 239.529 265.859 240.174 265.448C240.834 265.037 241.281 264.451 241.516 263.688H244.134ZM251.103 264.37H253.743C253.904 264.869 254.234 265.279 254.733 265.602C255.246 265.91 255.913 266.064 256.735 266.064C257.292 266.064 257.725 266.013 258.033 265.91C258.341 265.807 258.553 265.661 258.671 265.47C258.788 265.265 258.847 265.037 258.847 264.788C258.847 264.48 258.751 264.245 258.561 264.084C258.37 263.908 258.077 263.769 257.681 263.666C257.285 263.563 256.779 263.468 256.163 263.38C255.547 263.277 254.953 263.153 254.381 263.006C253.809 262.859 253.303 262.669 252.863 262.434C252.423 262.185 252.071 261.877 251.807 261.51C251.557 261.129 251.433 260.667 251.433 260.124C251.433 259.596 251.557 259.127 251.807 258.716C252.071 258.305 252.43 257.961 252.885 257.682C253.354 257.403 253.897 257.191 254.513 257.044C255.143 256.897 255.818 256.824 256.537 256.824C257.622 256.824 258.524 256.985 259.243 257.308C259.961 257.616 260.497 258.056 260.849 258.628C261.215 259.185 261.399 259.831 261.399 260.564H258.869C258.751 260.021 258.517 259.633 258.165 259.398C257.813 259.149 257.27 259.024 256.537 259.024C255.818 259.024 255.275 259.134 254.909 259.354C254.542 259.574 254.359 259.875 254.359 260.256C254.359 260.564 254.469 260.806 254.689 260.982C254.923 261.143 255.261 261.275 255.701 261.378C256.155 261.481 256.72 261.591 257.395 261.708C257.967 261.825 258.509 261.957 259.023 262.104C259.551 262.251 260.02 262.441 260.431 262.676C260.841 262.896 261.164 263.197 261.399 263.578C261.648 263.945 261.773 264.414 261.773 264.986C261.773 265.69 261.567 266.284 261.157 266.768C260.761 267.252 260.189 267.626 259.441 267.89C258.693 268.139 257.798 268.264 256.757 268.264C255.833 268.264 255.033 268.169 254.359 267.978C253.699 267.773 253.149 267.516 252.709 267.208C252.269 266.885 251.924 266.548 251.675 266.196C251.44 265.829 251.279 265.485 251.191 265.162C251.103 264.839 251.073 264.575 251.103 264.37ZM271.925 268.264C270.957 268.264 270.128 268.095 269.439 267.758C268.764 267.406 268.214 266.951 267.789 266.394C267.363 265.822 267.048 265.199 266.843 264.524C266.637 263.849 266.535 263.189 266.535 262.544C266.535 261.737 266.63 260.989 266.821 260.3C267.026 259.611 267.341 259.009 267.767 258.496C268.192 257.968 268.742 257.557 269.417 257.264C270.106 256.971 270.942 256.824 271.925 256.824C273.025 256.824 274.015 257.066 274.895 257.55C275.775 258.034 276.471 258.709 276.985 259.574C277.513 260.425 277.777 261.415 277.777 262.544C277.777 263.703 277.513 264.715 276.985 265.58C276.457 266.431 275.753 267.091 274.873 267.56C273.993 268.029 273.01 268.264 271.925 268.264ZM271.001 266.042C271.778 266.042 272.453 265.895 273.025 265.602C273.611 265.309 274.059 264.905 274.367 264.392C274.689 263.864 274.851 263.248 274.851 262.544C274.851 261.488 274.513 260.637 273.839 259.992C273.179 259.347 272.233 259.024 271.001 259.024C270.223 259.024 269.512 259.163 268.867 259.442C268.236 259.721 267.737 260.124 267.371 260.652C267.004 261.165 266.821 261.796 266.821 262.544C266.821 263.248 266.989 263.864 267.327 264.392C267.664 264.905 268.148 265.309 268.779 265.602C269.409 265.895 270.15 266.042 271.001 266.042ZM263.961 257.066H266.689L266.821 259.97V272.4H263.961V257.066ZM289.847 264.37H292.619C292.501 265.118 292.186 265.785 291.673 266.372C291.174 266.959 290.492 267.421 289.627 267.758C288.761 268.095 287.705 268.264 286.459 268.264C285.065 268.264 283.833 268.044 282.763 267.604C281.692 267.149 280.856 266.497 280.255 265.646C279.653 264.795 279.353 263.769 279.353 262.566C279.353 261.363 279.646 260.337 280.233 259.486C280.819 258.621 281.633 257.961 282.675 257.506C283.731 257.051 284.963 256.824 286.371 256.824C287.808 256.824 289.003 257.051 289.957 257.506C290.91 257.961 291.614 258.65 292.069 259.574C292.538 260.483 292.736 261.649 292.663 263.072H282.235C282.308 263.629 282.513 264.135 282.851 264.59C283.203 265.045 283.672 265.404 284.259 265.668C284.86 265.932 285.571 266.064 286.393 266.064C287.302 266.064 288.057 265.91 288.659 265.602C289.275 265.279 289.671 264.869 289.847 264.37ZM286.239 259.002C285.183 259.002 284.325 259.237 283.665 259.706C283.005 260.161 282.579 260.725 282.389 261.4H289.825C289.751 260.667 289.399 260.087 288.769 259.662C288.153 259.222 287.309 259.002 286.239 259.002ZM300.115 268.242C299.029 268.242 298.039 268.007 297.145 267.538C296.265 267.054 295.561 266.387 295.033 265.536C294.519 264.671 294.263 263.673 294.263 262.544C294.263 261.385 294.527 260.381 295.055 259.53C295.583 258.679 296.294 258.019 297.189 257.55C298.098 257.066 299.125 256.824 300.269 256.824C301.53 256.824 302.542 257.081 303.305 257.594C304.082 258.093 304.647 258.775 304.999 259.64C305.351 260.505 305.527 261.473 305.527 262.544C305.527 263.189 305.424 263.849 305.219 264.524C305.013 265.184 304.698 265.8 304.273 266.372C303.847 266.929 303.29 267.384 302.601 267.736C301.911 268.073 301.083 268.242 300.115 268.242ZM301.039 266.042C301.904 266.042 302.652 265.895 303.283 265.602C303.913 265.309 304.397 264.898 304.735 264.37C305.072 263.842 305.241 263.233 305.241 262.544C305.241 261.796 305.065 261.165 304.713 260.652C304.375 260.124 303.891 259.728 303.261 259.464C302.645 259.185 301.904 259.046 301.039 259.046C299.821 259.046 298.875 259.369 298.201 260.014C297.526 260.645 297.189 261.488 297.189 262.544C297.189 263.248 297.35 263.864 297.673 264.392C297.995 264.905 298.443 265.309 299.015 265.602C299.601 265.895 300.276 266.042 301.039 266.042ZM305.241 257.066H308.101V268H305.439C305.439 268 305.417 267.861 305.373 267.582C305.343 267.289 305.314 266.922 305.285 266.482C305.255 266.042 305.241 265.609 305.241 265.184V257.066ZM310.887 252.666H313.747V268H310.887V252.666ZM322.965 257.066L316.453 262.808L316.519 261.048L323.471 268H319.841L313.813 261.862L319.071 257.066H322.965ZM325.548 253.414H328.452V263.556H325.548V253.414ZM328.672 265.492V268H325.35V265.492H328.672Z" fill="#404756"/>
<path d="M0 137V0H414C414 0 498.005 287.144 414 243C375.613 222.828 339.383 162.673 297 153.5C254.837 144.374 257.138 173.331 214 173.5C160.98 173.708 140.753 100.187 88 105.5C54.5998 108.864 33.4256 140.102 0 137Z" fill="#404756"/>
<path d="M186.304 28.296C188.629 28.296 190.571 28.5733 192.128 29.128C193.685 29.6827 194.923 30.44 195.84 31.4C196.779 32.3387 197.44 33.4267 197.824 34.664C198.229 35.9013 198.432 37.2027 198.432 38.568C198.432 39.9333 198.208 41.2453 197.76 42.504C197.333 43.7627 196.64 44.8827 195.68 45.864C194.741 46.824 193.493 47.592 191.936 48.168C190.4 48.7227 188.523 49 186.304 49H174.464V28.296H186.304ZM178.72 45.352H186.208C187.744 45.352 189.013 45.1707 190.016 44.808C191.04 44.424 191.851 43.912 192.448 43.272C193.045 42.632 193.472 41.9067 193.728 41.096C193.984 40.2853 194.112 39.4427 194.112 38.568C194.112 37.6933 193.984 36.8613 193.728 36.072C193.472 35.2827 193.045 34.5787 192.448 33.96C191.851 33.3413 191.04 32.8507 190.016 32.488C189.013 32.1253 187.744 31.944 186.208 31.944H178.72V45.352ZM200.605 33.096H205.021L211.901 48.36L208.317 49L200.605 33.096ZM220.061 33.096L209.053 55.4H204.733L209.437 46.632L215.613 33.096H220.061ZM229.7 46.568C227.972 46.568 226.446 46.312 225.124 45.8C223.822 45.2667 222.809 44.488 222.084 43.464C221.358 42.44 220.996 41.2027 220.996 39.752C220.996 38.3227 221.348 37.0853 222.052 36.04C222.756 34.9947 223.758 34.184 225.06 33.608C226.382 33.032 227.929 32.744 229.7 32.744C230.19 32.744 230.66 32.776 231.108 32.84C231.577 32.904 232.036 32.9893 232.484 33.096L240.516 33.128V36.264C239.428 36.2853 238.318 36.1573 237.188 35.88C236.078 35.5813 235.097 35.2613 234.244 34.92L234.148 34.696C234.873 35.0373 235.556 35.464 236.196 35.976C236.836 36.4667 237.348 37.0427 237.732 37.704C238.137 38.344 238.34 39.0907 238.34 39.944C238.34 41.3307 237.988 42.5253 237.284 43.528C236.58 44.5093 235.577 45.2667 234.276 45.8C232.996 46.312 231.47 46.568 229.7 46.568ZM235.044 55.56V54.792C235.044 53.8107 234.724 53.128 234.084 52.744C233.465 52.36 232.612 52.168 231.524 52.168H226.564C225.604 52.168 224.793 52.0933 224.132 51.944C223.492 51.7947 222.98 51.5813 222.596 51.304C222.212 51.0267 221.934 50.696 221.764 50.312C221.593 49.9493 221.508 49.5547 221.508 49.128C221.508 48.2747 221.785 47.6347 222.34 47.208C222.894 46.76 223.641 46.4613 224.58 46.312C225.518 46.1627 226.553 46.1307 227.684 46.216L229.7 46.568C228.356 46.6107 227.353 46.728 226.692 46.92C226.052 47.0907 225.732 47.4427 225.732 47.976C225.732 48.296 225.86 48.552 226.116 48.744C226.372 48.9147 226.734 49 227.204 49H232.42C233.849 49 235.065 49.1493 236.068 49.448C237.092 49.768 237.87 50.2907 238.404 51.016C238.937 51.7627 239.204 52.776 239.204 54.056V55.56H235.044ZM229.7 43.56C230.617 43.56 231.417 43.4107 232.1 43.112C232.804 42.8133 233.348 42.3867 233.732 41.832C234.116 41.256 234.308 40.5733 234.308 39.784C234.308 38.9733 234.116 38.28 233.732 37.704C233.348 37.128 232.814 36.6907 232.132 36.392C231.449 36.072 230.638 35.912 229.7 35.912C228.782 35.912 227.972 36.072 227.268 36.392C226.564 36.6907 226.02 37.128 225.636 37.704C225.252 38.28 225.06 38.9733 225.06 39.784C225.06 40.5733 225.252 41.256 225.636 41.832C226.02 42.3867 226.553 42.8133 227.236 43.112C227.94 43.4107 228.761 43.56 229.7 43.56Z" fill="#E9EFFF"/>
<g clip-path="url(#clip0_70_23)">
<path d="M234.531 86.115C234.531 95.5825 234.531 105.05 234.531 114.524C220.714 114.524 206.898 114.524 193.081 114.524C193.081 113.283 193.081 112.042 193.101 110.737C193.298 110.879 193.45 111.116 193.658 111.288C194.633 112.094 195.759 112.13 196.886 111.759C197.731 111.48 198.307 110.869 198.277 109.836C198.224 108.002 198.264 106.166 198.26 104.331C198.26 104.118 198.282 103.993 198.54 103.895C199.706 103.454 200.852 102.963 202.008 102.497C202.467 102.311 202.932 102.142 203.416 101.956C203.416 103.206 203.416 104.41 203.416 105.629C203.336 105.618 203.283 105.614 203.233 105.602C202.133 105.336 201.091 105.35 200.144 106.101C199.358 106.724 199.336 108.07 200.12 108.699C201.104 109.489 202.221 109.535 203.353 109.17C204.061 108.942 204.709 108.493 204.724 107.661C204.766 105.382 204.74 103.101 204.737 100.821C204.736 100.464 204.532 100.283 204.185 100.287C203.989 100.29 203.779 100.302 203.601 100.372C201.54 101.192 199.486 102.028 197.425 102.847C197.094 102.979 196.959 103.181 196.962 103.538C196.974 104.954 196.967 106.371 196.967 107.788C196.967 107.927 196.967 108.067 196.967 108.157C196.38 108.12 195.852 108.056 195.325 108.062C194.555 108.071 193.901 108.366 193.406 108.979C193.316 109.091 193.19 109.173 193.081 109.269C193.081 97.2113 193.081 85.1538 193.081 73.0887C206.898 73.0887 220.714 73.0887 234.531 73.0885C234.531 74.8417 234.531 76.5951 234.508 78.4141C233.996 78.0569 233.519 78.3114 233.039 78.5041C231.091 79.2863 229.145 80.0727 227.192 80.8422C226.864 80.9714 226.754 81.1743 226.756 81.5071C226.764 82.9236 226.759 84.3402 226.759 85.7567C226.759 85.8988 226.759 86.0409 226.759 86.2101C226.642 86.1838 226.579 86.1689 226.516 86.1556C225.431 85.9264 224.399 85.9222 223.462 86.6688C222.673 87.298 222.655 88.6419 223.432 89.268C224.413 90.0585 225.532 90.1094 226.664 89.7415C227.513 89.4656 228.103 88.8525 228.07 87.7903C228.013 85.9708 228.057 84.1483 228.051 82.327C228.05 82.0921 228.086 81.9663 228.354 81.8647C229.519 81.4229 230.665 80.9307 231.821 80.4645C232.275 80.2816 232.737 80.119 233.217 79.9391C233.217 81.1961 233.217 82.3927 233.217 83.592C231.742 83.3754 231.444 83.3629 230.772 83.6093C230.05 83.8744 229.45 84.2873 229.354 85.1311C229.245 86.09 229.662 86.645 230.565 87.0908C231.118 87.3638 231.7 87.3451 232.284 87.3265C233.056 87.3019 233.71 87.0188 234.206 86.4042C234.296 86.2929 234.422 86.2107 234.531 86.115ZM223.889 103.921C223.904 103.897 223.919 103.874 223.983 103.826C225.252 102.415 225.93 100.731 226.096 98.8701C226.261 97.0201 226.016 95.224 224.992 93.6011C224.452 92.7447 223.828 91.9755 223.007 91.3699C221.666 90.3808 220.18 89.8543 218.478 89.856C218.35 89.5377 218.222 89.2196 218.096 88.9009C217.713 87.9336 217.33 86.966 216.986 85.9626C217.188 85.7893 217.392 85.6188 217.591 85.442C218.109 84.9798 218.616 84.5042 219.145 84.0534C220.077 83.2578 220.978 82.4353 221.645 81.392C222.502 80.0513 222.993 78.6334 222.72 77.0015C222.353 74.8024 220.251 72.9501 217.663 73.3389C216.022 73.5854 214.703 74.4726 213.738 75.8102C212.609 77.3761 212.08 79.1554 212.108 81.0902C212.119 81.7724 212.138 82.4559 212.193 83.1356C212.236 83.6723 212.34 84.2042 212.367 84.7578C211.387 85.8187 210.383 86.8588 209.433 87.9461C208.296 89.2467 207.404 90.7061 206.74 92.3081C206.338 93.2781 206.029 94.2834 205.976 95.3158C205.92 96.4306 205.959 97.5716 206.138 98.6718C206.399 100.284 207.111 101.737 208.201 102.969C209.315 104.229 210.656 105.176 212.227 105.812C213.692 106.406 215.21 106.695 216.778 106.756C217.134 106.77 217.493 106.714 217.853 106.764C217.827 107.474 217.88 108.199 217.754 108.891C217.581 109.842 217.077 110.438 215.813 110.323C215.091 110.257 214.266 109.503 214.284 108.639C214.29 108.364 214.235 108.082 214.166 107.813C213.978 107.076 213.222 106.338 212.092 106.422C211.158 106.491 210.341 107.261 210.321 108.196C210.305 108.935 210.335 109.667 210.573 110.372C210.926 111.414 211.497 112.307 212.372 113.003C213.576 113.959 214.937 114.345 216.466 114.298C217.796 114.258 218.933 113.781 219.901 112.916C221.125 111.823 221.685 110.376 221.804 108.779C221.884 107.706 221.812 106.622 221.837 105.493C222.465 105.02 223.092 104.547 223.74 104.067C223.74 104.067 223.749 104.046 223.783 104.023C223.806 103.992 223.829 103.961 223.847 103.928C223.847 103.928 223.847 103.934 223.889 103.921ZM205.965 85.868C206.106 85.7944 206.248 85.725 206.386 85.6466C206.888 85.3603 207.312 84.9724 207.319 84.3699C207.345 82.0773 207.332 79.7843 207.327 77.4914C207.326 77.16 207.133 76.9711 206.802 76.9724C206.594 76.9732 206.37 76.986 206.179 77.0613C204.13 77.8723 202.088 78.7002 200.04 79.5147C199.682 79.6569 199.545 79.8846 199.55 80.2731C199.568 81.6756 199.558 83.0784 199.557 84.4811C199.557 84.6197 199.545 84.7582 199.539 84.9019C198.5 84.6715 197.543 84.6095 196.598 85.1257C195.431 85.7626 195.36 87.3564 196.342 88.0498C197.398 88.7961 198.519 88.8197 199.658 88.3641C200.472 88.0387 200.892 87.4272 200.867 86.4787C200.819 84.6592 200.854 82.8375 200.851 81.0167C200.851 80.8042 200.87 80.6772 201.129 80.5802C202.161 80.1949 203.172 79.7547 204.194 79.3427C204.787 79.1038 205.386 78.8798 206.009 78.6385C206.009 79.8897 206.009 81.093 206.009 82.2915C205.971 82.2987 205.957 82.3053 205.944 82.303C205.893 82.2934 205.842 82.2807 205.791 82.2699C204.707 82.0398 203.674 82.0347 202.739 82.7825C201.964 83.4018 201.903 84.7127 202.675 85.3585C203.629 86.1565 204.744 86.2097 205.965 85.868Z" fill="#404756"/>
<path d="M193.081 109.307C193.19 109.173 193.316 109.091 193.406 108.979C193.901 108.366 194.555 108.071 195.325 108.062C195.852 108.056 196.38 108.12 196.967 108.157C196.967 108.067 196.967 107.927 196.967 107.788C196.967 106.371 196.974 104.954 196.962 103.538C196.959 103.181 197.094 102.979 197.425 102.847C199.486 102.028 201.54 101.192 203.601 100.372C203.779 100.302 203.989 100.29 204.185 100.287C204.532 100.283 204.736 100.464 204.737 100.821C204.74 103.101 204.766 105.382 204.724 107.661C204.709 108.493 204.061 108.942 203.353 109.17C202.221 109.535 201.104 109.489 200.12 108.699C199.336 108.07 199.358 106.724 200.144 106.101C201.091 105.35 202.133 105.336 203.233 105.602C203.283 105.614 203.336 105.617 203.416 105.629C203.416 104.41 203.416 103.206 203.416 101.956C202.932 102.142 202.467 102.311 202.008 102.497C200.852 102.963 199.706 103.454 198.54 103.895C198.282 103.993 198.26 104.118 198.26 104.331C198.264 106.166 198.224 108.002 198.277 109.835C198.307 110.869 197.731 111.48 196.886 111.759C195.759 112.13 194.633 112.094 193.658 111.288C193.45 111.116 193.298 110.879 193.101 110.699C193.081 110.265 193.081 109.805 193.081 109.307Z" fill="#F79235"/>
<path d="M234.531 86.0771C234.422 86.2107 234.296 86.2929 234.206 86.4042C233.71 87.0188 233.056 87.3019 232.284 87.3265C231.7 87.3451 231.118 87.3638 230.565 87.0908C229.662 86.645 229.245 86.09 229.354 85.1311C229.45 84.2873 230.05 83.8744 230.772 83.6093C231.444 83.3629 231.742 83.3754 233.217 83.592C233.217 82.3927 233.217 81.1961 233.217 79.9391C232.737 80.119 232.275 80.2816 231.821 80.4645C230.665 80.9307 229.519 81.4229 228.354 81.8647C228.086 81.9663 228.05 82.0921 228.051 82.327C228.057 84.1483 228.014 85.9708 228.07 87.7903C228.103 88.8525 227.513 89.4656 226.664 89.7415C225.532 90.1094 224.413 90.0585 223.432 89.268C222.655 88.6419 222.673 87.298 223.462 86.6688C224.399 85.9222 225.431 85.9264 226.516 86.1556C226.579 86.1689 226.642 86.1838 226.759 86.2101C226.759 86.0409 226.759 85.8988 226.759 85.7567C226.759 84.3402 226.764 82.9236 226.756 81.5071C226.754 81.1743 226.864 80.9714 227.192 80.8422C229.145 80.0727 231.091 79.2863 233.039 78.5041C233.519 78.3114 233.996 78.0569 234.508 78.452C234.531 80.9625 234.531 83.5008 234.531 86.0771Z" fill="#F79235"/>
<path d="M218.503 89.9078C220.18 89.8542 221.666 90.3808 223.007 91.3699C223.828 91.9755 224.452 92.7447 224.992 93.6011C226.016 95.224 226.261 97.0201 226.096 98.8701C225.93 100.731 225.252 102.415 223.941 103.848C223.881 103.891 223.864 103.912 223.847 103.934C223.847 103.934 223.847 103.928 223.828 103.935C223.789 103.977 223.769 104.012 223.749 104.046C223.749 104.046 223.74 104.067 223.701 104.06C223.55 104.09 223.428 104.109 223.327 104.167C221.83 105.03 220.196 105.399 218.491 105.456C216.368 105.528 214.372 105.004 212.507 104.002C208.471 101.834 206.845 97.7758 207.457 93.6295C207.732 91.7667 208.459 90.0655 209.537 88.542C210.384 87.3465 211.36 86.2432 212.271 85.0933C212.347 84.997 212.369 84.8576 212.416 84.7382C212.34 84.2042 212.236 83.6723 212.193 83.1356C212.138 82.4559 212.119 81.7724 212.108 81.0902C212.08 79.1554 212.609 77.3761 213.738 75.8102C214.703 74.4726 216.022 73.5854 217.663 73.3389C220.251 72.95 222.353 74.8024 222.72 77.0014C222.993 78.6334 222.502 80.0513 221.645 81.392C220.978 82.4353 220.077 83.2578 219.145 84.0534C218.616 84.5042 218.109 84.9798 217.591 85.442C217.392 85.6188 217.188 85.7893 216.941 85.9912C216.372 86.4803 215.832 86.9232 215.331 87.406C214.822 87.896 214.35 88.4253 213.841 88.9527C212.752 90.0823 211.777 91.2733 211.007 92.6129C210.111 94.1699 209.689 95.831 209.994 97.6442C210.322 99.5922 211.426 100.947 213.137 101.841C214.537 102.573 216.026 102.893 217.643 102.706C218.462 102.69 219.191 102.459 219.869 102.086C220.509 101.735 221.105 101.317 221.417 100.578C221.52 100.407 221.636 100.274 221.697 100.118C222.305 98.5738 222.433 97.0435 221.515 95.5602C221.14 94.9544 220.672 94.4473 219.956 94.1862C219.439 93.8089 218.86 93.7685 218.286 93.8187C217.424 93.8938 216.583 94.0598 215.955 94.7886C215.521 95.3212 215.209 95.8747 215.167 96.5659C215.143 96.9732 215.022 97.3747 214.92 97.7647C214.817 97.7534 214.737 97.7536 214.658 97.7597C213.631 97.8384 212.643 96.9969 212.597 95.974C212.527 94.4377 212.92 93.022 213.756 91.7287C213.83 91.6153 213.854 91.4699 213.908 91.3263C213.915 91.3133 213.943 91.3041 213.948 91.3103C213.952 91.3166 213.967 91.3117 213.967 91.3117C213.967 91.3117 213.954 91.2971 213.968 91.272C214.193 91.124 214.403 91.0011 214.642 90.8729C215.869 90.2362 217.153 89.9391 218.503 89.9078ZM212.804 84.5193C212.783 84.5357 212.767 84.5554 212.744 84.5819C212.744 84.5819 212.752 84.5759 212.783 84.5533C212.803 84.5363 212.819 84.5168 212.842 84.4903C212.842 84.4903 212.836 84.4979 212.804 84.5193ZM217.53 80.1646C218.095 79.5965 218.564 78.9655 218.788 78.1826C218.872 77.8883 218.895 77.5421 218.608 77.392C218.415 77.2911 218.101 77.3402 217.872 77.4145C217.658 77.4836 217.459 77.6509 217.295 77.8162C216.32 78.8009 216.027 80.0227 216.08 81.4631C216.589 81.0087 217.039 80.6069 217.53 80.1646Z" fill="#67D1B1"/>
<path d="M221.807 105.543C221.812 106.622 221.884 107.706 221.804 108.779C221.685 110.376 221.125 111.823 219.901 112.916C218.933 113.781 217.796 114.258 216.466 114.298C214.937 114.345 213.576 113.959 212.372 113.003C211.497 112.307 210.926 111.414 210.573 110.372C210.335 109.667 210.305 108.935 210.321 108.196C210.341 107.261 211.158 106.491 212.092 106.422C213.222 106.338 213.978 107.076 214.166 107.813C214.235 108.082 214.29 108.364 214.284 108.639C214.266 109.503 215.091 110.257 215.813 110.323C217.077 110.438 217.581 109.842 217.754 108.891C217.88 108.199 217.827 107.474 217.884 106.718C219.274 106.508 220.572 106.133 221.807 105.543Z" fill="#02B27D"/>
<path d="M205.933 85.8704C204.744 86.2097 203.629 86.1565 202.675 85.3585C201.903 84.7127 201.964 83.4018 202.739 82.7825C203.674 82.0347 204.707 82.0398 205.791 82.2699C205.842 82.2807 205.893 82.2934 205.944 82.303C205.957 82.3053 205.971 82.2987 206.009 82.2915C206.009 81.093 206.009 79.8897 206.009 78.6385C205.386 78.8798 204.787 79.1038 204.194 79.3427C203.172 79.7547 202.161 80.1949 201.129 80.5802C200.87 80.6772 200.851 80.8042 200.851 81.0167C200.854 82.8375 200.819 84.6592 200.867 86.4787C200.892 87.4272 200.472 88.0387 199.658 88.3641C198.519 88.8197 197.398 88.7961 196.342 88.0498C195.36 87.3564 195.431 85.7626 196.598 85.1257C197.543 84.6095 198.5 84.6714 199.539 84.9019C199.545 84.7582 199.557 84.6196 199.557 84.4811C199.558 83.0784 199.568 81.6756 199.55 80.2731C199.545 79.8846 199.682 79.6569 200.04 79.5147C202.088 78.7002 204.13 77.8723 206.179 77.0613C206.37 76.986 206.594 76.9732 206.802 76.9724C207.133 76.9711 207.326 77.16 207.327 77.4914C207.332 79.7843 207.345 82.0773 207.319 84.3699C207.312 84.9724 206.888 85.3603 206.386 85.6466C206.248 85.725 206.106 85.7944 205.933 85.8704Z" fill="#F79235"/>
<path d="M221.822 105.518C220.572 106.133 219.274 106.508 217.882 106.681C217.493 106.714 217.134 106.77 216.778 106.756C215.21 106.695 213.692 106.406 212.227 105.812C210.656 105.176 209.315 104.229 208.201 102.969C207.111 101.737 206.399 100.284 206.138 98.6718C205.959 97.5716 205.92 96.4306 205.976 95.3158C206.029 94.2834 206.339 93.2781 206.74 92.3081C207.404 90.7061 208.296 89.2467 209.433 87.9461C210.383 86.8588 211.387 85.8187 212.392 84.748C212.369 84.8576 212.347 84.997 212.271 85.0933C211.36 86.2432 210.384 87.3466 209.537 88.542C208.459 90.0655 207.732 91.7667 207.457 93.6295C206.845 97.7758 208.471 101.834 212.507 104.002C214.372 105.004 216.368 105.528 218.491 105.456C220.196 105.399 221.83 105.03 223.327 104.167C223.428 104.109 223.55 104.09 223.691 104.063C223.092 104.547 222.465 105.02 221.822 105.518Z" fill="#35C298"/>
<path d="M218.49 89.8819C217.153 89.9391 215.869 90.2362 214.63 90.8471C214.347 90.1969 214.105 89.5671 213.862 88.9374C214.35 88.4253 214.822 87.896 215.331 87.406C215.832 86.9232 216.372 86.4803 216.921 86.0092C217.33 86.966 217.713 87.9336 218.096 88.9009C218.222 89.2196 218.35 89.5376 218.49 89.8819Z" fill="#03B27D"/>
<path d="M223.766 104.035C223.769 104.012 223.789 103.977 223.831 103.936C223.829 103.961 223.806 103.992 223.766 104.035Z" fill="#35C298"/>
<path d="M223.868 103.927C223.864 103.912 223.881 103.891 223.916 103.86C223.919 103.874 223.904 103.897 223.868 103.927Z" fill="#35C298"/>
<path d="M213.842 88.9527C214.105 89.5671 214.347 90.1969 214.602 90.8525C214.404 91.0011 214.193 91.124 213.964 91.2713C213.946 91.2958 213.943 91.3041 213.943 91.3041C213.943 91.3041 213.915 91.3133 213.885 91.3394C213.372 91.8483 212.827 92.2841 212.421 92.8243C211.706 93.7759 211.312 94.8765 211.223 96.1106C211.2 96.2613 211.186 96.378 211.163 96.4927C211.002 97.28 211.356 98.4128 212.201 98.7847C212.67 98.8701 213.126 98.9889 213.577 98.9734C214.143 98.954 214.912 98.2725 214.944 97.7788C215.022 97.3747 215.143 96.9732 215.167 96.5659C215.209 95.8747 215.521 95.3212 215.961 94.8194C216.044 94.9755 216.111 95.1074 216.144 95.2472C216.527 96.8636 216.936 98.475 217.273 100.101C217.45 100.954 217.501 101.833 217.608 102.7C216.026 102.893 214.537 102.573 213.137 101.841C211.426 100.947 210.322 99.5922 209.994 97.6442C209.689 95.831 210.111 94.1699 211.007 92.6129C211.777 91.2733 212.752 90.0823 213.842 88.9527Z" fill="#404756"/>
<path d="M217.643 102.706C217.501 101.833 217.45 100.954 217.273 100.101C216.936 98.4751 216.527 96.8637 216.144 95.2472C216.111 95.1074 216.044 94.9755 215.987 94.8091C216.583 94.0598 217.424 93.8939 218.286 93.8187C218.86 93.7686 219.439 93.8089 219.962 94.2159C220.326 95.6432 220.685 97.0119 221.005 98.3897C221.174 99.1195 221.273 99.8653 221.404 100.604C221.105 101.317 220.509 101.735 219.869 102.086C219.191 102.459 218.462 102.69 217.643 102.706Z" fill="#02B27D"/>
<path d="M214.92 97.7647C214.912 98.2725 214.143 98.954 213.577 98.9734C213.126 98.9889 212.67 98.8701 212.196 98.7557C211.681 97.8903 211.408 96.9998 211.229 96.0757C211.312 94.8765 211.706 93.7759 212.421 92.8243C212.827 92.2841 213.372 91.8483 213.878 91.3524C213.854 91.4699 213.83 91.6153 213.756 91.7287C212.92 93.022 212.527 94.4377 212.597 95.974C212.643 96.9969 213.632 97.8384 214.658 97.7597C214.737 97.7536 214.817 97.7534 214.92 97.7647Z" fill="#36C398"/>
<path d="M221.417 100.578C221.273 99.8653 221.174 99.1195 221.005 98.3897C220.685 97.0118 220.326 95.6432 219.977 94.2411C220.672 94.4473 221.14 94.9543 221.515 95.5602C222.433 97.0435 222.305 98.5738 221.697 100.118C221.636 100.274 221.52 100.407 221.417 100.578Z" fill="#404756"/>
<path d="M217.51 80.185C217.039 80.607 216.589 81.0087 216.08 81.4631C216.027 80.0227 216.32 78.8009 217.295 77.8162C217.459 77.6509 217.658 77.4836 217.872 77.4145C218.101 77.3402 218.415 77.2911 218.608 77.392C218.895 77.5421 218.872 77.8883 218.788 78.1826C218.564 78.9655 218.095 79.5965 217.51 80.185Z" fill="#404756"/>
<path d="M212.752 84.576C212.752 84.576 212.744 84.5819 212.749 84.5795C212.754 84.577 212.752 84.576 212.752 84.576Z" fill="#35C298"/>
<path d="M213.948 91.3103C213.943 91.3041 213.946 91.2958 213.95 91.2965C213.954 91.2971 213.967 91.3117 213.967 91.3117C213.967 91.3117 213.953 91.3166 213.948 91.3103Z" fill="#36C398"/>
<path d="M212.754 84.5778C212.767 84.5555 212.783 84.5357 212.819 84.5077C212.834 84.4961 212.833 84.4947 212.833 84.4947C212.819 84.5168 212.803 84.5364 212.768 84.5646C212.752 84.576 212.753 84.577 212.754 84.5778Z" fill="#35C298"/>
<path d="M212.835 84.497C212.836 84.4979 212.842 84.4902 212.837 84.4925C212.833 84.4947 212.834 84.4961 212.835 84.497Z" fill="#35C298"/>
<path d="M211.223 96.1106C211.408 96.9999 211.681 97.8903 212.181 98.7296C211.356 98.4128 211.002 97.28 211.163 96.4927C211.186 96.378 211.2 96.2613 211.223 96.1106Z" fill="#65D0B0"/>
</g>
<defs>
<clipPath id="clip0_70_23">
<rect width="41.45" height="41.45" fill="white" transform="translate(193 73)"/>
</clipPath>
</defs>
</svg>
