<svg width="198" height="49" viewBox="0 0 198 49" fill="none" xmlns="http://www.w3.org/2000/svg">
<rect x="2.5" y="2.5" width="193" height="44" stroke="#404756" stroke-width="5"/>
<path d="M30.5 12C23.5998 12 18 17.4248 18 24.1094C18 30.7939 23.5998 36.2188 30.5 36.2188C37.4002 36.2188 43 30.7939 43 24.1094C43 17.4248 37.4002 12 30.5 12ZM35.5756 29.8174C35.3639 29.8174 35.2329 29.7539 35.0363 29.6416C31.8911 27.8057 28.2319 27.7275 24.6179 28.4453C24.4214 28.4941 24.1643 28.5723 24.0181 28.5723C23.5292 28.5723 23.2218 28.1963 23.2218 27.8008C23.2218 27.2979 23.5292 27.0586 23.9073 26.9805C28.0353 26.0967 32.254 26.1748 35.8528 28.2598C36.1603 28.4502 36.3417 28.6211 36.3417 29.0654C36.3417 29.5098 35.9839 29.8174 35.5756 29.8174ZM36.9315 26.6143C36.6694 26.6143 36.4929 26.502 36.3115 26.4092C33.1613 24.6025 28.4637 23.875 24.2853 24.9736C24.0433 25.0371 23.9123 25.1006 23.6855 25.1006C23.1462 25.1006 22.7077 24.6758 22.7077 24.1533C22.7077 23.6309 22.9698 23.2842 23.4889 23.1426C24.8901 22.7617 26.3216 22.4785 28.4183 22.4785C31.6895 22.4785 34.8498 23.2646 37.3397 24.7002C37.748 24.9346 37.9093 25.2373 37.9093 25.6621C37.9042 26.1895 37.4808 26.6143 36.9315 26.6143ZM38.494 22.8936C38.2319 22.8936 38.0706 22.8301 37.8438 22.7031C34.255 20.6279 27.8387 20.1299 23.6855 21.2529C23.504 21.3018 23.2772 21.3799 23.0353 21.3799C22.37 21.3799 21.8609 20.877 21.8609 20.2275C21.8609 19.5635 22.2843 19.1875 22.7379 19.0605C24.5121 18.5576 26.498 18.3184 28.6603 18.3184C32.3397 18.3184 36.1956 19.0605 39.0131 20.6523C39.4062 20.8721 39.6633 21.1748 39.6633 21.7559C39.6633 22.4199 39.1089 22.8936 38.494 22.8936Z" fill="black"/>
<path d="M61.622 25.458V19.942H63.484V25.584C63.484 26.06 63.3953 26.5127 63.218 26.942C63.05 27.3713 62.7933 27.754 62.448 28.09C62.112 28.4167 61.692 28.6733 61.188 28.86C60.6933 29.0467 60.1147 29.14 59.452 29.14C58.9387 29.14 58.4393 29.0747 57.954 28.944C57.478 28.8133 57.0487 28.6173 56.666 28.356C56.2833 28.0853 55.9753 27.7493 55.742 27.348C55.5087 26.9373 55.3827 26.4567 55.364 25.906H57.128C57.2307 26.438 57.492 26.844 57.912 27.124C58.3413 27.3947 58.8547 27.53 59.452 27.53C59.9653 27.53 60.3807 27.4413 60.698 27.264C61.0153 27.0773 61.2487 26.83 61.398 26.522C61.5473 26.2047 61.622 25.85 61.622 25.458ZM69.4986 29.168C68.6213 29.168 67.8466 29.028 67.1746 28.748C66.512 28.468 65.994 28.062 65.6206 27.53C65.2473 26.9887 65.0606 26.326 65.0606 25.542C65.0606 24.758 65.2473 24.0953 65.6206 23.554C65.994 23.0033 66.512 22.588 67.1746 22.308C67.8466 22.028 68.6213 21.888 69.4986 21.888C70.376 21.888 71.1413 22.028 71.7946 22.308C72.4573 22.588 72.9753 23.0033 73.3486 23.554C73.722 24.0953 73.9086 24.758 73.9086 25.542C73.9086 26.326 73.722 26.9887 73.3486 27.53C72.9753 28.062 72.4573 28.468 71.7946 28.748C71.1413 29.028 70.376 29.168 69.4986 29.168ZM69.4986 27.768C69.984 27.768 70.418 27.684 70.8006 27.516C71.1926 27.3387 71.5006 27.0867 71.7246 26.76C71.9486 26.424 72.0606 26.018 72.0606 25.542C72.0606 25.066 71.9486 24.66 71.7246 24.324C71.5006 23.9787 71.1973 23.7173 70.8146 23.54C70.432 23.3627 69.9933 23.274 69.4986 23.274C69.0133 23.274 68.5746 23.3627 68.1826 23.54C67.7906 23.7173 67.478 23.974 67.2446 24.31C67.0206 24.646 66.9086 25.0567 66.9086 25.542C66.9086 26.018 67.0206 26.424 67.2446 26.76C67.4686 27.0867 67.7766 27.3387 68.1686 27.516C68.5606 27.684 69.004 27.768 69.4986 27.768ZM77.3401 18.99V20.586H75.2261V18.99H77.3401ZM75.3661 22.042H77.1861V29H75.3661V22.042ZM79.0002 22.042H80.8202V29H79.0002V22.042ZM84.0542 21.888C84.4835 21.888 84.8802 21.944 85.2442 22.056C85.6082 22.168 85.9255 22.3407 86.1962 22.574C86.4668 22.8073 86.6768 23.106 86.8262 23.47C86.9755 23.8247 87.0502 24.2493 87.0502 24.744V29H85.2302V25.066C85.2302 24.478 85.0855 24.0487 84.7962 23.778C84.5162 23.498 84.0542 23.358 83.4102 23.358C82.9248 23.358 82.4862 23.4513 82.0942 23.638C81.7022 23.8247 81.3848 24.0627 81.1422 24.352C80.8995 24.632 80.7595 24.926 80.7222 25.234L80.7082 24.52C80.7548 24.1933 80.8622 23.876 81.0302 23.568C81.1982 23.26 81.4222 22.98 81.7022 22.728C81.9915 22.4667 82.3322 22.2613 82.7242 22.112C83.1162 21.9627 83.5595 21.888 84.0542 21.888ZM101.156 27.74L100.582 27.726L102.85 22.042H104.852L101.786 29H100.078L97.8381 23.386H98.4541L96.1441 29H94.4361L91.4541 22.042H93.4561L95.6401 27.74H95.0661L97.1101 22.042H99.1961L101.156 27.74ZM108.006 18.99V20.586H105.892V18.99H108.006ZM106.032 22.042H107.852V29H106.032V22.042ZM109.176 22.042H114.58V23.456H109.176V22.042ZM110.968 20.138H112.788V29H110.968V20.138ZM122.092 29V25.178C122.092 24.7953 122.027 24.478 121.896 24.226C121.766 23.974 121.556 23.7827 121.266 23.652C120.986 23.5213 120.608 23.456 120.132 23.456C119.675 23.456 119.26 23.5447 118.886 23.722C118.513 23.89 118.21 24.114 117.976 24.394C117.743 24.6647 117.612 24.954 117.584 25.262L117.57 24.492C117.617 24.184 117.724 23.876 117.892 23.568C118.06 23.26 118.284 22.98 118.564 22.728C118.844 22.476 119.18 22.2753 119.572 22.126C119.974 21.9673 120.422 21.888 120.916 21.888C121.346 21.888 121.742 21.944 122.106 22.056C122.47 22.1587 122.788 22.322 123.058 22.546C123.329 22.77 123.539 23.05 123.688 23.386C123.838 23.7127 123.912 24.1 123.912 24.548V29H122.092ZM115.862 29V19.242H117.682V29H115.862ZM128.664 26.69H130.344C130.446 27.0073 130.656 27.2687 130.974 27.474C131.3 27.67 131.725 27.768 132.248 27.768C132.602 27.768 132.878 27.7353 133.074 27.67C133.27 27.6047 133.405 27.5113 133.48 27.39C133.554 27.2593 133.592 27.1147 133.592 26.956C133.592 26.76 133.531 26.6107 133.41 26.508C133.288 26.396 133.102 26.3073 132.85 26.242C132.598 26.1767 132.276 26.116 131.884 26.06C131.492 25.9947 131.114 25.9153 130.75 25.822C130.386 25.7287 130.064 25.6073 129.784 25.458C129.504 25.2993 129.28 25.1033 129.112 24.87C128.953 24.6273 128.874 24.3333 128.874 23.988C128.874 23.652 128.953 23.3533 129.112 23.092C129.28 22.8307 129.508 22.6113 129.798 22.434C130.096 22.2567 130.442 22.1213 130.834 22.028C131.235 21.9347 131.664 21.888 132.122 21.888C132.812 21.888 133.386 21.9907 133.844 22.196C134.301 22.392 134.642 22.672 134.866 23.036C135.099 23.3907 135.216 23.8013 135.216 24.268H133.606C133.531 23.9227 133.382 23.6753 133.158 23.526C132.934 23.3673 132.588 23.288 132.122 23.288C131.664 23.288 131.319 23.358 131.086 23.498C130.852 23.638 130.736 23.8293 130.736 24.072C130.736 24.268 130.806 24.422 130.946 24.534C131.095 24.6367 131.31 24.7207 131.59 24.786C131.879 24.8513 132.238 24.9213 132.668 24.996C133.032 25.0707 133.377 25.1547 133.704 25.248C134.04 25.3413 134.338 25.4627 134.6 25.612C134.861 25.752 135.066 25.9433 135.216 26.186C135.374 26.4193 135.454 26.718 135.454 27.082C135.454 27.53 135.323 27.908 135.062 28.216C134.81 28.524 134.446 28.762 133.97 28.93C133.494 29.0887 132.924 29.168 132.262 29.168C131.674 29.168 131.165 29.1073 130.736 28.986C130.316 28.8553 129.966 28.692 129.686 28.496C129.406 28.2907 129.186 28.076 129.028 27.852C128.878 27.6187 128.776 27.3993 128.72 27.194C128.664 26.9887 128.645 26.8207 128.664 26.69ZM141.914 29.168C141.298 29.168 140.771 29.0607 140.332 28.846C139.903 28.622 139.553 28.3327 139.282 27.978C139.011 27.614 138.811 27.2173 138.68 26.788C138.549 26.3587 138.484 25.9387 138.484 25.528C138.484 25.0147 138.545 24.5387 138.666 24.1C138.797 23.6613 138.997 23.2787 139.268 22.952C139.539 22.616 139.889 22.3547 140.318 22.168C140.757 21.9813 141.289 21.888 141.914 21.888C142.614 21.888 143.244 22.042 143.804 22.35C144.364 22.658 144.807 23.0873 145.134 23.638C145.47 24.1793 145.638 24.8093 145.638 25.528C145.638 26.2653 145.47 26.9093 145.134 27.46C144.798 28.0013 144.35 28.4213 143.79 28.72C143.23 29.0187 142.605 29.168 141.914 29.168ZM141.326 27.754C141.821 27.754 142.25 27.6607 142.614 27.474C142.987 27.2873 143.272 27.0307 143.468 26.704C143.673 26.368 143.776 25.976 143.776 25.528C143.776 24.856 143.561 24.3147 143.132 23.904C142.712 23.4933 142.11 23.288 141.326 23.288C140.831 23.288 140.379 23.3767 139.968 23.554C139.567 23.7313 139.249 23.988 139.016 24.324C138.783 24.6507 138.666 25.052 138.666 25.528C138.666 25.976 138.773 26.368 138.988 26.704C139.203 27.0307 139.511 27.2873 139.912 27.474C140.313 27.6607 140.785 27.754 141.326 27.754ZM136.846 22.042H138.582L138.666 23.89V31.8H136.846V22.042ZM151.079 29.168C150.201 29.168 149.427 29.028 148.755 28.748C148.092 28.468 147.574 28.062 147.201 27.53C146.827 26.9887 146.641 26.326 146.641 25.542C146.641 24.758 146.827 24.0953 147.201 23.554C147.574 23.0033 148.092 22.588 148.755 22.308C149.427 22.028 150.201 21.888 151.079 21.888C151.956 21.888 152.721 22.028 153.375 22.308C154.037 22.588 154.555 23.0033 154.929 23.554C155.302 24.0953 155.489 24.758 155.489 25.542C155.489 26.326 155.302 26.9887 154.929 27.53C154.555 28.062 154.037 28.468 153.375 28.748C152.721 29.028 151.956 29.168 151.079 29.168ZM151.079 27.768C151.564 27.768 151.998 27.684 152.381 27.516C152.773 27.3387 153.081 27.0867 153.305 26.76C153.529 26.424 153.641 26.018 153.641 25.542C153.641 25.066 153.529 24.66 153.305 24.324C153.081 23.9787 152.777 23.7173 152.395 23.54C152.012 23.3627 151.573 23.274 151.079 23.274C150.593 23.274 150.155 23.3627 149.763 23.54C149.371 23.7173 149.058 23.974 148.825 24.31C148.601 24.646 148.489 25.0567 148.489 25.542C148.489 26.018 148.601 26.424 148.825 26.76C149.049 27.0867 149.357 27.3387 149.749 27.516C150.141 27.684 150.584 27.768 151.079 27.768ZM156.248 22.042H161.652V23.456H156.248V22.042ZM158.04 20.138H159.86V29H158.04V20.138ZM164.895 18.99V20.586H162.781V18.99H164.895ZM162.921 22.042H164.741V29H162.921V22.042ZM166.065 22.168H171.665V23.554H166.065V22.168ZM170.321 19.242H171.763V20.712H170.755C170.484 20.7027 170.251 20.7307 170.055 20.796C169.859 20.8613 169.71 20.9827 169.607 21.16C169.504 21.328 169.453 21.5707 169.453 21.888V29H167.633V21.664C167.633 21.104 167.736 20.6467 167.941 20.292C168.146 19.928 168.45 19.662 168.851 19.494C169.252 19.326 169.742 19.242 170.321 19.242ZM172.173 22.042H174.105L177.115 28.72L175.547 29L172.173 22.042ZM180.685 22.042L175.869 31.8H173.979L176.037 27.964L178.739 22.042H180.685Z" fill="#404756"/>
</svg>
