<svg version="1.1" id="Layer_1" xmlns="http://www.w3.org/2000/svg" xmlns:xlink="http://www.w3.org/1999/xlink" x="0px" y="0px"
	 width="100%" viewBox="0 0 512 512" enable-background="new 0 0 512 512" xml:space="preserve">
<path fill="#F2C4C2" opacity="1.000000" stroke="none" 
	d="
M513.000000,162.000000 
	C513.000000,278.944000 513.000000,395.887970 513.000000,512.916016 
	C342.333344,512.916016 171.666687,512.916016 1.000007,512.914673 
	C1.000000,497.587494 1.000000,482.261597 1.241865,466.131653 
	C3.679225,467.885742 5.562702,470.821472 8.123429,472.937653 
	C20.173006,482.895294 34.077946,483.347534 48.007030,478.756256 
	C58.436104,475.318665 65.553642,467.767975 65.183990,455.000580 
	C64.528305,432.354187 65.017509,409.675110 64.976479,387.009766 
	C64.971703,384.370911 65.240997,382.833801 68.431297,381.626251 
	C82.828423,376.176758 96.992912,370.115021 111.271217,364.348145 
	C116.938026,362.059357 122.682564,359.963074 128.663391,357.675201 
	C128.663391,373.114441 128.663391,387.978699 128.663391,403.044647 
	C127.667641,402.898956 127.018333,402.855835 126.395035,402.705139 
	C112.816643,399.422150 99.941948,399.596130 88.241791,408.868042 
	C78.531883,416.562775 78.267448,433.189972 87.952034,440.966980 
	C100.097878,450.720520 113.898415,451.284607 127.885727,446.782867 
	C136.628296,443.969147 144.635468,438.422058 144.822708,428.141357 
	C145.335495,399.985657 145.018600,371.814423 144.977631,343.649414 
	C144.971222,339.242859 142.442657,337.002380 138.154312,337.057495 
	C135.738647,337.088562 133.148087,337.236023 130.946594,338.111389 
	C105.491211,348.232941 80.116463,358.557281 54.661907,368.680908 
	C50.564419,370.310516 48.898972,372.802887 48.937359,377.208496 
	C49.089817,394.706177 49.000042,412.205963 49.000015,429.704987 
	C49.000015,431.427368 49.000015,433.149780 49.000015,434.263031 
	C41.751705,433.811615 35.231693,433.017914 28.721544,433.091919 
	C19.204653,433.200104 11.127947,436.845764 5.014117,444.426270 
	C3.904657,445.801880 2.349445,446.817963 1.000009,448.000000 
	C1.000000,299.063354 1.000000,150.126740 1.000000,1.095050 
	C171.666641,1.095050 342.333313,1.095050 513.000000,1.093497 
	C513.000000,22.749393 513.000000,44.406845 512.720215,66.876633 
	C506.394470,62.463440 500.502777,65.607109 494.572784,67.988251 
	C470.511993,77.649666 446.471771,87.363655 422.349152,96.868416 
	C418.298828,98.464317 416.932007,100.970581 416.956238,105.081665 
	C417.059357,122.578430 417.000031,140.076157 417.000000,157.573532 
	C417.000000,159.328903 417.000000,161.084274 417.000000,163.173859 
	C415.551880,162.848740 414.775330,162.665405 413.994904,162.500534 
	C400.596832,159.670074 387.848267,159.618347 376.277039,168.840408 
	C366.525940,176.611847 366.308197,193.211807 375.903015,200.946167 
	C388.016724,210.710953 401.846069,211.338943 415.825897,206.794312 
	C426.308655,203.386505 433.600037,195.814270 433.192688,182.693466 
	C432.494904,160.218506 433.031921,137.706085 432.960815,115.209679 
	C432.951660,112.308212 433.392853,110.754036 436.701996,109.499229 
	C451.093750,104.042000 465.247986,97.961288 479.527435,92.203583 
	C485.132874,89.943382 490.840179,87.935844 496.767029,85.713531 
	C496.767029,101.240143 496.767029,116.021278 496.767029,130.834656 
	C478.545715,128.158829 474.869537,128.004898 466.573364,131.048737 
	C457.647766,134.323486 450.240570,139.423843 449.052795,149.845810 
	C447.702789,161.691010 452.863342,168.546432 464.012421,174.052963 
	C470.838928,177.424591 478.031006,177.194458 485.242371,176.964218 
	C494.778259,176.659775 502.863983,173.163269 508.987701,165.571152 
	C510.096588,164.196426 511.651184,163.181198 513.000000,162.000000 
M381.543762,381.943634 
	C381.730194,381.650940 381.916626,381.358215 382.710327,380.767578 
	C398.387787,363.338806 406.755371,342.544617 408.806244,319.553192 
	C410.844574,296.702118 407.818237,274.515717 395.172943,254.470078 
	C388.499084,243.890610 380.791412,234.389694 370.649078,226.909042 
	C354.084869,214.691864 335.732666,208.187576 314.706879,208.209351 
	C313.134216,204.276917 311.550720,200.348785 309.990936,196.411255 
	C305.257935,184.463333 300.534088,172.511795 296.285400,160.117355 
	C298.774994,157.975891 301.296570,155.870285 303.747986,153.685974 
	C310.154602,147.977432 316.417755,142.102173 322.943665,136.534348 
	C334.461914,126.707054 345.595947,116.547325 353.834381,103.659981 
	C364.420746,87.099777 370.474670,69.585541 367.108734,49.426918 
	C362.573120,22.263323 336.615814,-0.616973 304.643341,4.185735 
	C284.367737,7.231406 268.086121,18.190281 256.166321,34.712036 
	C242.211533,54.054436 235.675415,76.032799 236.032608,99.932487 
	C236.158539,108.359169 236.401794,116.801186 237.077042,125.197144 
	C237.610245,131.826782 238.887024,138.396622 239.228836,145.234558 
	C227.122025,158.339890 214.720383,171.187576 202.984528,184.617065 
	C188.944397,200.683350 177.922318,218.709320 169.724319,238.497742 
	C164.760513,250.479507 160.935181,262.897583 160.287399,275.650085 
	C159.587952,289.419739 160.078445,303.514008 162.282806,317.104523 
	C165.513306,337.021423 174.302704,354.970520 187.764771,370.189972 
	C201.530823,385.753052 218.091095,397.449371 237.494568,405.305481 
	C255.593781,412.633514 274.339691,416.211334 293.707428,416.962677 
	C298.107300,417.133362 302.540619,416.441895 306.991821,417.065643 
	C306.663330,425.836029 307.320251,434.785461 305.766998,443.333313 
	C303.631561,455.085083 297.409637,462.446533 281.793427,461.022552 
	C272.874115,460.209198 262.687286,450.891785 262.910339,440.220367 
	C262.981232,436.827789 262.295990,433.339081 261.451111,430.023163 
	C259.130920,420.917267 249.782684,411.797150 235.831604,412.833984 
	C224.289276,413.691864 214.204269,423.196045 213.951080,434.751465 
	C213.751038,443.881775 214.126709,452.924194 217.069290,461.623138 
	C221.424957,474.499512 228.477020,485.534271 239.289124,494.121002 
	C254.163483,505.933868 270.974487,510.699249 289.861420,510.127716 
	C306.285461,509.630676 320.329224,503.731445 332.282349,493.054352 
	C347.403381,479.547455 354.328064,461.675140 355.798492,441.954193 
	C356.786621,428.701782 355.888580,415.308685 356.207031,401.362335 
	C363.957001,395.518860 371.706970,389.675385 379.713959,383.743195 
	C379.713959,383.743195 379.819305,383.492554 380.233429,383.209351 
	C380.518555,382.821564 380.803680,382.433807 381.023468,382.032745 
	C381.023468,382.032745 381.030548,382.099060 381.543762,381.943634 
M160.152298,158.948410 
	C161.885788,158.039795 163.648560,157.182510 165.347519,156.213348 
	C171.545883,152.677475 176.785675,147.885895 176.869476,140.443512 
	C177.188339,112.125206 177.027161,83.801102 176.964798,55.479332 
	C176.955780,51.385010 174.575607,49.051586 170.487350,49.067810 
	C167.911835,49.078037 165.144226,49.235668 162.794647,50.165607 
	C137.481995,60.184078 112.251450,70.409828 86.955490,80.470856 
	C82.537758,82.227921 80.850555,85.040108 80.912338,89.839218 
	C81.135345,107.162689 81.006294,124.490776 80.990173,141.817093 
	C80.988579,143.528549 80.850090,145.239883 80.772339,147.015106 
	C67.943069,144.168396 56.121883,143.403061 44.438263,149.779831 
	C30.024200,157.646835 29.149620,177.333923 41.276215,185.898422 
	C54.329403,195.117325 68.173782,195.408508 82.244629,189.780472 
	C92.293304,185.761185 97.481018,178.208176 97.172310,166.492447 
	C96.580093,144.017136 97.016472,121.515114 96.977921,99.024261 
	C96.973427,96.398949 97.207100,94.830399 100.416107,93.632042 
	C113.161163,88.872551 125.651909,83.435875 138.275894,78.346901 
	C145.596466,75.395821 152.991333,72.629051 160.690811,69.648491 
	C160.690811,85.102966 160.690811,99.967018 160.690811,114.770935 
	C160.217896,114.859940 160.044739,114.941284 159.892105,114.912743 
	C159.258850,114.794296 158.632812,114.637787 158.002289,114.503983 
	C144.607040,111.661316 131.850571,111.598457 120.296227,120.835266 
	C110.726959,128.485153 109.966133,144.678238 119.505951,152.654694 
	C131.294785,162.511581 145.058777,163.169510 160.152298,158.948410 
z"/>
<path fill="#F79235" opacity="1.000000" stroke="none" 
	d="
M1.000009,448.467957 
	C2.349445,446.817963 3.904657,445.801880 5.014117,444.426270 
	C11.127947,436.845764 19.204653,433.200104 28.721544,433.091919 
	C35.231693,433.017914 41.751705,433.811615 49.000015,434.263031 
	C49.000015,433.149780 49.000015,431.427368 49.000015,429.704987 
	C49.000042,412.205963 49.089817,394.706177 48.937359,377.208496 
	C48.898972,372.802887 50.564419,370.310516 54.661907,368.680908 
	C80.116463,358.557281 105.491211,348.232941 130.946594,338.111389 
	C133.148087,337.236023 135.738647,337.088562 138.154312,337.057495 
	C142.442657,337.002380 144.971222,339.242859 144.977631,343.649414 
	C145.018600,371.814423 145.335495,399.985657 144.822708,428.141357 
	C144.635468,438.422058 136.628296,443.969147 127.885727,446.782867 
	C113.898415,451.284607 100.097878,450.720520 87.952034,440.966980 
	C78.267448,433.189972 78.531883,416.562775 88.241791,408.868042 
	C99.941948,399.596130 112.816643,399.422150 126.395035,402.705139 
	C127.018333,402.855835 127.667641,402.898956 128.663391,403.044647 
	C128.663391,387.978699 128.663391,373.114441 128.663391,357.675201 
	C122.682564,359.963074 116.938026,362.059357 111.271217,364.348145 
	C96.992912,370.115021 82.828423,376.176758 68.431297,381.626251 
	C65.240997,382.833801 64.971703,384.370911 64.976479,387.009766 
	C65.017509,409.675110 64.528305,432.354187 65.183990,455.000580 
	C65.553642,467.767975 58.436104,475.318665 48.007030,478.756256 
	C34.077946,483.347534 20.173006,482.895294 8.123429,472.937653 
	C5.562702,470.821472 3.679225,467.885742 1.241865,465.663788 
	C1.000000,460.311951 1.000000,454.623932 1.000009,448.467957 
z"/>
<path fill="#F79235" opacity="1.000000" stroke="none" 
	d="
M513.000000,161.531342 
	C511.651184,163.181198 510.096588,164.196426 508.987701,165.571152 
	C502.863983,173.163269 494.778259,176.659775 485.242371,176.964218 
	C478.031006,177.194458 470.838928,177.424591 464.012421,174.052963 
	C452.863342,168.546432 447.702789,161.691010 449.052795,149.845810 
	C450.240570,139.423843 457.647766,134.323486 466.573364,131.048737 
	C474.869537,128.004898 478.545715,128.158829 496.767029,130.834656 
	C496.767029,116.021278 496.767029,101.240143 496.767029,85.713531 
	C490.840179,87.935844 485.132874,89.943382 479.527435,92.203583 
	C465.247986,97.961288 451.093750,104.042000 436.701996,109.499229 
	C433.392853,110.754036 432.951660,112.308212 432.960815,115.209679 
	C433.031921,137.706085 432.494904,160.218506 433.192688,182.693466 
	C433.600037,195.814270 426.308655,203.386505 415.825897,206.794312 
	C401.846069,211.338943 388.016724,210.710953 375.903015,200.946167 
	C366.308197,193.211807 366.525940,176.611847 376.277039,168.840408 
	C387.848267,159.618347 400.596832,159.670074 413.994904,162.500534 
	C414.775330,162.665405 415.551880,162.848740 417.000000,163.173859 
	C417.000000,161.084274 417.000000,159.328903 417.000000,157.573532 
	C417.000031,140.076157 417.059357,122.578430 416.956238,105.081665 
	C416.932007,100.970581 418.298828,98.464317 422.349152,96.868416 
	C446.471771,87.363655 470.511993,77.649666 494.572784,67.988251 
	C500.502777,65.607109 506.394470,62.463440 512.720215,67.344490 
	C513.000000,98.354225 513.000000,129.708450 513.000000,161.531342 
z"/>
<path fill="#67D1B1" opacity="1.000000" stroke="none" 
	d="
M315.020233,208.849304 
	C335.732666,208.187576 354.084869,214.691864 370.649078,226.909042 
	C380.791412,234.389694 388.499084,243.890610 395.172943,254.470078 
	C407.818237,274.515717 410.844574,296.702118 408.806244,319.553192 
	C406.755371,342.544617 398.387787,363.338806 382.185944,381.040558 
	C381.451233,381.575378 381.240906,381.837219 381.030579,382.099060 
	C381.030548,382.099060 381.023468,382.032745 380.795135,382.118561 
	C380.317627,382.633759 380.068451,383.063141 379.819275,383.492554 
	C379.819305,383.492554 379.713959,383.743195 379.229614,383.654755 
	C377.361115,384.026062 375.849609,384.264984 374.611938,384.978638 
	C356.119568,395.641907 335.935303,400.197449 314.873383,400.905579 
	C288.641418,401.787567 263.993164,395.316498 240.961151,382.944611 
	C191.105164,356.163910 171.012619,306.036377 178.573257,254.820374 
	C181.970078,231.810150 190.950851,210.796921 204.272781,191.978516 
	C214.726334,177.211945 226.783951,163.583130 238.040558,149.378815 
	C238.982758,148.189896 239.251770,146.467529 239.833557,144.993011 
	C238.887024,138.396622 237.610245,131.826782 237.077042,125.197144 
	C236.401794,116.801186 236.158539,108.359169 236.032608,99.932487 
	C235.675415,76.032799 242.211533,54.054436 256.166321,34.712036 
	C268.086121,18.190281 284.367737,7.231406 304.643341,4.185735 
	C336.615814,-0.616973 362.573120,22.263323 367.108734,49.426918 
	C370.474670,69.585541 364.420746,87.099777 353.834381,103.659981 
	C345.595947,116.547325 334.461914,126.707054 322.943665,136.534348 
	C316.417755,142.102173 310.154602,147.977432 303.747986,153.685974 
	C301.296570,155.870285 298.774994,157.975891 295.719910,160.470825 
	C288.695038,166.511444 282.028412,171.983261 275.834198,177.945831 
	C269.545837,183.999054 263.723694,190.536591 257.439148,197.051178 
	C243.984131,211.005188 231.939651,225.715897 222.423645,242.262924 
	C211.363327,261.495300 206.149796,282.014282 209.919373,304.411285 
	C213.969162,328.473206 227.601791,345.204865 248.738663,356.251678 
	C266.029816,365.288513 284.420197,369.247467 304.400696,366.932251 
	C314.511444,366.731781 323.523163,363.882660 331.895081,359.281494 
	C339.798737,354.937622 347.156250,349.783295 351.010406,340.644958 
	C352.284882,338.543518 353.715210,336.890442 354.471100,334.971710 
	C361.986725,315.893951 363.567780,296.991028 352.221222,278.669098 
	C347.586578,271.185303 341.812286,264.922546 332.965240,261.696777 
	C326.578156,257.036743 319.433533,256.537933 312.337769,257.157074 
	C301.694000,258.085663 291.298248,260.135803 283.547180,269.138000 
	C278.189240,275.716156 274.325653,282.553375 273.812653,291.091888 
	C273.510376,296.122833 272.019287,301.082306 270.764832,305.898926 
	C269.485016,305.760162 268.500641,305.762787 267.521790,305.837860 
	C254.844849,306.809509 242.633377,296.415161 242.061478,283.780090 
	C241.202530,264.803711 246.050598,247.316452 256.387573,231.341705 
	C257.294098,229.940750 257.589050,228.144043 258.257996,226.370697 
	C258.347931,226.210236 258.697845,226.096649 258.754028,226.173721 
	C258.810211,226.250793 258.993042,226.190002 258.993042,226.190002 
	C258.993042,226.190002 258.833038,226.010513 259.005432,225.700150 
	C261.779358,223.871902 264.380859,222.354004 267.324585,220.770020 
	C282.488312,212.905640 298.343231,209.235565 315.020233,208.849304 
M244.619553,142.289200 
	C244.367340,142.491592 244.165207,142.735489 243.888367,143.062271 
	C243.888367,143.062271 243.981277,142.988831 244.365768,142.709045 
	C244.607269,142.499634 244.811096,142.258408 245.096909,141.930359 
	C245.096909,141.930359 245.017136,142.024551 244.619553,142.289200 
M302.999481,88.499496 
	C309.981598,81.481934 315.768066,73.687141 318.537537,64.016663 
	C319.578522,60.381580 319.856659,56.104607 316.314087,54.250736 
	C313.932312,53.004311 310.057495,53.611526 307.218933,54.528881 
	C304.576660,55.382782 302.123657,57.449131 300.101135,59.490738 
	C288.051300,71.654305 284.439941,86.746132 285.093903,104.538422 
	C291.381592,98.925011 296.939789,93.962852 302.999481,88.499496 
z"/>
<path fill="#02B27D" opacity="1.000000" stroke="none" 
	d="
M355.834412,401.978546 
	C355.888580,415.308685 356.786621,428.701782 355.798492,441.954193 
	C354.328064,461.675140 347.403381,479.547455 332.282349,493.054352 
	C320.329224,503.731445 306.285461,509.630676 289.861420,510.127716 
	C270.974487,510.699249 254.163483,505.933868 239.289124,494.121002 
	C228.477020,485.534271 221.424957,474.499512 217.069290,461.623138 
	C214.126709,452.924194 213.751038,443.881775 213.951080,434.751465 
	C214.204269,423.196045 224.289276,413.691864 235.831604,412.833984 
	C249.782684,411.797150 259.130920,420.917267 261.451111,430.023163 
	C262.295990,433.339081 262.981232,436.827789 262.910339,440.220367 
	C262.687286,450.891785 272.874115,460.209198 281.793427,461.022552 
	C297.409637,462.446533 303.631561,455.085083 305.766998,443.333313 
	C307.320251,434.785461 306.663330,425.836029 307.370850,416.496124 
	C324.538727,413.899628 340.572693,409.270233 355.834412,401.978546 
z"/>
<path fill="#F79235" opacity="1.000000" stroke="none" 
	d="
M159.748611,158.977509 
	C145.058777,163.169510 131.294785,162.511581 119.505951,152.654694 
	C109.966133,144.678238 110.726959,128.485153 120.296227,120.835266 
	C131.850571,111.598457 144.607040,111.661316 158.002289,114.503983 
	C158.632812,114.637787 159.258850,114.794296 159.892105,114.912743 
	C160.044739,114.941284 160.217896,114.859940 160.690811,114.770935 
	C160.690811,99.967018 160.690811,85.102966 160.690811,69.648491 
	C152.991333,72.629051 145.596466,75.395821 138.275894,78.346901 
	C125.651909,83.435875 113.161163,88.872551 100.416107,93.632042 
	C97.207100,94.830399 96.973427,96.398949 96.977921,99.024261 
	C97.016472,121.515114 96.580093,144.017136 97.172310,166.492447 
	C97.481018,178.208176 92.293304,185.761185 82.244629,189.780472 
	C68.173782,195.408508 54.329403,195.117325 41.276215,185.898422 
	C29.149620,177.333923 30.024200,157.646835 44.438263,149.779831 
	C56.121883,143.403061 67.943069,144.168396 80.772339,147.015106 
	C80.850090,145.239883 80.988579,143.528549 80.990173,141.817093 
	C81.006294,124.490776 81.135345,107.162689 80.912338,89.839218 
	C80.850555,85.040108 82.537758,82.227921 86.955490,80.470856 
	C112.251450,70.409828 137.481995,60.184078 162.794647,50.165607 
	C165.144226,49.235668 167.911835,49.078037 170.487350,49.067810 
	C174.575607,49.051586 176.955780,51.385010 176.964798,55.479332 
	C177.027161,83.801102 177.188339,112.125206 176.869476,140.443512 
	C176.785675,147.885895 171.545883,152.677475 165.347519,156.213348 
	C163.648560,157.182510 161.885788,158.039795 159.748611,158.977509 
z"/>
<path fill="#35C298" opacity="1.000000" stroke="none" 
	d="
M356.020721,401.670441 
	C340.572693,409.270233 324.538727,413.899628 307.354187,416.036926 
	C302.540619,416.441895 298.107300,417.133362 293.707428,416.962677 
	C274.339691,416.211334 255.593781,412.633514 237.494568,405.305481 
	C218.091095,397.449371 201.530823,385.753052 187.764771,370.189972 
	C174.302704,354.970520 165.513306,337.021423 162.282806,317.104523 
	C160.078445,303.514008 159.587952,289.419739 160.287399,275.650085 
	C160.935181,262.897583 164.760513,250.479507 169.724319,238.497742 
	C177.922318,218.709320 188.944397,200.683350 202.984528,184.617065 
	C214.720383,171.187576 227.122025,158.339890 239.531189,145.113785 
	C239.251770,146.467529 238.982758,148.189896 238.040558,149.378815 
	C226.783951,163.583130 214.726334,177.211945 204.272781,191.978516 
	C190.950851,210.796921 181.970078,231.810150 178.573257,254.820374 
	C171.012619,306.036377 191.105164,356.163910 240.961151,382.944611 
	C263.993164,395.316498 288.641418,401.787567 314.873383,400.905579 
	C335.935303,400.197449 356.119568,395.641907 374.611938,384.978638 
	C375.849609,384.264984 377.361115,384.026062 379.101105,383.699097 
	C371.706970,389.675385 363.957001,395.518860 356.020721,401.670441 
z"/>
<path fill="#03B27D" opacity="1.000000" stroke="none" 
	d="
M314.863556,208.529327 
	C298.343231,209.235565 282.488312,212.905640 267.175690,220.451721 
	C263.688812,212.420364 260.693085,204.641190 257.697388,196.862030 
	C263.723694,190.536591 269.545837,183.999054 275.834198,177.945831 
	C282.028412,171.983261 288.695038,166.511444 295.480530,160.692993 
	C300.534088,172.511795 305.257935,184.463333 309.990936,196.411255 
	C311.550720,200.348785 313.134216,204.276917 314.863556,208.529327 
z"/>
<path fill="#35C298" opacity="1.000000" stroke="none" 
	d="
M380.026367,383.350952 
	C380.068451,383.063141 380.317627,382.633759 380.827820,382.125214 
	C380.803680,382.433807 380.518555,382.821564 380.026367,383.350952 
z"/>
<path fill="#35C298" opacity="1.000000" stroke="none" 
	d="
M381.287170,382.021362 
	C381.240906,381.837219 381.451233,381.575378 381.882294,381.189514 
	C381.916626,381.358215 381.730194,381.650940 381.287170,382.021362 
z"/>
<path fill="#F2C4C2" opacity="1.000000" stroke="none" 
	d="
M257.439148,197.051178 
	C260.693085,204.641190 263.688812,212.420364 266.833435,220.517822 
	C264.380859,222.354004 261.779358,223.871902 258.952576,225.691833 
	C258.727325,225.993896 258.697845,226.096649 258.697845,226.096649 
	C258.697845,226.096649 258.347931,226.210236 257.973572,226.532532 
	C251.641815,232.818726 244.911453,238.201767 239.897568,244.874573 
	C231.065323,256.629120 226.193359,270.223969 225.100250,285.467438 
	C224.812424,287.328766 224.642487,288.770264 224.352325,290.187195 
	C222.360901,299.912476 226.740997,313.904388 237.174866,318.499207 
	C242.969833,319.553040 248.601883,321.021057 254.177048,320.829926 
	C261.162720,320.590454 270.666321,312.172363 271.062866,306.073944 
	C272.019287,301.082306 273.510376,296.122833 273.812653,291.091888 
	C274.325653,282.553375 278.189240,275.716156 283.622620,269.518860 
	C284.646027,271.446716 285.471039,273.075562 285.880737,274.802856 
	C290.616302,294.769257 295.659027,314.673828 299.827209,334.759338 
	C302.013397,345.294159 302.637482,356.153137 303.967010,366.865723 
	C284.420197,369.247467 266.029816,365.288513 248.738663,356.251678 
	C227.601791,345.204865 213.969162,328.473206 209.919373,304.411285 
	C206.149796,282.014282 211.363327,261.495300 222.423645,242.262924 
	C231.939651,225.715897 243.984131,211.005188 257.439148,197.051178 
z"/>
<path fill="#02B27D" opacity="1.000000" stroke="none" 
	d="
M304.400696,366.932251 
	C302.637482,356.153137 302.013397,345.294159 299.827209,334.759338 
	C295.659027,314.673828 290.616302,294.769257 285.880737,274.802856 
	C285.471039,273.075562 284.646027,271.446716 283.938538,269.391296 
	C291.298248,260.135803 301.694000,258.085663 312.337769,257.157074 
	C319.433533,256.537933 326.578156,257.036743 333.043274,262.063171 
	C337.538757,279.694458 341.977020,296.599823 345.920380,313.619873 
	C348.008789,322.633698 349.236816,331.846893 350.853271,340.970062 
	C347.156250,349.783295 339.798737,354.937622 331.895081,359.281494 
	C323.523163,363.882660 314.511444,366.731781 304.400696,366.932251 
z"/>
<path fill="#36C398" opacity="1.000000" stroke="none" 
	d="
M270.764832,305.898926 
	C270.666321,312.172363 261.162720,320.590454 254.177048,320.829926 
	C248.601883,321.021057 242.969833,319.553040 237.113312,318.140503 
	C230.749054,307.450806 227.378891,296.451721 225.162506,285.036255 
	C226.193359,270.223969 231.065323,256.629120 239.897568,244.874573 
	C244.911453,238.201767 251.641815,232.818726 257.883606,226.692993 
	C257.589050,228.144043 257.294098,229.940750 256.387573,231.341705 
	C246.050598,247.316452 241.202530,264.803711 242.061478,283.780090 
	C242.633377,296.415161 254.844849,306.809509 267.521790,305.837860 
	C268.500641,305.762787 269.485016,305.760162 270.764832,305.898926 
z"/>
<path fill="#F2C4C2" opacity="1.000000" stroke="none" 
	d="
M351.010406,340.644958 
	C349.236816,331.846893 348.008789,322.633698 345.920380,313.619873 
	C341.977020,296.599823 337.538757,279.694458 333.228149,262.375000 
	C341.812286,264.922546 347.586578,271.185303 352.221222,278.669098 
	C363.567780,296.991028 361.986725,315.893951 354.471100,334.971710 
	C353.715210,336.890442 352.284882,338.543518 351.010406,340.644958 
z"/>
<path fill="#F2C4C2" opacity="1.000000" stroke="none" 
	d="
M302.748718,88.750092 
	C296.939789,93.962852 291.381592,98.925011 285.093903,104.538422 
	C284.439941,86.746132 288.051300,71.654305 300.101135,59.490738 
	C302.123657,57.449131 304.576660,55.382782 307.218933,54.528881 
	C310.057495,53.611526 313.932312,53.004311 316.314087,54.250736 
	C319.856659,56.104607 319.578522,60.381580 318.537537,64.016663 
	C315.768066,73.687141 309.981598,81.481934 302.748718,88.750092 
z"/>
<path fill="#35C298" opacity="1.000000" stroke="none" 
	d="
M243.981277,142.988831 
	C243.981277,142.988831 243.888367,143.062271 243.944229,143.032013 
	C244.000092,143.001770 243.981277,142.988831 243.981277,142.988831 
z"/>
<path fill="#36C398" opacity="1.000000" stroke="none" 
	d="
M258.754028,226.173721 
	C258.697845,226.096649 258.727325,225.993896 258.780182,226.002197 
	C258.833038,226.010513 258.993042,226.190002 258.993042,226.190002 
	C258.993042,226.190002 258.810211,226.250793 258.754028,226.173721 
z"/>
<path fill="#35C298" opacity="1.000000" stroke="none" 
	d="
M244.006622,143.011322 
	C244.165207,142.735489 244.367340,142.491592 244.809662,142.145691 
	C244.999786,142.002167 244.977280,141.985336 244.977280,141.985336 
	C244.811096,142.258408 244.607269,142.499634 244.173523,142.848938 
	C243.981277,142.988831 244.000092,143.001770 244.006622,143.011322 
z"/>
<path fill="#35C298" opacity="1.000000" stroke="none" 
	d="
M245.008453,142.013367 
	C245.017136,142.024551 245.096909,141.930359 245.037094,141.957855 
	C244.977280,141.985336 244.999786,142.002167 245.008453,142.013367 
z"/>
<path fill="#65D0B0" opacity="1.000000" stroke="none" 
	d="
M225.100250,285.467438 
	C227.378891,296.451721 230.749054,307.450806 236.925140,317.818207 
	C226.740997,313.904388 222.360901,299.912476 224.352325,290.187195 
	C224.642487,288.770264 224.812424,287.328766 225.100250,285.467438 
z"/>
</svg>