<svg width="414" height="896" viewBox="0 0 414 896" fill="none" xmlns="http://www.w3.org/2000/svg">
<rect width="414" height="896" fill="#E9EFFF"/>
<path d="M70.816 154.768H74.056C74.12 155.312 74.368 155.808 74.8 156.256C75.248 156.688 75.832 157.032 76.552 157.288C77.272 157.528 78.08 157.648 78.976 157.648C79.792 157.648 80.464 157.56 80.992 157.384C81.52 157.208 81.912 156.96 82.168 156.64C82.424 156.32 82.552 155.936 82.552 155.488C82.552 155.056 82.392 154.728 82.072 154.504C81.752 154.264 81.248 154.072 80.56 153.928C79.872 153.768 78.968 153.608 77.848 153.448C76.968 153.32 76.136 153.144 75.352 152.92C74.568 152.68 73.872 152.376 73.264 152.008C72.672 151.64 72.2 151.192 71.848 150.664C71.512 150.12 71.344 149.48 71.344 148.744C71.344 147.832 71.6 147.032 72.112 146.344C72.64 145.656 73.416 145.12 74.44 144.736C75.464 144.352 76.72 144.16 78.208 144.16C80.448 144.16 82.168 144.64 83.368 145.6C84.584 146.544 85.176 147.848 85.144 149.512H82.024C81.96 148.568 81.56 147.888 80.824 147.472C80.104 147.056 79.192 146.848 78.088 146.848C77.064 146.848 76.216 147 75.544 147.304C74.888 147.608 74.56 148.128 74.56 148.864C74.56 149.152 74.64 149.408 74.8 149.632C74.96 149.84 75.232 150.024 75.616 150.184C76 150.344 76.52 150.496 77.176 150.64C77.832 150.784 78.648 150.928 79.624 151.072C80.536 151.2 81.36 151.376 82.096 151.6C82.848 151.808 83.488 152.088 84.016 152.44C84.56 152.776 84.976 153.208 85.264 153.736C85.552 154.264 85.696 154.912 85.696 155.68C85.696 156.624 85.448 157.448 84.952 158.152C84.472 158.84 83.72 159.376 82.696 159.76C81.688 160.144 80.376 160.336 78.76 160.336C77.608 160.336 76.592 160.216 75.712 159.976C74.832 159.72 74.072 159.384 73.432 158.968C72.792 158.552 72.272 158.096 71.872 157.6C71.472 157.104 71.184 156.608 71.008 156.112C70.848 155.616 70.784 155.168 70.816 154.768ZM91.6801 142.84V145.576H88.0561V142.84H91.6801ZM88.2961 148.072H91.4161V160H88.2961V148.072ZM93.6859 148.072H102.95V150.496H93.6859V148.072ZM96.7579 144.808H99.8779V160H96.7579V144.808ZM119.913 160.264C118.857 160.264 117.953 160.08 117.201 159.712C116.449 159.328 115.841 158.832 115.377 158.224C114.913 157.6 114.569 156.928 114.345 156.208C114.121 155.472 114.009 154.752 114.009 154.048C114.009 153.168 114.113 152.352 114.321 151.6C114.545 150.848 114.889 150.192 115.353 149.632C115.817 149.056 116.425 148.608 117.177 148.288C117.929 147.968 118.841 147.808 119.913 147.808C121.145 147.808 122.233 148.072 123.177 148.6C124.137 149.112 124.889 149.832 125.433 150.76C125.993 151.688 126.273 152.784 126.273 154.048C126.273 155.28 125.993 156.368 125.433 157.312C124.873 158.24 124.113 158.968 123.153 159.496C122.193 160.008 121.113 160.264 119.913 160.264ZM118.905 157.864C119.753 157.864 120.489 157.704 121.113 157.384C121.737 157.064 122.217 156.624 122.553 156.064C122.905 155.488 123.081 154.816 123.081 154.048C123.081 152.896 122.713 151.968 121.977 151.264C121.257 150.56 120.233 150.208 118.905 150.208C117.977 150.208 117.169 150.36 116.481 150.664C115.793 150.968 115.257 151.408 114.873 151.984C114.505 152.544 114.321 153.232 114.321 154.048C114.321 154.8 114.505 155.464 114.873 156.04C115.241 156.616 115.769 157.064 116.457 157.384C117.145 157.704 117.961 157.864 118.905 157.864ZM114.321 143.272V156.928C114.321 157.44 114.297 157.992 114.249 158.584C114.201 159.16 114.153 159.632 114.105 160H111.201V143.272H114.321ZM134.389 160.264C133.205 160.264 132.125 160.008 131.149 159.496C130.189 158.968 129.421 158.24 128.845 157.312C128.285 156.368 128.005 155.28 128.005 154.048C128.005 152.784 128.293 151.688 128.869 150.76C129.445 149.832 130.221 149.112 131.197 148.6C132.189 148.072 133.309 147.808 134.557 147.808C135.933 147.808 137.037 148.088 137.869 148.648C138.717 149.192 139.333 149.936 139.717 150.88C140.101 151.824 140.293 152.88 140.293 154.048C140.293 154.752 140.181 155.472 139.957 156.208C139.733 156.928 139.389 157.6 138.925 158.224C138.461 158.832 137.853 159.328 137.101 159.712C136.349 160.08 135.445 160.264 134.389 160.264ZM135.397 157.864C136.341 157.864 137.157 157.704 137.845 157.384C138.533 157.064 139.061 156.616 139.429 156.04C139.797 155.464 139.981 154.8 139.981 154.048C139.981 153.232 139.789 152.544 139.405 151.984C139.037 151.408 138.509 150.976 137.821 150.688C137.149 150.384 136.341 150.232 135.397 150.232C134.069 150.232 133.037 150.584 132.301 151.288C131.565 151.976 131.197 152.896 131.197 154.048C131.197 154.816 131.373 155.488 131.725 156.064C132.077 156.624 132.565 157.064 133.189 157.384C133.829 157.704 134.565 157.864 135.397 157.864ZM139.981 148.072H143.101V160H140.197C140.197 160 140.173 159.848 140.125 159.544C140.093 159.224 140.061 158.824 140.029 158.344C139.997 157.864 139.981 157.392 139.981 156.928V148.072ZM160.084 155.296C160.004 156.336 159.668 157.232 159.076 157.984C158.5 158.736 157.7 159.312 156.676 159.712C155.652 160.096 154.436 160.288 153.028 160.288C151.556 160.288 150.236 160.056 149.068 159.592C147.916 159.112 147.004 158.416 146.332 157.504C145.676 156.576 145.348 155.432 145.348 154.072C145.348 152.712 145.676 151.568 146.332 150.64C147.004 149.712 147.916 149.008 149.068 148.528C150.236 148.048 151.556 147.808 153.028 147.808C154.436 147.808 155.644 148.008 156.652 148.408C157.66 148.792 158.452 149.352 159.028 150.088C159.62 150.824 159.964 151.712 160.06 152.752H157.204C156.932 151.952 156.428 151.328 155.692 150.88C154.956 150.432 154.068 150.208 153.028 150.208C152.196 150.208 151.436 150.352 150.748 150.64C150.076 150.928 149.532 151.36 149.116 151.936C148.716 152.496 148.516 153.208 148.516 154.072C148.516 154.92 148.716 155.632 149.116 156.208C149.516 156.768 150.06 157.192 150.748 157.48C151.436 157.752 152.196 157.888 153.028 157.888C154.148 157.888 155.06 157.664 155.764 157.216C156.484 156.768 156.972 156.128 157.228 155.296H160.084ZM162.594 143.272H165.714V160H162.594V143.272ZM175.77 148.072L168.666 154.336L168.738 152.416L176.322 160H172.362L165.786 153.304L171.522 148.072H175.77ZM178.131 163.576L177.699 162.76C177.939 162.408 178.171 162.016 178.395 161.584C178.635 161.152 178.763 160.712 178.779 160.264L177.459 160V157.24H181.131V159.208C181.131 160.344 180.859 161.256 180.315 161.944C179.787 162.648 179.059 163.192 178.131 163.576ZM197.995 160.288C196.939 160.288 196.035 160.104 195.283 159.736C194.547 159.352 193.947 158.856 193.483 158.248C193.019 157.624 192.675 156.944 192.451 156.208C192.227 155.472 192.115 154.752 192.115 154.048C192.115 153.168 192.219 152.352 192.427 151.6C192.651 150.848 192.995 150.192 193.459 149.632C193.923 149.056 194.523 148.608 195.259 148.288C196.011 147.968 196.923 147.808 197.995 147.808C199.195 147.808 200.275 148.072 201.235 148.6C202.195 149.128 202.955 149.864 203.515 150.808C204.091 151.736 204.379 152.816 204.379 154.048C204.379 155.312 204.091 156.416 203.515 157.36C202.939 158.288 202.171 159.008 201.211 159.52C200.251 160.032 199.179 160.288 197.995 160.288ZM196.987 157.864C197.835 157.864 198.571 157.704 199.195 157.384C199.835 157.064 200.323 156.624 200.659 156.064C201.011 155.488 201.187 154.816 201.187 154.048C201.187 152.896 200.819 151.968 200.083 151.264C199.363 150.56 198.331 150.208 196.987 150.208C196.139 150.208 195.363 150.36 194.659 150.664C193.971 150.968 193.427 151.408 193.027 151.984C192.627 152.544 192.427 153.232 192.427 154.048C192.427 154.816 192.611 155.488 192.979 156.064C193.347 156.624 193.875 157.064 194.563 157.384C195.251 157.704 196.059 157.864 196.987 157.864ZM189.307 148.072H192.283L192.427 151.24V164.8H189.307V148.072ZM206.914 143.272H210.034V160H206.914V143.272ZM226.99 160H223.87V148.072H226.99V160ZM224.038 154.264L224.062 155.08C224.03 155.304 223.95 155.632 223.822 156.064C223.694 156.48 223.494 156.928 223.222 157.408C222.966 157.888 222.63 158.352 222.214 158.8C221.798 159.232 221.286 159.592 220.678 159.88C220.07 160.152 219.35 160.288 218.518 160.288C217.862 160.288 217.214 160.208 216.574 160.048C215.95 159.888 215.382 159.624 214.87 159.256C214.358 158.872 213.95 158.36 213.646 157.72C213.342 157.08 213.19 156.272 213.19 155.296V148.072H216.31V154.768C216.31 155.536 216.43 156.144 216.67 156.592C216.926 157.024 217.294 157.328 217.774 157.504C218.254 157.68 218.822 157.768 219.478 157.768C220.342 157.768 221.086 157.584 221.71 157.216C222.334 156.832 222.838 156.368 223.222 155.824C223.622 155.28 223.894 154.76 224.038 154.264ZM235.783 158.176C234.487 158.176 233.343 157.984 232.351 157.6C231.375 157.2 230.615 156.616 230.071 155.848C229.527 155.08 229.255 154.152 229.255 153.064C229.255 151.992 229.519 151.064 230.047 150.28C230.575 149.496 231.327 148.888 232.303 148.456C233.295 148.024 234.455 147.808 235.783 147.808C236.151 147.808 236.503 147.832 236.839 147.88C237.191 147.928 237.535 147.992 237.871 148.072L243.895 148.096V150.448C243.079 150.464 242.247 150.368 241.399 150.16C240.567 149.936 239.831 149.696 239.191 149.44L239.119 149.272C239.663 149.528 240.175 149.848 240.655 150.232C241.135 150.6 241.519 151.032 241.807 151.528C242.111 152.008 242.263 152.568 242.263 153.208C242.263 154.248 241.999 155.144 241.471 155.896C240.943 156.632 240.191 157.2 239.215 157.6C238.255 157.984 237.111 158.176 235.783 158.176ZM239.791 164.92V164.344C239.791 163.608 239.551 163.096 239.071 162.808C238.607 162.52 237.967 162.376 237.151 162.376H233.431C232.711 162.376 232.103 162.32 231.607 162.208C231.127 162.096 230.743 161.936 230.455 161.728C230.167 161.52 229.959 161.272 229.831 160.984C229.703 160.712 229.639 160.416 229.639 160.096C229.639 159.456 229.847 158.976 230.263 158.656C230.679 158.32 231.239 158.096 231.943 157.984C232.647 157.872 233.423 157.848 234.271 157.912L235.783 158.176C234.775 158.208 234.023 158.296 233.527 158.44C233.047 158.568 232.807 158.832 232.807 159.232C232.807 159.472 232.903 159.664 233.095 159.808C233.287 159.936 233.559 160 233.911 160H237.823C238.895 160 239.807 160.112 240.559 160.336C241.327 160.576 241.911 160.968 242.311 161.512C242.711 162.072 242.911 162.832 242.911 163.792V164.92H239.791ZM235.783 155.92C236.471 155.92 237.071 155.808 237.583 155.584C238.111 155.36 238.519 155.04 238.807 154.624C239.095 154.192 239.239 153.68 239.239 153.088C239.239 152.48 239.095 151.96 238.807 151.528C238.519 151.096 238.119 150.768 237.607 150.544C237.095 150.304 236.487 150.184 235.783 150.184C235.095 150.184 234.487 150.304 233.959 150.544C233.431 150.768 233.023 151.096 232.735 151.528C232.447 151.96 232.303 152.48 232.303 153.088C232.303 153.68 232.447 154.192 232.735 154.624C233.023 155.04 233.423 155.36 233.935 155.584C234.463 155.808 235.079 155.92 235.783 155.92ZM255.297 142.84V145.576H251.673V142.84H255.297ZM251.913 148.072H255.033V160H251.913V148.072ZM258.143 148.072H261.263V160H258.143V148.072ZM266.807 147.808C267.543 147.808 268.223 147.904 268.847 148.096C269.471 148.288 270.015 148.584 270.479 148.984C270.943 149.384 271.303 149.896 271.559 150.52C271.815 151.128 271.943 151.856 271.943 152.704V160H268.823V153.256C268.823 152.248 268.575 151.512 268.079 151.048C267.599 150.568 266.807 150.328 265.703 150.328C264.871 150.328 264.119 150.488 263.447 150.808C262.775 151.128 262.231 151.536 261.815 152.032C261.399 152.512 261.159 153.016 261.095 153.544L261.071 152.32C261.151 151.76 261.335 151.216 261.623 150.688C261.911 150.16 262.295 149.68 262.775 149.248C263.271 148.8 263.855 148.448 264.527 148.192C265.199 147.936 265.959 147.808 266.807 147.808ZM279.493 148.072H282.805L287.965 159.52L285.277 160L279.493 148.072ZM294.085 148.072L285.829 164.8H282.589L286.117 158.224L290.749 148.072H294.085ZM302.394 160.288C300.89 160.288 299.562 160.048 298.41 159.568C297.274 159.088 296.386 158.392 295.746 157.48C295.106 156.552 294.786 155.416 294.786 154.072C294.786 152.728 295.106 151.592 295.746 150.664C296.386 149.72 297.274 149.008 298.41 148.528C299.562 148.048 300.89 147.808 302.394 147.808C303.898 147.808 305.21 148.048 306.33 148.528C307.466 149.008 308.354 149.72 308.994 150.664C309.634 151.592 309.954 152.728 309.954 154.072C309.954 155.416 309.634 156.552 308.994 157.48C308.354 158.392 307.466 159.088 306.33 159.568C305.21 160.048 303.898 160.288 302.394 160.288ZM302.394 157.888C303.226 157.888 303.97 157.744 304.626 157.456C305.298 157.152 305.826 156.72 306.21 156.16C306.594 155.584 306.786 154.888 306.786 154.072C306.786 153.256 306.594 152.56 306.21 151.984C305.826 151.392 305.306 150.944 304.65 150.64C303.994 150.336 303.242 150.184 302.394 150.184C301.562 150.184 300.81 150.336 300.138 150.64C299.466 150.944 298.93 151.384 298.53 151.96C298.146 152.536 297.954 153.24 297.954 154.072C297.954 154.888 298.146 155.584 298.53 156.16C298.914 156.72 299.442 157.152 300.114 157.456C300.786 157.744 301.546 157.888 302.394 157.888ZM326.06 160H322.94V148.072H326.06V160ZM323.108 154.264L323.132 155.08C323.1 155.304 323.02 155.632 322.892 156.064C322.764 156.48 322.564 156.928 322.292 157.408C322.036 157.888 321.7 158.352 321.284 158.8C320.868 159.232 320.356 159.592 319.748 159.88C319.14 160.152 318.42 160.288 317.588 160.288C316.932 160.288 316.284 160.208 315.644 160.048C315.02 159.888 314.452 159.624 313.94 159.256C313.428 158.872 313.02 158.36 312.716 157.72C312.412 157.08 312.26 156.272 312.26 155.296V148.072H315.38V154.768C315.38 155.536 315.5 156.144 315.74 156.592C315.996 157.024 316.364 157.328 316.844 157.504C317.324 157.68 317.892 157.768 318.548 157.768C319.412 157.768 320.156 157.584 320.78 157.216C321.404 156.832 321.908 156.368 322.292 155.824C322.692 155.28 322.964 154.76 323.108 154.264ZM328.901 148.072H332.021V160H328.901V148.072ZM336.605 150.64C335.709 150.64 334.933 150.816 334.277 151.168C333.621 151.504 333.093 151.92 332.693 152.416C332.293 152.912 332.013 153.392 331.853 153.856L331.829 152.536C331.845 152.344 331.909 152.064 332.021 151.696C332.133 151.312 332.301 150.904 332.525 150.472C332.749 150.024 333.045 149.6 333.413 149.2C333.781 148.784 334.229 148.448 334.757 148.192C335.285 147.936 335.901 147.808 336.605 147.808V150.64ZM82.336 189V182.448C82.336 181.792 82.224 181.248 82 180.816C81.776 180.384 81.416 180.056 80.92 179.832C80.44 179.608 79.792 179.496 78.976 179.496C78.192 179.496 77.48 179.648 76.84 179.952C76.2 180.24 75.68 180.624 75.28 181.104C74.88 181.568 74.656 182.064 74.608 182.592L74.584 181.272C74.664 180.744 74.848 180.216 75.136 179.688C75.424 179.16 75.808 178.68 76.288 178.248C76.768 177.816 77.344 177.472 78.016 177.216C78.704 176.944 79.472 176.808 80.32 176.808C81.056 176.808 81.736 176.904 82.36 177.096C82.984 177.272 83.528 177.552 83.992 177.936C84.456 178.32 84.816 178.8 85.072 179.376C85.328 179.936 85.456 180.6 85.456 181.368V189H82.336ZM71.656 189V172.272H74.776V189H71.656ZM99.1636 185.04H102.188C102.06 185.856 101.716 186.584 101.156 187.224C100.612 187.864 99.8676 188.368 98.9236 188.736C97.9796 189.104 96.8276 189.288 95.4676 189.288C93.9476 189.288 92.6036 189.048 91.4356 188.568C90.2676 188.072 89.3556 187.36 88.6996 186.432C88.0436 185.504 87.7156 184.384 87.7156 183.072C87.7156 181.76 88.0356 180.64 88.6756 179.712C89.3156 178.768 90.2036 178.048 91.3396 177.552C92.4916 177.056 93.8356 176.808 95.3716 176.808C96.9396 176.808 98.2436 177.056 99.2836 177.552C100.324 178.048 101.092 178.8 101.588 179.808C102.1 180.8 102.316 182.072 102.236 183.624H90.8596C90.9396 184.232 91.1636 184.784 91.5316 185.28C91.9156 185.776 92.4276 186.168 93.0676 186.456C93.7236 186.744 94.4996 186.888 95.3956 186.888C96.3876 186.888 97.2116 186.72 97.8676 186.384C98.5396 186.032 98.9716 185.584 99.1636 185.04ZM95.2276 179.184C94.0756 179.184 93.1396 179.44 92.4196 179.952C91.6996 180.448 91.2356 181.064 91.0276 181.8H99.1396C99.0596 181 98.6756 180.368 97.9876 179.904C97.3156 179.424 96.3956 179.184 95.2276 179.184ZM110.365 189.264C109.181 189.264 108.101 189.008 107.125 188.496C106.165 187.968 105.397 187.24 104.821 186.312C104.261 185.368 103.981 184.28 103.981 183.048C103.981 181.784 104.269 180.688 104.845 179.76C105.421 178.832 106.197 178.112 107.173 177.6C108.165 177.072 109.285 176.808 110.533 176.808C111.909 176.808 113.013 177.088 113.845 177.648C114.693 178.192 115.309 178.936 115.693 179.88C116.077 180.824 116.269 181.88 116.269 183.048C116.269 183.752 116.157 184.472 115.933 185.208C115.709 185.928 115.365 186.6 114.901 187.224C114.437 187.832 113.829 188.328 113.077 188.712C112.325 189.08 111.421 189.264 110.365 189.264ZM111.373 186.864C112.317 186.864 113.133 186.704 113.821 186.384C114.509 186.064 115.037 185.616 115.405 185.04C115.773 184.464 115.957 183.8 115.957 183.048C115.957 182.232 115.765 181.544 115.381 180.984C115.013 180.408 114.485 179.976 113.797 179.688C113.125 179.384 112.317 179.232 111.373 179.232C110.045 179.232 109.013 179.584 108.277 180.288C107.541 180.976 107.173 181.896 107.173 183.048C107.173 183.816 107.349 184.488 107.701 185.064C108.053 185.624 108.541 186.064 109.165 186.384C109.805 186.704 110.541 186.864 111.373 186.864ZM115.957 177.072H119.077V189H116.173C116.173 189 116.149 188.848 116.101 188.544C116.069 188.224 116.037 187.824 116.005 187.344C115.973 186.864 115.957 186.392 115.957 185.928V177.072ZM127.709 189.264C126.509 189.264 125.421 189.008 124.445 188.496C123.485 187.968 122.725 187.24 122.165 186.312C121.605 185.368 121.325 184.28 121.325 183.048C121.325 181.784 121.597 180.688 122.141 179.76C122.701 178.832 123.461 178.112 124.421 177.6C125.381 177.072 126.477 176.808 127.709 176.808C128.781 176.808 129.693 176.968 130.445 177.288C131.197 177.608 131.805 178.056 132.269 178.632C132.733 179.192 133.069 179.848 133.277 180.6C133.501 181.352 133.613 182.168 133.613 183.048C133.613 183.752 133.501 184.472 133.277 185.208C133.053 185.928 132.709 186.6 132.245 187.224C131.781 187.832 131.173 188.328 130.421 188.712C129.669 189.08 128.765 189.264 127.709 189.264ZM128.717 186.864C129.661 186.864 130.477 186.704 131.165 186.384C131.853 186.064 132.381 185.616 132.749 185.04C133.117 184.464 133.301 183.8 133.301 183.048C133.301 182.232 133.109 181.544 132.725 180.984C132.357 180.408 131.829 179.968 131.141 179.664C130.469 179.36 129.661 179.208 128.717 179.208C127.389 179.208 126.357 179.56 125.621 180.264C124.885 180.968 124.517 181.896 124.517 183.048C124.517 183.816 124.693 184.488 125.045 185.064C125.397 185.624 125.885 186.064 126.509 186.384C127.149 186.704 127.885 186.864 128.717 186.864ZM133.301 172.272H136.421V189H133.517C133.469 188.632 133.421 188.16 133.373 187.584C133.325 186.992 133.301 186.44 133.301 185.928V172.272ZM148.472 189.288C147.416 189.288 146.512 189.104 145.76 188.736C145.024 188.352 144.424 187.856 143.96 187.248C143.496 186.624 143.152 185.944 142.928 185.208C142.704 184.472 142.592 183.752 142.592 183.048C142.592 182.168 142.696 181.352 142.904 180.6C143.128 179.848 143.472 179.192 143.936 178.632C144.4 178.056 145 177.608 145.736 177.288C146.488 176.968 147.4 176.808 148.472 176.808C149.672 176.808 150.752 177.072 151.712 177.6C152.672 178.128 153.432 178.864 153.992 179.808C154.568 180.736 154.856 181.816 154.856 183.048C154.856 184.312 154.568 185.416 153.992 186.36C153.416 187.288 152.648 188.008 151.688 188.52C150.728 189.032 149.656 189.288 148.472 189.288ZM147.464 186.864C148.312 186.864 149.048 186.704 149.672 186.384C150.312 186.064 150.8 185.624 151.136 185.064C151.488 184.488 151.664 183.816 151.664 183.048C151.664 181.896 151.296 180.968 150.56 180.264C149.84 179.56 148.808 179.208 147.464 179.208C146.616 179.208 145.84 179.36 145.136 179.664C144.448 179.968 143.904 180.408 143.504 180.984C143.104 181.544 142.904 182.232 142.904 183.048C142.904 183.816 143.088 184.488 143.456 185.064C143.824 185.624 144.352 186.064 145.04 186.384C145.728 186.704 146.536 186.864 147.464 186.864ZM139.784 177.072H142.76L142.904 180.24V193.8H139.784V177.072ZM168.047 189V182.448C168.047 181.792 167.935 181.248 167.711 180.816C167.487 180.384 167.127 180.056 166.631 179.832C166.151 179.608 165.503 179.496 164.687 179.496C163.903 179.496 163.191 179.648 162.551 179.952C161.911 180.24 161.391 180.624 160.991 181.104C160.591 181.568 160.367 182.064 160.319 182.592L160.295 181.272C160.375 180.744 160.559 180.216 160.847 179.688C161.135 179.16 161.519 178.68 161.999 178.248C162.479 177.816 163.055 177.472 163.727 177.216C164.415 176.944 165.183 176.808 166.031 176.808C166.767 176.808 167.447 176.904 168.071 177.096C168.695 177.272 169.239 177.552 169.703 177.936C170.167 178.32 170.527 178.8 170.783 179.376C171.039 179.936 171.167 180.6 171.167 181.368V189H168.047ZM157.367 189V172.272H160.487V189H157.367ZM181.035 189.288C179.531 189.288 178.203 189.048 177.051 188.568C175.915 188.088 175.027 187.392 174.387 186.48C173.747 185.552 173.427 184.416 173.427 183.072C173.427 181.728 173.747 180.592 174.387 179.664C175.027 178.72 175.915 178.008 177.051 177.528C178.203 177.048 179.531 176.808 181.035 176.808C182.539 176.808 183.851 177.048 184.971 177.528C186.107 178.008 186.995 178.72 187.635 179.664C188.275 180.592 188.595 181.728 188.595 183.072C188.595 184.416 188.275 185.552 187.635 186.48C186.995 187.392 186.107 188.088 184.971 188.568C183.851 189.048 182.539 189.288 181.035 189.288ZM181.035 186.888C181.867 186.888 182.611 186.744 183.267 186.456C183.939 186.152 184.467 185.72 184.851 185.16C185.235 184.584 185.427 183.888 185.427 183.072C185.427 182.256 185.235 181.56 184.851 180.984C184.467 180.392 183.947 179.944 183.291 179.64C182.635 179.336 181.883 179.184 181.035 179.184C180.203 179.184 179.451 179.336 178.779 179.64C178.107 179.944 177.571 180.384 177.171 180.96C176.787 181.536 176.595 182.24 176.595 183.072C176.595 183.888 176.787 184.584 177.171 185.16C177.555 185.72 178.083 186.152 178.755 186.456C179.427 186.744 180.187 186.888 181.035 186.888ZM190.901 177.072H194.021V189H190.901V177.072ZM199.565 176.808C200.301 176.808 200.981 176.904 201.605 177.096C202.229 177.288 202.773 177.584 203.237 177.984C203.701 178.384 204.061 178.896 204.317 179.52C204.573 180.128 204.701 180.856 204.701 181.704V189H201.581V182.256C201.581 181.248 201.333 180.512 200.837 180.048C200.357 179.568 199.565 179.328 198.461 179.328C197.629 179.328 196.877 179.488 196.205 179.808C195.533 180.128 194.989 180.536 194.573 181.032C194.157 181.512 193.917 182.016 193.853 182.544L193.829 181.32C193.909 180.76 194.093 180.216 194.381 179.688C194.669 179.16 195.053 178.68 195.533 178.248C196.029 177.8 196.613 177.448 197.285 177.192C197.957 176.936 198.717 176.808 199.565 176.808ZM218.414 185.04H221.438C221.31 185.856 220.966 186.584 220.406 187.224C219.862 187.864 219.118 188.368 218.174 188.736C217.23 189.104 216.078 189.288 214.718 189.288C213.198 189.288 211.854 189.048 210.686 188.568C209.518 188.072 208.606 187.36 207.95 186.432C207.294 185.504 206.966 184.384 206.966 183.072C206.966 181.76 207.286 180.64 207.926 179.712C208.566 178.768 209.454 178.048 210.59 177.552C211.742 177.056 213.086 176.808 214.622 176.808C216.19 176.808 217.494 177.056 218.534 177.552C219.574 178.048 220.342 178.8 220.838 179.808C221.35 180.8 221.566 182.072 221.486 183.624H210.11C210.19 184.232 210.414 184.784 210.782 185.28C211.166 185.776 211.678 186.168 212.318 186.456C212.974 186.744 213.75 186.888 214.646 186.888C215.638 186.888 216.462 186.72 217.118 186.384C217.79 186.032 218.222 185.584 218.414 185.04ZM214.478 179.184C213.326 179.184 212.39 179.44 211.67 179.952C210.95 180.448 210.486 181.064 210.278 181.8H218.39C218.31 181 217.926 180.368 217.238 179.904C216.566 179.424 215.646 179.184 214.478 179.184ZM223.327 185.04H226.207C226.383 185.584 226.743 186.032 227.287 186.384C227.847 186.72 228.575 186.888 229.471 186.888C230.079 186.888 230.551 186.832 230.887 186.72C231.223 186.608 231.455 186.448 231.583 186.24C231.711 186.016 231.775 185.768 231.775 185.496C231.775 185.16 231.671 184.904 231.463 184.728C231.255 184.536 230.935 184.384 230.503 184.272C230.071 184.16 229.519 184.056 228.847 183.96C228.175 183.848 227.527 183.712 226.903 183.552C226.279 183.392 225.727 183.184 225.247 182.928C224.767 182.656 224.383 182.32 224.095 181.92C223.823 181.504 223.687 181 223.687 180.408C223.687 179.832 223.823 179.32 224.095 178.872C224.383 178.424 224.775 178.048 225.271 177.744C225.783 177.44 226.375 177.208 227.047 177.048C227.735 176.888 228.471 176.808 229.255 176.808C230.439 176.808 231.423 176.984 232.207 177.336C232.991 177.672 233.575 178.152 233.959 178.776C234.359 179.384 234.559 180.088 234.559 180.888H231.799C231.671 180.296 231.415 179.872 231.031 179.616C230.647 179.344 230.055 179.208 229.255 179.208C228.471 179.208 227.879 179.328 227.479 179.568C227.079 179.808 226.879 180.136 226.879 180.552C226.879 180.888 226.999 181.152 227.239 181.344C227.495 181.52 227.863 181.664 228.343 181.776C228.839 181.888 229.455 182.008 230.191 182.136C230.815 182.264 231.407 182.408 231.967 182.568C232.543 182.728 233.055 182.936 233.503 183.192C233.951 183.432 234.303 183.76 234.559 184.176C234.831 184.576 234.967 185.088 234.967 185.712C234.967 186.48 234.743 187.128 234.295 187.656C233.863 188.184 233.239 188.592 232.423 188.88C231.607 189.152 230.631 189.288 229.495 189.288C228.487 189.288 227.615 189.184 226.879 188.976C226.159 188.752 225.559 188.472 225.079 188.136C224.599 187.784 224.223 187.416 223.951 187.032C223.695 186.632 223.519 186.256 223.423 185.904C223.327 185.552 223.295 185.264 223.327 185.04ZM237.522 192.576L237.09 191.76C237.33 191.408 237.562 191.016 237.786 190.584C238.026 190.152 238.154 189.712 238.17 189.264L236.85 189V186.24H240.522V188.208C240.522 189.344 240.25 190.256 239.706 190.944C239.178 191.648 238.45 192.192 237.522 192.576ZM254.506 189.264C253.322 189.264 252.242 189.008 251.266 188.496C250.306 187.968 249.538 187.24 248.962 186.312C248.402 185.368 248.122 184.28 248.122 183.048C248.122 181.784 248.41 180.688 248.986 179.76C249.562 178.832 250.338 178.112 251.314 177.6C252.306 177.072 253.426 176.808 254.674 176.808C256.05 176.808 257.154 177.088 257.986 177.648C258.834 178.192 259.45 178.936 259.834 179.88C260.218 180.824 260.41 181.88 260.41 183.048C260.41 183.752 260.298 184.472 260.074 185.208C259.85 185.928 259.506 186.6 259.042 187.224C258.578 187.832 257.97 188.328 257.218 188.712C256.466 189.08 255.562 189.264 254.506 189.264ZM255.514 186.864C256.458 186.864 257.274 186.704 257.962 186.384C258.65 186.064 259.178 185.616 259.546 185.04C259.914 184.464 260.098 183.8 260.098 183.048C260.098 182.232 259.906 181.544 259.522 180.984C259.154 180.408 258.626 179.976 257.938 179.688C257.266 179.384 256.458 179.232 255.514 179.232C254.186 179.232 253.154 179.584 252.418 180.288C251.682 180.976 251.314 181.896 251.314 183.048C251.314 183.816 251.49 184.488 251.842 185.064C252.194 185.624 252.682 186.064 253.306 186.384C253.946 186.704 254.682 186.864 255.514 186.864ZM260.098 177.072H263.218V189H260.314C260.314 189 260.29 188.848 260.242 188.544C260.21 188.224 260.178 187.824 260.146 187.344C260.114 186.864 260.098 186.392 260.098 185.928V177.072ZM266.042 177.072H269.162V189H266.042V177.072ZM274.706 176.808C275.442 176.808 276.122 176.904 276.746 177.096C277.37 177.288 277.914 177.584 278.378 177.984C278.842 178.384 279.202 178.896 279.458 179.52C279.714 180.128 279.842 180.856 279.842 181.704V189H276.722V182.256C276.722 181.248 276.474 180.512 275.978 180.048C275.498 179.568 274.706 179.328 273.602 179.328C272.77 179.328 272.018 179.488 271.346 179.808C270.674 180.128 270.13 180.536 269.714 181.032C269.298 181.512 269.058 182.016 268.994 182.544L268.97 181.32C269.05 180.76 269.234 180.216 269.522 179.688C269.81 179.16 270.194 178.68 270.674 178.248C271.17 177.8 271.754 177.448 272.426 177.192C273.098 176.936 273.858 176.808 274.706 176.808ZM288.49 189.264C287.29 189.264 286.202 189.008 285.226 188.496C284.266 187.968 283.506 187.24 282.946 186.312C282.386 185.368 282.106 184.28 282.106 183.048C282.106 181.784 282.378 180.688 282.922 179.76C283.482 178.832 284.242 178.112 285.202 177.6C286.162 177.072 287.258 176.808 288.49 176.808C289.562 176.808 290.474 176.968 291.226 177.288C291.978 177.608 292.586 178.056 293.05 178.632C293.514 179.192 293.85 179.848 294.058 180.6C294.282 181.352 294.394 182.168 294.394 183.048C294.394 183.752 294.282 184.472 294.058 185.208C293.834 185.928 293.49 186.6 293.026 187.224C292.562 187.832 291.954 188.328 291.202 188.712C290.45 189.08 289.546 189.264 288.49 189.264ZM289.498 186.864C290.442 186.864 291.258 186.704 291.946 186.384C292.634 186.064 293.162 185.616 293.53 185.04C293.898 184.464 294.082 183.8 294.082 183.048C294.082 182.232 293.89 181.544 293.506 180.984C293.138 180.408 292.61 179.968 291.922 179.664C291.25 179.36 290.442 179.208 289.498 179.208C288.17 179.208 287.138 179.56 286.402 180.264C285.666 180.968 285.298 181.896 285.298 183.048C285.298 183.816 285.474 184.488 285.826 185.064C286.178 185.624 286.666 186.064 287.29 186.384C287.93 186.704 288.666 186.864 289.498 186.864ZM294.082 172.272H297.202V189H294.298C294.25 188.632 294.202 188.16 294.154 187.584C294.106 186.992 294.082 186.44 294.082 185.928V172.272ZM70.6 206.072H79.864V208.496H70.6V206.072ZM73.672 202.808H76.792V218H73.672V202.808ZM81.8463 206.072H84.9663V218H81.8463V206.072ZM89.5503 208.64C88.6543 208.64 87.8783 208.816 87.2223 209.168C86.5663 209.504 86.0383 209.92 85.6383 210.416C85.2383 210.912 84.9583 211.392 84.7983 211.856L84.7743 210.536C84.7903 210.344 84.8543 210.064 84.9663 209.696C85.0783 209.312 85.2463 208.904 85.4703 208.472C85.6943 208.024 85.9903 207.6 86.3583 207.2C86.7263 206.784 87.1743 206.448 87.7023 206.192C88.2303 205.936 88.8463 205.808 89.5503 205.808V208.64ZM105.279 218H102.159V206.072H105.279V218ZM102.327 212.264L102.351 213.08C102.319 213.304 102.239 213.632 102.111 214.064C101.983 214.48 101.783 214.928 101.511 215.408C101.255 215.888 100.919 216.352 100.503 216.8C100.087 217.232 99.5751 217.592 98.9671 217.88C98.3591 218.152 97.6391 218.288 96.8071 218.288C96.1511 218.288 95.5031 218.208 94.8631 218.048C94.2391 217.888 93.6711 217.624 93.1591 217.256C92.6471 216.872 92.2391 216.36 91.9351 215.72C91.6311 215.08 91.4791 214.272 91.4791 213.296V206.072H94.5991V212.768C94.5991 213.536 94.7191 214.144 94.9591 214.592C95.2151 215.024 95.5831 215.328 96.0631 215.504C96.5431 215.68 97.1111 215.768 97.7671 215.768C98.6311 215.768 99.3751 215.584 99.9991 215.216C100.623 214.832 101.127 214.368 101.511 213.824C101.911 213.28 102.183 212.76 102.327 212.264ZM107.64 214.04H110.52C110.696 214.584 111.056 215.032 111.6 215.384C112.16 215.72 112.888 215.888 113.784 215.888C114.392 215.888 114.864 215.832 115.2 215.72C115.536 215.608 115.768 215.448 115.896 215.24C116.024 215.016 116.088 214.768 116.088 214.496C116.088 214.16 115.984 213.904 115.776 213.728C115.568 213.536 115.248 213.384 114.816 213.272C114.384 213.16 113.832 213.056 113.16 212.96C112.488 212.848 111.84 212.712 111.216 212.552C110.592 212.392 110.04 212.184 109.56 211.928C109.08 211.656 108.696 211.32 108.408 210.92C108.136 210.504 108 210 108 209.408C108 208.832 108.136 208.32 108.408 207.872C108.696 207.424 109.088 207.048 109.584 206.744C110.096 206.44 110.688 206.208 111.36 206.048C112.048 205.888 112.784 205.808 113.568 205.808C114.752 205.808 115.736 205.984 116.52 206.336C117.304 206.672 117.888 207.152 118.272 207.776C118.672 208.384 118.872 209.088 118.872 209.888H116.112C115.984 209.296 115.728 208.872 115.344 208.616C114.96 208.344 114.368 208.208 113.568 208.208C112.784 208.208 112.192 208.328 111.792 208.568C111.392 208.808 111.192 209.136 111.192 209.552C111.192 209.888 111.312 210.152 111.552 210.344C111.808 210.52 112.176 210.664 112.656 210.776C113.152 210.888 113.768 211.008 114.504 211.136C115.128 211.264 115.72 211.408 116.28 211.568C116.856 211.728 117.368 211.936 117.816 212.192C118.264 212.432 118.616 212.76 118.872 213.176C119.144 213.576 119.28 214.088 119.28 214.712C119.28 215.48 119.056 216.128 118.608 216.656C118.176 217.184 117.552 217.592 116.736 217.88C115.92 218.152 114.944 218.288 113.808 218.288C112.8 218.288 111.928 218.184 111.192 217.976C110.472 217.752 109.872 217.472 109.392 217.136C108.912 216.784 108.536 216.416 108.264 216.032C108.008 215.632 107.832 215.256 107.736 214.904C107.64 214.552 107.608 214.264 107.64 214.04ZM120.827 206.072H130.091V208.496H120.827V206.072ZM123.899 202.808H127.019V218H123.899V202.808ZM137.022 206.072H146.286V208.496H137.022V206.072ZM140.094 202.808H143.214V218H140.094V202.808ZM159.164 218V211.448C159.164 210.792 159.052 210.248 158.828 209.816C158.604 209.384 158.244 209.056 157.748 208.832C157.268 208.608 156.62 208.496 155.804 208.496C155.02 208.496 154.308 208.648 153.668 208.952C153.028 209.24 152.508 209.624 152.108 210.104C151.708 210.568 151.484 211.064 151.436 211.592L151.412 210.272C151.492 209.744 151.676 209.216 151.964 208.688C152.252 208.16 152.636 207.68 153.116 207.248C153.596 206.816 154.172 206.472 154.844 206.216C155.532 205.944 156.3 205.808 157.148 205.808C157.884 205.808 158.564 205.904 159.188 206.096C159.812 206.272 160.356 206.552 160.82 206.936C161.284 207.32 161.644 207.8 161.9 208.376C162.156 208.936 162.284 209.6 162.284 210.368V218H159.164ZM148.484 218V201.272H151.604V218H148.484ZM175.992 214.04H179.016C178.888 214.856 178.544 215.584 177.984 216.224C177.44 216.864 176.696 217.368 175.752 217.736C174.808 218.104 173.656 218.288 172.296 218.288C170.776 218.288 169.432 218.048 168.264 217.568C167.096 217.072 166.184 216.36 165.528 215.432C164.872 214.504 164.544 213.384 164.544 212.072C164.544 210.76 164.864 209.64 165.504 208.712C166.144 207.768 167.032 207.048 168.168 206.552C169.32 206.056 170.664 205.808 172.2 205.808C173.768 205.808 175.072 206.056 176.112 206.552C177.152 207.048 177.92 207.8 178.416 208.808C178.928 209.8 179.144 211.072 179.064 212.624H167.688C167.768 213.232 167.992 213.784 168.36 214.28C168.744 214.776 169.256 215.168 169.896 215.456C170.552 215.744 171.328 215.888 172.224 215.888C173.216 215.888 174.04 215.72 174.696 215.384C175.368 215.032 175.8 214.584 175.992 214.04ZM172.056 208.184C170.904 208.184 169.968 208.44 169.248 208.952C168.528 209.448 168.064 210.064 167.856 210.8H175.968C175.888 210 175.504 209.368 174.816 208.904C174.144 208.424 173.224 208.184 172.056 208.184ZM192.982 218.264C191.798 218.264 190.718 218.008 189.742 217.496C188.782 216.968 188.014 216.24 187.438 215.312C186.878 214.368 186.598 213.28 186.598 212.048C186.598 210.784 186.886 209.688 187.462 208.76C188.038 207.832 188.814 207.112 189.79 206.6C190.782 206.072 191.902 205.808 193.15 205.808C194.526 205.808 195.63 206.088 196.462 206.648C197.31 207.192 197.926 207.936 198.31 208.88C198.694 209.824 198.886 210.88 198.886 212.048C198.886 212.752 198.774 213.472 198.55 214.208C198.326 214.928 197.982 215.6 197.518 216.224C197.054 216.832 196.446 217.328 195.694 217.712C194.942 218.08 194.038 218.264 192.982 218.264ZM193.99 215.864C194.934 215.864 195.75 215.704 196.438 215.384C197.126 215.064 197.654 214.616 198.022 214.04C198.39 213.464 198.574 212.8 198.574 212.048C198.574 211.232 198.382 210.544 197.998 209.984C197.63 209.408 197.102 208.976 196.414 208.688C195.742 208.384 194.934 208.232 193.99 208.232C192.662 208.232 191.63 208.584 190.894 209.288C190.158 209.976 189.79 210.896 189.79 212.048C189.79 212.816 189.966 213.488 190.318 214.064C190.67 214.624 191.158 215.064 191.782 215.384C192.422 215.704 193.158 215.864 193.99 215.864ZM198.574 206.072H201.694V218H198.79C198.79 218 198.766 217.848 198.718 217.544C198.686 217.224 198.654 216.824 198.622 216.344C198.59 215.864 198.574 215.392 198.574 214.928V206.072ZM204.758 201.272H207.878V218H204.758V201.272ZM216.986 216.176C215.69 216.176 214.546 215.984 213.554 215.6C212.578 215.2 211.818 214.616 211.274 213.848C210.73 213.08 210.458 212.152 210.458 211.064C210.458 209.992 210.722 209.064 211.25 208.28C211.778 207.496 212.53 206.888 213.506 206.456C214.498 206.024 215.658 205.808 216.986 205.808C217.354 205.808 217.706 205.832 218.042 205.88C218.394 205.928 218.738 205.992 219.074 206.072L225.098 206.096V208.448C224.282 208.464 223.45 208.368 222.602 208.16C221.77 207.936 221.034 207.696 220.394 207.44L220.322 207.272C220.866 207.528 221.378 207.848 221.858 208.232C222.338 208.6 222.722 209.032 223.01 209.528C223.314 210.008 223.466 210.568 223.466 211.208C223.466 212.248 223.202 213.144 222.674 213.896C222.146 214.632 221.394 215.2 220.418 215.6C219.458 215.984 218.314 216.176 216.986 216.176ZM220.994 222.92V222.344C220.994 221.608 220.754 221.096 220.274 220.808C219.81 220.52 219.17 220.376 218.354 220.376H214.634C213.914 220.376 213.306 220.32 212.81 220.208C212.33 220.096 211.946 219.936 211.658 219.728C211.37 219.52 211.162 219.272 211.034 218.984C210.906 218.712 210.842 218.416 210.842 218.096C210.842 217.456 211.05 216.976 211.466 216.656C211.882 216.32 212.442 216.096 213.146 215.984C213.85 215.872 214.626 215.848 215.474 215.912L216.986 216.176C215.978 216.208 215.226 216.296 214.73 216.44C214.25 216.568 214.01 216.832 214.01 217.232C214.01 217.472 214.106 217.664 214.298 217.808C214.49 217.936 214.762 218 215.114 218H219.026C220.098 218 221.01 218.112 221.762 218.336C222.53 218.576 223.114 218.968 223.514 219.512C223.914 220.072 224.114 220.832 224.114 221.792V222.92H220.994ZM216.986 213.92C217.674 213.92 218.274 213.808 218.786 213.584C219.314 213.36 219.722 213.04 220.01 212.624C220.298 212.192 220.442 211.68 220.442 211.088C220.442 210.48 220.298 209.96 220.01 209.528C219.722 209.096 219.322 208.768 218.81 208.544C218.298 208.304 217.69 208.184 216.986 208.184C216.298 208.184 215.69 208.304 215.162 208.544C214.634 208.768 214.226 209.096 213.938 209.528C213.65 209.96 213.506 210.48 213.506 211.088C213.506 211.68 213.65 212.192 213.938 212.624C214.226 213.04 214.626 213.36 215.138 213.584C215.666 213.808 216.282 213.92 216.986 213.92ZM233.956 218.288C232.452 218.288 231.124 218.048 229.972 217.568C228.836 217.088 227.948 216.392 227.308 215.48C226.668 214.552 226.348 213.416 226.348 212.072C226.348 210.728 226.668 209.592 227.308 208.664C227.948 207.72 228.836 207.008 229.972 206.528C231.124 206.048 232.452 205.808 233.956 205.808C235.46 205.808 236.772 206.048 237.892 206.528C239.028 207.008 239.916 207.72 240.556 208.664C241.196 209.592 241.516 210.728 241.516 212.072C241.516 213.416 241.196 214.552 240.556 215.48C239.916 216.392 239.028 217.088 237.892 217.568C236.772 218.048 235.46 218.288 233.956 218.288ZM233.956 215.888C234.788 215.888 235.532 215.744 236.188 215.456C236.86 215.152 237.388 214.72 237.772 214.16C238.156 213.584 238.348 212.888 238.348 212.072C238.348 211.256 238.156 210.56 237.772 209.984C237.388 209.392 236.868 208.944 236.212 208.64C235.556 208.336 234.804 208.184 233.956 208.184C233.124 208.184 232.372 208.336 231.7 208.64C231.028 208.944 230.492 209.384 230.092 209.96C229.708 210.536 229.516 211.24 229.516 212.072C229.516 212.888 229.708 213.584 230.092 214.16C230.476 214.72 231.004 215.152 231.676 215.456C232.348 215.744 233.108 215.888 233.956 215.888ZM243.823 206.072H246.943V218H243.823V206.072ZM251.527 208.64C250.631 208.64 249.855 208.816 249.199 209.168C248.543 209.504 248.015 209.92 247.615 210.416C247.215 210.912 246.935 211.392 246.775 211.856L246.751 210.536C246.767 210.344 246.831 210.064 246.943 209.696C247.055 209.312 247.223 208.904 247.447 208.472C247.671 208.024 247.967 207.6 248.335 207.2C248.703 206.784 249.151 206.448 249.679 206.192C250.207 205.936 250.823 205.808 251.527 205.808V208.64ZM257.032 200.84V203.576H253.408V200.84H257.032ZM253.648 206.072H256.768V218H253.648V206.072ZM259.038 206.072H268.302V208.496H259.038V206.072ZM262.11 202.808H265.23V218H262.11V202.808ZM281.18 218V211.448C281.18 210.792 281.068 210.248 280.844 209.816C280.62 209.384 280.26 209.056 279.764 208.832C279.284 208.608 278.636 208.496 277.82 208.496C277.036 208.496 276.324 208.648 275.684 208.952C275.044 209.24 274.524 209.624 274.124 210.104C273.724 210.568 273.5 211.064 273.452 211.592L273.428 210.272C273.508 209.744 273.692 209.216 273.98 208.688C274.268 208.16 274.652 207.68 275.132 207.248C275.612 206.816 276.188 206.472 276.86 206.216C277.548 205.944 278.316 205.808 279.164 205.808C279.9 205.808 280.58 205.904 281.204 206.096C281.828 206.272 282.372 206.552 282.836 206.936C283.3 207.32 283.66 207.8 283.916 208.376C284.172 208.936 284.3 209.6 284.3 210.368V218H281.18ZM270.5 218V201.272H273.62V218H270.5ZM287.135 206.072H290.255V218H287.135V206.072ZM295.799 205.808C296.535 205.808 297.215 205.904 297.839 206.096C298.463 206.288 299.007 206.584 299.471 206.984C299.935 207.384 300.295 207.896 300.551 208.52C300.807 209.128 300.935 209.856 300.935 210.704V218H297.815V211.256C297.815 210.248 297.567 209.512 297.071 209.048C296.591 208.568 295.799 208.328 294.695 208.328C293.863 208.328 293.111 208.488 292.439 208.808C291.767 209.128 291.223 209.536 290.807 210.032C290.391 210.512 290.151 211.016 290.087 211.544L290.063 210.32C290.143 209.76 290.327 209.216 290.615 208.688C290.903 208.16 291.287 207.68 291.767 207.248C292.263 206.8 292.847 206.448 293.519 206.192C294.191 205.936 294.951 205.808 295.799 205.808ZM306.191 205.808C306.927 205.808 307.607 205.904 308.231 206.096C308.855 206.288 309.399 206.584 309.863 206.984C310.327 207.384 310.687 207.896 310.943 208.52C311.215 209.128 311.351 209.856 311.351 210.704V218H308.231V211.256C308.231 210.248 307.983 209.512 307.487 209.048C306.991 208.568 306.191 208.328 305.087 208.328C304.255 208.328 303.503 208.488 302.831 208.808C302.159 209.128 301.615 209.536 301.199 210.032C300.783 210.512 300.551 211.016 300.503 211.544L300.455 210.248C300.535 209.72 300.727 209.192 301.031 208.664C301.335 208.136 301.735 207.656 302.231 207.224C302.727 206.792 303.303 206.448 303.959 206.192C304.631 205.936 305.375 205.808 306.191 205.808ZM317.806 215.264V218H314.182V215.264H317.806Z" fill="black"/>
<path d="M186.304 28.296C188.629 28.296 190.571 28.5733 192.128 29.128C193.685 29.6827 194.923 30.44 195.84 31.4C196.779 32.3387 197.44 33.4267 197.824 34.664C198.229 35.9013 198.432 37.2027 198.432 38.568C198.432 39.9333 198.208 41.2453 197.76 42.504C197.333 43.7627 196.64 44.8827 195.68 45.864C194.741 46.824 193.493 47.592 191.936 48.168C190.4 48.7227 188.523 49 186.304 49H174.464V28.296H186.304ZM178.72 45.352H186.208C187.744 45.352 189.013 45.1707 190.016 44.808C191.04 44.424 191.851 43.912 192.448 43.272C193.045 42.632 193.472 41.9067 193.728 41.096C193.984 40.2853 194.112 39.4427 194.112 38.568C194.112 37.6933 193.984 36.8613 193.728 36.072C193.472 35.2827 193.045 34.5787 192.448 33.96C191.851 33.3413 191.04 32.8507 190.016 32.488C189.013 32.1253 187.744 31.944 186.208 31.944H178.72V45.352ZM200.605 33.096H205.021L211.901 48.36L208.317 49L200.605 33.096ZM220.061 33.096L209.053 55.4H204.733L209.437 46.632L215.613 33.096H220.061ZM229.7 46.568C227.972 46.568 226.446 46.312 225.124 45.8C223.822 45.2667 222.809 44.488 222.084 43.464C221.358 42.44 220.996 41.2027 220.996 39.752C220.996 38.3227 221.348 37.0853 222.052 36.04C222.756 34.9947 223.758 34.184 225.06 33.608C226.382 33.032 227.929 32.744 229.7 32.744C230.19 32.744 230.66 32.776 231.108 32.84C231.577 32.904 232.036 32.9893 232.484 33.096L240.516 33.128V36.264C239.428 36.2853 238.318 36.1573 237.188 35.88C236.078 35.5813 235.097 35.2613 234.244 34.92L234.148 34.696C234.873 35.0373 235.556 35.464 236.196 35.976C236.836 36.4667 237.348 37.0427 237.732 37.704C238.137 38.344 238.34 39.0907 238.34 39.944C238.34 41.3307 237.988 42.5253 237.284 43.528C236.58 44.5093 235.577 45.2667 234.276 45.8C232.996 46.312 231.47 46.568 229.7 46.568ZM235.044 55.56V54.792C235.044 53.8107 234.724 53.128 234.084 52.744C233.465 52.36 232.612 52.168 231.524 52.168H226.564C225.604 52.168 224.793 52.0933 224.132 51.944C223.492 51.7947 222.98 51.5813 222.596 51.304C222.212 51.0267 221.934 50.696 221.764 50.312C221.593 49.9493 221.508 49.5547 221.508 49.128C221.508 48.2747 221.785 47.6347 222.34 47.208C222.894 46.76 223.641 46.4613 224.58 46.312C225.518 46.1627 226.553 46.1307 227.684 46.216L229.7 46.568C228.356 46.6107 227.353 46.728 226.692 46.92C226.052 47.0907 225.732 47.4427 225.732 47.976C225.732 48.296 225.86 48.552 226.116 48.744C226.372 48.9147 226.734 49 227.204 49H232.42C233.849 49 235.065 49.1493 236.068 49.448C237.092 49.768 237.87 50.2907 238.404 51.016C238.937 51.7627 239.204 52.776 239.204 54.056V55.56H235.044ZM229.7 43.56C230.617 43.56 231.417 43.4107 232.1 43.112C232.804 42.8133 233.348 42.3867 233.732 41.832C234.116 41.256 234.308 40.5733 234.308 39.784C234.308 38.9733 234.116 38.28 233.732 37.704C233.348 37.128 232.814 36.6907 232.132 36.392C231.449 36.072 230.638 35.912 229.7 35.912C228.782 35.912 227.972 36.072 227.268 36.392C226.564 36.6907 226.02 37.128 225.636 37.704C225.252 38.28 225.06 38.9733 225.06 39.784C225.06 40.5733 225.252 41.256 225.636 41.832C226.02 42.3867 226.553 42.8133 227.236 43.112C227.94 43.4107 228.761 43.56 229.7 43.56Z" fill="black"/>
<g clip-path="url(#clip0_141_224)">
<path d="M233.531 86.115C233.531 95.5825 233.531 105.05 233.531 114.524C219.714 114.524 205.898 114.524 192.081 114.524C192.081 113.283 192.081 112.042 192.101 110.737C192.298 110.879 192.45 111.116 192.658 111.288C193.633 112.094 194.759 112.13 195.886 111.759C196.731 111.48 197.307 110.869 197.277 109.836C197.224 108.002 197.264 106.166 197.26 104.331C197.26 104.118 197.282 103.993 197.54 103.895C198.706 103.454 199.852 102.963 201.008 102.497C201.467 102.311 201.932 102.142 202.416 101.956C202.416 103.206 202.416 104.41 202.416 105.629C202.336 105.618 202.283 105.614 202.233 105.602C201.133 105.336 200.091 105.35 199.144 106.101C198.358 106.724 198.336 108.07 199.12 108.699C200.104 109.489 201.221 109.535 202.353 109.17C203.061 108.942 203.709 108.493 203.724 107.661C203.766 105.382 203.74 103.101 203.737 100.821C203.736 100.464 203.532 100.283 203.185 100.287C202.989 100.29 202.779 100.302 202.601 100.372C200.54 101.192 198.486 102.028 196.425 102.847C196.094 102.979 195.959 103.181 195.962 103.538C195.974 104.954 195.967 106.371 195.967 107.788C195.967 107.927 195.967 108.067 195.967 108.157C195.38 108.12 194.852 108.056 194.325 108.062C193.555 108.071 192.901 108.366 192.406 108.979C192.316 109.091 192.19 109.173 192.081 109.269C192.081 97.2113 192.081 85.1538 192.081 73.0887C205.898 73.0887 219.714 73.0887 233.531 73.0885C233.531 74.8417 233.531 76.5951 233.508 78.4141C232.996 78.0569 232.519 78.3114 232.039 78.5041C230.091 79.2863 228.145 80.0727 226.192 80.8422C225.864 80.9714 225.754 81.1743 225.756 81.5071C225.764 82.9236 225.759 84.3402 225.759 85.7567C225.759 85.8988 225.759 86.0409 225.759 86.2101C225.642 86.1838 225.579 86.1689 225.516 86.1556C224.431 85.9264 223.399 85.9222 222.462 86.6688C221.673 87.298 221.655 88.6419 222.432 89.268C223.413 90.0585 224.532 90.1094 225.664 89.7415C226.513 89.4656 227.103 88.8525 227.07 87.7903C227.013 85.9708 227.057 84.1483 227.051 82.327C227.05 82.0921 227.086 81.9663 227.354 81.8647C228.519 81.4229 229.665 80.9307 230.821 80.4645C231.275 80.2816 231.737 80.119 232.217 79.9391C232.217 81.1961 232.217 82.3927 232.217 83.592C230.742 83.3754 230.444 83.3629 229.772 83.6093C229.05 83.8744 228.45 84.2873 228.354 85.1311C228.245 86.09 228.662 86.645 229.565 87.0908C230.118 87.3638 230.7 87.3451 231.284 87.3265C232.056 87.3019 232.71 87.0188 233.206 86.4042C233.296 86.2929 233.422 86.2107 233.531 86.115ZM222.889 103.921C222.904 103.897 222.919 103.874 222.983 103.826C224.252 102.415 224.93 100.731 225.096 98.8701C225.261 97.0201 225.016 95.224 223.992 93.6011C223.452 92.7447 222.828 91.9755 222.007 91.3699C220.666 90.3808 219.18 89.8543 217.478 89.856C217.35 89.5377 217.222 89.2196 217.096 88.9009C216.713 87.9336 216.33 86.966 215.986 85.9626C216.188 85.7893 216.392 85.6188 216.591 85.442C217.109 84.9798 217.616 84.5042 218.145 84.0534C219.077 83.2578 219.978 82.4353 220.645 81.392C221.502 80.0513 221.993 78.6334 221.72 77.0015C221.353 74.8024 219.251 72.9501 216.663 73.3389C215.022 73.5854 213.703 74.4726 212.738 75.8102C211.609 77.3761 211.08 79.1554 211.108 81.0902C211.119 81.7724 211.138 82.4559 211.193 83.1356C211.236 83.6723 211.34 84.2042 211.367 84.7578C210.387 85.8187 209.383 86.8588 208.433 87.9461C207.296 89.2467 206.404 90.7061 205.74 92.3081C205.338 93.2781 205.029 94.2834 204.976 95.3158C204.92 96.4306 204.959 97.5716 205.138 98.6718C205.399 100.284 206.111 101.737 207.201 102.969C208.315 104.229 209.656 105.176 211.227 105.812C212.692 106.406 214.21 106.695 215.778 106.756C216.134 106.77 216.493 106.714 216.853 106.764C216.827 107.474 216.88 108.199 216.754 108.891C216.581 109.842 216.077 110.438 214.813 110.323C214.091 110.257 213.266 109.503 213.284 108.639C213.29 108.364 213.235 108.082 213.166 107.813C212.978 107.076 212.222 106.338 211.092 106.422C210.158 106.491 209.341 107.261 209.321 108.196C209.305 108.935 209.335 109.667 209.573 110.372C209.926 111.414 210.497 112.307 211.372 113.003C212.576 113.959 213.937 114.345 215.466 114.298C216.796 114.258 217.933 113.781 218.901 112.916C220.125 111.823 220.685 110.376 220.804 108.779C220.884 107.706 220.812 106.622 220.837 105.493C221.465 105.02 222.092 104.547 222.74 104.067C222.74 104.067 222.749 104.046 222.783 104.023C222.806 103.992 222.829 103.961 222.847 103.928C222.847 103.928 222.847 103.934 222.889 103.921ZM204.965 85.868C205.106 85.7944 205.248 85.725 205.386 85.6466C205.888 85.3603 206.312 84.9724 206.319 84.3699C206.345 82.0773 206.332 79.7843 206.327 77.4914C206.326 77.16 206.133 76.9711 205.802 76.9724C205.594 76.9732 205.37 76.986 205.179 77.0613C203.13 77.8723 201.088 78.7002 199.04 79.5147C198.682 79.6569 198.545 79.8846 198.55 80.2731C198.568 81.6756 198.558 83.0784 198.557 84.4811C198.557 84.6197 198.545 84.7582 198.539 84.9019C197.5 84.6715 196.543 84.6095 195.598 85.1257C194.431 85.7626 194.36 87.3564 195.342 88.0498C196.398 88.7961 197.519 88.8197 198.658 88.3641C199.472 88.0387 199.892 87.4272 199.867 86.4787C199.819 84.6592 199.854 82.8375 199.851 81.0167C199.851 80.8042 199.87 80.6772 200.129 80.5802C201.161 80.1949 202.172 79.7547 203.194 79.3427C203.787 79.1038 204.386 78.8798 205.009 78.6385C205.009 79.8897 205.009 81.093 205.009 82.2915C204.971 82.2987 204.957 82.3053 204.944 82.303C204.893 82.2934 204.842 82.2807 204.791 82.2699C203.707 82.0398 202.674 82.0347 201.739 82.7825C200.964 83.4018 200.903 84.7127 201.675 85.3585C202.629 86.1565 203.744 86.2097 204.965 85.868Z" fill="#E9EFFF"/>
<path d="M192.081 109.307C192.19 109.173 192.316 109.091 192.406 108.979C192.901 108.366 193.555 108.071 194.325 108.062C194.852 108.056 195.38 108.12 195.967 108.157C195.967 108.067 195.967 107.927 195.967 107.788C195.967 106.371 195.974 104.954 195.962 103.538C195.959 103.181 196.094 102.979 196.425 102.847C198.486 102.028 200.54 101.192 202.601 100.372C202.779 100.302 202.989 100.29 203.185 100.287C203.532 100.283 203.736 100.464 203.737 100.821C203.74 103.101 203.766 105.382 203.724 107.661C203.709 108.493 203.061 108.942 202.353 109.17C201.221 109.535 200.104 109.489 199.12 108.699C198.336 108.07 198.358 106.724 199.144 106.101C200.091 105.35 201.133 105.336 202.233 105.602C202.283 105.614 202.336 105.617 202.416 105.629C202.416 104.41 202.416 103.206 202.416 101.956C201.932 102.142 201.467 102.311 201.008 102.497C199.852 102.963 198.706 103.454 197.54 103.895C197.282 103.993 197.26 104.118 197.26 104.331C197.264 106.166 197.224 108.002 197.277 109.835C197.307 110.869 196.731 111.48 195.886 111.759C194.759 112.13 193.633 112.094 192.658 111.288C192.45 111.116 192.298 110.879 192.101 110.699C192.081 110.265 192.081 109.805 192.081 109.307Z" fill="#F79235"/>
<path d="M233.531 86.0771C233.422 86.2107 233.296 86.2929 233.206 86.4042C232.71 87.0188 232.056 87.3019 231.284 87.3265C230.7 87.3451 230.118 87.3638 229.565 87.0908C228.662 86.645 228.245 86.09 228.354 85.1311C228.45 84.2873 229.05 83.8744 229.772 83.6093C230.444 83.3629 230.742 83.3754 232.217 83.592C232.217 82.3927 232.217 81.1961 232.217 79.9391C231.737 80.119 231.275 80.2816 230.821 80.4645C229.665 80.9307 228.519 81.4229 227.354 81.8647C227.086 81.9663 227.05 82.0921 227.051 82.327C227.057 84.1483 227.013 85.9708 227.07 87.7903C227.103 88.8525 226.513 89.4656 225.664 89.7415C224.532 90.1094 223.413 90.0585 222.432 89.268C221.655 88.6419 221.673 87.298 222.462 86.6688C223.399 85.9222 224.431 85.9264 225.516 86.1556C225.579 86.1689 225.642 86.1838 225.759 86.2101C225.759 86.0409 225.759 85.8988 225.759 85.7567C225.759 84.3402 225.764 82.9236 225.755 81.5071C225.754 81.1743 225.864 80.9714 226.192 80.8422C228.145 80.0727 230.091 79.2863 232.039 78.5041C232.519 78.3114 232.996 78.0569 233.508 78.452C233.531 80.9625 233.531 83.5008 233.531 86.0771Z" fill="#F79235"/>
<path d="M217.503 89.9078C219.18 89.8542 220.666 90.3808 222.007 91.3699C222.828 91.9755 223.452 92.7447 223.992 93.6011C225.016 95.224 225.261 97.0201 225.096 98.8701C224.93 100.731 224.252 102.415 222.941 103.848C222.881 103.891 222.864 103.912 222.847 103.934C222.847 103.934 222.847 103.928 222.828 103.935C222.789 103.977 222.769 104.012 222.749 104.046C222.749 104.046 222.74 104.067 222.701 104.06C222.55 104.09 222.428 104.109 222.327 104.167C220.83 105.03 219.196 105.399 217.491 105.456C215.368 105.528 213.372 105.004 211.507 104.002C207.471 101.834 205.845 97.7758 206.457 93.6295C206.732 91.7667 207.459 90.0655 208.537 88.542C209.384 87.3465 210.36 86.2432 211.271 85.0933C211.347 84.997 211.369 84.8576 211.416 84.7382C211.34 84.2042 211.236 83.6723 211.193 83.1356C211.138 82.4559 211.119 81.7724 211.108 81.0902C211.08 79.1554 211.609 77.3761 212.738 75.8102C213.703 74.4726 215.022 73.5854 216.663 73.3389C219.251 72.95 221.353 74.8024 221.72 77.0014C221.993 78.6334 221.502 80.0513 220.645 81.392C219.978 82.4353 219.077 83.2578 218.145 84.0534C217.616 84.5042 217.109 84.9798 216.591 85.442C216.392 85.6188 216.188 85.7893 215.941 85.9912C215.372 86.4803 214.832 86.9232 214.331 87.406C213.822 87.896 213.35 88.4253 212.841 88.9527C211.752 90.0823 210.777 91.2733 210.007 92.6129C209.111 94.1699 208.689 95.831 208.994 97.6442C209.322 99.5922 210.426 100.947 212.137 101.841C213.537 102.573 215.026 102.893 216.643 102.706C217.462 102.69 218.191 102.459 218.869 102.086C219.509 101.735 220.105 101.317 220.417 100.578C220.52 100.407 220.636 100.274 220.697 100.118C221.305 98.5738 221.433 97.0435 220.515 95.5602C220.14 94.9544 219.672 94.4473 218.956 94.1862C218.439 93.8089 217.86 93.7685 217.286 93.8187C216.424 93.8938 215.583 94.0598 214.955 94.7886C214.521 95.3212 214.209 95.8747 214.167 96.5659C214.143 96.9732 214.022 97.3747 213.92 97.7647C213.817 97.7534 213.737 97.7536 213.658 97.7597C212.631 97.8384 211.643 96.9969 211.597 95.974C211.527 94.4377 211.92 93.022 212.756 91.7287C212.83 91.6153 212.854 91.4699 212.908 91.3263C212.915 91.3133 212.943 91.3041 212.948 91.3103C212.952 91.3166 212.967 91.3117 212.967 91.3117C212.967 91.3117 212.954 91.2971 212.968 91.272C213.193 91.124 213.403 91.0011 213.642 90.8729C214.869 90.2362 216.153 89.9391 217.503 89.9078ZM211.804 84.5193C211.783 84.5357 211.767 84.5554 211.744 84.5819C211.744 84.5819 211.752 84.5759 211.783 84.5533C211.803 84.5363 211.819 84.5168 211.842 84.4903C211.842 84.4903 211.836 84.4979 211.804 84.5193ZM216.53 80.1646C217.095 79.5965 217.564 78.9655 217.788 78.1826C217.872 77.8883 217.895 77.5421 217.608 77.392C217.415 77.2911 217.101 77.3402 216.872 77.4145C216.658 77.4836 216.459 77.6509 216.295 77.8162C215.32 78.8009 215.027 80.0227 215.08 81.4631C215.589 81.0087 216.039 80.6069 216.53 80.1646Z" fill="#67D1B1"/>
<path d="M220.807 105.543C220.812 106.622 220.884 107.706 220.804 108.779C220.685 110.376 220.125 111.823 218.901 112.916C217.933 113.781 216.796 114.258 215.466 114.298C213.937 114.345 212.576 113.959 211.372 113.003C210.497 112.307 209.926 111.414 209.573 110.372C209.335 109.667 209.305 108.935 209.321 108.196C209.341 107.261 210.158 106.491 211.092 106.422C212.222 106.338 212.979 107.076 213.166 107.813C213.235 108.082 213.29 108.364 213.284 108.639C213.266 109.503 214.091 110.257 214.813 110.323C216.077 110.438 216.581 109.842 216.754 108.891C216.88 108.199 216.827 107.474 216.884 106.718C218.274 106.508 219.572 106.133 220.807 105.543Z" fill="#02B27D"/>
<path d="M204.933 85.8704C203.744 86.2097 202.629 86.1565 201.675 85.3585C200.903 84.7127 200.964 83.4018 201.739 82.7825C202.674 82.0347 203.707 82.0398 204.791 82.2699C204.842 82.2807 204.893 82.2934 204.944 82.303C204.957 82.3053 204.971 82.2987 205.009 82.2915C205.009 81.093 205.009 79.8897 205.009 78.6385C204.386 78.8798 203.787 79.1038 203.194 79.3427C202.172 79.7547 201.161 80.1949 200.129 80.5802C199.87 80.6772 199.851 80.8042 199.851 81.0167C199.854 82.8375 199.819 84.6592 199.867 86.4787C199.892 87.4272 199.472 88.0387 198.658 88.3641C197.519 88.8197 196.398 88.7961 195.342 88.0498C194.36 87.3564 194.431 85.7626 195.598 85.1257C196.543 84.6095 197.5 84.6714 198.539 84.9019C198.545 84.7582 198.557 84.6196 198.557 84.4811C198.558 83.0784 198.568 81.6756 198.55 80.2731C198.545 79.8846 198.682 79.6569 199.04 79.5147C201.088 78.7002 203.13 77.8723 205.179 77.0613C205.37 76.986 205.594 76.9732 205.802 76.9724C206.133 76.9711 206.326 77.16 206.327 77.4914C206.332 79.7843 206.345 82.0773 206.319 84.3699C206.312 84.9724 205.888 85.3603 205.386 85.6466C205.248 85.725 205.106 85.7944 204.933 85.8704Z" fill="#F79235"/>
<path d="M220.822 105.518C219.572 106.133 218.274 106.508 216.882 106.681C216.493 106.714 216.134 106.77 215.778 106.756C214.21 106.695 212.692 106.406 211.227 105.812C209.656 105.176 208.315 104.229 207.201 102.969C206.111 101.737 205.399 100.284 205.138 98.6718C204.959 97.5716 204.92 96.4306 204.976 95.3158C205.029 94.2834 205.339 93.2781 205.74 92.3081C206.404 90.7061 207.296 89.2467 208.433 87.9461C209.383 86.8588 210.387 85.8187 211.392 84.748C211.369 84.8576 211.347 84.997 211.271 85.0933C210.36 86.2432 209.384 87.3466 208.537 88.542C207.459 90.0655 206.732 91.7667 206.457 93.6295C205.845 97.7758 207.471 101.834 211.507 104.002C213.372 105.004 215.368 105.528 217.491 105.456C219.196 105.399 220.83 105.03 222.327 104.167C222.428 104.109 222.55 104.09 222.691 104.063C222.092 104.547 221.465 105.02 220.822 105.518Z" fill="#35C298"/>
<path d="M217.49 89.8819C216.153 89.9391 214.869 90.2362 213.63 90.8471C213.347 90.1969 213.105 89.5671 212.862 88.9374C213.35 88.4253 213.822 87.896 214.331 87.406C214.832 86.9232 215.372 86.4803 215.921 86.0092C216.33 86.966 216.713 87.9336 217.096 88.9009C217.222 89.2196 217.35 89.5376 217.49 89.8819Z" fill="#03B27D"/>
<path d="M222.766 104.035C222.769 104.012 222.789 103.977 222.831 103.936C222.829 103.961 222.806 103.992 222.766 104.035Z" fill="#35C298"/>
<path d="M222.868 103.927C222.864 103.912 222.881 103.891 222.916 103.86C222.919 103.874 222.904 103.897 222.868 103.927Z" fill="#35C298"/>
<path d="M212.841 88.9527C213.105 89.5671 213.347 90.1969 213.602 90.8525C213.403 91.0011 213.193 91.124 212.964 91.2713C212.946 91.2958 212.943 91.3041 212.943 91.3041C212.943 91.3041 212.915 91.3133 212.885 91.3394C212.372 91.8483 211.827 92.2841 211.421 92.8243C210.706 93.7759 210.312 94.8765 210.223 96.1106C210.2 96.2613 210.186 96.378 210.163 96.4927C210.002 97.28 210.356 98.4128 211.201 98.7847C211.67 98.8701 212.126 98.9889 212.577 98.9734C213.143 98.954 213.912 98.2725 213.944 97.7788C214.022 97.3747 214.143 96.9732 214.167 96.5659C214.209 95.8747 214.521 95.3212 214.961 94.8194C215.044 94.9755 215.111 95.1074 215.144 95.2472C215.527 96.8636 215.936 98.475 216.273 100.101C216.45 100.954 216.501 101.833 216.608 102.7C215.026 102.893 213.537 102.573 212.137 101.841C210.426 100.947 209.322 99.5922 208.994 97.6442C208.689 95.831 209.111 94.1699 210.007 92.6129C210.777 91.2733 211.752 90.0823 212.841 88.9527Z" fill="#E9EFFF"/>
<path d="M216.643 102.706C216.501 101.833 216.45 100.954 216.273 100.101C215.936 98.4751 215.527 96.8637 215.144 95.2472C215.111 95.1074 215.044 94.9755 214.987 94.8091C215.583 94.0598 216.424 93.8939 217.286 93.8187C217.86 93.7686 218.439 93.8089 218.962 94.2159C219.326 95.6432 219.685 97.0119 220.005 98.3897C220.174 99.1195 220.273 99.8653 220.404 100.604C220.105 101.317 219.509 101.735 218.869 102.086C218.191 102.459 217.462 102.69 216.643 102.706Z" fill="#02B27D"/>
<path d="M213.92 97.7647C213.912 98.2725 213.143 98.954 212.577 98.9734C212.126 98.9889 211.67 98.8701 211.196 98.7557C210.681 97.8903 210.408 96.9998 210.229 96.0757C210.312 94.8765 210.706 93.7759 211.421 92.8243C211.827 92.2841 212.372 91.8483 212.878 91.3524C212.854 91.4699 212.83 91.6153 212.756 91.7287C211.92 93.022 211.527 94.4377 211.597 95.974C211.643 96.9969 212.632 97.8384 213.658 97.7597C213.737 97.7536 213.817 97.7534 213.92 97.7647Z" fill="#36C398"/>
<path d="M220.417 100.578C220.273 99.8653 220.174 99.1195 220.005 98.3897C219.685 97.0118 219.326 95.6432 218.977 94.2411C219.672 94.4473 220.14 94.9543 220.515 95.5602C221.433 97.0435 221.305 98.5738 220.697 100.118C220.636 100.274 220.52 100.407 220.417 100.578Z" fill="#E9EFFF"/>
<path d="M216.51 80.185C216.039 80.607 215.589 81.0087 215.08 81.4631C215.027 80.0227 215.32 78.8009 216.295 77.8162C216.459 77.6509 216.658 77.4836 216.872 77.4145C217.101 77.3402 217.415 77.2911 217.608 77.392C217.895 77.5421 217.872 77.8883 217.788 78.1826C217.564 78.9655 217.095 79.5965 216.51 80.185Z" fill="#E9EFFF"/>
<path d="M211.752 84.576C211.752 84.576 211.744 84.5819 211.749 84.5795C211.754 84.577 211.752 84.576 211.752 84.576Z" fill="#35C298"/>
<path d="M212.948 91.3103C212.943 91.3041 212.946 91.2958 212.95 91.2965C212.954 91.2971 212.967 91.3117 212.967 91.3117C212.967 91.3117 212.953 91.3166 212.948 91.3103Z" fill="#36C398"/>
<path d="M211.754 84.5778C211.767 84.5555 211.783 84.5357 211.819 84.5077C211.834 84.4961 211.833 84.4947 211.833 84.4947C211.819 84.5168 211.803 84.5364 211.768 84.5646C211.752 84.576 211.754 84.577 211.754 84.5778Z" fill="#35C298"/>
<path d="M211.835 84.497C211.836 84.4979 211.842 84.4902 211.837 84.4925C211.833 84.4947 211.834 84.4961 211.835 84.497Z" fill="#35C298"/>
<path d="M210.223 96.1106C210.408 96.9999 210.681 97.8903 211.181 98.7296C210.356 98.4128 210.002 97.28 210.163 96.4927C210.186 96.378 210.2 96.2613 210.223 96.1106Z" fill="#65D0B0"/>
</g>
<defs>
<clipPath id="clip0_141_224">
<rect width="41.45" height="41.45" fill="white" transform="translate(192 73)"/>
</clipPath>
</defs>
</svg>
