<svg width="414" height="896" viewBox="0 0 414 896" fill="none" xmlns="http://www.w3.org/2000/svg">
<rect width="414" height="896" fill="#BDBBF2"/>
<path d="M87.592 156.832L86.584 157.24V144.472H89.776V160H86.584L74.032 147.736L75.04 147.328V160H71.848V144.472H75.04L87.592 156.832ZM100.105 160.288C98.6008 160.288 97.2728 160.048 96.1208 159.568C94.9848 159.088 94.0968 158.392 93.4568 157.48C92.8168 156.552 92.4968 155.416 92.4968 154.072C92.4968 152.728 92.8168 151.592 93.4568 150.664C94.0968 149.72 94.9848 149.008 96.1208 148.528C97.2728 148.048 98.6008 147.808 100.105 147.808C101.609 147.808 102.921 148.048 104.041 148.528C105.177 149.008 106.065 149.72 106.705 150.664C107.345 151.592 107.665 152.728 107.665 154.072C107.665 155.416 107.345 156.552 106.705 157.48C106.065 158.392 105.177 159.088 104.041 159.568C102.921 160.048 101.609 160.288 100.105 160.288ZM100.105 157.888C100.937 157.888 101.681 157.744 102.337 157.456C103.009 157.152 103.537 156.72 103.921 156.16C104.305 155.584 104.497 154.888 104.497 154.072C104.497 153.256 104.305 152.56 103.921 151.984C103.537 151.392 103.017 150.944 102.361 150.64C101.705 150.336 100.953 150.184 100.105 150.184C99.2728 150.184 98.5208 150.336 97.8488 150.64C97.1768 150.944 96.6408 151.384 96.2408 151.96C95.8568 152.536 95.6648 153.24 95.6648 154.072C95.6648 154.888 95.8568 155.584 96.2408 156.16C96.6248 156.72 97.1528 157.152 97.8248 157.456C98.4968 157.744 99.2568 157.888 100.105 157.888ZM114.92 148.288H124.52V150.664H114.92V148.288ZM122.216 143.272H124.688V145.792H122.96C122.496 145.776 122.096 145.824 121.76 145.936C121.424 146.048 121.168 146.256 120.992 146.56C120.816 146.848 120.728 147.264 120.728 147.808V160H117.608V147.424C117.608 146.464 117.784 145.68 118.136 145.072C118.488 144.448 119.008 143.992 119.696 143.704C120.384 143.416 121.224 143.272 122.216 143.272ZM126.471 148.072H129.591V160H126.471V148.072ZM134.175 150.64C133.279 150.64 132.503 150.816 131.847 151.168C131.191 151.504 130.663 151.92 130.263 152.416C129.863 152.912 129.583 153.392 129.423 153.856L129.399 152.536C129.415 152.344 129.479 152.064 129.591 151.696C129.703 151.312 129.871 150.904 130.095 150.472C130.319 150.024 130.615 149.6 130.983 149.2C131.351 148.784 131.799 148.448 132.327 148.192C132.855 147.936 133.471 147.808 134.175 147.808V150.64ZM139.68 142.84V145.576H136.056V142.84H139.68ZM136.296 148.072H139.416V160H136.296V148.072ZM142.766 143.272H145.886V160H142.766V143.272ZM149.282 143.272H152.402V160H149.282V143.272ZM155.077 156.04H157.957C158.133 156.584 158.493 157.032 159.037 157.384C159.597 157.72 160.325 157.888 161.221 157.888C161.829 157.888 162.301 157.832 162.637 157.72C162.973 157.608 163.205 157.448 163.333 157.24C163.461 157.016 163.525 156.768 163.525 156.496C163.525 156.16 163.421 155.904 163.213 155.728C163.005 155.536 162.685 155.384 162.253 155.272C161.821 155.16 161.269 155.056 160.597 154.96C159.925 154.848 159.277 154.712 158.653 154.552C158.029 154.392 157.477 154.184 156.997 153.928C156.517 153.656 156.133 153.32 155.845 152.92C155.573 152.504 155.437 152 155.437 151.408C155.437 150.832 155.573 150.32 155.845 149.872C156.133 149.424 156.525 149.048 157.021 148.744C157.533 148.44 158.125 148.208 158.797 148.048C159.485 147.888 160.221 147.808 161.005 147.808C162.189 147.808 163.173 147.984 163.957 148.336C164.741 148.672 165.325 149.152 165.709 149.776C166.109 150.384 166.309 151.088 166.309 151.888H163.549C163.421 151.296 163.165 150.872 162.781 150.616C162.397 150.344 161.805 150.208 161.005 150.208C160.221 150.208 159.629 150.328 159.229 150.568C158.829 150.808 158.629 151.136 158.629 151.552C158.629 151.888 158.749 152.152 158.989 152.344C159.245 152.52 159.613 152.664 160.093 152.776C160.589 152.888 161.205 153.008 161.941 153.136C162.565 153.264 163.157 153.408 163.717 153.568C164.293 153.728 164.805 153.936 165.253 154.192C165.701 154.432 166.053 154.76 166.309 155.176C166.581 155.576 166.717 156.088 166.717 156.712C166.717 157.48 166.493 158.128 166.045 158.656C165.613 159.184 164.989 159.592 164.173 159.88C163.357 160.152 162.381 160.288 161.245 160.288C160.237 160.288 159.365 160.184 158.629 159.976C157.909 159.752 157.309 159.472 156.829 159.136C156.349 158.784 155.973 158.416 155.701 158.032C155.445 157.632 155.269 157.256 155.173 156.904C155.077 156.552 155.045 156.264 155.077 156.04ZM169.272 163.576L168.84 162.76C169.08 162.408 169.312 162.016 169.536 161.584C169.776 161.152 169.904 160.712 169.92 160.264L168.6 160V157.24H172.272V159.208C172.272 160.344 172 161.256 171.456 161.944C170.928 162.648 170.2 163.192 169.272 163.576ZM180.688 148.072H183.808V164.8H180.688V148.072ZM184.024 142.84V145.576H180.4V142.84H184.024ZM200.67 160H197.55V148.072H200.67V160ZM197.718 154.264L197.742 155.08C197.71 155.304 197.63 155.632 197.502 156.064C197.374 156.48 197.174 156.928 196.902 157.408C196.646 157.888 196.31 158.352 195.894 158.8C195.478 159.232 194.966 159.592 194.358 159.88C193.75 160.152 193.03 160.288 192.198 160.288C191.542 160.288 190.894 160.208 190.254 160.048C189.63 159.888 189.062 159.624 188.55 159.256C188.038 158.872 187.63 158.36 187.326 157.72C187.022 157.08 186.87 156.272 186.87 155.296V148.072H189.99V154.768C189.99 155.536 190.11 156.144 190.35 156.592C190.606 157.024 190.974 157.328 191.454 157.504C191.934 157.68 192.502 157.768 193.158 157.768C194.022 157.768 194.766 157.584 195.39 157.216C196.014 156.832 196.518 156.368 196.902 155.824C197.302 155.28 197.574 154.76 197.718 154.264ZM203.03 156.04H205.91C206.086 156.584 206.446 157.032 206.99 157.384C207.55 157.72 208.278 157.888 209.174 157.888C209.782 157.888 210.254 157.832 210.59 157.72C210.926 157.608 211.158 157.448 211.286 157.24C211.414 157.016 211.478 156.768 211.478 156.496C211.478 156.16 211.374 155.904 211.166 155.728C210.958 155.536 210.638 155.384 210.206 155.272C209.774 155.16 209.222 155.056 208.55 154.96C207.878 154.848 207.23 154.712 206.606 154.552C205.982 154.392 205.43 154.184 204.95 153.928C204.47 153.656 204.086 153.32 203.798 152.92C203.526 152.504 203.39 152 203.39 151.408C203.39 150.832 203.526 150.32 203.798 149.872C204.086 149.424 204.478 149.048 204.974 148.744C205.486 148.44 206.078 148.208 206.75 148.048C207.438 147.888 208.174 147.808 208.958 147.808C210.142 147.808 211.126 147.984 211.91 148.336C212.694 148.672 213.278 149.152 213.662 149.776C214.062 150.384 214.262 151.088 214.262 151.888H211.502C211.374 151.296 211.118 150.872 210.734 150.616C210.35 150.344 209.758 150.208 208.958 150.208C208.174 150.208 207.582 150.328 207.182 150.568C206.782 150.808 206.582 151.136 206.582 151.552C206.582 151.888 206.702 152.152 206.942 152.344C207.198 152.52 207.566 152.664 208.046 152.776C208.542 152.888 209.158 153.008 209.894 153.136C210.518 153.264 211.11 153.408 211.67 153.568C212.246 153.728 212.758 153.936 213.206 154.192C213.654 154.432 214.006 154.76 214.262 155.176C214.534 155.576 214.67 156.088 214.67 156.712C214.67 157.48 214.446 158.128 213.998 158.656C213.566 159.184 212.942 159.592 212.126 159.88C211.31 160.152 210.334 160.288 209.198 160.288C208.19 160.288 207.318 160.184 206.582 159.976C205.862 159.752 205.262 159.472 204.782 159.136C204.302 158.784 203.926 158.416 203.654 158.032C203.398 157.632 203.222 157.256 203.126 156.904C203.03 156.552 202.998 156.264 203.03 156.04ZM216.217 148.072H225.481V150.496H216.217V148.072ZM219.289 144.808H222.409V160H219.289V144.808ZM241.941 160.288C240.885 160.288 239.981 160.104 239.229 159.736C238.493 159.352 237.893 158.856 237.429 158.248C236.965 157.624 236.621 156.944 236.397 156.208C236.173 155.472 236.061 154.752 236.061 154.048C236.061 153.168 236.165 152.352 236.373 151.6C236.597 150.848 236.941 150.192 237.405 149.632C237.869 149.056 238.469 148.608 239.205 148.288C239.957 147.968 240.869 147.808 241.941 147.808C243.141 147.808 244.221 148.072 245.181 148.6C246.141 149.128 246.901 149.864 247.461 150.808C248.037 151.736 248.325 152.816 248.325 154.048C248.325 155.312 248.037 156.416 247.461 157.36C246.885 158.288 246.117 159.008 245.157 159.52C244.197 160.032 243.125 160.288 241.941 160.288ZM240.933 157.864C241.781 157.864 242.517 157.704 243.141 157.384C243.781 157.064 244.269 156.624 244.605 156.064C244.957 155.488 245.133 154.816 245.133 154.048C245.133 152.896 244.765 151.968 244.029 151.264C243.309 150.56 242.277 150.208 240.933 150.208C240.085 150.208 239.309 150.36 238.605 150.664C237.917 150.968 237.373 151.408 236.973 151.984C236.573 152.544 236.373 153.232 236.373 154.048C236.373 154.816 236.557 155.488 236.925 156.064C237.293 156.624 237.821 157.064 238.509 157.384C239.197 157.704 240.005 157.864 240.933 157.864ZM233.253 148.072H236.229L236.373 151.24V164.8H233.253V148.072ZM256.428 160.264C255.244 160.264 254.164 160.008 253.188 159.496C252.228 158.968 251.46 158.24 250.884 157.312C250.324 156.368 250.044 155.28 250.044 154.048C250.044 152.784 250.332 151.688 250.908 150.76C251.484 149.832 252.26 149.112 253.236 148.6C254.228 148.072 255.348 147.808 256.596 147.808C257.972 147.808 259.076 148.088 259.908 148.648C260.756 149.192 261.372 149.936 261.756 150.88C262.14 151.824 262.332 152.88 262.332 154.048C262.332 154.752 262.22 155.472 261.996 156.208C261.772 156.928 261.428 157.6 260.964 158.224C260.5 158.832 259.892 159.328 259.14 159.712C258.388 160.08 257.484 160.264 256.428 160.264ZM257.436 157.864C258.38 157.864 259.196 157.704 259.884 157.384C260.572 157.064 261.1 156.616 261.468 156.04C261.836 155.464 262.02 154.8 262.02 154.048C262.02 153.232 261.828 152.544 261.444 151.984C261.076 151.408 260.548 150.976 259.86 150.688C259.188 150.384 258.38 150.232 257.436 150.232C256.108 150.232 255.076 150.584 254.34 151.288C253.604 151.976 253.236 152.896 253.236 154.048C253.236 154.816 253.412 155.488 253.764 156.064C254.116 156.624 254.604 157.064 255.228 157.384C255.868 157.704 256.604 157.864 257.436 157.864ZM262.02 148.072H265.14V160H262.236C262.236 160 262.212 159.848 262.164 159.544C262.132 159.224 262.1 158.824 262.068 158.344C262.036 157.864 262.02 157.392 262.02 156.928V148.072ZM267.483 156.04H270.363C270.539 156.584 270.899 157.032 271.443 157.384C272.003 157.72 272.731 157.888 273.627 157.888C274.235 157.888 274.707 157.832 275.043 157.72C275.379 157.608 275.611 157.448 275.739 157.24C275.867 157.016 275.931 156.768 275.931 156.496C275.931 156.16 275.827 155.904 275.619 155.728C275.411 155.536 275.091 155.384 274.659 155.272C274.227 155.16 273.675 155.056 273.003 154.96C272.331 154.848 271.683 154.712 271.059 154.552C270.435 154.392 269.883 154.184 269.403 153.928C268.923 153.656 268.539 153.32 268.251 152.92C267.979 152.504 267.843 152 267.843 151.408C267.843 150.832 267.979 150.32 268.251 149.872C268.539 149.424 268.931 149.048 269.427 148.744C269.939 148.44 270.531 148.208 271.203 148.048C271.891 147.888 272.627 147.808 273.411 147.808C274.595 147.808 275.579 147.984 276.363 148.336C277.147 148.672 277.731 149.152 278.115 149.776C278.515 150.384 278.715 151.088 278.715 151.888H275.955C275.827 151.296 275.571 150.872 275.187 150.616C274.803 150.344 274.211 150.208 273.411 150.208C272.627 150.208 272.035 150.328 271.635 150.568C271.235 150.808 271.035 151.136 271.035 151.552C271.035 151.888 271.155 152.152 271.395 152.344C271.651 152.52 272.019 152.664 272.499 152.776C272.995 152.888 273.611 153.008 274.347 153.136C274.971 153.264 275.563 153.408 276.123 153.568C276.699 153.728 277.211 153.936 277.659 154.192C278.107 154.432 278.459 154.76 278.715 155.176C278.987 155.576 279.123 156.088 279.123 156.712C279.123 157.48 278.899 158.128 278.451 158.656C278.019 159.184 277.395 159.592 276.579 159.88C275.763 160.152 274.787 160.288 273.651 160.288C272.643 160.288 271.771 160.184 271.035 159.976C270.315 159.752 269.715 159.472 269.235 159.136C268.755 158.784 268.379 158.416 268.107 158.032C267.851 157.632 267.675 157.256 267.579 156.904C267.483 156.552 267.451 156.264 267.483 156.04ZM280.67 148.072H289.934V150.496H280.67V148.072ZM283.742 144.808H286.862V160H283.742V144.808ZM302.625 156.04H305.649C305.521 156.856 305.177 157.584 304.617 158.224C304.073 158.864 303.329 159.368 302.385 159.736C301.441 160.104 300.289 160.288 298.929 160.288C297.409 160.288 296.065 160.048 294.897 159.568C293.729 159.072 292.817 158.36 292.161 157.432C291.505 156.504 291.177 155.384 291.177 154.072C291.177 152.76 291.497 151.64 292.137 150.712C292.777 149.768 293.665 149.048 294.801 148.552C295.953 148.056 297.297 147.808 298.833 147.808C300.401 147.808 301.705 148.056 302.745 148.552C303.785 149.048 304.553 149.8 305.049 150.808C305.561 151.8 305.777 153.072 305.697 154.624H294.321C294.401 155.232 294.625 155.784 294.993 156.28C295.377 156.776 295.889 157.168 296.529 157.456C297.185 157.744 297.961 157.888 298.857 157.888C299.849 157.888 300.673 157.72 301.329 157.384C302.001 157.032 302.433 156.584 302.625 156.04ZM298.689 150.184C297.537 150.184 296.601 150.44 295.881 150.952C295.161 151.448 294.697 152.064 294.489 152.8H302.601C302.521 152 302.137 151.368 301.449 150.904C300.777 150.424 299.857 150.184 298.689 150.184ZM70.36 177.072H73.672L78.832 188.52L76.144 189L70.36 177.072ZM84.952 177.072L76.696 193.8H73.456L76.984 187.224L81.616 177.072H84.952ZM93.2611 189.288C91.7571 189.288 90.4291 189.048 89.2771 188.568C88.1411 188.088 87.2531 187.392 86.6131 186.48C85.9731 185.552 85.6531 184.416 85.6531 183.072C85.6531 181.728 85.9731 180.592 86.6131 179.664C87.2531 178.72 88.1411 178.008 89.2771 177.528C90.4291 177.048 91.7571 176.808 93.2611 176.808C94.7651 176.808 96.0771 177.048 97.1971 177.528C98.3331 178.008 99.2211 178.72 99.8611 179.664C100.501 180.592 100.821 181.728 100.821 183.072C100.821 184.416 100.501 185.552 99.8611 186.48C99.2211 187.392 98.3331 188.088 97.1971 188.568C96.0771 189.048 94.7651 189.288 93.2611 189.288ZM93.2611 186.888C94.0931 186.888 94.8371 186.744 95.4931 186.456C96.1651 186.152 96.6931 185.72 97.0771 185.16C97.4611 184.584 97.6531 183.888 97.6531 183.072C97.6531 182.256 97.4611 181.56 97.0771 180.984C96.6931 180.392 96.1731 179.944 95.5171 179.64C94.8611 179.336 94.1091 179.184 93.2611 179.184C92.4291 179.184 91.6771 179.336 91.0051 179.64C90.3331 179.944 89.7971 180.384 89.3971 180.96C89.0131 181.536 88.8211 182.24 88.8211 183.072C88.8211 183.888 89.0131 184.584 89.3971 185.16C89.7811 185.72 90.3091 186.152 90.9811 186.456C91.6531 186.744 92.4131 186.888 93.2611 186.888ZM116.928 189H113.807V177.072H116.928V189ZM113.976 183.264L114 184.08C113.968 184.304 113.888 184.632 113.76 185.064C113.632 185.48 113.432 185.928 113.16 186.408C112.904 186.888 112.568 187.352 112.152 187.8C111.736 188.232 111.224 188.592 110.616 188.88C110.008 189.152 109.288 189.288 108.456 189.288C107.8 189.288 107.152 189.208 106.512 189.048C105.888 188.888 105.32 188.624 104.808 188.256C104.296 187.872 103.888 187.36 103.584 186.72C103.28 186.08 103.128 185.272 103.128 184.296V177.072H106.248V183.768C106.248 184.536 106.368 185.144 106.608 185.592C106.864 186.024 107.232 186.328 107.712 186.504C108.192 186.68 108.76 186.768 109.416 186.768C110.28 186.768 111.024 186.584 111.648 186.216C112.272 185.832 112.776 185.368 113.16 184.824C113.56 184.28 113.832 183.76 113.976 183.264ZM119.768 177.072H122.888V189H119.768V177.072ZM127.472 179.64C126.576 179.64 125.8 179.816 125.144 180.168C124.488 180.504 123.96 180.92 123.56 181.416C123.16 181.912 122.88 182.392 122.72 182.856L122.696 181.536C122.712 181.344 122.776 181.064 122.888 180.696C123 180.312 123.168 179.904 123.392 179.472C123.616 179.024 123.912 178.6 124.28 178.2C124.648 177.784 125.096 177.448 125.624 177.192C126.152 176.936 126.768 176.808 127.472 176.808V179.64ZM134.35 177.288H143.95V179.664H134.35V177.288ZM141.646 172.272H144.118V174.792H142.39C141.926 174.776 141.526 174.824 141.19 174.936C140.854 175.048 140.598 175.256 140.422 175.56C140.246 175.848 140.158 176.264 140.158 176.808V189H137.038V176.424C137.038 175.464 137.214 174.68 137.566 174.072C137.918 173.448 138.438 172.992 139.126 172.704C139.814 172.416 140.654 172.272 141.646 172.272ZM145.901 177.072H149.021V189H145.901V177.072ZM153.605 179.64C152.709 179.64 151.933 179.816 151.277 180.168C150.621 180.504 150.093 180.92 149.693 181.416C149.293 181.912 149.013 182.392 148.853 182.856L148.829 181.536C148.845 181.344 148.909 181.064 149.021 180.696C149.133 180.312 149.301 179.904 149.525 179.472C149.749 179.024 150.045 178.6 150.413 178.2C150.781 177.784 151.229 177.448 151.757 177.192C152.285 176.936 152.901 176.808 153.605 176.808V179.64ZM159.11 171.84V174.576H155.486V171.84H159.11ZM155.726 177.072H158.846V189H155.726V177.072ZM172.828 185.04H175.852C175.724 185.856 175.38 186.584 174.82 187.224C174.276 187.864 173.532 188.368 172.588 188.736C171.644 189.104 170.492 189.288 169.132 189.288C167.612 189.288 166.268 189.048 165.1 188.568C163.932 188.072 163.02 187.36 162.364 186.432C161.708 185.504 161.38 184.384 161.38 183.072C161.38 181.76 161.7 180.64 162.34 179.712C162.98 178.768 163.868 178.048 165.004 177.552C166.156 177.056 167.5 176.808 169.036 176.808C170.604 176.808 171.908 177.056 172.948 177.552C173.988 178.048 174.756 178.8 175.252 179.808C175.764 180.8 175.98 182.072 175.9 183.624H164.524C164.604 184.232 164.828 184.784 165.196 185.28C165.58 185.776 166.092 186.168 166.732 186.456C167.388 186.744 168.164 186.888 169.06 186.888C170.052 186.888 170.876 186.72 171.532 186.384C172.204 186.032 172.636 185.584 172.828 185.04ZM168.892 179.184C167.74 179.184 166.804 179.44 166.084 179.952C165.364 180.448 164.9 181.064 164.692 181.8H172.804C172.724 181 172.34 180.368 171.652 179.904C170.98 179.424 170.06 179.184 168.892 179.184ZM178.221 177.072H181.341V189H178.221V177.072ZM186.885 176.808C187.621 176.808 188.301 176.904 188.925 177.096C189.549 177.288 190.093 177.584 190.557 177.984C191.021 178.384 191.381 178.896 191.637 179.52C191.893 180.128 192.021 180.856 192.021 181.704V189H188.901V182.256C188.901 181.248 188.653 180.512 188.157 180.048C187.677 179.568 186.885 179.328 185.781 179.328C184.949 179.328 184.197 179.488 183.525 179.808C182.853 180.128 182.309 180.536 181.893 181.032C181.477 181.512 181.237 182.016 181.173 182.544L181.149 181.32C181.229 180.76 181.413 180.216 181.701 179.688C181.989 179.16 182.373 178.68 182.853 178.248C183.349 177.8 183.933 177.448 184.605 177.192C185.277 176.936 186.037 176.808 186.885 176.808ZM200.67 189.264C199.47 189.264 198.382 189.008 197.406 188.496C196.446 187.968 195.686 187.24 195.126 186.312C194.566 185.368 194.286 184.28 194.286 183.048C194.286 181.784 194.558 180.688 195.102 179.76C195.662 178.832 196.422 178.112 197.382 177.6C198.342 177.072 199.438 176.808 200.67 176.808C201.742 176.808 202.654 176.968 203.406 177.288C204.158 177.608 204.766 178.056 205.23 178.632C205.694 179.192 206.03 179.848 206.238 180.6C206.462 181.352 206.574 182.168 206.574 183.048C206.574 183.752 206.462 184.472 206.238 185.208C206.014 185.928 205.67 186.6 205.206 187.224C204.742 187.832 204.134 188.328 203.382 188.712C202.63 189.08 201.726 189.264 200.67 189.264ZM201.678 186.864C202.622 186.864 203.438 186.704 204.126 186.384C204.814 186.064 205.342 185.616 205.71 185.04C206.078 184.464 206.262 183.8 206.262 183.048C206.262 182.232 206.07 181.544 205.686 180.984C205.318 180.408 204.79 179.968 204.102 179.664C203.43 179.36 202.622 179.208 201.678 179.208C200.35 179.208 199.318 179.56 198.582 180.264C197.846 180.968 197.478 181.896 197.478 183.048C197.478 183.816 197.654 184.488 198.006 185.064C198.358 185.624 198.846 186.064 199.47 186.384C200.11 186.704 200.846 186.864 201.678 186.864ZM206.262 172.272H209.382V189H206.478C206.43 188.632 206.382 188.16 206.334 187.584C206.286 186.992 206.262 186.44 206.262 185.928V172.272ZM212.913 179.664L212.481 178.848C212.721 178.496 212.953 178.104 213.177 177.672C213.417 177.224 213.545 176.776 213.561 176.328L212.241 176.064V173.328H215.913V175.296C215.913 176.416 215.641 177.328 215.097 178.032C214.569 178.72 213.841 179.264 212.913 179.664ZM217.819 185.04H220.699C220.875 185.584 221.235 186.032 221.779 186.384C222.339 186.72 223.067 186.888 223.963 186.888C224.571 186.888 225.043 186.832 225.379 186.72C225.715 186.608 225.947 186.448 226.075 186.24C226.203 186.016 226.267 185.768 226.267 185.496C226.267 185.16 226.163 184.904 225.955 184.728C225.747 184.536 225.427 184.384 224.995 184.272C224.563 184.16 224.011 184.056 223.339 183.96C222.667 183.848 222.019 183.712 221.395 183.552C220.771 183.392 220.219 183.184 219.739 182.928C219.259 182.656 218.875 182.32 218.587 181.92C218.315 181.504 218.179 181 218.179 180.408C218.179 179.832 218.315 179.32 218.587 178.872C218.875 178.424 219.267 178.048 219.763 177.744C220.275 177.44 220.867 177.208 221.539 177.048C222.227 176.888 222.963 176.808 223.747 176.808C224.931 176.808 225.915 176.984 226.699 177.336C227.483 177.672 228.067 178.152 228.451 178.776C228.851 179.384 229.051 180.088 229.051 180.888H226.291C226.163 180.296 225.907 179.872 225.523 179.616C225.139 179.344 224.547 179.208 223.747 179.208C222.963 179.208 222.371 179.328 221.971 179.568C221.571 179.808 221.371 180.136 221.371 180.552C221.371 180.888 221.491 181.152 221.731 181.344C221.987 181.52 222.355 181.664 222.835 181.776C223.331 181.888 223.947 182.008 224.683 182.136C225.307 182.264 225.899 182.408 226.459 182.568C227.035 182.728 227.547 182.936 227.995 183.192C228.443 183.432 228.795 183.76 229.051 184.176C229.323 184.576 229.459 185.088 229.459 185.712C229.459 186.48 229.235 187.128 228.787 187.656C228.355 188.184 227.731 188.592 226.915 188.88C226.099 189.152 225.123 189.288 223.987 189.288C222.979 189.288 222.107 189.184 221.371 188.976C220.651 188.752 220.051 188.472 219.571 188.136C219.091 187.784 218.715 187.416 218.443 187.032C218.187 186.632 218.011 186.256 217.915 185.904C217.819 185.552 217.787 185.264 217.819 185.04ZM251.795 184.296C251.715 185.336 251.379 186.232 250.787 186.984C250.211 187.736 249.411 188.312 248.387 188.712C247.363 189.096 246.147 189.288 244.739 189.288C243.267 189.288 241.947 189.056 240.779 188.592C239.627 188.112 238.715 187.416 238.043 186.504C237.387 185.576 237.059 184.432 237.059 183.072C237.059 181.712 237.387 180.568 238.043 179.64C238.715 178.712 239.627 178.008 240.779 177.528C241.947 177.048 243.267 176.808 244.739 176.808C246.147 176.808 247.355 177.008 248.363 177.408C249.371 177.792 250.163 178.352 250.739 179.088C251.331 179.824 251.675 180.712 251.771 181.752H248.915C248.643 180.952 248.139 180.328 247.403 179.88C246.667 179.432 245.779 179.208 244.739 179.208C243.907 179.208 243.147 179.352 242.459 179.64C241.787 179.928 241.243 180.36 240.827 180.936C240.427 181.496 240.227 182.208 240.227 183.072C240.227 183.92 240.427 184.632 240.827 185.208C241.227 185.768 241.771 186.192 242.459 186.48C243.147 186.752 243.907 186.888 244.739 186.888C245.859 186.888 246.771 186.664 247.475 186.216C248.195 185.768 248.683 185.128 248.939 184.296H251.795ZM261.12 189.288C259.616 189.288 258.288 189.048 257.136 188.568C256 188.088 255.112 187.392 254.472 186.48C253.832 185.552 253.512 184.416 253.512 183.072C253.512 181.728 253.832 180.592 254.472 179.664C255.112 178.72 256 178.008 257.136 177.528C258.288 177.048 259.616 176.808 261.12 176.808C262.624 176.808 263.936 177.048 265.056 177.528C266.192 178.008 267.08 178.72 267.72 179.664C268.36 180.592 268.68 181.728 268.68 183.072C268.68 184.416 268.36 185.552 267.72 186.48C267.08 187.392 266.192 188.088 265.056 188.568C263.936 189.048 262.624 189.288 261.12 189.288ZM261.12 186.888C261.952 186.888 262.696 186.744 263.352 186.456C264.024 186.152 264.552 185.72 264.936 185.16C265.32 184.584 265.512 183.888 265.512 183.072C265.512 182.256 265.32 181.56 264.936 180.984C264.552 180.392 264.032 179.944 263.376 179.64C262.72 179.336 261.968 179.184 261.12 179.184C260.288 179.184 259.536 179.336 258.864 179.64C258.192 179.944 257.656 180.384 257.256 180.96C256.872 181.536 256.68 182.24 256.68 183.072C256.68 183.888 256.872 184.584 257.256 185.16C257.64 185.72 258.168 186.152 258.84 186.456C259.512 186.744 260.272 186.888 261.12 186.888ZM276.795 189.264C275.595 189.264 274.507 189.008 273.531 188.496C272.571 187.968 271.811 187.24 271.251 186.312C270.691 185.368 270.411 184.28 270.411 183.048C270.411 181.784 270.683 180.688 271.227 179.76C271.787 178.832 272.547 178.112 273.507 177.6C274.467 177.072 275.563 176.808 276.795 176.808C277.867 176.808 278.779 176.968 279.531 177.288C280.283 177.608 280.891 178.056 281.355 178.632C281.819 179.192 282.155 179.848 282.363 180.6C282.587 181.352 282.699 182.168 282.699 183.048C282.699 183.752 282.587 184.472 282.363 185.208C282.139 185.928 281.795 186.6 281.331 187.224C280.867 187.832 280.259 188.328 279.507 188.712C278.755 189.08 277.851 189.264 276.795 189.264ZM277.803 186.864C278.747 186.864 279.563 186.704 280.251 186.384C280.939 186.064 281.467 185.616 281.835 185.04C282.203 184.464 282.387 183.8 282.387 183.048C282.387 182.232 282.195 181.544 281.811 180.984C281.443 180.408 280.915 179.968 280.227 179.664C279.555 179.36 278.747 179.208 277.803 179.208C276.475 179.208 275.443 179.56 274.707 180.264C273.971 180.968 273.603 181.896 273.603 183.048C273.603 183.816 273.779 184.488 274.131 185.064C274.483 185.624 274.971 186.064 275.595 186.384C276.235 186.704 276.971 186.864 277.803 186.864ZM282.387 172.272H285.507V189H282.603C282.555 188.632 282.507 188.16 282.459 187.584C282.411 186.992 282.387 186.44 282.387 185.928V172.272ZM299.742 185.04H302.766C302.638 185.856 302.294 186.584 301.734 187.224C301.19 187.864 300.446 188.368 299.502 188.736C298.558 189.104 297.406 189.288 296.046 189.288C294.526 189.288 293.182 189.048 292.014 188.568C290.846 188.072 289.934 187.36 289.278 186.432C288.622 185.504 288.294 184.384 288.294 183.072C288.294 181.76 288.614 180.64 289.254 179.712C289.894 178.768 290.782 178.048 291.918 177.552C293.07 177.056 294.414 176.808 295.95 176.808C297.518 176.808 298.822 177.056 299.862 177.552C300.902 178.048 301.67 178.8 302.166 179.808C302.678 180.8 302.894 182.072 302.814 183.624H291.438C291.518 184.232 291.742 184.784 292.11 185.28C292.494 185.776 293.006 186.168 293.646 186.456C294.302 186.744 295.078 186.888 295.974 186.888C296.966 186.888 297.79 186.72 298.446 186.384C299.118 186.032 299.55 185.584 299.742 185.04ZM295.806 179.184C294.654 179.184 293.718 179.44 292.998 179.952C292.278 180.448 291.814 181.064 291.606 181.8H299.718C299.638 181 299.254 180.368 298.566 179.904C297.894 179.424 296.974 179.184 295.806 179.184ZM77.248 218.264C76.064 218.264 74.984 218.008 74.008 217.496C73.048 216.968 72.28 216.24 71.704 215.312C71.144 214.368 70.864 213.28 70.864 212.048C70.864 210.784 71.152 209.688 71.728 208.76C72.304 207.832 73.08 207.112 74.056 206.6C75.048 206.072 76.168 205.808 77.416 205.808C78.792 205.808 79.896 206.088 80.728 206.648C81.576 207.192 82.192 207.936 82.576 208.88C82.96 209.824 83.152 210.88 83.152 212.048C83.152 212.752 83.04 213.472 82.816 214.208C82.592 214.928 82.248 215.6 81.784 216.224C81.32 216.832 80.712 217.328 79.96 217.712C79.208 218.08 78.304 218.264 77.248 218.264ZM78.256 215.864C79.2 215.864 80.016 215.704 80.704 215.384C81.392 215.064 81.92 214.616 82.288 214.04C82.656 213.464 82.84 212.8 82.84 212.048C82.84 211.232 82.648 210.544 82.264 209.984C81.896 209.408 81.368 208.976 80.68 208.688C80.008 208.384 79.2 208.232 78.256 208.232C76.928 208.232 75.896 208.584 75.16 209.288C74.424 209.976 74.056 210.896 74.056 212.048C74.056 212.816 74.232 213.488 74.584 214.064C74.936 214.624 75.424 215.064 76.048 215.384C76.688 215.704 77.424 215.864 78.256 215.864ZM82.84 206.072H85.96V218H83.056C83.056 218 83.032 217.848 82.984 217.544C82.952 217.224 82.92 216.824 82.888 216.344C82.856 215.864 82.84 215.392 82.84 214.928V206.072ZM88.7838 206.072H91.9038V218H88.7838V206.072ZM97.4478 205.808C98.1838 205.808 98.8638 205.904 99.4878 206.096C100.112 206.288 100.656 206.584 101.12 206.984C101.584 207.384 101.944 207.896 102.2 208.52C102.456 209.128 102.584 209.856 102.584 210.704V218H99.4637V211.256C99.4637 210.248 99.2158 209.512 98.7198 209.048C98.2398 208.568 97.4478 208.328 96.3438 208.328C95.5118 208.328 94.7598 208.488 94.0878 208.808C93.4158 209.128 92.8718 209.536 92.4558 210.032C92.0398 210.512 91.7998 211.016 91.7358 211.544L91.7118 210.32C91.7918 209.76 91.9758 209.216 92.2638 208.688C92.5518 208.16 92.9358 207.68 93.4158 207.248C93.9118 206.8 94.4958 206.448 95.1678 206.192C95.8398 205.936 96.5998 205.808 97.4478 205.808ZM111.232 218.264C110.032 218.264 108.944 218.008 107.968 217.496C107.008 216.968 106.248 216.24 105.688 215.312C105.128 214.368 104.848 213.28 104.848 212.048C104.848 210.784 105.12 209.688 105.664 208.76C106.224 207.832 106.984 207.112 107.944 206.6C108.904 206.072 110 205.808 111.232 205.808C112.304 205.808 113.216 205.968 113.968 206.288C114.72 206.608 115.328 207.056 115.792 207.632C116.256 208.192 116.592 208.848 116.8 209.6C117.024 210.352 117.136 211.168 117.136 212.048C117.136 212.752 117.024 213.472 116.8 214.208C116.576 214.928 116.232 215.6 115.768 216.224C115.304 216.832 114.696 217.328 113.944 217.712C113.192 218.08 112.288 218.264 111.232 218.264ZM112.24 215.864C113.184 215.864 114 215.704 114.688 215.384C115.376 215.064 115.904 214.616 116.272 214.04C116.64 213.464 116.824 212.8 116.824 212.048C116.824 211.232 116.632 210.544 116.248 209.984C115.88 209.408 115.352 208.968 114.664 208.664C113.992 208.36 113.184 208.208 112.24 208.208C110.912 208.208 109.88 208.56 109.144 209.264C108.408 209.968 108.04 210.896 108.04 212.048C108.04 212.816 108.216 213.488 108.568 214.064C108.92 214.624 109.408 215.064 110.032 215.384C110.672 215.704 111.408 215.864 112.24 215.864ZM116.824 201.272H119.944V218H117.04C116.992 217.632 116.944 217.16 116.896 216.584C116.848 215.992 116.824 215.44 116.824 214.928V201.272ZM128.016 206.072H131.328L136.488 217.52L133.8 218L128.016 206.072ZM142.608 206.072L134.352 222.8H131.112L134.64 216.224L139.272 206.072H142.608ZM150.917 218.288C149.413 218.288 148.085 218.048 146.933 217.568C145.797 217.088 144.909 216.392 144.269 215.48C143.629 214.552 143.309 213.416 143.309 212.072C143.309 210.728 143.629 209.592 144.269 208.664C144.909 207.72 145.797 207.008 146.933 206.528C148.085 206.048 149.413 205.808 150.917 205.808C152.421 205.808 153.733 206.048 154.853 206.528C155.989 207.008 156.877 207.72 157.517 208.664C158.157 209.592 158.477 210.728 158.477 212.072C158.477 213.416 158.157 214.552 157.517 215.48C156.877 216.392 155.989 217.088 154.853 217.568C153.733 218.048 152.421 218.288 150.917 218.288ZM150.917 215.888C151.749 215.888 152.493 215.744 153.149 215.456C153.821 215.152 154.349 214.72 154.733 214.16C155.117 213.584 155.309 212.888 155.309 212.072C155.309 211.256 155.117 210.56 154.733 209.984C154.349 209.392 153.829 208.944 153.173 208.64C152.517 208.336 151.765 208.184 150.917 208.184C150.085 208.184 149.333 208.336 148.661 208.64C147.989 208.944 147.453 209.384 147.053 209.96C146.669 210.536 146.477 211.24 146.477 212.072C146.477 212.888 146.669 213.584 147.053 214.16C147.437 214.72 147.965 215.152 148.637 215.456C149.309 215.744 150.069 215.888 150.917 215.888ZM174.584 218H171.464V206.072H174.584V218ZM171.632 212.264L171.656 213.08C171.624 213.304 171.544 213.632 171.416 214.064C171.288 214.48 171.088 214.928 170.816 215.408C170.56 215.888 170.224 216.352 169.808 216.8C169.392 217.232 168.88 217.592 168.272 217.88C167.664 218.152 166.944 218.288 166.112 218.288C165.456 218.288 164.808 218.208 164.168 218.048C163.544 217.888 162.976 217.624 162.464 217.256C161.952 216.872 161.544 216.36 161.24 215.72C160.936 215.08 160.784 214.272 160.784 213.296V206.072H163.904V212.768C163.904 213.536 164.024 214.144 164.264 214.592C164.52 215.024 164.888 215.328 165.368 215.504C165.848 215.68 166.416 215.768 167.072 215.768C167.936 215.768 168.68 215.584 169.304 215.216C169.928 214.832 170.432 214.368 170.816 213.824C171.216 213.28 171.488 212.76 171.632 212.264ZM189.021 218.264C187.837 218.264 186.757 218.008 185.781 217.496C184.821 216.968 184.053 216.24 183.477 215.312C182.917 214.368 182.637 213.28 182.637 212.048C182.637 210.784 182.925 209.688 183.501 208.76C184.077 207.832 184.853 207.112 185.829 206.6C186.821 206.072 187.941 205.808 189.189 205.808C190.565 205.808 191.669 206.088 192.501 206.648C193.349 207.192 193.965 207.936 194.349 208.88C194.733 209.824 194.925 210.88 194.925 212.048C194.925 212.752 194.813 213.472 194.589 214.208C194.365 214.928 194.021 215.6 193.557 216.224C193.093 216.832 192.485 217.328 191.733 217.712C190.981 218.08 190.077 218.264 189.021 218.264ZM190.029 215.864C190.973 215.864 191.789 215.704 192.477 215.384C193.165 215.064 193.693 214.616 194.061 214.04C194.429 213.464 194.613 212.8 194.613 212.048C194.613 211.232 194.421 210.544 194.037 209.984C193.669 209.408 193.141 208.976 192.453 208.688C191.781 208.384 190.973 208.232 190.029 208.232C188.701 208.232 187.669 208.584 186.933 209.288C186.197 209.976 185.829 210.896 185.829 212.048C185.829 212.816 186.005 213.488 186.357 214.064C186.709 214.624 187.197 215.064 187.821 215.384C188.461 215.704 189.197 215.864 190.029 215.864ZM194.613 206.072H197.733V218H194.829C194.829 218 194.805 217.848 194.757 217.544C194.725 217.224 194.693 216.824 194.661 216.344C194.629 215.864 194.613 215.392 194.613 214.928V206.072ZM200.557 206.072H203.677V218H200.557V206.072ZM208.261 208.64C207.365 208.64 206.589 208.816 205.933 209.168C205.277 209.504 204.749 209.92 204.349 210.416C203.949 210.912 203.669 211.392 203.509 211.856L203.485 210.536C203.501 210.344 203.565 210.064 203.677 209.696C203.789 209.312 203.957 208.904 204.181 208.472C204.405 208.024 204.701 207.6 205.069 207.2C205.437 206.784 205.885 206.448 206.413 206.192C206.941 205.936 207.557 205.808 208.261 205.808V208.64ZM221.062 214.04H224.086C223.958 214.856 223.614 215.584 223.054 216.224C222.51 216.864 221.766 217.368 220.822 217.736C219.878 218.104 218.726 218.288 217.366 218.288C215.846 218.288 214.502 218.048 213.334 217.568C212.166 217.072 211.254 216.36 210.598 215.432C209.942 214.504 209.614 213.384 209.614 212.072C209.614 210.76 209.934 209.64 210.574 208.712C211.214 207.768 212.102 207.048 213.238 206.552C214.39 206.056 215.734 205.808 217.27 205.808C218.838 205.808 220.142 206.056 221.182 206.552C222.222 207.048 222.99 207.8 223.486 208.808C223.998 209.8 224.214 211.072 224.134 212.624H212.758C212.838 213.232 213.062 213.784 213.43 214.28C213.814 214.776 214.326 215.168 214.966 215.456C215.622 215.744 216.398 215.888 217.294 215.888C218.286 215.888 219.11 215.72 219.766 215.384C220.438 215.032 220.87 214.584 221.062 214.04ZM217.126 208.184C215.974 208.184 215.038 208.44 214.318 208.952C213.598 209.448 213.134 210.064 212.926 210.8H221.038C220.958 210 220.574 209.368 219.886 208.904C219.214 208.424 218.294 208.184 217.126 208.184ZM238.197 216.176C236.901 216.176 235.757 215.984 234.765 215.6C233.789 215.2 233.029 214.616 232.485 213.848C231.941 213.08 231.669 212.152 231.669 211.064C231.669 209.992 231.933 209.064 232.461 208.28C232.989 207.496 233.741 206.888 234.717 206.456C235.709 206.024 236.869 205.808 238.197 205.808C238.565 205.808 238.917 205.832 239.253 205.88C239.605 205.928 239.949 205.992 240.285 206.072L246.309 206.096V208.448C245.493 208.464 244.661 208.368 243.813 208.16C242.981 207.936 242.245 207.696 241.605 207.44L241.533 207.272C242.077 207.528 242.589 207.848 243.069 208.232C243.549 208.6 243.933 209.032 244.221 209.528C244.525 210.008 244.677 210.568 244.677 211.208C244.677 212.248 244.413 213.144 243.885 213.896C243.357 214.632 242.605 215.2 241.629 215.6C240.669 215.984 239.525 216.176 238.197 216.176ZM242.205 222.92V222.344C242.205 221.608 241.965 221.096 241.485 220.808C241.021 220.52 240.381 220.376 239.565 220.376H235.845C235.125 220.376 234.517 220.32 234.021 220.208C233.541 220.096 233.157 219.936 232.869 219.728C232.581 219.52 232.373 219.272 232.245 218.984C232.117 218.712 232.053 218.416 232.053 218.096C232.053 217.456 232.261 216.976 232.677 216.656C233.093 216.32 233.653 216.096 234.357 215.984C235.061 215.872 235.837 215.848 236.685 215.912L238.197 216.176C237.189 216.208 236.437 216.296 235.941 216.44C235.461 216.568 235.221 216.832 235.221 217.232C235.221 217.472 235.317 217.664 235.509 217.808C235.701 217.936 235.973 218 236.325 218H240.237C241.309 218 242.221 218.112 242.973 218.336C243.741 218.576 244.325 218.968 244.725 219.512C245.125 220.072 245.325 220.832 245.325 221.792V222.92H242.205ZM238.197 213.92C238.885 213.92 239.485 213.808 239.997 213.584C240.525 213.36 240.933 213.04 241.221 212.624C241.509 212.192 241.653 211.68 241.653 211.088C241.653 210.48 241.509 209.96 241.221 209.528C240.933 209.096 240.533 208.768 240.021 208.544C239.509 208.304 238.901 208.184 238.197 208.184C237.509 208.184 236.901 208.304 236.373 208.544C235.845 208.768 235.437 209.096 235.149 209.528C234.861 209.96 234.717 210.48 234.717 211.088C234.717 211.68 234.861 212.192 235.149 212.624C235.437 213.04 235.837 213.36 236.349 213.584C236.877 213.808 237.493 213.92 238.197 213.92ZM255.167 218.288C253.663 218.288 252.335 218.048 251.183 217.568C250.047 217.088 249.159 216.392 248.519 215.48C247.879 214.552 247.559 213.416 247.559 212.072C247.559 210.728 247.879 209.592 248.519 208.664C249.159 207.72 250.047 207.008 251.183 206.528C252.335 206.048 253.663 205.808 255.167 205.808C256.671 205.808 257.983 206.048 259.103 206.528C260.239 207.008 261.127 207.72 261.767 208.664C262.407 209.592 262.727 210.728 262.727 212.072C262.727 213.416 262.407 214.552 261.767 215.48C261.127 216.392 260.239 217.088 259.103 217.568C257.983 218.048 256.671 218.288 255.167 218.288ZM255.167 215.888C255.999 215.888 256.743 215.744 257.399 215.456C258.071 215.152 258.599 214.72 258.983 214.16C259.367 213.584 259.559 212.888 259.559 212.072C259.559 211.256 259.367 210.56 258.983 209.984C258.599 209.392 258.079 208.944 257.423 208.64C256.767 208.336 256.015 208.184 255.167 208.184C254.335 208.184 253.583 208.336 252.911 208.64C252.239 208.944 251.703 209.384 251.303 209.96C250.919 210.536 250.727 211.24 250.727 212.072C250.727 212.888 250.919 213.584 251.303 214.16C251.687 214.72 252.215 215.152 252.887 215.456C253.559 215.744 254.319 215.888 255.167 215.888ZM272.066 218.288C270.562 218.288 269.234 218.048 268.082 217.568C266.946 217.088 266.058 216.392 265.418 215.48C264.778 214.552 264.458 213.416 264.458 212.072C264.458 210.728 264.778 209.592 265.418 208.664C266.058 207.72 266.946 207.008 268.082 206.528C269.234 206.048 270.562 205.808 272.066 205.808C273.57 205.808 274.882 206.048 276.002 206.528C277.138 207.008 278.026 207.72 278.666 208.664C279.306 209.592 279.626 210.728 279.626 212.072C279.626 213.416 279.306 214.552 278.666 215.48C278.026 216.392 277.138 217.088 276.002 217.568C274.882 218.048 273.57 218.288 272.066 218.288ZM272.066 215.888C272.898 215.888 273.642 215.744 274.298 215.456C274.97 215.152 275.498 214.72 275.882 214.16C276.266 213.584 276.458 212.888 276.458 212.072C276.458 211.256 276.266 210.56 275.882 209.984C275.498 209.392 274.978 208.944 274.322 208.64C273.666 208.336 272.914 208.184 272.066 208.184C271.234 208.184 270.482 208.336 269.81 208.64C269.138 208.944 268.602 209.384 268.202 209.96C267.818 210.536 267.626 211.24 267.626 212.072C267.626 212.888 267.818 213.584 268.202 214.16C268.586 214.72 269.114 215.152 269.786 215.456C270.458 215.744 271.218 215.888 272.066 215.888ZM287.74 218.264C286.54 218.264 285.452 218.008 284.476 217.496C283.516 216.968 282.756 216.24 282.196 215.312C281.636 214.368 281.356 213.28 281.356 212.048C281.356 210.784 281.628 209.688 282.172 208.76C282.732 207.832 283.492 207.112 284.452 206.6C285.412 206.072 286.508 205.808 287.74 205.808C288.812 205.808 289.724 205.968 290.476 206.288C291.228 206.608 291.836 207.056 292.3 207.632C292.764 208.192 293.1 208.848 293.308 209.6C293.532 210.352 293.644 211.168 293.644 212.048C293.644 212.752 293.532 213.472 293.308 214.208C293.084 214.928 292.74 215.6 292.276 216.224C291.812 216.832 291.204 217.328 290.452 217.712C289.7 218.08 288.796 218.264 287.74 218.264ZM288.748 215.864C289.692 215.864 290.508 215.704 291.196 215.384C291.884 215.064 292.412 214.616 292.78 214.04C293.148 213.464 293.332 212.8 293.332 212.048C293.332 211.232 293.14 210.544 292.756 209.984C292.388 209.408 291.86 208.968 291.172 208.664C290.5 208.36 289.692 208.208 288.748 208.208C287.42 208.208 286.388 208.56 285.652 209.264C284.916 209.968 284.548 210.896 284.548 212.048C284.548 212.816 284.724 213.488 285.076 214.064C285.428 214.624 285.916 215.064 286.54 215.384C287.18 215.704 287.916 215.864 288.748 215.864ZM293.332 201.272H296.452V218H293.548C293.5 217.632 293.452 217.16 293.404 216.584C293.356 215.992 293.332 215.44 293.332 214.928V201.272ZM304.764 206.072H314.028V208.496H304.764V206.072ZM307.836 202.808H310.956V218H307.836V202.808ZM322.878 218.288C321.374 218.288 320.046 218.048 318.894 217.568C317.758 217.088 316.87 216.392 316.23 215.48C315.59 214.552 315.27 213.416 315.27 212.072C315.27 210.728 315.59 209.592 316.23 208.664C316.87 207.72 317.758 207.008 318.894 206.528C320.046 206.048 321.374 205.808 322.878 205.808C324.382 205.808 325.694 206.048 326.814 206.528C327.95 207.008 328.838 207.72 329.478 208.664C330.118 209.592 330.438 210.728 330.438 212.072C330.438 213.416 330.118 214.552 329.478 215.48C328.838 216.392 327.95 217.088 326.814 217.568C325.694 218.048 324.382 218.288 322.878 218.288ZM322.878 215.888C323.71 215.888 324.454 215.744 325.11 215.456C325.782 215.152 326.31 214.72 326.694 214.16C327.078 213.584 327.27 212.888 327.27 212.072C327.27 211.256 327.078 210.56 326.694 209.984C326.31 209.392 325.79 208.944 325.134 208.64C324.478 208.336 323.726 208.184 322.878 208.184C322.046 208.184 321.294 208.336 320.622 208.64C319.95 208.944 319.414 209.384 319.014 209.96C318.63 210.536 318.438 211.24 318.438 212.072C318.438 212.888 318.63 213.584 319.014 214.16C319.398 214.72 319.926 215.152 320.598 215.456C321.27 215.744 322.03 215.888 322.878 215.888ZM77.392 245.176C76.096 245.176 74.952 244.984 73.96 244.6C72.984 244.2 72.224 243.616 71.68 242.848C71.136 242.08 70.864 241.152 70.864 240.064C70.864 238.992 71.128 238.064 71.656 237.28C72.184 236.496 72.936 235.888 73.912 235.456C74.904 235.024 76.064 234.808 77.392 234.808C77.76 234.808 78.112 234.832 78.448 234.88C78.8 234.928 79.144 234.992 79.48 235.072L85.504 235.096V237.448C84.688 237.464 83.856 237.368 83.008 237.16C82.176 236.936 81.44 236.696 80.8 236.44L80.728 236.272C81.272 236.528 81.784 236.848 82.264 237.232C82.744 237.6 83.128 238.032 83.416 238.528C83.72 239.008 83.872 239.568 83.872 240.208C83.872 241.248 83.608 242.144 83.08 242.896C82.552 243.632 81.8 244.2 80.824 244.6C79.864 244.984 78.72 245.176 77.392 245.176ZM81.4 251.92V251.344C81.4 250.608 81.16 250.096 80.68 249.808C80.216 249.52 79.576 249.376 78.76 249.376H75.04C74.32 249.376 73.712 249.32 73.216 249.208C72.736 249.096 72.352 248.936 72.064 248.728C71.776 248.52 71.568 248.272 71.44 247.984C71.312 247.712 71.248 247.416 71.248 247.096C71.248 246.456 71.456 245.976 71.872 245.656C72.288 245.32 72.848 245.096 73.552 244.984C74.256 244.872 75.032 244.848 75.88 244.912L77.392 245.176C76.384 245.208 75.632 245.296 75.136 245.44C74.656 245.568 74.416 245.832 74.416 246.232C74.416 246.472 74.512 246.664 74.704 246.808C74.896 246.936 75.168 247 75.52 247H79.432C80.504 247 81.416 247.112 82.168 247.336C82.936 247.576 83.52 247.968 83.92 248.512C84.32 249.072 84.52 249.832 84.52 250.792V251.92H81.4ZM77.392 242.92C78.08 242.92 78.68 242.808 79.192 242.584C79.72 242.36 80.128 242.04 80.416 241.624C80.704 241.192 80.848 240.68 80.848 240.088C80.848 239.48 80.704 238.96 80.416 238.528C80.128 238.096 79.728 237.768 79.216 237.544C78.704 237.304 78.096 237.184 77.392 237.184C76.704 237.184 76.096 237.304 75.568 237.544C75.04 237.768 74.632 238.096 74.344 238.528C74.056 238.96 73.912 239.48 73.912 240.088C73.912 240.68 74.056 241.192 74.344 241.624C74.632 242.04 75.032 242.36 75.544 242.584C76.072 242.808 76.688 242.92 77.392 242.92ZM94.3626 247.288C92.8586 247.288 91.5306 247.048 90.3786 246.568C89.2426 246.088 88.3546 245.392 87.7146 244.48C87.0746 243.552 86.7546 242.416 86.7546 241.072C86.7546 239.728 87.0746 238.592 87.7146 237.664C88.3546 236.72 89.2426 236.008 90.3786 235.528C91.5306 235.048 92.8586 234.808 94.3626 234.808C95.8666 234.808 97.1786 235.048 98.2986 235.528C99.4346 236.008 100.323 236.72 100.963 237.664C101.603 238.592 101.923 239.728 101.923 241.072C101.923 242.416 101.603 243.552 100.963 244.48C100.323 245.392 99.4346 246.088 98.2986 246.568C97.1786 247.048 95.8666 247.288 94.3626 247.288ZM94.3626 244.888C95.1946 244.888 95.9386 244.744 96.5946 244.456C97.2666 244.152 97.7946 243.72 98.1786 243.16C98.5626 242.584 98.7546 241.888 98.7546 241.072C98.7546 240.256 98.5626 239.56 98.1786 238.984C97.7946 238.392 97.2746 237.944 96.6186 237.64C95.9626 237.336 95.2106 237.184 94.3626 237.184C93.5306 237.184 92.7786 237.336 92.1066 237.64C91.4346 237.944 90.8986 238.384 90.4986 238.96C90.1146 239.536 89.9226 240.24 89.9226 241.072C89.9226 241.888 90.1146 242.584 90.4986 243.16C90.8826 243.72 91.4106 244.152 92.0826 244.456C92.7546 244.744 93.5146 244.888 94.3626 244.888ZM104.853 231.088H108.021V242.152H104.853V231.088ZM108.261 244.264V247H104.637V244.264H108.261Z" fill="black"/>
<path d="M186.304 28.296C188.629 28.296 190.571 28.5733 192.128 29.128C193.685 29.6827 194.923 30.44 195.84 31.4C196.779 32.3387 197.44 33.4267 197.824 34.664C198.229 35.9013 198.432 37.2027 198.432 38.568C198.432 39.9333 198.208 41.2453 197.76 42.504C197.333 43.7627 196.64 44.8827 195.68 45.864C194.741 46.824 193.493 47.592 191.936 48.168C190.4 48.7227 188.523 49 186.304 49H174.464V28.296H186.304ZM178.72 45.352H186.208C187.744 45.352 189.013 45.1707 190.016 44.808C191.04 44.424 191.851 43.912 192.448 43.272C193.045 42.632 193.472 41.9067 193.728 41.096C193.984 40.2853 194.112 39.4427 194.112 38.568C194.112 37.6933 193.984 36.8613 193.728 36.072C193.472 35.2827 193.045 34.5787 192.448 33.96C191.851 33.3413 191.04 32.8507 190.016 32.488C189.013 32.1253 187.744 31.944 186.208 31.944H178.72V45.352ZM200.605 33.096H205.021L211.901 48.36L208.317 49L200.605 33.096ZM220.061 33.096L209.053 55.4H204.733L209.437 46.632L215.613 33.096H220.061ZM229.7 46.568C227.972 46.568 226.446 46.312 225.124 45.8C223.822 45.2667 222.809 44.488 222.084 43.464C221.358 42.44 220.996 41.2027 220.996 39.752C220.996 38.3227 221.348 37.0853 222.052 36.04C222.756 34.9947 223.758 34.184 225.06 33.608C226.382 33.032 227.929 32.744 229.7 32.744C230.19 32.744 230.66 32.776 231.108 32.84C231.577 32.904 232.036 32.9893 232.484 33.096L240.516 33.128V36.264C239.428 36.2853 238.318 36.1573 237.188 35.88C236.078 35.5813 235.097 35.2613 234.244 34.92L234.148 34.696C234.873 35.0373 235.556 35.464 236.196 35.976C236.836 36.4667 237.348 37.0427 237.732 37.704C238.137 38.344 238.34 39.0907 238.34 39.944C238.34 41.3307 237.988 42.5253 237.284 43.528C236.58 44.5093 235.577 45.2667 234.276 45.8C232.996 46.312 231.47 46.568 229.7 46.568ZM235.044 55.56V54.792C235.044 53.8107 234.724 53.128 234.084 52.744C233.465 52.36 232.612 52.168 231.524 52.168H226.564C225.604 52.168 224.793 52.0933 224.132 51.944C223.492 51.7947 222.98 51.5813 222.596 51.304C222.212 51.0267 221.934 50.696 221.764 50.312C221.593 49.9493 221.508 49.5547 221.508 49.128C221.508 48.2747 221.785 47.6347 222.34 47.208C222.894 46.76 223.641 46.4613 224.58 46.312C225.518 46.1627 226.553 46.1307 227.684 46.216L229.7 46.568C228.356 46.6107 227.353 46.728 226.692 46.92C226.052 47.0907 225.732 47.4427 225.732 47.976C225.732 48.296 225.86 48.552 226.116 48.744C226.372 48.9147 226.734 49 227.204 49H232.42C233.849 49 235.065 49.1493 236.068 49.448C237.092 49.768 237.87 50.2907 238.404 51.016C238.937 51.7627 239.204 52.776 239.204 54.056V55.56H235.044ZM229.7 43.56C230.617 43.56 231.417 43.4107 232.1 43.112C232.804 42.8133 233.348 42.3867 233.732 41.832C234.116 41.256 234.308 40.5733 234.308 39.784C234.308 38.9733 234.116 38.28 233.732 37.704C233.348 37.128 232.814 36.6907 232.132 36.392C231.449 36.072 230.638 35.912 229.7 35.912C228.782 35.912 227.972 36.072 227.268 36.392C226.564 36.6907 226.02 37.128 225.636 37.704C225.252 38.28 225.06 38.9733 225.06 39.784C225.06 40.5733 225.252 41.256 225.636 41.832C226.02 42.3867 226.553 42.8133 227.236 43.112C227.94 43.4107 228.761 43.56 229.7 43.56Z" fill="black"/>
<g clip-path="url(#clip0_216_70)">
<path d="M233.531 86.115C233.531 95.5825 233.531 105.05 233.531 114.524C219.714 114.524 205.898 114.524 192.081 114.524C192.081 113.283 192.081 112.042 192.101 110.737C192.298 110.879 192.45 111.116 192.658 111.288C193.633 112.094 194.759 112.13 195.886 111.759C196.731 111.48 197.307 110.869 197.277 109.836C197.224 108.002 197.264 106.166 197.26 104.331C197.26 104.118 197.282 103.993 197.54 103.895C198.706 103.454 199.852 102.963 201.008 102.497C201.467 102.311 201.932 102.142 202.416 101.956C202.416 103.206 202.416 104.41 202.416 105.629C202.336 105.618 202.283 105.614 202.233 105.602C201.133 105.336 200.091 105.35 199.144 106.101C198.358 106.724 198.336 108.07 199.12 108.699C200.104 109.489 201.221 109.535 202.353 109.17C203.061 108.942 203.709 108.493 203.724 107.661C203.766 105.382 203.74 103.101 203.737 100.821C203.736 100.464 203.532 100.283 203.185 100.287C202.989 100.29 202.779 100.302 202.601 100.372C200.54 101.192 198.486 102.028 196.425 102.847C196.094 102.979 195.959 103.181 195.962 103.538C195.974 104.954 195.967 106.371 195.967 107.788C195.967 107.927 195.967 108.067 195.967 108.157C195.38 108.12 194.852 108.056 194.325 108.062C193.555 108.071 192.901 108.366 192.406 108.979C192.316 109.091 192.19 109.173 192.081 109.269C192.081 97.2113 192.081 85.1538 192.081 73.0887C205.898 73.0887 219.714 73.0887 233.531 73.0885C233.531 74.8417 233.531 76.5951 233.508 78.4141C232.996 78.0569 232.519 78.3114 232.039 78.5041C230.091 79.2863 228.145 80.0727 226.192 80.8422C225.864 80.9714 225.754 81.1743 225.756 81.5071C225.764 82.9236 225.759 84.3402 225.759 85.7567C225.759 85.8988 225.759 86.0409 225.759 86.2101C225.642 86.1838 225.579 86.1689 225.516 86.1556C224.431 85.9264 223.399 85.9222 222.462 86.6688C221.673 87.298 221.655 88.6419 222.432 89.268C223.413 90.0585 224.532 90.1094 225.664 89.7415C226.513 89.4656 227.103 88.8525 227.07 87.7903C227.013 85.9708 227.057 84.1483 227.051 82.327C227.05 82.0921 227.086 81.9663 227.354 81.8647C228.519 81.4229 229.665 80.9307 230.821 80.4645C231.275 80.2816 231.737 80.119 232.217 79.9391C232.217 81.1961 232.217 82.3927 232.217 83.592C230.742 83.3754 230.444 83.3629 229.772 83.6093C229.05 83.8744 228.45 84.2873 228.354 85.1311C228.245 86.09 228.662 86.645 229.565 87.0908C230.118 87.3638 230.7 87.3451 231.284 87.3265C232.056 87.3019 232.71 87.0188 233.206 86.4042C233.296 86.2929 233.422 86.2107 233.531 86.115ZM222.889 103.921C222.904 103.897 222.919 103.874 222.983 103.826C224.252 102.415 224.93 100.731 225.096 98.8701C225.261 97.0201 225.016 95.224 223.992 93.6011C223.452 92.7447 222.828 91.9755 222.007 91.3699C220.666 90.3808 219.18 89.8543 217.478 89.856C217.35 89.5377 217.222 89.2196 217.096 88.9009C216.713 87.9336 216.33 86.966 215.986 85.9626C216.188 85.7893 216.392 85.6188 216.591 85.442C217.109 84.9798 217.616 84.5042 218.145 84.0534C219.077 83.2578 219.978 82.4353 220.645 81.392C221.502 80.0513 221.993 78.6334 221.72 77.0015C221.353 74.8024 219.251 72.9501 216.663 73.3389C215.022 73.5854 213.703 74.4726 212.738 75.8102C211.609 77.3761 211.08 79.1554 211.108 81.0902C211.119 81.7724 211.138 82.4559 211.193 83.1356C211.236 83.6723 211.34 84.2042 211.367 84.7578C210.387 85.8187 209.383 86.8588 208.433 87.9461C207.296 89.2467 206.404 90.7061 205.74 92.3081C205.338 93.2781 205.029 94.2834 204.976 95.3158C204.92 96.4306 204.959 97.5716 205.138 98.6718C205.399 100.284 206.111 101.737 207.201 102.969C208.315 104.229 209.656 105.176 211.227 105.812C212.692 106.406 214.21 106.695 215.778 106.756C216.134 106.77 216.493 106.714 216.853 106.764C216.827 107.474 216.88 108.199 216.754 108.891C216.581 109.842 216.077 110.438 214.813 110.323C214.091 110.257 213.266 109.503 213.284 108.639C213.29 108.364 213.235 108.082 213.166 107.813C212.978 107.076 212.222 106.338 211.092 106.422C210.158 106.491 209.341 107.261 209.321 108.196C209.305 108.935 209.335 109.667 209.573 110.372C209.926 111.414 210.497 112.307 211.372 113.003C212.576 113.959 213.937 114.345 215.466 114.298C216.796 114.258 217.933 113.781 218.901 112.916C220.125 111.823 220.685 110.376 220.804 108.779C220.884 107.706 220.812 106.622 220.837 105.493C221.465 105.02 222.092 104.547 222.74 104.067C222.74 104.067 222.749 104.046 222.783 104.023C222.806 103.992 222.829 103.961 222.847 103.928C222.847 103.928 222.847 103.934 222.889 103.921ZM204.965 85.868C205.106 85.7944 205.248 85.725 205.386 85.6466C205.888 85.3603 206.312 84.9724 206.319 84.3699C206.345 82.0773 206.332 79.7843 206.327 77.4914C206.326 77.16 206.133 76.9711 205.802 76.9724C205.594 76.9732 205.37 76.986 205.179 77.0613C203.13 77.8723 201.088 78.7002 199.04 79.5147C198.682 79.6569 198.545 79.8846 198.55 80.2731C198.568 81.6756 198.558 83.0784 198.557 84.4811C198.557 84.6197 198.545 84.7582 198.539 84.9019C197.5 84.6715 196.543 84.6095 195.598 85.1257C194.431 85.7626 194.36 87.3564 195.342 88.0498C196.398 88.7961 197.519 88.8197 198.658 88.3641C199.472 88.0387 199.892 87.4272 199.867 86.4787C199.819 84.6592 199.854 82.8375 199.851 81.0167C199.851 80.8042 199.87 80.6772 200.129 80.5802C201.161 80.1949 202.172 79.7547 203.194 79.3427C203.787 79.1038 204.386 78.8798 205.009 78.6385C205.009 79.8897 205.009 81.093 205.009 82.2915C204.971 82.2987 204.957 82.3053 204.944 82.303C204.893 82.2934 204.842 82.2807 204.791 82.2699C203.707 82.0398 202.674 82.0347 201.739 82.7825C200.964 83.4018 200.903 84.7127 201.675 85.3585C202.629 86.1565 203.744 86.2097 204.965 85.868Z" fill="#BDBBF2"/>
<path d="M192.081 109.307C192.19 109.173 192.316 109.091 192.406 108.979C192.901 108.366 193.555 108.071 194.325 108.062C194.852 108.056 195.38 108.12 195.967 108.157C195.967 108.067 195.967 107.927 195.967 107.788C195.967 106.371 195.974 104.954 195.962 103.538C195.959 103.181 196.094 102.979 196.425 102.847C198.486 102.028 200.54 101.192 202.601 100.372C202.779 100.302 202.989 100.29 203.185 100.287C203.532 100.283 203.736 100.464 203.737 100.821C203.74 103.101 203.766 105.382 203.724 107.661C203.709 108.493 203.061 108.942 202.353 109.17C201.221 109.535 200.104 109.489 199.12 108.699C198.336 108.07 198.358 106.724 199.144 106.101C200.091 105.35 201.133 105.336 202.233 105.602C202.283 105.614 202.336 105.617 202.416 105.629C202.416 104.41 202.416 103.206 202.416 101.956C201.932 102.142 201.467 102.311 201.008 102.497C199.852 102.963 198.706 103.454 197.54 103.895C197.282 103.993 197.26 104.118 197.26 104.331C197.264 106.166 197.224 108.002 197.277 109.835C197.307 110.869 196.731 111.48 195.886 111.759C194.759 112.13 193.633 112.094 192.658 111.288C192.45 111.116 192.298 110.879 192.101 110.699C192.081 110.265 192.081 109.805 192.081 109.307Z" fill="#F79235"/>
<path d="M233.531 86.0771C233.422 86.2107 233.296 86.2929 233.206 86.4042C232.71 87.0188 232.056 87.3019 231.284 87.3265C230.7 87.3451 230.118 87.3638 229.565 87.0908C228.662 86.645 228.245 86.09 228.354 85.1311C228.45 84.2873 229.05 83.8744 229.772 83.6093C230.444 83.3629 230.742 83.3754 232.217 83.592C232.217 82.3927 232.217 81.1961 232.217 79.9391C231.737 80.119 231.275 80.2816 230.821 80.4645C229.665 80.9307 228.519 81.4229 227.354 81.8647C227.086 81.9663 227.05 82.0921 227.051 82.327C227.057 84.1483 227.013 85.9708 227.07 87.7903C227.103 88.8525 226.513 89.4656 225.664 89.7415C224.532 90.1094 223.413 90.0585 222.432 89.268C221.655 88.6419 221.673 87.298 222.462 86.6688C223.399 85.9222 224.431 85.9264 225.516 86.1556C225.579 86.1689 225.642 86.1838 225.759 86.2101C225.759 86.0409 225.759 85.8988 225.759 85.7567C225.759 84.3402 225.764 82.9236 225.755 81.5071C225.754 81.1743 225.864 80.9714 226.192 80.8422C228.145 80.0727 230.091 79.2863 232.039 78.5041C232.519 78.3114 232.996 78.0569 233.508 78.452C233.531 80.9625 233.531 83.5008 233.531 86.0771Z" fill="#F79235"/>
<path d="M217.503 89.9078C219.18 89.8542 220.666 90.3808 222.007 91.3699C222.828 91.9755 223.452 92.7447 223.992 93.6011C225.016 95.224 225.261 97.0201 225.096 98.8701C224.93 100.731 224.252 102.415 222.941 103.848C222.881 103.891 222.864 103.912 222.847 103.934C222.847 103.934 222.847 103.928 222.828 103.935C222.789 103.977 222.769 104.012 222.749 104.046C222.749 104.046 222.74 104.067 222.701 104.06C222.55 104.09 222.428 104.109 222.327 104.167C220.83 105.03 219.196 105.399 217.491 105.456C215.368 105.528 213.372 105.004 211.507 104.002C207.471 101.834 205.845 97.7758 206.457 93.6295C206.732 91.7667 207.459 90.0655 208.537 88.542C209.384 87.3465 210.36 86.2432 211.271 85.0933C211.347 84.997 211.369 84.8576 211.416 84.7382C211.34 84.2042 211.236 83.6723 211.193 83.1356C211.138 82.4559 211.119 81.7724 211.108 81.0902C211.08 79.1554 211.609 77.3761 212.738 75.8102C213.703 74.4726 215.022 73.5854 216.663 73.3389C219.251 72.95 221.353 74.8024 221.72 77.0014C221.993 78.6334 221.502 80.0513 220.645 81.392C219.978 82.4353 219.077 83.2578 218.145 84.0534C217.616 84.5042 217.109 84.9798 216.591 85.442C216.392 85.6188 216.188 85.7893 215.941 85.9912C215.372 86.4803 214.832 86.9232 214.331 87.406C213.822 87.896 213.35 88.4253 212.841 88.9527C211.752 90.0823 210.777 91.2733 210.007 92.6129C209.111 94.1699 208.689 95.831 208.994 97.6442C209.322 99.5922 210.426 100.947 212.137 101.841C213.537 102.573 215.026 102.893 216.643 102.706C217.462 102.69 218.191 102.459 218.869 102.086C219.509 101.735 220.105 101.317 220.417 100.578C220.52 100.407 220.636 100.274 220.697 100.118C221.305 98.5738 221.433 97.0435 220.515 95.5602C220.14 94.9543 219.672 94.4473 218.956 94.1862C218.439 93.8089 217.86 93.7685 217.286 93.8187C216.424 93.8938 215.583 94.0598 214.955 94.7886C214.521 95.3212 214.209 95.8747 214.167 96.5659C214.143 96.9732 214.022 97.3747 213.92 97.7647C213.817 97.7534 213.737 97.7536 213.658 97.7597C212.631 97.8384 211.643 96.9969 211.597 95.974C211.527 94.4377 211.92 93.022 212.756 91.7287C212.83 91.6153 212.854 91.4699 212.908 91.3263C212.915 91.3133 212.943 91.3041 212.948 91.3103C212.952 91.3166 212.967 91.3117 212.967 91.3117C212.967 91.3117 212.954 91.2971 212.968 91.272C213.193 91.124 213.403 91.0011 213.642 90.8729C214.869 90.2362 216.153 89.9391 217.503 89.9078ZM211.804 84.5193C211.783 84.5357 211.767 84.5554 211.744 84.5819C211.744 84.5819 211.752 84.5759 211.783 84.5533C211.803 84.5363 211.819 84.5168 211.842 84.4903C211.842 84.4903 211.836 84.4979 211.804 84.5193ZM216.53 80.1646C217.095 79.5965 217.564 78.9655 217.788 78.1826C217.872 77.8883 217.895 77.5421 217.608 77.392C217.415 77.2911 217.101 77.3402 216.872 77.4145C216.658 77.4836 216.459 77.6509 216.295 77.8162C215.32 78.8009 215.027 80.0227 215.08 81.4631C215.589 81.0087 216.039 80.6069 216.53 80.1646Z" fill="#67D1B1"/>
<path d="M220.807 105.543C220.812 106.622 220.884 107.706 220.804 108.779C220.685 110.376 220.125 111.823 218.901 112.916C217.933 113.781 216.796 114.258 215.466 114.298C213.937 114.345 212.576 113.959 211.372 113.003C210.497 112.307 209.926 111.414 209.573 110.372C209.335 109.667 209.305 108.935 209.321 108.196C209.341 107.261 210.158 106.491 211.092 106.422C212.222 106.338 212.979 107.076 213.166 107.813C213.235 108.082 213.29 108.364 213.284 108.639C213.266 109.503 214.091 110.257 214.813 110.323C216.077 110.438 216.581 109.842 216.754 108.891C216.88 108.199 216.827 107.474 216.884 106.718C218.274 106.508 219.572 106.133 220.807 105.543Z" fill="#02B27D"/>
<path d="M204.933 85.8704C203.744 86.2097 202.629 86.1565 201.675 85.3585C200.903 84.7127 200.964 83.4018 201.739 82.7825C202.674 82.0347 203.707 82.0398 204.791 82.2699C204.842 82.2807 204.893 82.2934 204.944 82.303C204.957 82.3053 204.971 82.2987 205.009 82.2915C205.009 81.093 205.009 79.8897 205.009 78.6385C204.386 78.8798 203.787 79.1038 203.194 79.3427C202.172 79.7547 201.161 80.1949 200.129 80.5802C199.87 80.6772 199.851 80.8042 199.851 81.0167C199.854 82.8375 199.819 84.6592 199.867 86.4787C199.892 87.4272 199.472 88.0387 198.658 88.3641C197.519 88.8197 196.398 88.7961 195.342 88.0498C194.36 87.3564 194.431 85.7626 195.598 85.1257C196.543 84.6095 197.5 84.6714 198.539 84.9019C198.545 84.7582 198.557 84.6196 198.557 84.4811C198.558 83.0784 198.568 81.6756 198.55 80.2731C198.545 79.8846 198.682 79.6569 199.04 79.5147C201.088 78.7002 203.13 77.8723 205.179 77.0613C205.37 76.986 205.594 76.9732 205.802 76.9724C206.133 76.9711 206.326 77.16 206.327 77.4914C206.332 79.7843 206.345 82.0773 206.319 84.3699C206.312 84.9724 205.888 85.3603 205.386 85.6466C205.248 85.725 205.106 85.7944 204.933 85.8704Z" fill="#F79235"/>
<path d="M220.822 105.518C219.572 106.133 218.274 106.508 216.882 106.681C216.493 106.714 216.134 106.77 215.778 106.756C214.21 106.695 212.692 106.406 211.227 105.812C209.656 105.176 208.315 104.229 207.201 102.969C206.111 101.737 205.399 100.284 205.138 98.6718C204.959 97.5716 204.92 96.4306 204.976 95.3158C205.029 94.2834 205.339 93.2781 205.74 92.3081C206.404 90.7061 207.296 89.2467 208.433 87.9461C209.383 86.8588 210.387 85.8187 211.392 84.748C211.369 84.8576 211.347 84.997 211.271 85.0933C210.36 86.2432 209.384 87.3466 208.537 88.542C207.459 90.0655 206.732 91.7667 206.457 93.6295C205.845 97.7758 207.471 101.834 211.507 104.002C213.372 105.004 215.368 105.528 217.491 105.456C219.196 105.399 220.83 105.03 222.327 104.167C222.428 104.109 222.55 104.09 222.691 104.063C222.092 104.547 221.465 105.02 220.822 105.518Z" fill="#35C298"/>
<path d="M217.49 89.8819C216.153 89.9391 214.869 90.2362 213.63 90.8471C213.347 90.1969 213.105 89.5671 212.862 88.9374C213.35 88.4253 213.822 87.896 214.331 87.406C214.832 86.9232 215.372 86.4803 215.921 86.0092C216.33 86.966 216.713 87.9336 217.096 88.9009C217.222 89.2196 217.35 89.5376 217.49 89.8819Z" fill="#03B27D"/>
<path d="M222.766 104.035C222.769 104.012 222.789 103.977 222.831 103.936C222.829 103.961 222.806 103.992 222.766 104.035Z" fill="#35C298"/>
<path d="M222.868 103.927C222.864 103.912 222.881 103.891 222.916 103.86C222.919 103.874 222.904 103.897 222.868 103.927Z" fill="#35C298"/>
<path d="M212.841 88.9527C213.105 89.5671 213.347 90.1969 213.602 90.8525C213.403 91.0011 213.193 91.124 212.964 91.2713C212.946 91.2958 212.943 91.3041 212.943 91.3041C212.943 91.3041 212.915 91.3133 212.885 91.3394C212.372 91.8483 211.827 92.2841 211.421 92.8243C210.706 93.7759 210.312 94.8765 210.223 96.1106C210.2 96.2613 210.186 96.378 210.163 96.4927C210.002 97.28 210.356 98.4128 211.201 98.7847C211.67 98.8701 212.126 98.9889 212.577 98.9734C213.143 98.954 213.912 98.2725 213.944 97.7788C214.022 97.3747 214.143 96.9732 214.167 96.5659C214.209 95.8747 214.521 95.3212 214.961 94.8194C215.044 94.9755 215.111 95.1074 215.144 95.2472C215.527 96.8636 215.936 98.475 216.273 100.101C216.45 100.954 216.501 101.833 216.608 102.7C215.026 102.893 213.537 102.573 212.137 101.841C210.426 100.947 209.322 99.5922 208.994 97.6442C208.689 95.831 209.111 94.1699 210.007 92.6129C210.777 91.2733 211.752 90.0823 212.841 88.9527Z" fill="#BDBBF2"/>
<path d="M216.643 102.706C216.501 101.833 216.45 100.954 216.273 100.101C215.936 98.4751 215.527 96.8637 215.144 95.2472C215.111 95.1074 215.044 94.9755 214.987 94.8091C215.583 94.0598 216.424 93.8939 217.286 93.8187C217.86 93.7686 218.439 93.8089 218.962 94.2159C219.326 95.6432 219.685 97.0119 220.005 98.3897C220.174 99.1195 220.273 99.8653 220.404 100.604C220.105 101.317 219.509 101.735 218.869 102.086C218.191 102.459 217.462 102.69 216.643 102.706Z" fill="#02B27D"/>
<path d="M213.92 97.7647C213.912 98.2725 213.143 98.954 212.577 98.9734C212.126 98.9889 211.67 98.8701 211.196 98.7557C210.681 97.8903 210.408 96.9998 210.229 96.0757C210.312 94.8765 210.706 93.7759 211.421 92.8243C211.827 92.2841 212.372 91.8483 212.878 91.3524C212.854 91.4699 212.83 91.6153 212.756 91.7287C211.92 93.022 211.527 94.4377 211.597 95.974C211.643 96.9969 212.632 97.8384 213.658 97.7597C213.737 97.7536 213.817 97.7534 213.92 97.7647Z" fill="#36C398"/>
<path d="M220.417 100.578C220.273 99.8653 220.174 99.1195 220.005 98.3897C219.685 97.0118 219.326 95.6432 218.977 94.2411C219.672 94.4473 220.14 94.9543 220.515 95.5602C221.433 97.0435 221.305 98.5738 220.697 100.118C220.636 100.274 220.52 100.407 220.417 100.578Z" fill="#BDBBF2"/>
<path d="M216.51 80.185C216.039 80.607 215.589 81.0087 215.08 81.4631C215.027 80.0227 215.32 78.8009 216.295 77.8162C216.459 77.6509 216.658 77.4836 216.872 77.4145C217.101 77.3402 217.415 77.2911 217.608 77.392C217.895 77.5421 217.872 77.8883 217.788 78.1826C217.564 78.9655 217.095 79.5965 216.51 80.185Z" fill="#BDBBF2"/>
<path d="M211.752 84.576C211.752 84.576 211.744 84.5819 211.749 84.5795C211.754 84.577 211.752 84.576 211.752 84.576Z" fill="#35C298"/>
<path d="M212.948 91.3103C212.943 91.3041 212.946 91.2958 212.95 91.2965C212.954 91.2971 212.967 91.3117 212.967 91.3117C212.967 91.3117 212.953 91.3166 212.948 91.3103Z" fill="#36C398"/>
<path d="M211.754 84.5778C211.767 84.5555 211.783 84.5357 211.819 84.5077C211.834 84.4961 211.833 84.4947 211.833 84.4947C211.819 84.5168 211.803 84.5364 211.768 84.5646C211.752 84.576 211.754 84.577 211.754 84.5778Z" fill="#35C298"/>
<path d="M211.835 84.497C211.836 84.4979 211.842 84.4902 211.837 84.4925C211.833 84.4947 211.834 84.4961 211.835 84.497Z" fill="#35C298"/>
<path d="M210.223 96.1106C210.408 96.9999 210.681 97.8903 211.181 98.7296C210.356 98.4128 210.002 97.28 210.163 96.4927C210.186 96.378 210.2 96.2613 210.223 96.1106Z" fill="#65D0B0"/>
</g>
<path d="M63.304 338.472L56.488 349.104V354H53.272V349.104L46.456 338.472H50.152L55.888 347.76H53.968L59.608 338.472H63.304ZM69.8704 354.288C68.3664 354.288 67.0384 354.048 65.8864 353.568C64.7504 353.088 63.8624 352.392 63.2224 351.48C62.5824 350.552 62.2624 349.416 62.2624 348.072C62.2624 346.728 62.5824 345.592 63.2224 344.664C63.8624 343.72 64.7504 343.008 65.8864 342.528C67.0384 342.048 68.3664 341.808 69.8704 341.808C71.3744 341.808 72.6864 342.048 73.8064 342.528C74.9424 343.008 75.8304 343.72 76.4704 344.664C77.1104 345.592 77.4304 346.728 77.4304 348.072C77.4304 349.416 77.1104 350.552 76.4704 351.48C75.8304 352.392 74.9424 353.088 73.8064 353.568C72.6864 354.048 71.3744 354.288 69.8704 354.288ZM69.8704 351.888C70.7024 351.888 71.4464 351.744 72.1024 351.456C72.7744 351.152 73.3024 350.72 73.6864 350.16C74.0704 349.584 74.2624 348.888 74.2624 348.072C74.2624 347.256 74.0704 346.56 73.6864 345.984C73.3024 345.392 72.7824 344.944 72.1264 344.64C71.4704 344.336 70.7184 344.184 69.8704 344.184C69.0384 344.184 68.2864 344.336 67.6144 344.64C66.9424 344.944 66.4064 345.384 66.0064 345.96C65.6224 346.536 65.4304 347.24 65.4304 348.072C65.4304 348.888 65.6224 349.584 66.0064 350.16C66.3904 350.72 66.9184 351.152 67.5904 351.456C68.2624 351.744 69.0224 351.888 69.8704 351.888ZM93.5369 354H90.4169V342.072H93.5369V354ZM90.5849 348.264L90.6089 349.08C90.5769 349.304 90.4969 349.632 90.3689 350.064C90.2409 350.48 90.0409 350.928 89.7689 351.408C89.5129 351.888 89.1769 352.352 88.7609 352.8C88.3449 353.232 87.8329 353.592 87.2249 353.88C86.6169 354.152 85.8969 354.288 85.0649 354.288C84.4089 354.288 83.7609 354.208 83.1209 354.048C82.4969 353.888 81.9289 353.624 81.4169 353.256C80.9049 352.872 80.4969 352.36 80.1929 351.72C79.8889 351.08 79.7369 350.272 79.7369 349.296V342.072H82.8569V348.768C82.8569 349.536 82.9769 350.144 83.2169 350.592C83.4729 351.024 83.8409 351.328 84.3209 351.504C84.8009 351.68 85.3689 351.768 86.0249 351.768C86.8889 351.768 87.6329 351.584 88.2569 351.216C88.8809 350.832 89.3849 350.368 89.7689 349.824C90.1689 349.28 90.4409 348.76 90.5849 348.264ZM96.3775 342.072H99.4975V354H96.3775V342.072ZM104.082 344.64C103.186 344.64 102.41 344.816 101.754 345.168C101.098 345.504 100.57 345.92 100.17 346.416C99.7695 346.912 99.4895 347.392 99.3295 347.856L99.3055 346.536C99.3215 346.344 99.3855 346.064 99.4975 345.696C99.6095 345.312 99.7775 344.904 100.002 344.472C100.226 344.024 100.522 343.6 100.89 343.2C101.258 342.784 101.706 342.448 102.234 342.192C102.762 341.936 103.378 341.808 104.082 341.808V344.64ZM130.327 348.408C130.183 349.656 129.743 350.72 129.007 351.6C128.271 352.48 127.271 353.152 126.007 353.616C124.743 354.08 123.239 354.312 121.495 354.312C120.039 354.312 118.703 354.144 117.487 353.808C116.287 353.472 115.247 352.968 114.367 352.296C113.503 351.624 112.831 350.792 112.351 349.8C111.871 348.792 111.631 347.616 111.631 346.272C111.631 344.928 111.871 343.752 112.351 342.744C112.831 341.736 113.503 340.896 114.367 340.224C115.247 339.536 116.287 339.024 117.487 338.688C118.703 338.336 120.039 338.16 121.495 338.16C123.239 338.16 124.743 338.4 126.007 338.88C127.287 339.36 128.295 340.048 129.031 340.944C129.767 341.824 130.199 342.896 130.327 344.16H127.159C126.951 343.488 126.599 342.912 126.103 342.432C125.623 341.936 124.999 341.56 124.231 341.304C123.463 341.048 122.551 340.92 121.495 340.92C120.183 340.92 119.031 341.128 118.039 341.544C117.047 341.944 116.279 342.544 115.735 343.344C115.191 344.128 114.919 345.104 114.919 346.272C114.919 347.424 115.191 348.392 115.735 349.176C116.279 349.96 117.047 350.56 118.039 350.976C119.031 351.376 120.183 351.576 121.495 351.576C122.551 351.576 123.455 351.448 124.207 351.192C124.975 350.936 125.599 350.568 126.079 350.088C126.575 349.608 126.935 349.048 127.159 348.408H130.327ZM140.066 354.288C138.562 354.288 137.234 354.048 136.082 353.568C134.946 353.088 134.058 352.392 133.418 351.48C132.778 350.552 132.458 349.416 132.458 348.072C132.458 346.728 132.778 345.592 133.418 344.664C134.058 343.72 134.946 343.008 136.082 342.528C137.234 342.048 138.562 341.808 140.066 341.808C141.57 341.808 142.882 342.048 144.002 342.528C145.138 343.008 146.026 343.72 146.666 344.664C147.306 345.592 147.626 346.728 147.626 348.072C147.626 349.416 147.306 350.552 146.666 351.48C146.026 352.392 145.138 353.088 144.002 353.568C142.882 354.048 141.57 354.288 140.066 354.288ZM140.066 351.888C140.898 351.888 141.642 351.744 142.298 351.456C142.97 351.152 143.498 350.72 143.882 350.16C144.266 349.584 144.458 348.888 144.458 348.072C144.458 347.256 144.266 346.56 143.882 345.984C143.498 345.392 142.978 344.944 142.322 344.64C141.666 344.336 140.914 344.184 140.066 344.184C139.234 344.184 138.482 344.336 137.81 344.64C137.138 344.944 136.602 345.384 136.202 345.96C135.818 346.536 135.626 347.24 135.626 348.072C135.626 348.888 135.818 349.584 136.202 350.16C136.586 350.72 137.114 351.152 137.786 351.456C138.458 351.744 139.218 351.888 140.066 351.888ZM155.74 354.264C154.54 354.264 153.452 354.008 152.476 353.496C151.516 352.968 150.756 352.24 150.196 351.312C149.636 350.368 149.356 349.28 149.356 348.048C149.356 346.784 149.628 345.688 150.172 344.76C150.732 343.832 151.492 343.112 152.452 342.6C153.412 342.072 154.508 341.808 155.74 341.808C156.812 341.808 157.724 341.968 158.476 342.288C159.228 342.608 159.836 343.056 160.3 343.632C160.764 344.192 161.1 344.848 161.308 345.6C161.532 346.352 161.644 347.168 161.644 348.048C161.644 348.752 161.532 349.472 161.308 350.208C161.084 350.928 160.74 351.6 160.276 352.224C159.812 352.832 159.204 353.328 158.452 353.712C157.7 354.08 156.796 354.264 155.74 354.264ZM156.748 351.864C157.692 351.864 158.508 351.704 159.196 351.384C159.884 351.064 160.412 350.616 160.78 350.04C161.148 349.464 161.332 348.8 161.332 348.048C161.332 347.232 161.14 346.544 160.756 345.984C160.388 345.408 159.86 344.968 159.172 344.664C158.5 344.36 157.692 344.208 156.748 344.208C155.42 344.208 154.388 344.56 153.652 345.264C152.916 345.968 152.548 346.896 152.548 348.048C152.548 348.816 152.724 349.488 153.076 350.064C153.428 350.624 153.916 351.064 154.54 351.384C155.18 351.704 155.916 351.864 156.748 351.864ZM161.332 337.272H164.452V354H161.548C161.5 353.632 161.452 353.16 161.404 352.584C161.356 351.992 161.332 351.44 161.332 350.928V337.272ZM178.687 350.04H181.711C181.583 350.856 181.239 351.584 180.679 352.224C180.135 352.864 179.391 353.368 178.447 353.736C177.503 354.104 176.351 354.288 174.991 354.288C173.471 354.288 172.127 354.048 170.959 353.568C169.791 353.072 168.879 352.36 168.223 351.432C167.567 350.504 167.239 349.384 167.239 348.072C167.239 346.76 167.559 345.64 168.199 344.712C168.839 343.768 169.727 343.048 170.863 342.552C172.015 342.056 173.359 341.808 174.895 341.808C176.463 341.808 177.767 342.056 178.807 342.552C179.847 343.048 180.615 343.8 181.111 344.808C181.623 345.8 181.839 347.072 181.759 348.624H170.383C170.463 349.232 170.687 349.784 171.055 350.28C171.439 350.776 171.951 351.168 172.591 351.456C173.247 351.744 174.023 351.888 174.919 351.888C175.911 351.888 176.735 351.72 177.391 351.384C178.063 351.032 178.495 350.584 178.687 350.04ZM174.751 344.184C173.599 344.184 172.663 344.44 171.943 344.952C171.223 345.448 170.759 346.064 170.551 346.8H178.663C178.583 346 178.199 345.368 177.511 344.904C176.839 344.424 175.919 344.184 174.751 344.184Z" fill="black"/>
<path d="M60.992 546.472V549.136H49.04V553.312H58.832V555.808H49.04V562H45.848V546.472H60.992ZM62.2681 550.072H65.3881V562H62.2681V550.072ZM69.9721 552.64C69.0761 552.64 68.3001 552.816 67.6441 553.168C66.9881 553.504 66.4601 553.92 66.0601 554.416C65.6601 554.912 65.3801 555.392 65.2201 555.856L65.1961 554.536C65.2121 554.344 65.2761 554.064 65.3881 553.696C65.5001 553.312 65.6681 552.904 65.8921 552.472C66.1161 552.024 66.4121 551.6 66.7801 551.2C67.1481 550.784 67.5961 550.448 68.1241 550.192C68.6521 549.936 69.2681 549.808 69.9721 549.808V552.64ZM75.4769 544.84V547.576H71.8529V544.84H75.4769ZM72.0929 550.072H75.2129V562H72.0929V550.072ZM89.1948 558.04H92.2188C92.0908 558.856 91.7468 559.584 91.1868 560.224C90.6428 560.864 89.8988 561.368 88.9548 561.736C88.0108 562.104 86.8588 562.288 85.4988 562.288C83.9788 562.288 82.6348 562.048 81.4668 561.568C80.2988 561.072 79.3868 560.36 78.7308 559.432C78.0748 558.504 77.7468 557.384 77.7468 556.072C77.7468 554.76 78.0668 553.64 78.7068 552.712C79.3468 551.768 80.2348 551.048 81.3708 550.552C82.5228 550.056 83.8668 549.808 85.4028 549.808C86.9708 549.808 88.2748 550.056 89.3148 550.552C90.3548 551.048 91.1228 551.8 91.6188 552.808C92.1308 553.8 92.3468 555.072 92.2668 556.624H80.8908C80.9708 557.232 81.1948 557.784 81.5628 558.28C81.9468 558.776 82.4588 559.168 83.0988 559.456C83.7548 559.744 84.5308 559.888 85.4268 559.888C86.4188 559.888 87.2428 559.72 87.8988 559.384C88.5708 559.032 89.0028 558.584 89.1948 558.04ZM85.2588 552.184C84.1068 552.184 83.1708 552.44 82.4508 552.952C81.7308 553.448 81.2668 554.064 81.0588 554.8H89.1708C89.0908 554 88.7068 553.368 88.0188 552.904C87.3468 552.424 86.4268 552.184 85.2588 552.184ZM94.5884 550.072H97.7084V562H94.5884V550.072ZM103.252 549.808C103.988 549.808 104.668 549.904 105.292 550.096C105.916 550.288 106.46 550.584 106.924 550.984C107.388 551.384 107.748 551.896 108.004 552.52C108.26 553.128 108.388 553.856 108.388 554.704V562H105.268V555.256C105.268 554.248 105.02 553.512 104.524 553.048C104.044 552.568 103.252 552.328 102.148 552.328C101.316 552.328 100.564 552.488 99.8924 552.808C99.2204 553.128 98.6764 553.536 98.2604 554.032C97.8444 554.512 97.6044 555.016 97.5404 555.544L97.5164 554.32C97.5964 553.76 97.7804 553.216 98.0684 552.688C98.3564 552.16 98.7404 551.68 99.2204 551.248C99.7164 550.8 100.3 550.448 100.972 550.192C101.644 549.936 102.404 549.808 103.252 549.808ZM117.037 562.264C115.837 562.264 114.749 562.008 113.773 561.496C112.813 560.968 112.053 560.24 111.493 559.312C110.933 558.368 110.653 557.28 110.653 556.048C110.653 554.784 110.925 553.688 111.469 552.76C112.029 551.832 112.789 551.112 113.749 550.6C114.709 550.072 115.805 549.808 117.037 549.808C118.109 549.808 119.021 549.968 119.773 550.288C120.525 550.608 121.133 551.056 121.597 551.632C122.061 552.192 122.397 552.848 122.605 553.6C122.829 554.352 122.941 555.168 122.941 556.048C122.941 556.752 122.829 557.472 122.605 558.208C122.381 558.928 122.037 559.6 121.573 560.224C121.109 560.832 120.501 561.328 119.749 561.712C118.997 562.08 118.093 562.264 117.037 562.264ZM118.045 559.864C118.989 559.864 119.805 559.704 120.493 559.384C121.181 559.064 121.709 558.616 122.077 558.04C122.445 557.464 122.629 556.8 122.629 556.048C122.629 555.232 122.437 554.544 122.053 553.984C121.685 553.408 121.157 552.968 120.469 552.664C119.797 552.36 118.989 552.208 118.045 552.208C116.717 552.208 115.685 552.56 114.949 553.264C114.213 553.968 113.845 554.896 113.845 556.048C113.845 556.816 114.021 557.488 114.373 558.064C114.725 558.624 115.213 559.064 115.837 559.384C116.477 559.704 117.213 559.864 118.045 559.864ZM122.629 545.272H125.749V562H122.845C122.797 561.632 122.749 561.16 122.701 560.584C122.653 559.992 122.629 559.44 122.629 558.928V545.272ZM129.28 552.664L128.848 551.848C129.088 551.496 129.32 551.104 129.544 550.672C129.784 550.224 129.912 549.776 129.928 549.328L128.608 549.064V546.328H132.28V548.296C132.28 549.416 132.008 550.328 131.464 551.032C130.936 551.72 130.208 552.264 129.28 552.664ZM134.187 558.04H137.067C137.243 558.584 137.603 559.032 138.147 559.384C138.707 559.72 139.435 559.888 140.331 559.888C140.939 559.888 141.411 559.832 141.747 559.72C142.083 559.608 142.315 559.448 142.443 559.24C142.571 559.016 142.635 558.768 142.635 558.496C142.635 558.16 142.531 557.904 142.323 557.728C142.115 557.536 141.795 557.384 141.363 557.272C140.931 557.16 140.379 557.056 139.707 556.96C139.035 556.848 138.387 556.712 137.763 556.552C137.139 556.392 136.587 556.184 136.107 555.928C135.627 555.656 135.243 555.32 134.955 554.92C134.683 554.504 134.547 554 134.547 553.408C134.547 552.832 134.683 552.32 134.955 551.872C135.243 551.424 135.635 551.048 136.131 550.744C136.643 550.44 137.235 550.208 137.907 550.048C138.595 549.888 139.331 549.808 140.115 549.808C141.299 549.808 142.283 549.984 143.067 550.336C143.851 550.672 144.435 551.152 144.819 551.776C145.219 552.384 145.419 553.088 145.419 553.888H142.659C142.531 553.296 142.275 552.872 141.891 552.616C141.507 552.344 140.915 552.208 140.115 552.208C139.331 552.208 138.739 552.328 138.339 552.568C137.939 552.808 137.739 553.136 137.739 553.552C137.739 553.888 137.859 554.152 138.099 554.344C138.355 554.52 138.723 554.664 139.203 554.776C139.699 554.888 140.315 555.008 141.051 555.136C141.675 555.264 142.267 555.408 142.827 555.568C143.403 555.728 143.915 555.936 144.363 556.192C144.811 556.432 145.163 556.76 145.419 557.176C145.691 557.576 145.827 558.088 145.827 558.712C145.827 559.48 145.603 560.128 145.155 560.656C144.723 561.184 144.099 561.592 143.283 561.88C142.467 562.152 141.491 562.288 140.355 562.288C139.347 562.288 138.475 562.184 137.739 561.976C137.019 561.752 136.419 561.472 135.939 561.136C135.459 560.784 135.083 560.416 134.811 560.032C134.555 559.632 134.379 559.256 134.283 558.904C134.187 558.552 134.155 558.264 134.187 558.04ZM172.531 556.408C172.387 557.656 171.947 558.72 171.211 559.6C170.475 560.48 169.475 561.152 168.211 561.616C166.947 562.08 165.443 562.312 163.699 562.312C162.243 562.312 160.907 562.144 159.691 561.808C158.491 561.472 157.451 560.968 156.571 560.296C155.707 559.624 155.035 558.792 154.555 557.8C154.075 556.792 153.835 555.616 153.835 554.272C153.835 552.928 154.075 551.752 154.555 550.744C155.035 549.736 155.707 548.896 156.571 548.224C157.451 547.536 158.491 547.024 159.691 546.688C160.907 546.336 162.243 546.16 163.699 546.16C165.443 546.16 166.947 546.4 168.211 546.88C169.491 547.36 170.499 548.048 171.235 548.944C171.971 549.824 172.403 550.896 172.531 552.16H169.363C169.155 551.488 168.803 550.912 168.307 550.432C167.827 549.936 167.203 549.56 166.435 549.304C165.667 549.048 164.755 548.92 163.699 548.92C162.387 548.92 161.235 549.128 160.243 549.544C159.251 549.944 158.483 550.544 157.939 551.344C157.395 552.128 157.123 553.104 157.123 554.272C157.123 555.424 157.395 556.392 157.939 557.176C158.483 557.96 159.251 558.56 160.243 558.976C161.235 559.376 162.387 559.576 163.699 559.576C164.755 559.576 165.659 559.448 166.411 559.192C167.179 558.936 167.803 558.568 168.283 558.088C168.779 557.608 169.139 557.048 169.363 556.408H172.531ZM182.269 562.288C180.765 562.288 179.437 562.048 178.285 561.568C177.149 561.088 176.261 560.392 175.621 559.48C174.981 558.552 174.661 557.416 174.661 556.072C174.661 554.728 174.981 553.592 175.621 552.664C176.261 551.72 177.149 551.008 178.285 550.528C179.437 550.048 180.765 549.808 182.269 549.808C183.773 549.808 185.085 550.048 186.205 550.528C187.341 551.008 188.229 551.72 188.869 552.664C189.509 553.592 189.829 554.728 189.829 556.072C189.829 557.416 189.509 558.552 188.869 559.48C188.229 560.392 187.341 561.088 186.205 561.568C185.085 562.048 183.773 562.288 182.269 562.288ZM182.269 559.888C183.101 559.888 183.845 559.744 184.501 559.456C185.173 559.152 185.701 558.72 186.085 558.16C186.469 557.584 186.661 556.888 186.661 556.072C186.661 555.256 186.469 554.56 186.085 553.984C185.701 553.392 185.181 552.944 184.525 552.64C183.869 552.336 183.117 552.184 182.269 552.184C181.437 552.184 180.685 552.336 180.013 552.64C179.341 552.944 178.805 553.384 178.405 553.96C178.021 554.536 177.829 555.24 177.829 556.072C177.829 556.888 178.021 557.584 178.405 558.16C178.789 558.72 179.317 559.152 179.989 559.456C180.661 559.744 181.421 559.888 182.269 559.888ZM197.943 562.264C196.743 562.264 195.655 562.008 194.679 561.496C193.719 560.968 192.959 560.24 192.399 559.312C191.839 558.368 191.559 557.28 191.559 556.048C191.559 554.784 191.831 553.688 192.375 552.76C192.935 551.832 193.695 551.112 194.655 550.6C195.615 550.072 196.711 549.808 197.943 549.808C199.015 549.808 199.927 549.968 200.679 550.288C201.431 550.608 202.039 551.056 202.503 551.632C202.967 552.192 203.303 552.848 203.511 553.6C203.735 554.352 203.847 555.168 203.847 556.048C203.847 556.752 203.735 557.472 203.511 558.208C203.287 558.928 202.943 559.6 202.479 560.224C202.015 560.832 201.407 561.328 200.655 561.712C199.903 562.08 198.999 562.264 197.943 562.264ZM198.951 559.864C199.895 559.864 200.711 559.704 201.399 559.384C202.087 559.064 202.615 558.616 202.983 558.04C203.351 557.464 203.535 556.8 203.535 556.048C203.535 555.232 203.343 554.544 202.959 553.984C202.591 553.408 202.063 552.968 201.375 552.664C200.703 552.36 199.895 552.208 198.951 552.208C197.623 552.208 196.591 552.56 195.855 553.264C195.119 553.968 194.751 554.896 194.751 556.048C194.751 556.816 194.927 557.488 195.279 558.064C195.631 558.624 196.119 559.064 196.743 559.384C197.383 559.704 198.119 559.864 198.951 559.864ZM203.535 545.272H206.655V562H203.751C203.703 561.632 203.655 561.16 203.607 560.584C203.559 559.992 203.535 559.44 203.535 558.928V545.272ZM220.89 558.04H223.914C223.786 558.856 223.442 559.584 222.882 560.224C222.338 560.864 221.594 561.368 220.65 561.736C219.706 562.104 218.554 562.288 217.194 562.288C215.674 562.288 214.33 562.048 213.162 561.568C211.994 561.072 211.082 560.36 210.426 559.432C209.77 558.504 209.442 557.384 209.442 556.072C209.442 554.76 209.762 553.64 210.402 552.712C211.042 551.768 211.93 551.048 213.066 550.552C214.218 550.056 215.562 549.808 217.098 549.808C218.666 549.808 219.97 550.056 221.01 550.552C222.05 551.048 222.818 551.8 223.314 552.808C223.826 553.8 224.042 555.072 223.962 556.624H212.586C212.666 557.232 212.89 557.784 213.258 558.28C213.642 558.776 214.154 559.168 214.794 559.456C215.45 559.744 216.226 559.888 217.122 559.888C218.114 559.888 218.938 559.72 219.594 559.384C220.266 559.032 220.698 558.584 220.89 558.04ZM216.954 552.184C215.802 552.184 214.866 552.44 214.146 552.952C213.426 553.448 212.962 554.064 212.754 554.8H220.866C220.786 554 220.402 553.368 219.714 552.904C219.042 552.424 218.122 552.184 216.954 552.184Z" fill="black"/>
<defs>
<clipPath id="clip0_216_70">
<rect width="41.45" height="41.45" fill="white" transform="translate(192 73)"/>
</clipPath>
</defs>
</svg>
